<svg width="25" height="25" viewBox="0 0 25 25" fill="none" xmlns="http://www.w3.org/2000/svg">
<g clip-path="url(#clip0_2616_50632)">
<path fill-rule="evenodd" clip-rule="evenodd" d="M9.70313 2.33803C9.70313 1.7463 9.22344 1.2666 8.6317 1.2666C8.03996 1.2666 7.56027 1.7463 7.56027 2.33803V5.0166C7.56027 5.60834 8.03996 6.08803 8.6317 6.08803C9.22344 6.08803 9.70313 5.60834 9.70313 5.0166V2.33803ZM4.72099 3.26047C5.31272 3.26047 5.79242 3.74016 5.79242 4.3319V7.01047C5.79242 7.60219 5.31272 8.0819 4.72099 8.0819C4.12925 8.0819 3.64956 7.60219 3.64956 7.01047V4.3319C3.64956 3.74016 4.12925 3.26047 4.72099 3.26047ZM12.5424 3.26047C13.1342 3.26047 13.6138 3.74016 13.6138 4.3319V7.01047C13.6138 7.60219 13.1342 8.0819 12.5424 8.0819C11.9507 8.0819 11.471 7.60219 11.471 7.01047V4.3319C11.471 3.74016 11.9507 3.26047 12.5424 3.26047ZM22.2418 5.87709C20.8638 5.87709 19.7468 6.99418 19.7468 8.37218C19.7468 8.68214 19.8032 8.97888 19.9066 9.25269L18.0618 10.9582C17.0168 10.4986 15.7508 10.572 14.6122 11.1341C14.2086 11.3694 13.8214 11.6789 13.4694 12.0655C12.0207 13.6566 11.9247 15.7508 12.8726 16.9779C12.9698 17.1038 13.0788 17.2224 13.1999 17.3327C13.55 17.6514 13.5754 18.1934 13.2567 18.5435C12.938 18.8935 12.3958 18.9189 12.0458 18.6002C11.8504 18.4223 11.6737 18.2301 11.516 18.0259C9.95211 16.0015 10.3201 12.978 12.2018 10.9114L12.2487 10.8604C8.69606 9.80623 4.06757 11.0548 2.02595 15.1323C0.451792 18.2764 1.04822 20.8494 1.59269 22.1625C1.97038 23.0735 2.86723 23.4837 3.68642 23.4837H21.3471C22.7672 23.4837 23.9185 22.3324 23.9185 20.9123V20.4035C23.9185 19.2448 23.7282 18.1494 23.1246 17.1627C22.6647 16.4111 21.9983 15.777 21.1033 15.231C20.8362 16.1272 20.3571 16.9898 19.6864 17.7263C19.3678 18.0763 18.8255 18.1017 18.4756 17.783C18.1256 17.4643 18.1002 16.9221 18.4189 16.5721C19.5601 15.3187 19.8596 13.7726 19.479 12.5661L21.3925 10.7972C21.4127 10.7785 21.4321 10.7591 21.4506 10.7392C21.6992 10.8223 21.9652 10.8673 22.2418 10.8673C23.6199 10.8673 24.7369 9.75019 24.7369 8.37218C24.7369 6.99418 23.6199 5.87709 22.2418 5.87709Z" fill="#FD6E00"/>
</g>
<defs>
<clipPath id="clip0_2616_50632">
<rect width="24" height="24" fill="white" transform="translate(0.875 0.375)"/>
</clipPath>
</defs>
</svg>
