<svg width="25" height="25" viewBox="0 0 25 25" fill="none" xmlns="http://www.w3.org/2000/svg">
<g clip-path="url(#clip0_2616_50663)">
<path fill-rule="evenodd" clip-rule="evenodd" d="M2.63898 1.3505C2.88292 1.07718 3.23187 0.920898 3.59823 0.920898H21.6523C22.019 0.920898 22.3684 1.07751 22.6123 1.35134C22.8563 1.62517 22.9717 1.99015 22.9295 2.35446L21.9947 10.4297L21.9942 10.4344L20.7959 20.786C20.6826 21.7645 20.2566 22.6764 19.587 23.389C19.4915 23.4908 19.3909 23.5885 19.2854 23.6818C18.496 24.3804 17.4912 24.7829 16.4424 24.8254C16.3725 24.8281 16.3024 24.8293 16.2321 24.829H8.98563C8.00194 24.8345 7.04663 24.5225 6.25912 23.9453C6.14662 23.8628 6.03754 23.7749 5.9323 23.6818C5.14189 22.9822 4.61975 22.0321 4.45091 20.9947C4.43965 20.9254 4.42997 20.856 4.42187 20.786L4.42162 20.7838L3.24174 10.4322L2.32078 2.35222C2.27929 1.98823 2.39504 1.62382 2.63898 1.3505ZM20.2091 3.49233L19.5715 9.00089H5.66667L5.03881 3.49233H20.2091Z" fill="#FD6E00"/>
</g>
<defs>
<clipPath id="clip0_2616_50663">
<rect width="24" height="24" fill="white" transform="translate(0.625 0.875)"/>
</clipPath>
</defs>
</svg>
