<svg width="108" height="108" viewBox="0 0 108 108" fill="none" xmlns="http://www.w3.org/2000/svg">
<path fill-rule="evenodd" clip-rule="evenodd" d="M55.6461 22.4405C54.7036 21.6157 53.2962 21.6157 52.3536 22.4405L44.627 29.2012C44.2199 29.5574 43.7083 29.772 43.1689 29.8127L32.8929 30.5882C31.6606 30.6812 30.6811 31.6607 30.5881 32.893L29.8126 43.169C29.7719 43.7084 29.5573 44.22 29.2011 44.6271L22.4403 52.3537C21.6156 53.2963 21.6156 54.7037 22.4403 55.6462L29.2011 63.3728C29.5573 63.7799 29.7719 64.2916 29.8126 64.831L30.5881 75.107C30.6811 76.3393 31.6606 77.3187 32.8929 77.4117L43.1689 78.1873C43.7083 78.228 44.2199 78.4425 44.627 78.7987L52.3536 85.5595C53.2962 86.3842 54.7036 86.3842 55.6461 85.5595L63.3727 78.7987C63.7798 78.4425 64.2914 78.228 64.8308 78.1873L75.1068 77.4117C76.3391 77.3187 77.3186 76.3393 77.4116 75.107L78.1871 64.831C78.2279 64.2916 78.4424 63.7799 78.7986 63.3728L85.5594 55.6462C86.3841 54.7037 86.3841 53.2963 85.5594 52.3537L78.7986 44.6271C78.4424 44.22 78.2279 43.7084 78.1871 43.169L77.4116 32.893C77.3186 31.6607 76.3391 30.6812 75.1068 30.5882L64.8308 29.8127C64.2914 29.772 63.7798 29.5574 63.3727 29.2012L55.6461 22.4405ZM42.0009 42.096C41.5152 41.6346 40.7368 41.6346 40.251 42.096C39.7653 42.5574 39.7653 43.3757 40.251 43.837L44.0007 47.3191C39.7971 50.2585 37.0013 54.9141 37.0013 60.2525C37.0013 60.2932 37.001 60.3436 37.0007 60.3978C36.9999 60.5193 36.999 60.6595 37.0013 60.75H70.9984C71.0007 60.6595 70.9998 60.5193 70.999 60.3978C70.9987 60.3436 70.9984 60.2932 70.9984 60.2525C70.9984 54.9141 68.2026 50.2585 63.999 47.3191L67.7487 43.837C68.2344 43.3757 68.2344 42.5574 67.7487 42.096C67.2629 41.6346 66.4846 41.6346 65.9988 42.096L61.9992 46.0755C59.6379 44.8954 56.8534 44.3345 53.9999 44.3345C51.1463 44.3345 48.3618 44.8954 46.0005 46.0755L42.0009 42.096ZM49.0003 53.7858C49.0003 54.6558 48.1663 55.2781 47.2504 55.2781C46.3345 55.2781 45.7506 54.6558 45.7506 53.7858C45.7506 52.9159 46.3345 52.0448 47.2504 52.0448C48.1663 52.0448 49.0003 52.9159 49.0003 53.7858ZM60.7493 55.2781C61.6652 55.2781 62.2491 54.6558 62.2491 53.7858C62.2491 52.9159 61.6652 52.0448 60.7493 52.0448C59.8334 52.0448 58.9994 52.9159 58.9994 53.7858C58.9994 54.6558 59.8334 55.2781 60.7493 55.2781Z" fill="#005320"/>
</svg>
