<svg width="32" height="32" viewBox="0 0 32 32" fill="none" xmlns="http://www.w3.org/2000/svg">
<path fill-rule="evenodd" clip-rule="evenodd" d="M19.8721 23.2154C19.8749 23.1646 19.8778 23.0831 19.8804 22.9715V20.8314L19.8735 20.6238C19.8718 20.5796 19.8696 20.5496 19.8675 20.5339C19.8652 20.5173 19.8616 20.5029 19.8567 20.4897C19.8407 20.4369 19.8051 20.3997 19.7517 20.3773C19.7025 20.3566 19.6297 20.3466 19.5352 20.3458V20.273H20.7573C20.9349 20.2733 21.0955 20.2848 21.2388 20.3079C21.3819 20.3309 21.4972 20.3626 21.5854 20.4029C21.8409 20.524 21.9671 20.728 21.9657 21.0181C21.9687 21.4328 21.6959 21.6977 21.1313 21.7659L21.0367 21.7811C21.1636 21.7857 21.3354 21.8281 21.4153 21.8465C21.4946 21.8648 21.5723 21.8939 21.6485 21.9336C21.9482 22.0842 22.0958 22.3249 22.0929 22.6578C22.0944 23.0622 21.8972 23.3251 21.497 23.4493C21.4096 23.4742 21.3 23.4939 21.1675 23.5083C21.0345 23.5226 20.8901 23.53 20.7345 23.5303H19.5352V23.4573C19.6763 23.4556 19.7734 23.4341 19.8164 23.3834C19.8344 23.3662 19.8472 23.3473 19.8556 23.3256C19.8642 23.3035 19.8693 23.266 19.8721 23.2154ZM20.2486 20.373V21.7312H20.7254C21.28 21.728 21.5672 21.4976 21.5703 21.0363C21.5742 20.5885 21.2714 20.37 20.6845 20.373H20.2486ZM21.6657 22.6215C21.6627 22.3049 21.5481 22.0811 21.3199 21.956C21.2506 21.9206 21.1626 21.8933 21.0568 21.8741C20.9512 21.855 20.8347 21.8453 20.7073 21.8448H20.2486V23.4301H20.7073C21.0396 23.4316 21.2825 23.3696 21.4321 23.2395C21.508 23.1772 21.5655 23.0925 21.6056 22.9863C21.6454 22.8801 21.6653 22.7582 21.6657 22.6215Z" fill="#3A3A3A"/>
<path d="M23.8425 23.4367C23.8178 23.3876 23.8004 23.3293 23.7928 23.1801L23.7907 23.1359L23.7613 23.169C23.7263 23.2086 23.692 23.2427 23.6584 23.2718C23.6247 23.3012 23.5856 23.3313 23.5418 23.3617C23.4453 23.4325 23.3523 23.4824 23.2632 23.5115C23.1741 23.5404 23.0735 23.5546 22.9616 23.5537C22.7668 23.5544 22.6172 23.5083 22.5102 23.4173C22.4503 23.3634 22.4034 23.2959 22.369 23.2138C22.3347 23.1319 22.3172 23.0439 22.3164 22.9494C22.3187 22.6009 22.5327 22.376 22.9703 22.2764C23.086 22.2496 23.2084 22.2276 23.3371 22.2104C23.4662 22.1932 23.6124 22.179 23.776 22.1679L23.7928 21.8639C23.7931 21.76 23.788 21.6758 23.7779 21.6116C23.7677 21.5467 23.751 21.49 23.7274 21.4422C23.6624 21.3157 23.5301 21.255 23.3388 21.255C23.0318 21.2535 22.8654 21.3995 22.8482 21.6901C22.8464 21.7363 22.842 21.7688 22.836 21.7885C22.8302 21.807 22.8202 21.8207 22.806 21.8307C22.7756 21.8511 22.7269 21.863 22.657 21.8638C22.5067 21.8661 22.4503 21.8213 22.4528 21.746C22.4537 21.6672 22.4799 21.591 22.5324 21.5176C22.5848 21.4439 22.658 21.3798 22.7525 21.3252C22.9224 21.231 23.14 21.183 23.4069 21.1822C23.6989 21.183 23.8947 21.2492 24.0017 21.3755C24.0449 21.4288 24.0771 21.4945 24.098 21.5741C24.1188 21.6537 24.1294 21.7545 24.1293 21.8772L24.1288 21.9032L24.1265 22.022L24.1202 22.3358L24.1156 22.7674L24.1111 22.9765C24.1114 23.0748 24.1156 23.1498 24.1224 23.2337C24.1291 23.3154 24.1584 23.4065 24.2238 23.4307C24.292 23.4559 24.3576 23.4659 24.4824 23.4667C24.5741 23.4649 24.6448 23.4544 24.6926 23.4341C24.7473 23.4108 24.7808 23.3616 24.7953 23.2917C24.8095 23.2235 24.8156 23.1198 24.8141 22.9808V21.7626C24.8172 21.5969 24.7979 21.4802 24.7507 21.4192C24.7045 21.3597 24.6186 21.334 24.5005 21.3352V21.2706L25.1504 21.2231V21.7408L25.1843 21.6804C25.2805 21.5091 25.3896 21.388 25.511 21.3152C25.6325 21.2424 25.7847 21.2064 25.968 21.2082C26.2436 21.2045 26.4355 21.2969 26.5479 21.4814C26.589 21.5431 26.619 21.6176 26.6368 21.7048C26.6547 21.792 26.6636 21.9036 26.6631 22.0395V22.9808C26.6615 23.1211 26.6673 23.2257 26.6808 23.2935C26.6947 23.3634 26.7279 23.4125 26.7827 23.4351C26.828 23.4538 26.9336 23.4639 27.0236 23.4664C27.108 23.4638 27.1732 23.4535 27.2179 23.4339C27.2711 23.4107 27.3033 23.3613 27.317 23.2914C27.3302 23.2235 27.3359 23.1196 27.3342 22.9808V20.7677C27.3359 20.6409 27.3307 20.5468 27.3179 20.4862C27.3047 20.4229 27.2721 20.3794 27.2186 20.3606C27.1723 20.3443 27.1029 20.3366 27.0118 20.3363V20.2715L27.6876 20.237C27.6792 20.387 27.6727 20.5405 27.6684 20.6974C27.6638 20.8611 27.6616 21.0041 27.6616 21.1265V22.6132L28.4063 21.7973C28.5116 21.6806 28.5691 21.5826 28.5699 21.5041C28.5753 21.3948 28.4649 21.3454 28.2838 21.3363V21.2718H29.2515V21.3374C29.1933 21.3441 29.1427 21.3547 29.0997 21.3695C29.0529 21.3854 29.0049 21.4085 28.956 21.438C28.9062 21.468 28.8647 21.4956 28.831 21.5207C28.7966 21.5464 28.7562 21.5829 28.7095 21.6303C28.6629 21.6775 28.5955 21.7492 28.5068 21.8456L28.261 22.1102L28.9044 23.1222C28.9778 23.2421 29.0454 23.3269 29.1074 23.3751C29.1667 23.421 29.2422 23.4505 29.3332 23.4645V23.5307H28.7448C28.7286 23.4978 28.7064 23.4552 28.6781 23.4028L28.5845 23.2321L28.513 23.1036L28.0367 22.3275L27.6626 22.7462L27.6616 22.9808C27.6599 23.1196 27.6656 23.2235 27.679 23.2915C27.6929 23.3614 27.7255 23.4108 27.7795 23.4341C27.8268 23.4542 27.8971 23.4649 27.9886 23.4667V23.5307H25.9997V23.4665C26.1344 23.4629 26.2269 23.4408 26.264 23.3917C26.279 23.3727 26.2902 23.351 26.298 23.3266C26.306 23.3022 26.3108 23.2706 26.3131 23.2321C26.3157 23.2017 26.3185 23.1578 26.3216 23.1001C26.3248 23.0422 26.3265 23.0023 26.3268 22.9811V22.0669C26.3276 21.8414 26.3034 21.6746 26.2523 21.5685C26.1749 21.4017 26.0348 21.3181 25.8363 21.3173C25.6149 21.3166 25.4384 21.422 25.3076 21.6303C25.2583 21.7089 25.2201 21.7985 25.1926 21.8984C25.1649 21.9986 25.1509 22.0971 25.1504 22.1941V22.9808C25.1487 23.1211 25.1546 23.2257 25.1681 23.2935C25.182 23.3634 25.2151 23.4125 25.2698 23.4351C25.3177 23.4549 25.389 23.465 25.482 23.4667V23.5307L24.5038 23.5306C24.417 23.5335 24.2518 23.538 24.1699 23.5369C24.084 23.5357 24.0426 23.5266 23.9643 23.5207C23.8947 23.5004 23.8655 23.4822 23.8425 23.4367ZM22.6892 22.9358C22.6909 23.0839 22.7269 23.2043 22.7988 23.2951C22.8708 23.3864 22.9684 23.4331 23.0888 23.4355C23.2104 23.4338 23.3254 23.4021 23.433 23.3405C23.5402 23.2789 23.6247 23.1969 23.686 23.0948C23.7234 23.0297 23.7506 22.946 23.7677 22.8446C23.7847 22.7436 23.7931 22.618 23.7928 22.4679V22.2347C23.575 22.2535 23.4193 22.274 23.306 22.298C23.1919 22.3221 23.0912 22.3566 23.0035 22.4017C22.7953 22.5052 22.6907 22.6845 22.6892 22.9358Z" fill="#3A3A3A"/>
<path fill-rule="evenodd" clip-rule="evenodd" d="M3.55199 22.159V22.9694C3.55029 23.0995 3.55768 23.196 3.57431 23.259C3.59108 23.3221 3.6271 23.3636 3.68267 23.3839C3.73823 23.4044 3.8235 23.4158 3.93848 23.4181V23.5312H2.66602V23.4181C2.77453 23.4158 2.85472 23.4044 2.90675 23.3839C2.95877 23.3636 2.99248 23.3221 3.00787 23.259C3.02327 23.196 3.03004 23.0995 3.02835 22.9694V20.8392C3.03004 20.7091 3.02327 20.6124 3.00849 20.5493C2.99356 20.4862 2.96124 20.4442 2.91152 20.4233C2.86165 20.4022 2.7853 20.3899 2.68202 20.386V20.2727H3.89431C4.30297 20.271 4.60219 20.3432 4.79244 20.489C4.98253 20.6349 5.07642 20.8649 5.07427 21.1789C5.0755 21.6203 4.90372 21.9092 4.55879 22.0458C4.46874 22.081 4.35392 22.1086 4.21446 22.1286C4.07501 22.1484 3.92001 22.1586 3.74931 22.159H3.55199ZM3.55199 22.0327H3.76147C4.01313 22.0319 4.1983 21.9723 4.31713 21.8541C4.38178 21.7856 4.43072 21.696 4.46412 21.5851C4.49753 21.4742 4.5143 21.3476 4.51446 21.205C4.51307 20.6685 4.27819 20.3999 3.80965 20.3991H3.55199V22.0327Z" fill="#3A3A3A"/>
<path fill-rule="evenodd" clip-rule="evenodd" d="M7.12226 22.2952H5.64154C5.64323 22.4532 5.65247 22.5857 5.6694 22.6927C5.68618 22.7995 5.71327 22.8972 5.75052 22.9857C5.8735 23.2723 6.06344 23.4155 6.32049 23.4155C6.4661 23.4147 6.59816 23.3719 6.71653 23.287C6.83505 23.202 6.9334 23.0799 7.01206 22.9205L7.11688 22.99C7.01375 23.1952 6.88784 23.3459 6.73915 23.4421C6.59047 23.5383 6.40899 23.5859 6.19473 23.5849C5.85765 23.5806 5.5478 23.4729 5.35355 23.262C5.15946 23.051 5.06049 22.7619 5.05664 22.3951C5.06049 22.0256 5.15623 21.7333 5.3437 21.5179C5.53103 21.3028 5.8304 21.1927 6.15287 21.1879C6.36743 21.1885 6.57446 21.2373 6.72145 21.3345C6.86845 21.4317 6.97681 21.574 7.04684 21.7611C7.06962 21.8233 7.08686 21.8944 7.09871 21.9745C7.11041 22.0545 7.11826 22.1615 7.12226 22.2952ZM5.6457 22.1693H6.572C6.5683 22.0354 6.56107 21.9275 6.55045 21.8458C6.53998 21.7641 6.52336 21.6909 6.50073 21.6266C6.42254 21.3985 6.30233 21.2857 6.1404 21.2878C5.95877 21.2894 5.82317 21.4167 5.73374 21.67C5.71096 21.7356 5.69264 21.8075 5.67879 21.8855C5.66494 21.9635 5.65386 22.0582 5.6457 22.1693Z" fill="#3A3A3A"/>
<path d="M7.21856 21.2506L8.03989 21.1938C8.0442 21.2757 8.04758 21.3446 8.04974 21.4002C8.05189 21.4559 8.05297 21.5052 8.05297 21.5477V21.6788C8.23137 21.3526 8.44686 21.188 8.6996 21.185C8.80873 21.1872 8.89738 21.219 8.96557 21.2806C9.0336 21.3422 9.06885 21.4211 9.07085 21.5172C9.06931 21.5971 9.03976 21.6611 8.98235 21.7093C8.92509 21.7576 8.84982 21.7824 8.75639 21.7836C8.64418 21.7872 8.57584 21.7407 8.55106 21.6439C8.5349 21.584 8.51812 21.5432 8.50073 21.5215C8.48349 21.4998 8.45794 21.4896 8.42438 21.4909H8.41561C8.32972 21.4983 8.24814 21.5666 8.17103 21.6962C8.13609 21.761 8.10977 21.8324 8.09222 21.9109C8.07483 21.9893 8.06606 22.0793 8.06606 22.1812V22.9894C8.06436 23.1184 8.07067 23.2136 8.08483 23.2747C8.09899 23.3358 8.13116 23.3758 8.18134 23.3947C8.23137 23.4135 8.30956 23.4241 8.41561 23.4263V23.5312H7.20117V23.4263C7.30014 23.4267 7.37341 23.4172 7.42113 23.3975C7.46884 23.3779 7.49978 23.337 7.51409 23.2747C7.52825 23.2122 7.53457 23.1172 7.53318 22.9894V21.7792C7.53718 21.5991 7.51917 21.4821 7.479 21.4281C7.43898 21.374 7.35201 21.3499 7.21856 21.3554V21.2506Z" fill="#3A3A3A"/>
<path d="M10.0463 21.194L10.0507 21.6265C10.2276 21.3353 10.4809 21.1881 10.8108 21.1852C11.1465 21.183 11.3532 21.3359 11.4311 21.644C11.5261 21.4853 11.6344 21.369 11.756 21.2949C11.8778 21.221 12.0199 21.1844 12.1825 21.1852C12.4396 21.1867 12.6289 21.2711 12.7505 21.4385C12.7981 21.502 12.8318 21.5795 12.8521 21.6713C12.8723 21.763 12.8821 21.882 12.8815 22.0284V22.9894C12.8801 23.1172 12.8864 23.2122 12.9006 23.2745C12.9149 23.337 12.9458 23.3779 12.9936 23.3975C13.0413 23.4172 13.1145 23.4267 13.2137 23.4263V23.5312H12.0297V23.4263C12.1244 23.4267 12.1946 23.4172 12.2404 23.3975C12.2863 23.3779 12.3162 23.337 12.33 23.2745C12.3439 23.2122 12.35 23.1172 12.3486 22.9894V22.0327C12.3496 21.8032 12.3214 21.6376 12.264 21.5358C12.2064 21.4341 12.1139 21.3842 11.986 21.3862C11.8324 21.3833 11.7028 21.4633 11.5972 21.6265C11.5062 21.7627 11.461 21.9097 11.4617 22.0678V22.9894C11.4603 23.1172 11.4665 23.2122 11.4805 23.2745C11.4944 23.337 11.5247 23.3779 11.5712 23.3975C11.6177 23.4172 11.6889 23.4267 11.785 23.4263V23.5312H10.6142V23.4263C10.7089 23.4267 10.7792 23.4172 10.825 23.3975C10.8708 23.3779 10.9007 23.337 10.9145 23.2745C10.9284 23.2122 10.9346 23.1172 10.9332 22.9894V22.0284C10.9353 21.5958 10.8174 21.3817 10.5793 21.3862C10.4311 21.3914 10.3069 21.4618 10.2068 21.5969C10.1068 21.7322 10.0547 21.9008 10.0507 22.1027V22.9894C10.0494 23.1186 10.0555 23.2143 10.0694 23.2765C10.0831 23.3388 10.1129 23.3795 10.1588 23.3986C10.2047 23.4177 10.2748 23.4269 10.3695 23.4263V23.5312H9.18555V23.4263C9.28467 23.4269 9.35794 23.4177 9.40565 23.3986C9.45337 23.3795 9.48446 23.3388 9.49862 23.2765C9.51278 23.2143 9.51909 23.1186 9.51771 22.9894V21.775C9.52217 21.5972 9.50447 21.4821 9.46414 21.4293C9.42397 21.3767 9.33408 21.352 9.19447 21.3556V21.2508L10.0463 21.194Z" fill="#3A3A3A"/>
<path d="M16.3192 21.3934V22.8526C16.319 22.9476 16.3226 23.0262 16.3295 23.0884C16.3366 23.1506 16.3477 23.2031 16.3629 23.2457C16.3814 23.2945 16.4098 23.3335 16.4486 23.3626C16.4873 23.3916 16.5301 23.4067 16.5768 23.4073C16.6701 23.406 16.772 23.3609 16.8827 23.2719L16.9438 23.3812C16.7685 23.5282 16.5688 23.601 16.3454 23.5996C16.1043 23.5959 15.9398 23.5159 15.8517 23.3593C15.8345 23.3247 15.8209 23.2851 15.8114 23.2408C15.8019 23.1965 15.7952 23.1366 15.7915 23.0613C15.7878 22.9859 15.786 22.8842 15.7862 22.7564V21.3934H15.5371V21.2624C15.6322 21.2588 15.7129 21.2387 15.7791 21.2023C15.8453 21.1658 15.903 21.1087 15.9522 21.0308C15.9909 20.9715 16.0227 20.9055 16.0478 20.8332C16.0728 20.7607 16.0948 20.6708 16.1139 20.5633L16.3323 20.5415C16.3293 20.5994 16.3269 20.658 16.325 20.7174C16.323 20.7768 16.3216 20.8484 16.3207 20.9321C16.3196 21.0157 16.3192 21.123 16.3192 21.2535H16.8478V21.3934H16.3192Z" fill="#3A3A3A"/>
<path fill-rule="evenodd" clip-rule="evenodd" d="M15.5353 23.4389V23.5313C15.4074 23.5397 15.3558 23.5396 15.2215 23.5397C15.1148 23.5399 15.0044 23.538 14.9129 23.5035C14.8562 23.4823 14.8245 23.4641 14.7823 23.4195C14.7528 23.3727 14.734 23.3703 14.7245 23.2399C14.6118 23.3616 14.4943 23.4512 14.3724 23.5085C14.2504 23.5659 14.1186 23.5942 13.9775 23.5937C13.7678 23.5914 13.6039 23.5336 13.4855 23.42C13.367 23.3064 13.3068 23.1503 13.3047 22.9514C13.3039 22.5765 13.5371 22.3434 14.0038 22.2525C14.2142 22.2117 14.4529 22.1841 14.7202 22.1695V21.8855C14.7225 21.658 14.6983 21.5003 14.6481 21.4127C14.5979 21.3249 14.5084 21.2831 14.3794 21.2871C14.2425 21.2842 14.1449 21.3336 14.0868 21.4356C14.0655 21.4706 14.0501 21.5109 14.0403 21.5563C14.0306 21.6017 14.0227 21.6648 14.0169 21.7458C14.0133 21.8235 13.9907 21.8788 13.9492 21.9117C13.9074 21.9446 13.8411 21.9606 13.7503 21.9599C13.5479 21.9583 13.446 21.8914 13.4445 21.7588C13.4452 21.6816 13.4691 21.6079 13.5162 21.5377C13.5631 21.4675 13.6296 21.4058 13.7155 21.3525C13.8974 21.2404 14.1362 21.1852 14.4319 21.1866C14.7326 21.1852 14.9481 21.2448 15.0785 21.3657C15.1371 21.421 15.1802 21.4916 15.2078 21.5775C15.2355 21.6634 15.249 21.7733 15.2489 21.9074L15.2444 22.2874L15.2401 22.6674C15.2364 22.792 15.235 22.8706 15.2356 22.9034C15.2341 23.0609 15.2392 23.176 15.2506 23.2485C15.262 23.3211 15.2746 23.353 15.3223 23.3924C15.4057 23.4401 15.4771 23.4387 15.5353 23.4389ZM14.7202 22.6063V22.27C14.4074 22.2913 14.1856 22.3491 14.0546 22.4436C13.9236 22.5382 13.86 22.6856 13.8639 22.886C13.8653 23.0432 13.8976 23.1678 13.9605 23.26C14.0237 23.3522 14.1094 23.3993 14.2178 23.4015C14.3067 23.4006 14.3888 23.375 14.464 23.3244C14.5393 23.274 14.5986 23.2036 14.6415 23.1132C14.6697 23.0578 14.6898 22.9904 14.7021 22.9105C14.7145 22.8306 14.7205 22.7293 14.7202 22.6063Z" fill="#3A3A3A"/>
<path fill-rule="evenodd" clip-rule="evenodd" d="M19.297 23.4386V23.5309C19.1691 23.5394 19.1176 23.5396 18.9832 23.5397C18.8765 23.5399 18.7662 23.538 18.6746 23.5035C18.6179 23.4823 18.5862 23.4641 18.5441 23.4195C18.5145 23.3727 18.4957 23.3703 18.4862 23.2399C18.3735 23.3616 18.2561 23.4512 18.134 23.5085C18.0121 23.5659 17.8803 23.5942 17.7392 23.5937C17.5296 23.5914 17.3656 23.5336 17.2473 23.42C17.1287 23.3064 17.0686 23.1503 17.0664 22.9514C17.0656 22.5765 17.2987 22.3434 17.7655 22.2525C17.9759 22.2117 18.2147 22.1841 18.4819 22.1695V21.8855C18.4842 21.658 18.46 21.5003 18.4098 21.4127C18.3595 21.3249 18.2699 21.2831 18.1411 21.2871C18.0043 21.2842 17.9067 21.3336 17.8485 21.4356C17.8272 21.4706 17.8117 21.5109 17.802 21.5563C17.7923 21.6017 17.7845 21.6648 17.7786 21.7458C17.7751 21.8235 17.7524 21.8788 17.7109 21.9118C17.6692 21.9446 17.6028 21.9606 17.512 21.9599C17.3096 21.9583 17.2077 21.8914 17.2062 21.7588C17.2069 21.6816 17.2308 21.6079 17.2779 21.5377C17.3248 21.4675 17.3913 21.4058 17.4771 21.3525C17.6592 21.2404 17.8979 21.1852 18.1936 21.1866C18.4943 21.1852 18.7098 21.2448 18.8402 21.3657C18.8988 21.421 18.9419 21.4916 18.9695 21.5775C18.9972 21.6634 19.0107 21.7733 19.0106 21.9074L19.0061 22.2874L19.0018 22.6674C18.9981 22.792 18.9967 22.8706 18.9974 22.9034C18.9958 23.0609 19.0009 23.176 19.0123 23.2487C19.0237 23.3212 19.0363 23.353 19.084 23.3924C19.1674 23.4401 19.2389 23.4384 19.297 23.4386ZM18.4819 22.6063V22.27C18.1691 22.2913 17.9471 22.3491 17.8163 22.4436C17.6853 22.5382 17.6218 22.6856 17.6256 22.886C17.627 23.0432 17.6593 23.1678 17.7223 23.26C17.7854 23.3522 17.8711 23.3993 17.9795 23.4015C18.0684 23.4006 18.1505 23.375 18.2257 23.3244C18.301 23.2739 18.3601 23.2036 18.4032 23.113C18.4314 23.0579 18.4515 22.9904 18.4639 22.9105C18.4762 22.8308 18.4822 22.7293 18.4819 22.6063Z" fill="#3A3A3A"/>
<path d="M11.4618 12.6022L11.4512 12.8089L15.417 17.4611L15.5594 17.4844L15.5774 17.4755L15.6469 17.3465L13.9557 11.6855L13.6687 11.492L11.4618 12.6022Z" fill="#0097B9"/>
<path d="M17.8279 11.3796L20.3922 12.5586L20.3969 12.8912L16.1886 19.2657L15.9965 19.3164L15.9681 19.3034L15.9082 19.1596L17.6044 11.5039L17.8279 11.3796Z" fill="#80B13A"/>
<path d="M13.9102 9.56616L14.0123 9.36951L17.2953 9.33396L17.5075 9.55425L15.9346 14.8093L15.8349 14.8672L15.8317 14.867L15.7239 14.7944L13.9102 9.56616Z" fill="#D81936"/>
<path fill-rule="evenodd" clip-rule="evenodd" d="M12.6355 13.0352L15.5684 17.4971L15.4124 17.4715L11.4414 12.8072L12.6355 13.0352Z" fill="#005874"/>
<path d="M13.6733 11.4876L13.9593 11.6818L13.0708 12.8633L12.6582 12.6829L13.6733 11.4876Z" fill="#2FB8E7"/>
<path d="M12.6584 12.6823L12.6353 13.0352L11.4414 12.8071L11.4539 12.6019L12.6584 12.6823Z" fill="#007592"/>
<path d="M13.0703 12.8632L13.9607 11.6799L15.6734 17.3456L15.5862 17.4922L13.0703 12.8632Z" fill="#007592"/>
<path d="M20.4062 12.8909L16.2013 19.2792L15.9863 19.3418L18.689 13.0371L20.4062 12.8909Z" fill="#6E9123"/>
<path d="M18.2042 12.771L15.9616 19.3223L15.8984 19.1615L17.6012 11.498L18.2042 12.771Z" fill="#3F7937"/>
<path d="M20.399 12.5589L20.4058 12.8908L18.6886 13.0371L18.5918 12.5823L20.399 12.5589Z" fill="#A5C550"/>
<path d="M18.5924 12.5825L18.2048 12.7705L17.6016 11.4973L17.8232 11.3724L18.5924 12.5825Z" fill="#5D8B27"/>
<path d="M15.418 9.91974L15.1814 10.1992L13.8984 9.56027L14.0021 9.36589L15.418 9.91974Z" fill="#AF2C35"/>
<path d="M13.8984 9.56027L15.1816 10.1992L15.8321 14.8779L15.7183 14.8004L13.8984 9.56027Z" fill="#762624"/>
<path d="M15.7988 10.2L17.5128 9.55214L15.9422 14.8167L15.8344 14.8779L15.7988 10.2Z" fill="#B22B37"/>
<path d="M15.418 9.91996L15.7984 10.2002L17.5125 9.55236L17.2979 9.33321L15.418 9.91996Z" fill="#DC505E"/>
</svg>
