<svg width="253" height="182" viewBox="0 0 253 182" fill="none" xmlns="http://www.w3.org/2000/svg">
<path d="M251.64 90.7196C251.64 52.5457 220.694 21.5996 182.52 21.5996H70.2001C32.0262 21.5996 1.08014 52.5457 1.08014 90.7196V112.32C1.08014 150.494 32.0262 181.44 70.2001 181.44H182.52C220.694 181.44 251.64 150.494 251.64 112.32V90.7196Z" fill="#EEEEEF"/>
<mask id="mask0_3946_15770" style="mask-type:alpha" maskUnits="userSpaceOnUse" x="1" y="0" width="251" height="182">
<path d="M251.64 69.12C251.64 30.9461 220.694 0 182.52 0H70.2001C32.0262 0 1.08012 30.9461 1.08012 69.12V112.32C1.08012 150.494 32.0262 181.44 70.2001 181.44H182.52C220.694 181.44 251.64 150.494 251.64 112.32V69.12Z" fill="#23BA3B"/>
</mask>
<g mask="url(#mask0_3946_15770)">
<path d="M63.5643 136.019L97.6571 123.298C98.9094 122.83 100.208 122.499 101.532 122.31L140.956 116.678C144.304 116.2 147.719 116.643 150.835 117.96L203.414 140.184C207.983 142.115 211.593 145.792 213.441 150.396L240.538 217.918C245.529 230.352 236.141 243.828 222.748 243.456L205.405 242.974C204.073 242.937 202.869 242.17 202.274 240.978L201.807 240.045C200.314 237.058 195.841 237.902 195.539 241.227C195.383 242.935 193.951 244.243 192.236 244.243H48.3404C36.0032 244.243 27.0796 232.459 30.4247 220.584L37.055 197.046L52.2947 147.941C54.0029 142.436 58.1646 138.034 63.5643 136.019Z" fill="white"/>
<path d="M172.238 127.007L146.073 115.947L99.5411 122.595L86.2911 127.539C103.62 146.964 135.087 162.854 172.238 127.007Z" fill="#AEAEAE"/>
<path d="M104.859 117.942C105.923 115.815 104.416 107.306 103.53 103.317C96.0844 95.8723 90.6778 77.614 88.9051 69.4154L83.5872 46.1493L96.8821 28.8659L123.472 28.2012C131.67 36.1781 149.264 52.6638 154.05 54.791C160.033 57.45 160.033 64.7622 158.039 72.0744C156.443 77.9242 152.056 80.2729 150.062 80.7161L147.403 91.352C148.068 98.8858 149.663 114.352 150.727 115.948C151.79 117.543 158.703 121.487 162.027 123.26C131.715 151.977 105.081 135.668 95.5526 123.925C98.2116 122.817 103.795 120.069 104.859 117.942Z" fill="#D4D4D4"/>
<path d="M147.41 91.4258C148.078 98.9867 149.667 114.356 150.727 115.946C151.79 117.542 158.704 121.486 162.027 123.259C158.543 126.56 155.107 129.266 151.74 131.453C134.7 125.002 114.616 116.154 104.425 107.927C104.264 106.973 104.093 106.052 103.927 105.214C110.629 108.459 120.739 110.416 130.119 107.969C138.342 105.824 143.621 98.4516 147.41 91.4258Z" fill="#999999"/>
<path d="M151.391 63.4316C153.164 64.5396 156.045 67.5531 153.386 70.7438" stroke="#232323" stroke-width="2.65898" stroke-linecap="round"/>
<path d="M88.2404 64.7617C91.3426 79.3861 98.2116 108.369 116.825 109.964" stroke="#232323" stroke-width="2.65898" stroke-linecap="round"/>
<path d="M90.2346 65.4263V73.4033C79.5986 54.7904 79.5987 45.2624 80.9282 42.825L79.5987 40.8307C89.7028 8.92294 118.376 12.0251 131.449 17.5646C150.062 18.0964 155.158 43.0466 155.38 55.4552C150.594 53.328 148.068 59.4436 147.403 62.7674C146.871 56.3858 136.988 44.1545 132.114 38.8365L118.819 34.1833C110.31 46.4146 96.6605 48.5861 90.8993 48.143C86.1132 51.3337 88.4619 60.9947 90.2346 65.4263Z" fill="#232323"/>
<path d="M109.512 64.0977C109.956 68.7509 110.576 78.5891 109.512 80.7163C108.183 83.3753 112.836 84.7048 116.825 83.3753" stroke="#232323" stroke-width="2.12719" stroke-linecap="round"/>
<path d="M94.4046 56.4718C100.496 52.4013 103.168 54.4533 104.123 55.9136C104.467 56.4383 104.147 57.0466 103.562 57.272L101.499 58.0671C97.6567 59.5475 94.1291 61.7407 91.1017 64.5312C90.7088 64.8934 90.0827 64.8836 89.8223 64.4169C88.9308 62.8193 89.0637 60.041 94.4046 56.4718Z" fill="#232323"/>
<path d="M121.49 49.3516C126.393 49.2907 129.97 51.0622 132.406 52.8934C133.475 53.6972 132.573 55.2367 131.258 54.9927C121.353 53.1551 114.113 55.3237 113.08 54.5408C111.895 53.6429 111.322 49.4779 121.49 49.3516Z" fill="#232323"/>
<mask id="mask1_3946_15770" style="mask-type:alpha" maskUnits="userSpaceOnUse" x="90" y="64" width="21" height="12">
<path d="M106.189 64.0977C96.9378 64.0977 92.1818 68.1838 90.5942 70.7445C90.3464 71.1442 90.4049 71.6619 90.696 72.0313C100.159 84.0406 118.614 64.0977 106.189 64.0977Z" fill="black"/>
</mask>
<g mask="url(#mask1_3946_15770)">
<circle cx="99.8756" cy="68.4206" r="5.98271" transform="rotate(-19.6555 99.8756 68.4206)" fill="white"/>
<circle cx="98.8763" cy="70.0803" r="3.98848" fill="#232323"/>
</g>
<mask id="mask2_3946_15770" style="mask-type:alpha" maskUnits="userSpaceOnUse" x="115" y="58" width="20" height="12">
<path d="M130.784 58.1777C121.533 58.1777 116.777 62.2639 115.19 64.8246C114.942 65.2243 115 65.742 115.292 66.1114C124.755 78.1207 143.209 58.1777 130.784 58.1777Z" fill="black"/>
</mask>
<g mask="url(#mask2_3946_15770)">
<circle cx="124.471" cy="62.5006" r="5.98271" transform="rotate(-19.6555 124.471 62.5006)" fill="white"/>
<circle cx="123.472" cy="64.1604" r="3.98848" fill="#232323"/>
</g>
<path d="M163.154 42.7201L171.067 30.9159" stroke="white" stroke-width="2.25969" stroke-linecap="round"/>
<path d="M167.337 48.3516L178.89 40.0524" stroke="white" stroke-width="2.25969" stroke-linecap="round"/>
<path d="M171.144 54.6108L185.154 52.0332" stroke="white" stroke-width="2.25969" stroke-linecap="round"/>
<path d="M92.2289 68.0846C94.2232 66.5335 99.807 63.5643 106.189 64.0961" stroke="#232323" stroke-width="2.12719" stroke-linecap="round"/>
<path d="M116.824 62.1647C118.819 60.6136 124.403 57.6444 130.784 58.1762" stroke="#232323" stroke-width="2.12719" stroke-linecap="round"/>
<ellipse cx="127.891" cy="76.349" rx="6.04492" ry="2.42751" transform="rotate(-11.7826 127.891 76.349)" fill="#B2B2B2"/>
<ellipse cx="101.301" cy="81.6674" rx="6.04492" ry="2.42751" transform="rotate(-11.7826 101.301 81.6674)" fill="#B2B2B2"/>
<ellipse cx="123.619" cy="93.3377" rx="7.20111" ry="2.23846" transform="rotate(-8.82443 123.619 93.3377)" fill="#232323"/>
<path d="M78.4565 180.663L60.1945 142.568C59.8172 141.781 59.0614 141.244 58.1942 141.146L41.3359 139.246C39.8214 139.075 38.5002 140.271 38.5196 141.795L39.1888 194.421C39.211 196.168 40.9532 197.368 42.5934 196.767L77.0444 184.136C78.4474 183.622 79.1025 182.011 78.4565 180.663Z" fill="white"/>
<path d="M40.7835 88.1735C40.5298 90.4247 48.8949 100.487 53.1092 105.236L55.7523 107.727C56.6163 108.541 57.9298 108.646 58.912 107.979L87.5253 88.5551C88.6872 87.7664 88.9856 86.183 88.1905 85.0255L75.124 66.0022C74.3439 64.8664 72.8007 64.5609 71.6515 65.3212C60.3071 72.8265 41.022 86.0574 40.7835 88.1735Z" fill="#B2B2B2"/>
<path d="M40.882 104.998C27.1367 111.656 27.3597 119.622 29.1894 122.773C26.0819 126.071 29.5327 129.841 31.6465 131.314C33.8262 137.26 42.4659 151.627 49.4415 150.419C55.022 149.452 59.654 145.775 61.2724 144.058L59.2513 136.706C63.2943 127.13 60.1702 115.911 58.1027 111.498C59.7212 109.781 62.8907 105.427 62.6213 101.749C62.2845 97.151 58.0635 96.6752 40.882 104.998Z" fill="#D4D4D4"/>
<path d="M55.6458 102.958C54.9483 101.056 58.09 99.8138 59.748 99.4307C60.8313 99.9328 62.8037 101.143 62.0269 101.967C61.0558 102.998 56.5177 105.336 55.6458 102.958Z" fill="white"/>
<path d="M54.5755 107.396L52.4552 103.452" stroke="#232323" stroke-width="2.02628" stroke-linecap="round"/>
<path d="M61.4917 104.186C55.8372 107.158 43.3708 113.257 34.8573 117.997" stroke="#232323" stroke-width="2.02628" stroke-linecap="round"/>
<path d="M44.904 132.523C48.055 130.694 54.8998 127.779 57.0717 130.76C59.7865 134.486 57.8444 136.546 52.7117 139.103" stroke="#232323" stroke-width="2.02628" stroke-linecap="round"/>
<path d="M42.447 123.982C44.9836 121.703 52.6648 117.268 55.9623 120.376C59.2597 123.483 58.6175 128.844 57.8842 131.137" stroke="#232323" stroke-width="2.02628" stroke-linecap="round"/>
<path d="M49.0663 110.765C52.1511 111.207 58.499 114.051 55.9622 120.376" stroke="#232323" stroke-width="2.02628" stroke-linecap="round"/>
<rect width="32.9271" height="4.31406" rx="2.15703" transform="matrix(-0.823235 0.5677 0.5677 0.823235 71.086 69.6445)" fill="white"/>
<rect width="32.9271" height="2.94385" rx="1.47193" transform="matrix(-0.823235 0.5677 0.5677 0.823235 74.195 73.9004)" fill="white"/>
<path d="M60.4801 143.641C65.8801 159.841 80.0281 193.645 93.4201 199.261" stroke="#232323" stroke-width="1.944" stroke-linecap="round"/>
<path d="M200.364 182.262L207.697 140.656C207.849 139.797 208.432 139.076 209.241 138.748L224.965 132.381C226.378 131.809 227.972 132.605 228.364 134.078L241.886 184.942C242.334 186.63 240.98 188.255 239.238 188.117L202.659 185.226C201.169 185.108 200.104 183.733 200.364 182.262Z" fill="white"/>
<path d="M207.249 144.699C205.05 161.573 197.328 198.271 184.027 210.062" stroke="#232323" stroke-width="1.944" stroke-linecap="round"/>
<path d="M211.75 83.0435C212.6 85.1433 207.252 97.0856 204.472 102.794L202.597 105.905C201.984 106.921 200.747 107.376 199.622 106.998L166.836 95.993C165.505 95.5462 164.791 94.1015 165.245 92.7727L172.709 70.9343C173.154 69.6304 174.558 68.9209 175.87 69.3438C188.816 73.5184 210.95 81.0697 211.75 83.0435Z" fill="#B2B2B2"/>
<path d="M216.184 99.273C231.214 101.985 233.144 109.718 232.23 113.245C236.11 115.584 233.802 120.145 232.162 122.132C231.663 128.445 227.21 144.608 220.166 145.321C214.532 145.892 209.081 143.598 207.06 142.38L207.027 134.755C200.556 126.621 200.545 114.975 201.348 110.169C199.327 108.951 195.103 105.61 194.372 101.995C193.459 97.477 197.396 95.8826 216.184 99.273Z" fill="#D4D4D4"/>
<path d="M201.416 101.282C201.575 99.2619 198.215 98.9117 196.515 98.9891C195.607 99.7642 194.033 101.461 195.003 102.046C196.216 102.777 201.216 103.807 201.416 101.282Z" fill="white"/>
<path d="M203.641 105.27L204.622 100.901" stroke="#232323" stroke-width="2.02628" stroke-linecap="round"/>
<path d="M196.116 104.039C202.362 105.38 216.01 107.898 225.485 110.171" stroke="#232323" stroke-width="2.02628" stroke-linecap="round"/>
<path d="M219.72 126.867C216.193 125.953 208.816 124.989 207.526 128.444C205.915 132.763 208.34 134.225 213.971 135.305" stroke="#232323" stroke-width="2.02628" stroke-linecap="round"/>
<path d="M219.787 117.979C216.73 116.467 208.139 114.264 205.8 118.144C203.46 122.025 205.522 127.015 206.845 129.025" stroke="#232323" stroke-width="2.02628" stroke-linecap="round"/>
<path d="M209.854 107.032C207.002 108.288 201.654 112.735 205.8 118.145" stroke="#232323" stroke-width="2.02628" stroke-linecap="round"/>
<rect x="177.578" y="73.3555" width="32.9271" height="4.31406" rx="2.15703" transform="rotate(18.9745 177.578 73.3555)" fill="white"/>
<rect x="175.729" y="78.291" width="32.9271" height="2.94385" rx="1.47193" transform="rotate(18.9745 175.729 78.291)" fill="white"/>
</g>
</svg>
