<svg width="32" height="32" viewBox="0 0 32 32" fill="none" xmlns="http://www.w3.org/2000/svg">
<path d="M6.59479 18.344C6.59479 18.0109 6.59841 17.1205 6.5902 17.0108C6.59735 15.686 5.63409 14.7514 5.02554 14.8243C4.60444 14.8608 4.25153 15.0325 4.06204 15.5265C3.88642 15.9868 4.04343 16.5992 4.62734 16.7428C5.25172 16.8971 5.6163 17.0255 5.88016 17.2067C6.20346 17.4284 6.46739 17.852 6.47439 18.3445" fill="#0060AF"/>
<path d="M6.8445 20.3574C5.74358 20.3574 4.61214 20.0863 3.48221 19.55L3.45449 19.5363L3.44123 19.5081C2.93416 18.4377 2.66602 17.267 2.66602 16.1217C2.66602 14.978 2.92316 13.8574 3.4306 12.7885L3.44454 12.7601L3.4728 12.746C4.51804 12.2508 5.64246 12 6.81587 12C7.90895 12 9.07632 12.2792 10.1913 12.8089L10.2199 12.8216L10.2331 12.8506C10.7499 13.9406 11.0224 15.111 11.0224 16.2374C11.0224 17.3594 10.7607 18.481 10.2433 19.5704L10.2297 19.599L10.2009 19.6123C9.17164 20.0995 8.01089 20.3574 6.8445 20.3574ZM3.58679 19.4032C4.68447 19.9195 5.77921 20.1803 6.8445 20.1803C7.97405 20.1803 9.09742 19.9334 10.0974 19.4653C10.5941 18.4097 10.8459 17.3233 10.8459 16.2374C10.8459 15.1472 10.5831 14.0131 10.086 12.9551C9.004 12.4465 7.87399 12.1768 6.81587 12.1768C5.67984 12.1768 4.59097 12.4177 3.5773 12.893C3.09073 13.9291 2.84307 15.0147 2.84307 16.1217C2.84307 17.2307 3.10045 18.3653 3.58679 19.4032Z" fill="#0060AF"/>
<path d="M6.33402 18.3443C6.33606 17.9173 6.09774 17.5397 5.78627 17.3368C5.50999 17.1575 5.13907 17.0397 4.54069 16.8879C4.35572 16.8406 4.16224 16.7355 4.10234 16.6016C3.9439 16.7612 3.91511 17.1201 3.94299 17.3299C3.97539 17.5727 4.25906 17.9727 4.68618 17.9884C4.94702 17.9989 5.2768 17.9323 5.43495 17.8987C5.70777 17.8398 6.13941 18.0106 6.20812 18.3437" fill="#0060AF"/>
<path d="M6.81628 12.7588C6.09207 12.7588 5.4665 13.2364 5.46876 14.0628C5.47102 14.7578 6.02992 15.1299 6.22935 15.3956C6.53072 15.796 6.69384 16.27 6.7108 16.9953C6.72398 17.5725 6.7233 18.1425 6.72624 18.3445H6.88612C6.88333 18.1331 6.8761 17.528 6.88438 16.9774C6.89523 16.2519 7.06423 15.796 7.36575 15.3956C7.56692 15.1299 8.12537 14.7578 8.12657 14.0628C8.12929 13.2364 7.50409 12.7588 6.78049 12.7588" fill="#0060AF"/>
<path d="M6.99893 18.344C6.99893 18.0109 6.99516 17.1205 7.00322 17.0108C6.99614 15.686 7.9588 14.7514 8.56788 14.8243C8.98898 14.8608 9.34151 15.0325 9.53153 15.5265C9.707 15.9868 9.54908 16.5992 8.96585 16.7428C8.34117 16.8971 7.97704 17.0255 7.71251 17.2067C7.38958 17.4284 7.14411 17.852 7.13658 18.3445" fill="#0060AF"/>
<path d="M7.25978 18.3443C7.25752 17.9173 7.49576 17.5397 7.80632 17.3368C8.08374 17.1575 8.45511 17.0397 9.05296 16.8879C9.2383 16.8406 9.43156 16.7355 9.4904 16.6016C9.64961 16.7612 9.67831 17.1201 9.65043 17.3299C9.61736 17.5727 9.33444 17.9727 8.90807 17.9884C8.64731 17.9989 8.3158 17.9323 8.15833 17.8987C7.88657 17.8398 7.45372 18.0106 7.3847 18.3437" fill="#0060AF"/>
<path d="M7.4833 19.7223L7.39062 19.0461L7.61432 19.0122C7.66879 19.0047 7.7351 19.0142 7.76162 19.0483C7.79093 19.084 7.79989 19.1134 7.80554 19.1601C7.81398 19.2179 7.79725 19.2847 7.73216 19.318V19.3201C7.80486 19.3201 7.84879 19.3723 7.86152 19.4604C7.86341 19.479 7.86891 19.524 7.86341 19.5615C7.84864 19.6508 7.79537 19.6795 7.70548 19.6921L7.4833 19.7223ZM7.62728 19.6012C7.6538 19.5974 7.6807 19.596 7.70172 19.5826C7.73389 19.5616 7.73095 19.5166 7.72651 19.4832C7.71528 19.4098 7.69614 19.3819 7.61831 19.3935L7.56942 19.401L7.60038 19.605L7.62728 19.6012ZM7.58042 19.2887C7.61003 19.2839 7.65018 19.2804 7.66691 19.2523C7.67565 19.2335 7.68688 19.2186 7.67949 19.1768C7.67038 19.1273 7.65395 19.0967 7.59111 19.1086L7.53257 19.118L7.55563 19.2913" fill="#0060AF"/>
<path d="M8.45197 19.3156C8.4537 19.3281 8.45574 19.3422 8.45649 19.3547C8.47457 19.4781 8.45197 19.5802 8.31334 19.6083C8.1084 19.6477 8.06915 19.5204 8.03306 19.3422L8.01384 19.2457C7.98559 19.0751 7.97346 18.946 8.17327 18.9062C8.28591 18.8856 8.36035 18.9305 8.39132 19.0426C8.39614 19.0593 8.40217 19.0759 8.40443 19.0927L8.28184 19.118C8.26768 19.0759 8.24892 19.0006 8.19376 19.0069C8.09476 19.0188 8.12746 19.142 8.13763 19.1935L8.17448 19.3786C8.18555 19.4346 8.20755 19.524 8.29322 19.5068C8.36276 19.4928 8.33247 19.3845 8.32629 19.3401" fill="#0060AF"/>
<path d="M8.64984 19.5206L8.60742 18.8208L8.77212 18.7705L9.11742 19.3791L8.98776 19.4179L8.90593 19.2633L8.76195 19.3065L8.78056 19.4824L8.64984 19.5206ZM8.7499 19.1935L8.85395 19.1634L8.71577 18.8802" fill="#0060AF"/>
<path d="M4.58127 18.9916C4.63281 18.8266 4.67899 18.7051 4.87564 18.7591C4.98089 18.7884 5.04614 18.8349 5.04305 18.9571C5.04254 18.9843 5.03356 19.0121 5.02768 19.039L4.90525 19.0051C4.9213 18.9376 4.93147 18.8841 4.84829 18.8584C4.75215 18.8321 4.72872 18.9486 4.71546 18.999L4.66566 19.1824C4.64983 19.2369 4.63085 19.3269 4.71546 19.3501C4.78538 19.369 4.82779 19.3003 4.85311 19.2001L4.76744 19.1774L4.79705 19.0713L4.99845 19.1361L4.90284 19.4897L4.81016 19.4645L4.83103 19.3898H4.8284C4.78575 19.4509 4.73369 19.4573 4.68811 19.4485C4.48671 19.3941 4.50773 19.2624 4.5558 19.0866" fill="#0060AF"/>
<path d="M5.33194 19.2905L5.27129 19.5782L5.13477 19.5486L5.28025 18.877L5.51299 18.9295C5.64921 18.9589 5.69035 19.0196 5.67106 19.1444C5.66006 19.2161 5.62472 19.2933 5.53846 19.2871L5.53755 19.2859C5.61048 19.3114 5.61666 19.3482 5.60393 19.4118C5.59843 19.4388 5.56053 19.603 5.58668 19.6295L5.58758 19.6496L5.44631 19.6128C5.44043 19.5673 5.4604 19.4855 5.46831 19.4402C5.4763 19.4001 5.48903 19.3436 5.44834 19.3223C5.41647 19.3054 5.40465 19.3062 5.36863 19.2979L5.33194 19.2905ZM5.35522 19.1865L5.44714 19.2113C5.50297 19.2193 5.53401 19.1904 5.54501 19.123C5.55496 19.0611 5.54207 19.0369 5.49197 19.0249L5.39342 19.005" fill="#0060AF"/>
<path d="M6.20661 19.0269L6.34162 19.0426L6.28346 19.5148C6.2552 19.6645 6.19734 19.73 6.03264 19.7095C5.86507 19.6883 5.82529 19.612 5.83546 19.4611L5.89401 18.9893L6.03008 19.0049L5.97169 19.4661C5.96551 19.5162 5.9539 19.5904 6.04304 19.5994C6.12207 19.6054 6.14 19.5531 6.14889 19.488" fill="#0060AF"/>
<path d="M6.49023 19.7348L6.53084 19.0596L6.79025 19.0708C6.91284 19.0768 6.94493 19.177 6.94109 19.2725C6.93755 19.3306 6.91939 19.3955 6.86876 19.4306C6.82725 19.4605 6.7739 19.4676 6.7244 19.4652L6.63987 19.4605L6.62299 19.7435L6.49023 19.7348ZM6.64371 19.3576L6.71242 19.3614C6.76825 19.3634 6.80525 19.3414 6.81007 19.2594C6.81278 19.1807 6.78302 19.1673 6.71069 19.1641L6.65622 19.1623" fill="#0060AF"/>
<path d="M24.7865 13.4113L23.7555 15.2826C23.3664 14.9666 22.8912 14.734 22.2849 14.734C20.8501 14.734 20.2673 15.8035 20.2673 16.5568C20.2673 17.116 20.6335 17.9411 21.9101 17.9411C22.446 17.9411 23.2078 17.5683 23.427 17.3987L22.4073 19.5698C21.9213 19.6667 21.7616 19.7269 21.3502 19.7396C19.0652 19.8078 18.1419 18.4041 18.1426 16.9698C18.1441 15.0737 19.8299 12.7677 22.6245 12.7677C22.7958 12.7677 23.0053 12.827 23.1843 12.8926L23.3653 12.6611" fill="#0060AF"/>
<path d="M29.0416 12.7207L29.3336 19.5221H27.1608L27.1595 18.3557H25.678L25.1904 19.5221H22.834L25.2975 14.6653L24.742 14.6617L25.7975 12.7207H29.0416ZM27.1454 14.8014L26.3078 16.7797H27.1707" fill="#0060AF"/>
<path d="M16.7717 12.7205C17.8477 12.7265 18.4557 13.3105 18.4557 14.1542C18.4557 14.932 17.8145 15.6205 17.1105 15.9765C17.8353 16.2429 17.8979 16.8969 17.8979 17.3596C17.8979 18.4774 16.7763 19.5219 15.3183 19.5219H12.1387L13.379 14.7327L12.8695 14.7298L13.911 12.7205C13.911 12.7205 15.8967 12.7144 16.7717 12.7205ZM15.7161 15.478C15.9386 15.478 16.3316 15.4217 16.4299 14.9909C16.5375 14.5234 16.1687 14.5108 15.9918 14.5108L15.3597 14.508L15.1392 15.478L15.7161 15.478ZM14.8223 16.6799L14.5313 17.7977H15.2756C15.5685 17.7977 15.9676 17.6524 16.0654 17.2886C16.1619 16.9238 15.8829 16.6799 15.5911 16.6799" fill="#0060AF"/>
</svg>
