<svg width="72" height="72" viewBox="0 0 72 72" fill="none" xmlns="http://www.w3.org/2000/svg">
<path d="M49.5568 49.5039C50.0818 49.0944 50.5579 48.6183 51.5104 47.6658L63.3825 35.7936C63.6693 35.5068 63.5379 35.0124 63.1545 34.8792C61.7532 34.3932 59.9301 33.4803 58.2249 31.7751C56.5197 30.0699 55.6068 28.2468 55.1208 26.8454C54.9876 26.4619 54.4933 26.3306 54.2065 26.6176L42.3343 38.4897C41.3818 39.4422 40.9056 39.9183 40.4961 40.4433C40.0131 41.0628 39.5989 41.7327 39.2611 42.4419C38.9746 43.0428 38.7616 43.6818 38.3359 44.9595L37.7854 46.6104L36.9103 49.2354L36.0898 51.6969C35.8804 52.3257 36.0439 53.0187 36.5125 53.4876C36.9814 53.9562 37.6743 54.1197 38.3031 53.9103L40.7646 53.0898L43.3897 52.2147L45.0405 51.6642C46.3179 51.2385 46.9573 51.0255 47.5582 50.739C48.2674 50.4012 48.9373 49.9869 49.5568 49.5039Z" fill="url(#paint0_radial_8471_46683)"/>
<path d="M67.0994 32.0766C69.6335 29.5426 69.6335 25.4344 67.0994 22.9004C64.5656 20.3665 60.4574 20.3665 57.9233 22.9004L57.5417 23.2821C57.1733 23.6504 57.0065 24.1649 57.0986 24.6776C57.1565 25.0001 57.2636 25.4716 57.4589 26.0342C57.8492 27.1594 58.5863 28.6365 59.975 30.0249C61.3634 31.4136 62.8406 32.1507 63.9656 32.541C64.5284 32.7363 64.9997 32.8434 65.3222 32.9013C65.8349 32.9934 66.3494 32.8266 66.7178 32.4582L67.0994 32.0766Z" fill="url(#paint1_radial_8471_46683)"/>
<path fill-rule="evenodd" clip-rule="evenodd" d="M12.5147 9.51471C9 13.0294 9 18.6863 9 30V42C9 53.3136 9 58.9707 12.5147 62.4852C16.0294 66 21.6863 66 33 66H39C50.3136 66 55.9707 66 59.4852 62.4852C62.9436 59.0268 62.9991 53.4948 63 42.5403L54.5451 50.9952C53.7357 51.8049 53.073 52.4682 52.3245 53.0523C51.4473 53.7363 50.4984 54.3228 49.4943 54.8013C48.6372 55.2096 47.7477 55.506 46.6614 55.8675L39.7263 58.1793C37.4805 58.9278 35.0046 58.3434 33.3306 56.6694C31.6569 54.9954 31.0722 52.5195 31.821 50.2737L32.6415 47.8125L34.0668 43.5363L34.1325 43.3389C34.4943 42.2526 34.7904 41.3628 35.1987 40.5057C35.6772 39.5016 36.2637 38.5527 36.948 37.6758C37.5318 36.927 38.1951 36.2643 39.0051 35.4549L51.0243 23.4356L54.36 20.1001L54.7416 19.7185C56.8878 17.5722 59.7009 16.4994 62.514 16.5C62.0601 13.4084 61.1823 11.2118 59.4852 9.51471C55.9707 6 50.3136 6 39 6H33C21.6863 6 16.0294 6 12.5147 9.51471ZM21.75 27C21.75 25.7574 22.7574 24.75 24 24.75H43.5C44.7426 24.75 45.75 25.7574 45.75 27C45.75 28.2426 44.7426 29.25 43.5 29.25H24C22.7574 29.25 21.75 28.2426 21.75 27ZM21.75 39C21.75 37.7574 22.7574 36.75 24 36.75H31.5C32.7426 36.75 33.75 37.7574 33.75 39C33.75 40.2426 32.7426 41.25 31.5 41.25H24C22.7574 41.25 21.75 40.2426 21.75 39ZM21.75 51C21.75 49.7574 22.7574 48.75 24 48.75H28.5C29.7426 48.75 30.75 49.7574 30.75 51C30.75 52.2426 29.7426 53.25 28.5 53.25H24C22.7574 53.25 21.75 52.2426 21.75 51Z" fill="url(#paint2_radial_8471_46683)"/>
<defs>
<radialGradient id="paint0_radial_8471_46683" cx="0" cy="0" r="1" gradientUnits="userSpaceOnUse" gradientTransform="translate(49.8055 26.4624) rotate(90.087) scale(24.1794 27.5379)">
<stop stop-color="#FFC55A"/>
<stop offset="1" stop-color="#FC4100"/>
</radialGradient>
<radialGradient id="paint1_radial_8471_46683" cx="0" cy="0" r="1" gradientUnits="userSpaceOnUse" gradientTransform="translate(63.0528 21) rotate(90.087) scale(10.4718 11.9264)">
<stop stop-color="#FFC55A"/>
<stop offset="1" stop-color="#FC4100"/>
</radialGradient>
<radialGradient id="paint2_radial_8471_46683" cx="0" cy="0" r="1" gradientUnits="userSpaceOnUse" gradientTransform="translate(36.072 6) rotate(90.0783) scale(52.683 54.0006)">
<stop stop-color="#FFC55A"/>
<stop offset="1" stop-color="#FC4100"/>
</radialGradient>
</defs>
</svg>
