<svg width="35" height="20" viewBox="0 0 35 20" fill="none" xmlns="http://www.w3.org/2000/svg">
<path fill-rule="evenodd" clip-rule="evenodd" d="M0 10.2918C0 4.93007 4.34658 0.583496 9.70833 0.583496C11.892 0.583496 13.9125 1.30685 15.5354 2.52616C16.4185 3.18964 16.5966 4.44339 15.9331 5.3265C15.2696 6.2096 14.0159 6.38764 13.1328 5.72416C12.1788 5.00742 10.9959 4.5835 9.70833 4.5835C6.55571 4.5835 4 7.13921 4 10.2918C4 13.4444 6.55572 16.0002 9.70833 16.0002C10.5234 16.0002 11.0838 15.8546 11.5075 15.6482C11.933 15.4409 12.3299 15.1188 12.7451 14.6124C13.5109 13.6782 14.1423 12.3999 15.0435 10.5753C15.2261 10.2057 15.4197 9.81359 15.6278 9.3974C15.7997 9.05368 15.9695 8.70796 16.1389 8.36324C17.0313 6.54713 17.9101 4.7586 18.9949 3.43531C19.6856 2.59279 20.5161 1.85496 21.5737 1.33961C22.6331 0.823398 23.8115 0.583496 25.125 0.583496C30.4867 0.583496 34.8333 4.93006 34.8333 10.2918C34.8333 15.6536 30.4867 20.0002 25.125 20.0002C22.9412 20.0002 20.9213 19.2765 19.2987 18.0576C18.4156 17.3941 18.2375 16.1404 18.9009 15.2572C19.5644 14.3741 20.8181 14.196 21.7013 14.8594C22.6554 15.5762 23.8379 16.0002 25.125 16.0002C28.2776 16.0002 30.8333 13.4444 30.8333 10.2918C30.8333 7.13921 28.2776 4.5835 25.125 4.5835C24.3099 4.5835 23.7495 4.72901 23.3258 4.93545C22.9004 5.14276 22.5034 5.46483 22.0883 5.97126C21.3224 6.90547 20.691 8.18377 19.7898 10.0084C19.6072 10.378 19.4136 10.7701 19.2055 11.1863C19.0337 11.53 18.8638 11.8757 18.6944 12.2205C17.802 14.0366 16.9233 15.8251 15.8384 17.1483C15.1477 17.9909 14.3173 18.7287 13.2596 19.244C12.2002 19.7603 11.0219 20.0002 9.70833 20.0002C4.34657 20.0002 0 15.6536 0 10.2918Z" fill="url(#paint0_radial_7148_40863)"/>
<defs>
<radialGradient id="paint0_radial_7148_40863" cx="0" cy="0" r="1" gradientUnits="userSpaceOnUse" gradientTransform="translate(17.4631 0.583496) rotate(90.1561) scale(17.0488 34.8336)">
<stop stop-color="#FFC55A"/>
<stop offset="1" stop-color="#9306AF"/>
</radialGradient>
</defs>
</svg>
