<svg width="141" height="102" viewBox="0 0 141 102" fill="none" xmlns="http://www.w3.org/2000/svg">
<mask id="mask0_5388_34944" style="mask-type:alpha" maskUnits="userSpaceOnUse" x="0" y="0" width="141" height="102">
<path d="M0.499809 38.6473C0.499809 17.303 17.8028 0 39.1472 0H101.852C123.197 0 140.5 17.303 140.5 38.6473V62.8019C140.5 84.1463 123.197 101.449 101.852 101.449H39.1472C17.8028 101.449 0.499809 84.1463 0.499809 62.8019V38.6473Z" fill="#EEEEEF"/>
</mask>
<g mask="url(#mask0_5388_34944)">
<path d="M-41.1379 98.885C-41.1379 92.3563 -35.7291 87.0617 -29.0589 87.0617C-28.4356 87.0617 -27.8208 87.1078 -27.2229 87.1979C-27.3898 86.123 -27.4785 85.021 -27.4785 83.9C-27.4764 71.9426 -17.5736 62.248 -5.35517 62.248C5.13709 62.248 13.9243 69.399 16.1956 78.993C17.2119 78.8003 18.2577 78.6955 19.331 78.6955C27.552 78.6955 34.3595 84.6187 35.5427 92.3437C40.4001 92.723 44.22 96.6976 44.22 101.55C44.22 106.652 39.9944 110.79 34.7821 110.79C34.0193 110.79 33.2778 110.7 32.5678 110.532C31.8664 110.7 31.1353 110.79 30.3832 110.79H-29.6103C-31.2943 110.79 -32.8747 110.344 -34.2374 109.569C-38.3173 107.67 -41.1379 103.601 -41.1379 98.885Z" fill="white"/>
<path fill-rule="evenodd" clip-rule="evenodd" d="M11.9263 86.8046C14.7278 87.2353 16.4397 90.0016 17.1299 92.5927L17.282 93.1636L17.8113 92.9012C21.942 90.853 24.373 92.6425 25.0406 93.6355L25.3568 94.1058L25.7712 93.7191C27.7533 91.8691 29.2827 91.5697 30.3466 91.8032C31.4362 92.0424 32.195 92.8729 32.5533 93.5835C32.6734 93.8217 32.9639 93.9175 33.2021 93.7973C33.4404 93.6772 33.5361 93.3867 33.416 93.1485C32.9697 92.2632 32.0086 91.1788 30.5537 90.8595C29.164 90.5544 27.4577 90.9748 25.4993 92.6648C24.3439 91.4093 21.7223 90.1172 17.9025 91.7924C17.0856 89.2199 15.2384 86.3362 12.0731 85.8496C10.3776 85.5889 8.38639 86.0361 6.09274 87.4787C3.80231 88.9193 1.18417 91.3677 -1.79203 95.1623C-1.95669 95.3723 -1.91998 95.6759 -1.71005 95.8406C-1.50011 96.0052 -1.19644 95.9685 -1.03179 95.7586C1.9058 92.0132 4.44462 89.6567 6.60714 88.2966C8.76644 86.9385 10.5242 86.589 11.9263 86.8046Z" fill="#A9A9A9"/>
<path d="M181.806 98.885C181.806 92.3563 176.397 87.0617 169.727 87.0617C169.104 87.0617 168.489 87.1078 167.891 87.1979C168.058 86.123 168.147 85.021 168.147 83.9C168.145 71.9426 158.242 62.248 146.023 62.248C135.531 62.248 126.744 69.399 124.473 78.993C123.456 78.8003 122.411 78.6955 121.337 78.6955C113.116 78.6955 106.309 84.6187 105.126 92.3437C100.268 92.723 96.4483 96.6976 96.4483 101.55C96.4483 106.652 100.674 110.79 105.886 110.79C106.649 110.79 107.391 110.7 108.1 110.532C108.802 110.7 109.533 110.79 110.285 110.79H170.279C171.963 110.79 173.543 110.344 174.906 109.569C178.986 107.67 181.806 103.601 181.806 98.885Z" fill="white"/>
<path fill-rule="evenodd" clip-rule="evenodd" d="M118.965 86.3167C118.084 87.6219 117.478 89.2537 117.135 90.7926L116.99 91.4427L116.418 91.1031C114.342 89.8732 112.723 89.8194 111.558 90.1831C110.373 90.5528 109.59 91.3743 109.24 91.9972L108.909 92.585L108.459 92.0828C106.463 89.8563 104.952 89.5285 103.933 89.7959C102.867 90.0756 102.095 91.062 101.721 91.9481C101.617 92.1939 101.334 92.3092 101.088 92.2055C100.842 92.1017 100.727 91.8184 100.831 91.5726C101.262 90.5515 102.21 89.2491 103.688 88.8613C105.111 88.488 106.823 89.0077 108.758 90.9878C109.286 90.3137 110.128 89.6171 111.27 89.2608C112.616 88.8408 114.323 88.9102 116.344 89.9575C116.723 88.5208 117.32 87.0263 118.164 85.7762C119.131 84.3443 120.452 83.1887 122.174 82.8725C123.9 82.5553 125.909 83.1038 128.201 84.8266C130.49 86.5474 133.104 89.4698 136.076 93.9986C136.223 94.2217 136.161 94.5212 135.937 94.6675C135.714 94.8139 135.415 94.7518 135.269 94.5287C132.327 90.0457 129.784 87.2255 127.62 85.5989C125.459 83.9743 123.72 83.5707 122.348 83.8227C120.972 84.0757 119.847 85.0106 118.965 86.3167Z" fill="#A9A9A9"/>
<path d="M49.5528 62.9318C44.8547 63.376 38.6388 63.6456 36.1181 63.7249C26.2231 77.8421 36.4399 87.518 39.0142 88.7076C41.0737 89.6594 44.8064 85.5088 46.4153 83.3145L48.0709 105.335L77.583 106.981L107.877 103.777C108.038 101.371 108.343 94.0373 108.279 83.949C108.215 73.8608 98.6523 59.3893 93.8791 53.4146L76.3416 50.2422C69.3696 54.287 54.2509 62.4877 49.5528 62.9318Z" fill="#999999"/>
<path fill-rule="evenodd" clip-rule="evenodd" d="M78.722 43.9336C78.7893 43.6754 79.0532 43.5207 79.3114 43.588C81.4811 44.1538 84.1459 45.6754 85.6244 48.3059C87.1208 50.9684 87.3461 54.6647 84.8096 59.4386C79.7774 68.9098 69.7905 74.5455 64.8724 76.3135C64.6214 76.4037 64.3447 76.2734 64.2544 76.0223C64.1641 75.7712 64.2945 75.4945 64.5456 75.4043C69.3349 73.6826 79.0775 68.168 83.9564 58.9853C86.3754 54.4323 86.0821 51.0923 84.7821 48.7793C83.4641 46.4343 81.0543 45.041 79.0676 44.5229C78.8094 44.4556 78.6547 44.1917 78.722 43.9336Z" fill="#CFCFCF"/>
<path fill-rule="evenodd" clip-rule="evenodd" d="M43.5409 65.8681C43.803 65.8179 44.0561 65.9896 44.1063 66.2517C45.0186 71.0134 46.9757 82.4742 47.4926 90.1826C47.7142 93.4871 47.9213 96.7125 48.0938 99.3998C48.3228 102.968 48.4909 105.587 48.5515 106.184C48.5784 106.45 48.385 106.687 48.1196 106.714C47.8542 106.741 47.6172 106.547 47.5902 106.282C47.528 105.669 47.3568 103.002 47.1251 99.3918C46.953 96.7119 46.7476 93.5121 46.5286 90.2473C46.0158 82.6012 44.0685 71.1889 43.1574 66.4335C43.1072 66.1714 43.2789 65.9183 43.5409 65.8681Z" fill="#232323"/>
<path d="M58.3537 52.1449C53.7843 48.8456 51.6766 29.2507 51.1939 19.8656C55.2967 17.222 64.8699 12.0298 70.3403 12.4105C75.8107 12.7912 83.8822 38.7943 87.2342 51.7483C83.0777 54.6828 73.9282 61.0435 70.5816 63.0104C66.3984 65.469 64.6285 69.9897 64.1459 67.5311C63.7597 65.5642 65.2721 63.6449 66.0766 62.9311L65.9157 60.6311C65.2989 59.1771 62.9231 55.4442 58.3537 52.1449Z" fill="#D4D4D4"/>
<path d="M51.6595 19.3437L50.6353 16.0391L50.1871 16.1543C49.2222 16.4025 47.812 16.9444 46.7203 17.7818C45.631 18.6172 44.749 19.8452 45.1769 21.4174C45.6091 23.0058 46.1689 26.3456 46.439 29.6402C46.5739 31.2848 46.6353 32.9043 46.5749 34.2778C46.5135 35.6738 46.3281 36.7411 46.0183 37.335C45.9552 37.456 45.8126 37.6526 45.5698 37.9306C45.3332 38.2017 45.0217 38.5273 44.6427 38.9025C43.8849 39.6526 42.8746 40.5837 41.6908 41.6444C40.2808 42.9076 38.6363 44.3445 36.8922 45.8684C35.7048 46.906 34.4712 47.9839 33.2341 49.0747C30.1865 51.7619 27.125 54.5213 24.7231 56.9141C23.5225 58.1103 22.4799 59.2215 21.684 60.191C20.9419 61.095 20.3797 61.9163 20.1256 62.5898C18.912 63.7681 17.4192 65.7051 16.8266 67.7965C16.5215 68.8734 16.4487 70.0149 16.8018 71.1182C17.1568 72.2277 17.9281 73.2528 19.2288 74.1133C21.7371 75.7726 25.63 77.2364 29.4359 78.3903C33.2543 79.5479 37.0364 80.4084 39.3577 80.8475L39.942 80.958L39.9312 80.3715C39.9043 78.9103 39.8154 76.6581 39.6358 74.6479C39.5461 73.6438 39.4329 72.6905 39.2915 71.923C39.2209 71.5396 39.1416 71.1933 39.0514 70.9058C38.9655 70.6315 38.855 70.361 38.6993 70.1691C38.2805 69.653 37.523 68.9721 36.776 68.3485C36.0195 67.717 35.2396 67.1163 34.7505 66.7547L34.7306 66.74L34.7099 66.7277C36.5988 63.4353 39.5538 58.5142 42.5641 53.958C44.1322 51.5848 45.7121 49.3153 47.1621 47.4284C48.6187 45.5328 49.9219 44.0531 50.9364 43.2347C52.1282 42.2735 52.8234 40.6483 53.2066 38.7543C53.5925 36.8464 53.6777 34.5844 53.5808 32.2531C53.3867 27.5884 52.459 22.5633 51.6627 19.3568L51.6595 19.3437Z" fill="#D4D4D4"/>
<path opacity="0.4" d="M34.8905 66.8583L34.7022 66.7383C35.4913 69.7552 35.3466 75.2072 30.8951 78.8188C34.1971 79.7604 37.333 80.464 39.3576 80.847L39.942 80.9575L39.9312 80.371C39.9042 78.9097 39.8154 76.6576 39.6358 74.6474C39.5461 73.6433 39.4329 72.69 39.2915 71.9224C39.2209 71.5391 39.1415 71.1927 39.0514 70.9053C38.9654 70.631 38.855 70.3605 38.6992 70.1686C38.2805 69.6525 37.523 68.9716 36.7759 68.348C36.088 67.7737 35.3808 67.225 34.8905 66.8583Z" fill="#232323"/>
<path opacity="0.4" d="M51.7764 32.7512L47.8956 28.6699C48.0004 32.5356 48.0987 40.3649 47.8597 46.5381C49.0348 45.0692 50.0868 43.9201 50.9364 43.2347C52.1282 42.2735 52.8235 40.6483 53.2066 38.7543C53.5409 37.1018 51.8163 34.75 51.7764 32.7512Z" fill="#232323"/>
<path fill-rule="evenodd" clip-rule="evenodd" d="M62.1929 33.6439C62.3802 33.4539 62.686 33.4518 62.876 33.6391C63.0329 33.7937 63.2109 33.9713 63.342 34.1958C63.4824 34.4363 63.5559 34.7045 63.5648 35.0346C63.5814 35.6475 63.3723 36.5369 62.9181 38.0115C62.6821 38.7777 62.5413 39.3528 62.4735 39.7788C62.4036 40.2173 62.4201 40.4469 62.4507 40.5522C62.4522 40.5576 62.4537 40.5623 62.4551 40.5664C62.5053 40.5686 62.6086 40.5579 62.7927 40.5024C62.9632 40.4511 63.1491 40.3794 63.3643 40.2964C63.415 40.2769 63.4672 40.2568 63.5213 40.2361C63.7926 40.1325 64.0993 40.0203 64.4084 39.9476C65.0198 39.8038 65.7903 39.7844 66.3454 40.4511C66.5161 40.6561 66.4883 40.9607 66.2833 41.1315C66.0783 41.3022 65.7737 41.2744 65.6029 41.0694C65.4038 40.8302 65.1182 40.7732 64.6297 40.8881C64.3888 40.9448 64.1345 41.0361 63.8661 41.1387C63.8204 41.1561 63.7738 41.1741 63.7266 41.1924C63.5096 41.2761 63.2804 41.3646 63.0715 41.4275C62.8283 41.5008 62.5213 41.5703 62.231 41.509C62.0729 41.4755 61.9155 41.4026 61.7829 41.2731C61.6526 41.1457 61.5711 40.9877 61.5229 40.8218C61.4312 40.5064 61.4433 40.1037 61.5193 39.6268C61.5973 39.1374 61.7524 38.5139 61.9948 37.7271C62.4576 36.2245 62.6105 35.488 62.599 35.0607C62.5938 34.8708 62.5557 34.7653 62.5076 34.6829C62.4501 34.5844 62.3627 34.4898 62.1977 34.3271C62.0077 34.1398 62.0055 33.8339 62.1929 33.6439ZM62.4656 40.5906C62.4656 40.5906 62.4655 40.5904 62.4652 40.5899Z" fill="#232323"/>
<path opacity="0.4" d="M71.3861 52.6209C68.6187 53.8898 64.6017 53.5197 62.9392 53.176C73.0433 58.2519 80.718 53.5461 83.2923 50.5588L79.9135 40.0898C79.1895 45.1657 74.8453 51.0347 71.3861 52.6209Z" fill="#232323"/>
<path d="M66.0766 28.1943C68.5222 27.1157 73.1827 28.115 75.328 28.5115L78.6263 30.8908C76.8297 30.4414 72.5284 29.5426 69.6967 29.5426C69.1076 29.5426 68.5687 29.57 68.0823 29.6171C66.117 29.8073 64.0027 29.1999 65.777 28.3333C65.8716 28.287 65.9715 28.2407 66.0766 28.1943Z" fill="#232323"/>
<path d="M56.9223 28.5517C55.1367 28.7512 54.2347 29.6062 53.804 30.3729C53.567 30.7948 54.0091 31.1614 54.4675 31.0066C58.6902 29.5814 61.4568 30.6615 61.2951 29.8746C60.9651 28.2683 60.305 28.1738 56.9223 28.5517Z" fill="#232323"/>
<path d="M53.1246 23.5138C52.6097 25.7345 52.9637 34.0092 53.205 37.869C56.3586 48.211 61.9738 52.8057 64.3872 53.8103L65.9961 60.5517L63.1 62.6138C62.9713 58.8069 61.652 58.1195 61.0084 58.2517L50.7916 57.9345C50.9793 57.4322 51.5961 55.6503 52.5614 52.5414C53.7681 48.6552 52.6419 47.5448 49.2631 37.3138C46.5601 29.129 48.2978 22.5885 49.5045 20.3414C49.129 20.3679 48.9092 19.2945 51.033 14.7897C53.1568 10.2849 58.5145 9.79316 60.9279 10.1104C82.8095 0.355243 91.3369 36.5207 95.7615 44.2931C99.3012 50.511 106.515 63.3804 109.679 69.0379C108.928 68.7206 107.008 67.7055 105.335 66.1827C103.711 64.7052 98.6944 56.7285 96.7187 53.4182C98.1738 56.2128 101.225 62.3993 102.921 65.8655C102.144 64.8873 99.8965 62.122 97.1291 58.8862C94.3617 55.6503 90.7202 55.6873 89.2453 56.1103L88.6017 50.7965C88.6285 51.1138 88.65 52.5572 88.5213 55.7931C88.3926 59.0289 85.8933 60.7368 84.6598 61.1862C87.0411 59.0924 87.2609 54.762 87.0732 52.8586C87.1376 57.1731 83.2922 61.6885 81.3615 63.4069C81.9782 62.4816 83.1635 59.9648 82.9704 57.3C82.7291 53.969 78.8676 38.6621 77.8218 36.8379C76.776 35.0138 71.6274 22.6414 67.1224 19.8656C63.5183 17.6449 60.7402 18.0943 59.8017 18.5966L61.4911 18.7552C58.9168 19.4161 53.6394 21.2931 53.1246 23.5138Z" fill="#232323"/>
<path fill-rule="evenodd" clip-rule="evenodd" d="M94.3392 40.0108C95.0392 41.7262 95.6458 43.114 96.1813 44.0548C99.7221 50.2745 106.936 63.1455 110.1 68.8027C110.201 68.9829 110.176 69.2071 110.039 69.3608C109.901 69.5146 109.681 69.5639 109.491 69.4836C108.699 69.1492 106.73 68.1068 105.01 66.5407C104.561 66.1327 103.916 65.3169 103.19 64.3145C102.669 63.5943 102.092 62.7584 101.496 61.8698C102.187 63.2701 102.835 64.5904 103.355 65.6538C103.464 65.8753 103.388 66.1429 103.179 66.2746C102.971 66.4063 102.697 66.3598 102.543 66.1668C101.769 65.1932 99.5257 62.4324 96.762 59.2008C94.1454 56.1413 90.7166 56.1916 89.3785 56.5754C89.2425 56.6144 89.0962 56.5918 88.9783 56.5136C88.9663 56.5057 88.9547 56.4972 88.9436 56.4883C88.5124 59.5539 86.0759 61.1851 84.8252 61.6407C84.6069 61.7203 84.3628 61.6331 84.2443 61.4333C84.1691 61.3065 84.1579 61.1573 84.2043 61.0259C83.2963 62.1971 82.374 63.1531 81.6827 63.7684C81.5011 63.9299 81.2279 63.9315 81.0445 63.7721C80.8611 63.6126 80.8247 63.3418 80.9595 63.1396C81.5394 62.2696 82.6714 59.8587 82.4886 57.3356C82.3716 55.7213 81.3591 51.1074 80.2293 46.6225C79.6672 44.391 79.0806 42.209 78.5701 40.4733C78.3147 39.605 78.0794 38.8521 77.8766 38.262C77.6692 37.6588 77.5075 37.2617 77.4027 37.0789C77.1935 36.7139 76.8325 35.9566 76.3647 34.975C76.2216 34.6748 76.0685 34.3537 75.9068 34.0164C75.2077 32.5588 74.3292 30.7627 73.3442 28.9389C72.3585 27.1136 71.2709 25.2696 70.1551 23.7143C69.0318 22.1484 67.9108 20.9195 66.8689 20.2775C64.8887 19.0573 63.1974 18.6878 61.9665 18.6702C61.9693 18.6858 61.9714 18.7017 61.9727 18.7178C61.9912 18.9519 61.8386 19.1654 61.6112 19.2238C60.3458 19.5487 58.4154 20.1732 56.7468 20.9847C55.9118 21.3908 55.1604 21.8351 54.5936 22.3004C54.0168 22.7739 53.6882 23.2225 53.5952 23.6236C53.4785 24.127 53.4044 25.017 53.3689 26.1665C53.3338 27.3035 53.3372 28.6578 53.3642 30.0681C53.4178 32.8607 53.5639 35.8556 53.6837 37.7828C56.8092 47.9849 62.3279 52.4305 64.5728 53.365C64.7155 53.4244 64.8212 53.5485 64.8571 53.6988L66.466 60.4402C66.5117 60.6317 66.4366 60.8317 66.2763 60.9459L63.3802 63.008C63.2353 63.1111 63.0454 63.1263 62.8859 63.0475C62.7264 62.9687 62.6232 62.8085 62.6172 62.6308C62.5543 60.7695 62.2008 59.7505 61.847 59.2267C61.4999 58.7129 61.188 58.7087 61.1056 58.7256C61.0687 58.7332 61.031 58.7364 60.9934 58.7352L50.7766 58.418C50.621 58.4132 50.4772 58.3336 50.3905 58.2043C50.3037 58.075 50.2846 57.9119 50.3391 57.766C50.522 57.2765 51.1356 55.5048 52.1001 52.3988C52.3933 51.4543 52.5368 50.7043 52.5473 49.9552C52.5577 49.2053 52.4353 48.4298 52.1655 47.4338C51.8622 46.3138 51.3886 44.9645 50.7386 43.1128C50.2111 41.6101 49.5675 39.7765 48.8044 37.466C46.1852 29.5351 47.6588 23.0899 48.9031 20.4627C48.8616 20.3863 48.8345 20.3069 48.8165 20.2322C48.7516 19.9622 48.7716 19.6069 48.8576 19.1718C49.0328 18.2846 49.5291 16.8473 50.596 14.5844C51.7281 12.1829 53.7219 10.8612 55.7167 10.1849C57.6334 9.53513 59.58 9.46928 60.8544 9.61532C66.4034 7.17887 71.157 7.62058 75.2101 9.81901C79.2642 12.0179 82.5742 15.95 85.3023 20.3761C88.0343 24.8083 90.211 29.7834 91.9767 34.1197C92.4184 35.2045 92.8349 36.2507 93.2279 37.2385L93.269 37.3418C93.6469 38.2919 94.0027 39.1862 94.3392 40.0108ZM59.4058 18.8742C59.3685 18.8209 59.3416 18.7595 59.3281 18.6927C59.286 18.4838 59.3858 18.2719 59.5737 18.1713C60.6956 17.5709 63.6587 17.1646 67.3758 19.4549C68.5864 20.2009 69.7984 21.5595 70.9402 23.1511C72.0895 24.7533 73.1991 26.6369 74.1944 28.4797C75.1904 30.324 76.0767 32.1365 76.7779 33.5986C76.9495 33.9562 77.109 34.2909 77.2558 34.5989C77.7162 35.5645 78.0516 36.2681 78.2409 36.5983C78.3976 36.8715 78.5853 37.3518 78.7903 37.9479C78.9997 38.557 79.2395 39.3252 79.497 40.2006C80.0122 41.952 80.6021 44.1469 81.1663 46.3865C82.2891 50.8439 83.3279 55.549 83.4523 57.2657C83.5498 58.6118 83.3156 59.9157 82.9734 61.0163C83.5085 60.3719 84.0557 59.6392 84.5576 58.8481C85.7305 56.9994 86.6203 54.8875 86.5902 52.8665C86.5863 52.6075 86.7873 52.3916 87.0459 52.377C87.3044 52.3623 87.5286 52.5541 87.554 52.8119C87.6521 53.8063 87.6431 55.4144 87.3028 57.0501C87.1499 57.7854 86.9269 58.5408 86.6081 59.2538C87.3549 58.4338 87.9785 57.2838 88.0386 55.7745C88.1675 52.5333 88.1442 51.1201 88.1203 50.8379C88.0982 50.5754 88.2903 50.3436 88.5523 50.3166C88.8143 50.2897 89.0496 50.4776 89.0813 50.7391L89.6608 55.5239C91.4866 55.2142 94.8704 55.5025 97.4962 58.5729C98.6526 59.925 99.7184 61.1952 100.625 62.2878C99.0702 59.1375 97.3031 55.588 96.2967 53.6543C96.0147 53.1817 95.7927 52.8009 95.6512 52.5468C95.5816 52.4218 95.525 52.3162 95.4911 52.2434C95.4852 52.2309 95.4789 52.2169 95.4726 52.2021C95.4694 52.1945 95.4662 52.1866 95.4632 52.1787L95.4627 52.1775C95.4572 52.1634 95.4369 52.1111 95.4284 52.0466L95.4282 52.0448C95.4252 52.0231 95.4089 51.9033 95.4713 51.7718C95.5119 51.6862 95.5891 51.5906 95.7146 51.5355C95.8324 51.4839 95.9399 51.4912 96.0041 51.504C96.1131 51.5255 96.1857 51.5796 96.2021 51.5918L96.2031 51.5925C96.2302 51.6127 96.2505 51.6319 96.2616 51.6428C96.3061 51.6868 96.3407 51.7362 96.3582 51.7617C96.381 51.7949 96.4052 51.8331 96.4298 51.8734C96.4792 51.9545 96.5396 52.0601 96.6089 52.1851C96.7465 52.4334 96.9271 52.7732 97.1407 53.1833C98.1265 54.8345 99.8666 57.6429 101.562 60.2231C102.413 61.5164 103.249 62.7488 103.973 63.7478C104.706 64.7599 105.296 65.4953 105.66 65.8261C106.607 66.688 107.637 67.383 108.473 67.8724C105.022 61.7076 98.6126 50.2785 95.3417 44.5328C94.7711 43.5304 94.1433 42.0878 93.4446 40.3759C93.1064 39.5472 92.7493 38.6493 92.372 37.7009L92.3301 37.5956C91.937 36.6076 91.5219 35.5648 91.0818 34.4841C89.3204 30.1583 87.168 25.2443 84.4799 20.8831C81.7879 16.5157 78.5867 12.7497 74.7494 10.6683C70.9412 8.60271 66.4636 8.17211 61.1247 10.5523C61.0432 10.5886 60.9534 10.6016 60.865 10.59C59.7207 10.4396 57.8537 10.4806 56.027 11.1C54.2086 11.7164 52.4616 12.893 51.4699 14.9964C50.413 17.2383 49.9573 18.59 49.8054 19.3591C49.7491 19.6444 49.7403 19.8226 49.7456 19.9235C49.811 19.9611 49.8677 20.0142 49.9101 20.0797C50.0057 20.2275 50.0133 20.4156 49.9301 20.5706C48.7871 22.6992 47.0598 29.102 49.7219 37.163C50.4642 39.4107 51.1022 41.2297 51.631 42.7376C52.2958 44.633 52.7881 46.0365 53.0981 47.1813C53.3815 48.2276 53.5255 49.0978 53.5133 49.9687C53.5012 50.8405 53.3329 51.6866 53.0228 52.6853C52.2995 55.0147 51.7703 56.6046 51.4691 57.4728L60.9738 57.768C61.5216 57.6847 62.1606 57.9649 62.6476 58.6858C63.0664 59.3059 63.3949 60.2711 63.5284 61.7164L65.4506 60.3477L63.9728 54.1559C61.2999 52.9087 55.8364 48.1555 52.7429 38.0105C52.732 37.9745 52.7252 37.9374 52.7229 37.8998C52.6019 35.9649 52.4527 32.9241 52.3982 30.0867C52.371 28.6683 52.3674 27.2962 52.4031 26.1366C52.4386 24.9894 52.5133 24.0123 52.654 23.4054C52.8184 22.6961 53.3425 22.0774 53.9805 21.5536C54.6284 21.0218 55.4538 20.5392 56.3243 20.1158C57.3274 19.628 58.4143 19.2074 59.4058 18.8742ZM49.7587 20.0159C49.7587 20.0159 49.7584 20.0153 49.758 20.014C49.7585 20.0152 49.7587 20.0159 49.7587 20.0159ZM84.3969 60.7739C85.0284 60.1991 85.4987 59.4363 85.8413 58.5885C85.6903 58.8537 85.5337 59.1131 85.3734 59.3657C85.0604 59.8591 84.7308 60.3306 84.3969 60.7739Z" fill="#232323"/>
<path d="M68.412 48.9343C68.2999 49.0349 68.1815 49.1043 68.0602 49.1395C66.6883 49.5467 65.8305 48.4637 64.8697 48.4295C63.9435 48.3974 62.9134 49.6805 61.5762 49.411C61.4456 49.3848 61.3202 49.3124 61.2019 49.2018C60.5164 48.5633 60.1248 46.6628 61.16 45.3204C61.7873 44.5059 62.9399 43.8965 64.8697 43.8965C66.9678 43.8965 68.1377 44.5622 68.7099 45.4189C69.5432 46.6698 69.1016 48.333 68.412 48.9343Z" fill="#232323"/>
<path d="M68.4121 48.9349C68.2999 49.0355 68.1816 49.1049 68.0602 49.1401C66.6883 49.5473 65.8305 48.4643 64.8697 48.4301C63.9436 48.398 62.9134 49.681 61.5762 49.4116C61.4457 49.3854 61.3202 49.313 61.2019 49.2024C61.6017 47.5835 63.0797 46.3828 64.8462 46.3828C66.5119 46.3828 67.9245 47.4527 68.4121 48.9349Z" fill="#8D8D8D"/>
<ellipse cx="57.871" cy="33.984" rx="2.49386" ry="2.45862" fill="white"/>
<ellipse cx="69.6162" cy="32.8727" rx="2.49386" ry="2.45862" fill="white"/>
<ellipse cx="57.871" cy="34.8031" rx="1.66257" ry="1.63908" fill="#232323"/>
<ellipse cx="69.6163" cy="33.6918" rx="1.66257" ry="1.63908" fill="#232323"/>
<ellipse cx="71.3885" cy="38.4021" rx="3.31897" ry="0.892381" fill="#B2B2B2"/>
<ellipse cx="57.625" cy="39.0994" rx="3.31897" ry="0.892381" fill="#B2B2B2"/>
<path fill-rule="evenodd" clip-rule="evenodd" d="M45.69 48.9822C45.9041 49.1415 45.9486 49.4441 45.7893 49.6582C44.7441 51.0633 42.7598 54.259 40.674 57.6906C39.8675 59.0174 39.0471 60.3774 38.2635 61.6765C37.1245 63.5646 36.0633 65.3239 35.2354 66.6653L38.5811 69.9637C38.7711 70.151 38.7733 70.4569 38.5859 70.6469C38.3986 70.8369 38.0928 70.8391 37.9028 70.6518L34.0079 66.8119L34.2113 66.4841C35.0624 65.1125 36.1993 63.2278 37.4305 61.1868C38.2147 59.8868 39.0371 58.5234 39.8483 57.1887C41.9243 53.7732 43.9355 50.5315 45.0141 49.0815C45.1733 48.8674 45.476 48.823 45.69 48.9822Z" fill="#232323"/>
<path d="M61.7324 58.8068C60.8475 58.4896 48.1369 57.6965 47.1715 59.0448C46.4134 60.1037 47.609 68.5871 48.338 72.924L48.5391 74.9861L58.1928 83.4723L64.709 76.2551C64.0118 70.5447 62.4404 59.0606 61.7324 58.8068Z" fill="#C3C3C3"/>
<path d="M72.9146 86.0114C75.7464 91.7218 89.7549 100.393 96.4052 104.015L75.4889 104.253L69.6967 96.7976C69.375 96.454 67.5568 95.1638 62.8587 92.7528C58.1606 90.3418 56.8789 86.6724 56.8252 85.139C47.5738 80.3011 46.2062 77.6046 48.2978 77.6046C49.5109 77.6046 52.2345 78.8549 54.4278 79.996C52.5061 78.9041 50.2435 77.505 49.3437 76.5735C47.7347 74.908 47.9761 73.4804 50.1481 74.1149C52.3202 74.7494 63.1806 81.3321 63.1806 79.9839C63.1806 78.6356 61.8129 75.7011 59.2386 73.0839C56.6643 70.4666 56.9861 68.9597 57.9515 68.246C58.9169 67.5322 58.756 69.0391 63.0197 72.6873C67.2833 76.3356 69.375 78.8735 72.9146 86.0114Z" fill="#D4D4D4"/>
<path fill-rule="evenodd" clip-rule="evenodd" d="M59.7217 68.6502C60.3391 69.4009 61.3456 70.6248 63.336 72.3279C65.4814 74.1637 67.0986 75.7356 68.6257 77.7565C70.15 79.7735 71.573 82.2225 73.3483 85.8024C74.0166 87.1501 75.3703 88.7147 77.174 90.3765C78.9693 92.0305 81.1761 93.75 83.5104 95.4105C88.1788 98.7313 93.3264 101.794 96.6386 103.598L98.2389 104.47L76.5319 106.532L69.3295 97.1075C69.2735 97.052 69.1337 96.9338 68.8696 96.7448C68.5919 96.546 68.1974 96.2834 67.663 95.954C66.5945 95.2954 64.977 94.3763 62.6359 93.1749C58.0368 90.8147 56.5542 87.2543 56.3629 85.4355C51.8706 83.0697 49.229 81.1995 47.9586 79.886C47.6332 79.5495 47.3847 79.2365 47.2182 78.9487C47.0559 78.6681 46.9459 78.3677 46.9652 78.071C46.9867 77.74 47.1655 77.4773 47.4412 77.3188C47.6903 77.1756 47.9953 77.1287 48.2979 77.1287C48.631 77.1287 49.0257 77.2033 49.4436 77.3182C49.2736 77.1737 49.1222 77.0343 48.9941 76.9017C48.5665 76.459 48.2453 76.0157 48.0478 75.5989C47.8552 75.1923 47.7549 74.7557 47.8615 74.3597C47.9793 73.9218 48.3202 73.6387 48.7687 73.5341C49.1883 73.4363 49.7044 73.489 50.2853 73.6587C50.8844 73.8337 52.0189 74.3916 53.3252 75.0679C54.0212 75.4283 54.7932 75.8369 55.5847 76.2559C56.2892 76.6288 57.0092 77.0099 57.7045 77.3722C59.1987 78.1509 60.607 78.858 61.6373 79.2864C62.0789 79.47 62.4258 79.5915 62.6698 79.6502C62.582 79.0729 62.2861 78.2284 61.7489 77.2333C61.1063 76.0431 60.1475 74.6915 58.8921 73.4151C57.5777 72.0788 56.9331 70.9596 56.7904 70.0217C56.6407 69.0383 57.052 68.3162 57.6619 67.8653C57.8053 67.7592 57.9751 67.6574 58.1722 67.6166C58.3909 67.5712 58.5951 67.6101 58.7772 67.7053C58.9412 67.7911 59.0822 67.9197 59.206 68.0488C59.3327 68.1811 59.4711 68.3462 59.6232 68.5306C59.6549 68.5691 59.6877 68.6089 59.7217 68.6502ZM54.661 79.5793C53.7075 79.0374 52.6742 78.4219 51.77 77.8285C50.8535 77.227 50.1027 76.6693 49.6932 76.2454C49.3164 75.8553 49.0644 75.4956 48.9225 75.1961C48.7758 74.8865 48.7704 74.6935 48.7946 74.6038C48.8075 74.5559 48.8336 74.497 48.9909 74.4603C49.1773 74.4168 49.5058 74.4236 50.011 74.5712C50.498 74.7134 51.5355 75.2163 52.8764 75.9105C53.5786 76.2741 54.3374 76.6758 55.1194 77.0898C55.8201 77.4608 56.5395 77.8416 57.2533 78.2136C58.7457 78.9914 60.1882 79.7168 61.2621 80.1633C61.7918 80.3836 62.2674 80.5513 62.6261 80.6135C62.7944 80.6427 63.0102 80.6629 63.2075 80.5996C63.3169 80.5645 63.4411 80.497 63.5353 80.3732C63.631 80.2476 63.6632 80.1069 63.6632 79.9839C63.6632 79.1911 63.2759 78.0362 62.6011 76.7862C61.9163 75.5178 60.9041 74.0935 59.5852 72.7526C58.3253 71.4717 57.8437 70.5288 57.745 69.8805C57.6533 69.2777 57.8856 68.8895 58.2411 68.6266C58.2913 68.5896 58.3253 68.5696 58.3459 68.559C58.3755 68.5792 58.4258 68.6205 58.5042 68.7024C58.6028 68.8052 58.7196 68.9437 58.8742 69.1311C58.9057 69.1693 58.9384 69.209 58.9722 69.2501C59.6025 70.0163 60.6497 71.2896 62.7033 73.0467C64.8216 74.8593 66.3821 76.3805 67.8516 78.3251C69.324 80.2735 70.7166 82.6625 72.481 86.2205C73.2286 87.728 74.6879 89.3886 76.5149 91.0719C78.3505 92.763 80.5925 94.5084 82.9455 96.1822C86.9663 99.0424 91.3341 101.71 94.6028 103.559L75.7251 103.774L70.0665 96.4909L70.0514 96.4749C69.9361 96.3517 69.7284 96.1834 69.4368 95.9746C69.1363 95.7595 68.7223 95.4845 68.1747 95.147C67.0792 94.4718 65.4386 93.5403 63.0816 92.3307C58.5339 89.9968 57.3551 86.4801 57.3076 85.1226L57.298 84.8476L57.0514 84.7187C52.4362 82.3052 49.8385 80.4505 48.6572 79.2292C48.3642 78.9262 48.1714 78.6754 48.0567 78.4771C47.9468 78.2871 47.9288 78.1805 47.9284 78.1404C47.9694 78.1173 48.0792 78.0804 48.2979 78.0804C48.5308 78.0804 48.8753 78.143 49.3213 78.2738C49.7594 78.4024 50.2651 78.5877 50.8094 78.8115C51.8948 79.258 53.1066 79.8469 54.1946 80.4127C55.0238 80.8838 55.7899 81.298 56.3583 81.5942L56.8274 80.7627C56.2552 80.433 55.4962 80.014 54.661 79.5793Z" fill="#D4D4D4"/>
<path fill-rule="evenodd" clip-rule="evenodd" d="M58.2506 67.0851C58.4264 67.0129 58.6282 67.0504 58.7662 67.1811C60.1071 68.4502 63.3527 71.5282 65.6062 73.6865C65.7989 73.871 65.8055 74.1768 65.621 74.3695C65.4365 74.5622 65.1307 74.5688 64.938 74.3843C62.8085 72.3449 59.7914 69.4824 58.3363 68.1046C57.647 68.4406 57.3402 68.8178 57.2196 69.1625C57.0801 69.5611 57.1449 70.0407 57.3959 70.594C57.905 71.7166 59.0394 72.8434 59.7386 73.5327C60.342 74.1276 61.049 75.2643 61.6704 76.3869C62.3019 77.5277 62.8788 78.7173 63.2183 79.4671C63.303 79.6541 63.2602 79.8743 63.1117 80.016C62.9631 80.1577 62.7412 80.19 62.5584 80.0965C61.1125 79.3574 57.4491 77.5147 54.3663 76.0584C52.436 75.1465 51.0437 74.5694 50.0353 74.3043C49.0031 74.0329 48.5287 74.1309 48.2793 74.3321C48.2679 74.3413 48.2178 74.3858 48.2243 74.5785C48.2308 74.7713 48.2946 75.03 48.4124 75.334C48.646 75.9369 49.041 76.5912 49.3358 77.0082C49.4899 77.2261 49.4381 77.5275 49.2202 77.6816C49.0024 77.8356 48.7009 77.7838 48.5469 77.566C48.2249 77.1105 47.7833 76.3848 47.5115 75.6831C47.3765 75.3348 47.2704 74.96 47.2586 74.611C47.2469 74.262 47.3301 73.8564 47.6727 73.58C48.3083 73.0674 49.2014 73.0861 50.281 73.3699C51.3842 73.6599 52.8478 74.2725 54.779 75.1848C57.1873 76.3224 59.9452 77.6934 61.734 78.5951C61.4635 78.0487 61.1515 77.4445 60.8251 76.8548C60.1983 75.7224 59.551 74.7046 59.0603 74.2208L59.0376 74.1984C58.3634 73.5338 57.1062 72.2946 56.5159 70.9931C56.2138 70.327 56.0524 69.5724 56.3076 68.8433C56.5663 68.1041 57.2097 67.5127 58.2506 67.0851Z" fill="#232323"/>
<path fill-rule="evenodd" clip-rule="evenodd" d="M104.32 70.3017C104.546 70.1606 104.844 70.2297 104.985 70.4561C107.071 73.8018 110.535 84.3875 108.271 100.52C108.234 100.784 107.99 100.968 107.726 100.931C107.462 100.894 107.278 100.65 107.315 100.386C109.556 84.4137 106.101 74.0721 104.165 70.9673C104.024 70.7409 104.093 70.4429 104.32 70.3017Z" fill="#232323"/>
<path d="M17.4693 64.4223C16.5596 58.8964 16.382 56.4716 16.4069 55.9499C32.7443 62.0603 29.2186 70.4464 25.4135 73.8756C23.1445 73.0269 18.3789 69.9481 17.4693 64.4223Z" fill="#A9A9A9"/>
<path fill-rule="evenodd" clip-rule="evenodd" d="M21.3845 62.4991C21.6119 62.3601 21.9097 62.4318 22.0496 62.6593C22.6261 63.5964 23.4052 65.5911 24.1333 67.6478C24.8687 69.7249 25.5728 71.927 25.997 73.3218C26.0747 73.5771 25.9305 73.8463 25.675 73.923C25.4196 73.9997 25.1495 73.8549 25.0719 73.5996C24.6509 72.2153 23.9512 70.0274 23.2218 67.967C22.4851 65.8861 21.7385 63.9955 21.2262 63.1627C21.0862 62.9352 21.1571 62.6381 21.3845 62.4991Z" fill="#333333"/>
<path d="M99.6415 58.3583C103.229 54.035 104.95 52.303 105.361 51.9774C111.508 68.1842 102.827 71.0888 97.7181 70.5153C96.8644 68.2643 96.0538 62.6816 99.6415 58.3583Z" fill="#A9A9A9"/>
<path fill-rule="evenodd" clip-rule="evenodd" d="M103.681 60.0096C103.936 60.0883 104.079 60.3579 103.999 60.6117C103.669 61.6592 102.672 63.5554 101.593 65.4549C100.504 67.3732 99.3001 69.3506 98.5229 70.5869C98.381 70.8126 98.0818 70.8819 97.8547 70.7416C97.6276 70.6013 97.5585 70.3045 97.7004 70.0788C98.4718 68.8518 99.6683 66.887 100.749 64.984C101.84 63.0624 102.78 61.2584 103.073 60.3267C103.153 60.0729 103.425 59.9309 103.681 60.0096Z" fill="#333333"/>
<path d="M119.544 37.2226C125.183 37.4975 127.611 37.833 128.12 37.9664C118.675 52.5291 111.144 47.3544 108.559 42.9467C109.871 40.9241 113.905 36.9476 119.544 37.2226Z" fill="#A9A9A9"/>
<path fill-rule="evenodd" clip-rule="evenodd" d="M120.617 41.4234C120.704 41.6754 120.571 41.9507 120.319 42.0382C119.275 42.4006 117.147 42.7384 114.966 43.0138C112.764 43.2919 110.445 43.5136 108.981 43.6329C108.715 43.6546 108.482 43.4565 108.46 43.1906C108.439 42.9247 108.637 42.6916 108.903 42.6699C110.356 42.5515 112.66 42.3311 114.845 42.0552C117.05 41.7766 119.072 41.4484 120.002 41.1255C120.254 41.038 120.529 41.1714 120.617 41.4234Z" fill="#333333"/>
<path d="M25.9912 40.2294C35.7369 40.2294 43.6374 32.4405 43.6374 22.8325C43.6374 13.2244 35.7369 5.43555 25.9912 5.43555C16.2454 5.43555 8.34488 13.2244 8.34488 22.8325C8.34488 32.4405 16.2454 40.2294 25.9912 40.2294Z" fill="#999999"/>
<g clip-path="url(#clip0_5388_34944)">
<path d="M22.3263 21.2551C22.181 21.2551 22.039 21.2982 21.9182 21.3789C21.7974 21.4597 21.7032 21.5744 21.6476 21.7086C21.592 21.8429 21.5775 21.9906 21.6058 22.1331C21.6342 22.2756 21.7042 22.4065 21.8068 22.5092C21.9096 22.6119 22.0405 22.6819 22.183 22.7102C22.3255 22.7386 22.4732 22.7241 22.6075 22.6684C22.7417 22.6128 22.8565 22.5187 22.9372 22.3979C23.0179 22.2771 23.061 22.1351 23.061 21.9897C23.061 21.7949 22.9836 21.6081 22.8458 21.4703C22.708 21.3325 22.5212 21.2551 22.3263 21.2551ZM19.9094 15.5911C19.8409 15.5226 19.7596 15.4682 19.6701 15.4312C19.5806 15.3941 19.4847 15.375 19.3878 15.375C19.2909 15.375 19.195 15.3941 19.1055 15.4312C19.016 15.4682 18.9347 15.5226 18.8662 15.5911C18.7278 15.7294 18.6502 15.917 18.6502 16.1127C18.6502 16.3084 18.7278 16.4959 18.8662 16.6343L20.5779 18.3166C20.043 18.3849 19.5517 18.6469 19.197 19.053C18.8423 19.4592 18.6488 19.9812 18.6532 20.5205V24.9283C18.6532 25.5128 18.8853 26.0734 19.2987 26.4868C19.712 26.9001 20.2725 27.1322 20.8571 27.1322H21.5917V29.3361C21.5917 29.531 21.6691 29.7178 21.8069 29.8556C21.9447 29.9934 22.1315 30.0708 22.3263 30.0708H29.6727C29.8675 30.0708 30.0544 29.9934 30.1922 29.8556C30.3299 29.7178 30.4073 29.531 30.4073 29.3361V28.168L32.0897 29.8577C32.158 29.9266 32.2392 29.9813 32.3287 30.0185C32.4183 30.0558 32.5143 30.075 32.6113 30.075C32.7083 30.075 32.8043 30.0558 32.8938 30.0185C32.9833 29.9813 33.0645 29.9266 33.1328 29.8577C33.2017 29.7894 33.2563 29.7082 33.2937 29.6186C33.331 29.5291 33.3502 29.4331 33.3502 29.3361C33.3502 29.2391 33.331 29.1431 33.2937 29.0536C33.2563 28.9641 33.2017 28.8828 33.1328 28.8145L19.9094 15.5911ZM21.5917 24.9283V25.6629H20.8571C20.6622 25.6629 20.4753 25.5856 20.3376 25.4478C20.1998 25.31 20.1224 25.1232 20.1224 24.9283V20.5205C20.1224 20.3256 20.1998 20.1388 20.3376 20.001C20.4754 19.8632 20.6622 19.7858 20.8571 19.7858H22.0252L26.433 24.1936H22.3263C22.1315 24.1936 21.9447 24.2711 21.8068 24.4088C21.6691 24.5466 21.5917 24.7334 21.5917 24.9283ZM28.9381 28.6014H23.061V25.6629H27.9022L28.9381 26.6988V28.6014ZM31.142 18.3166H30.4073V16.1126C30.4073 15.9178 30.3299 15.7309 30.1922 15.5932C30.0544 15.4554 29.8675 15.378 29.6727 15.378H23.5458C23.351 15.378 23.1642 15.4554 23.0263 15.5932C22.8886 15.7309 22.8112 15.9178 22.8112 16.1126C22.8112 16.3074 22.8886 16.4943 23.0263 16.6321C23.1642 16.7699 23.351 16.8473 23.5458 16.8473H28.9381V18.3166H26.4844C26.2895 18.3166 26.1027 18.3939 25.9649 18.5317C25.8272 18.6695 25.7497 18.8564 25.7497 19.0512C25.7497 19.246 25.8272 19.4329 25.9649 19.5707C26.1027 19.7084 26.2895 19.7858 26.4844 19.7858H31.142C31.3368 19.7858 31.5237 19.8632 31.6615 20.001C31.7992 20.1387 31.8766 20.3256 31.8766 20.5205V24.9283C31.8807 24.9551 31.8807 24.9823 31.8766 25.0091C31.8573 25.1036 31.8568 25.2011 31.8752 25.2958C31.8935 25.3906 31.9303 25.4808 31.9835 25.5613C32.0368 25.6418 32.1053 25.7109 32.1853 25.765C32.2652 25.819 32.3551 25.8567 32.4497 25.8759H32.5966C32.7684 25.8795 32.936 25.8226 33.0703 25.7151C33.2045 25.6078 33.2968 25.4567 33.3312 25.2882C33.3465 25.1689 33.3514 25.0484 33.3459 24.9283V20.5205C33.3459 19.9359 33.1137 19.3754 32.7003 18.9621C32.2871 18.5487 31.7265 18.3166 31.142 18.3166Z" fill="white"/>
</g>
<path fill-rule="evenodd" clip-rule="evenodd" d="M25.9912 37.8139C34.4354 37.8139 41.222 31.0742 41.222 22.8325C41.222 14.5907 34.4354 7.85101 25.9912 7.85101C17.5469 7.85101 10.7603 14.5907 10.7603 22.8325C10.7603 31.0742 17.5469 37.8139 25.9912 37.8139ZM43.6374 22.8325C43.6374 32.4405 35.7369 40.2294 25.9912 40.2294C16.2454 40.2294 8.34488 32.4405 8.34488 22.8325C8.34488 13.2244 16.2454 5.43555 25.9912 5.43555C35.7369 5.43555 43.6374 13.2244 43.6374 22.8325Z" fill="white"/>
</g>
<defs>
<clipPath id="clip0_5388_34944">
<rect width="16" height="16" fill="white" transform="translate(18.0002 14.7246)"/>
</clipPath>
</defs>
</svg>
