<svg width="44" height="44" viewBox="0 0 44 44" fill="none" xmlns="http://www.w3.org/2000/svg">
<rect width="44" height="44" fill="#F8F9FE"/>
<g clip-path="url(#clip0_2184_29140)">
<path d="M25.4218 20.2861C26.3658 20.2861 27.131 19.5208 27.131 18.5769C27.131 17.6328 26.3658 16.8676 25.4218 16.8676C24.4778 16.8676 23.7126 17.6329 23.7126 18.5769C23.7126 19.5208 24.4778 20.2861 25.4218 20.2861Z" fill="#8F9098"/>
<path fill-rule="evenodd" clip-rule="evenodd" d="M22.0532 12.8081H21.9551C19.9824 12.8081 18.4362 12.8081 17.23 12.9703C15.9953 13.1363 15.021 13.4827 14.2563 14.2474C13.4916 15.0121 13.1452 15.9865 12.9792 17.2212C12.817 18.4274 12.817 19.9736 12.817 21.9463V21.9963C12.817 22.4472 12.817 22.8745 12.8188 23.2786C12.8258 24.8672 12.8592 26.1466 13.0421 27.1748C13.2283 28.2216 13.5784 29.0654 14.2563 29.7434C15.021 30.5081 15.9953 30.8545 17.23 31.0206C18.4362 31.1827 19.9824 31.1827 21.9551 31.1827H22.0532C24.026 31.1827 25.572 31.1827 26.7783 31.0206C28.013 30.8545 28.9873 30.5081 29.7521 29.7434C30.0215 29.4739 30.2427 29.1744 30.4229 28.8398C30.8312 28.0816 31.0137 27.1686 31.1027 26.0758C31.1913 24.9886 31.1913 23.6531 31.1913 22.0218V21.9463C31.1913 19.9736 31.1913 18.4274 31.0292 17.2212C30.8631 15.9865 30.5167 15.0121 29.7521 14.2474C28.9873 13.4827 28.013 13.1363 26.7783 12.9703C25.572 12.8081 24.026 12.8081 22.0532 12.8081ZM15.1628 15.1539C15.6496 14.667 16.3083 14.3877 17.4008 14.2408C18.5118 14.0914 19.9717 14.09 22.0042 14.09C24.0366 14.09 25.4964 14.0914 26.6075 14.2408C27.7 14.3877 28.3587 14.667 28.8455 15.1539C29.3324 15.6408 29.6118 16.2994 29.7586 17.392C29.908 18.503 29.9094 19.9629 29.9094 21.9954C29.9094 23.6584 29.9088 24.9424 29.825 25.9717C29.7478 26.9196 29.6032 27.5915 29.3597 28.1028L26.9408 25.9258C26.0523 25.1263 24.7293 25.0466 23.7514 25.7339L23.4966 25.913C22.8169 26.3906 21.8924 26.3105 21.3051 25.7231L17.6391 22.057C16.9073 21.3253 15.7336 21.2862 14.9548 21.9676L14.0992 22.7162C14.0989 22.4838 14.0989 22.2437 14.0989 21.9954C14.0989 19.9629 14.1003 18.503 14.2497 17.392C14.3966 16.2994 14.6759 15.6407 15.1628 15.1539Z" fill="#8F9098"/>
</g>
<defs>
<clipPath id="clip0_2184_29140">
<rect width="20" height="20" fill="white" transform="translate(12 12)"/>
</clipPath>
</defs>
</svg>
