<svg width="140" height="102" viewBox="0 0 140 102" fill="none" xmlns="http://www.w3.org/2000/svg">
<mask id="mask0_6902_38118" style="mask-type:alpha" maskUnits="userSpaceOnUse" x="0" y="0" width="140" height="102">
<path d="M0 38.6473C0 17.303 17.303 0 38.6473 0H101.353C122.697 0 140 17.303 140 38.6473V62.8019C140 84.1463 122.697 101.449 101.353 101.449H38.6473C17.303 101.449 0 84.1463 0 62.8019V38.6473Z" fill="#FFB21D"/>
</mask>
<g mask="url(#mask0_6902_38118)">
<path fill-rule="evenodd" clip-rule="evenodd" d="M11.4265 86.8065C14.228 87.2372 15.9399 90.0036 16.6301 92.5947L16.7822 93.1656L17.3115 92.9031C21.4422 90.855 23.8732 92.6444 24.5408 93.6374L24.857 94.1078L25.2713 93.7211C27.2535 91.8711 28.7829 91.5716 29.8468 91.8052C30.9364 92.0443 31.6952 92.8749 32.0535 93.5854C32.1736 93.8237 32.4641 93.9194 32.7023 93.7993C32.9406 93.6792 33.0363 93.3887 32.9162 93.1504C32.4698 92.2652 31.5088 91.1808 30.0539 90.8614C28.6642 90.5564 26.9579 90.9768 24.9995 92.6668C23.844 91.4113 21.2225 90.1192 17.4027 91.7943C16.5858 89.2218 14.7385 86.3382 11.5733 85.8515C9.87778 85.5909 7.88657 86.038 5.59292 87.4807C3.3025 88.9213 0.684351 91.3696 -2.29185 95.1643C-2.45651 95.3742 -2.4198 95.6779 -2.20986 95.8425C-1.99993 96.0072 -1.69626 95.9705 -1.53161 95.7606C1.40598 92.0151 3.9448 89.6587 6.10732 88.2985C8.26662 86.9404 10.0243 86.5909 11.4265 86.8065Z" fill="#23BA3B"/>
<path fill-rule="evenodd" clip-rule="evenodd" d="M118.465 86.3187C117.584 87.6239 116.978 89.2556 116.635 90.7946L116.491 91.4446L115.918 91.1051C113.842 89.8751 112.223 89.8213 111.058 90.1851C109.873 90.5548 109.091 91.3763 108.74 91.9991L108.41 92.5869L107.959 92.0848C105.963 89.8582 104.452 89.5304 103.433 89.7978C102.367 90.0776 101.595 91.0639 101.221 91.9501C101.117 92.1959 100.834 92.3111 100.588 92.2074C100.342 92.1037 100.227 91.8203 100.331 91.5745C100.762 90.5534 101.71 89.2511 103.188 88.8633C104.611 88.49 106.324 89.0096 108.258 90.9898C108.786 90.3156 109.629 89.6191 110.77 89.2628C112.116 88.8427 113.823 88.9122 115.844 89.9595C116.223 88.5227 116.821 87.0283 117.664 85.7781C118.631 84.3462 119.952 83.1907 121.674 82.8744C123.4 82.5572 125.409 83.1058 127.701 84.8286C129.99 86.5494 132.605 89.4717 135.576 94.0006C135.723 94.2236 135.661 94.5231 135.438 94.6695C135.215 94.8159 134.915 94.7537 134.769 94.5306C131.827 90.0477 129.284 87.2274 127.12 85.6009C124.959 83.9763 123.22 83.5727 121.848 83.8247C120.472 84.0776 119.347 85.0126 118.465 86.3187Z" fill="#23BA3B"/>
<path d="M49.053 62.9318C44.3549 63.376 38.139 63.6456 35.6183 63.7249C25.7233 77.8421 35.9401 87.518 38.5144 88.7076C40.5739 89.6594 44.3066 85.5088 45.9155 83.3145L47.571 105.335L77.0832 106.981L107.377 103.777C107.538 101.371 107.844 94.0373 107.779 83.949C107.715 73.8608 98.1525 59.3893 93.3793 53.4146L75.8418 50.2422C68.8698 54.287 53.7511 62.4877 49.053 62.9318Z" fill="#FBF3E7"/>
<path fill-rule="evenodd" clip-rule="evenodd" d="M78.2222 43.9336C78.2895 43.6754 78.5534 43.5207 78.8115 43.588C80.9813 44.1538 83.646 45.6754 85.1245 48.3059C86.621 50.9684 86.8462 54.6647 84.3098 59.4386C79.2776 68.9098 69.2906 74.5455 64.3726 76.3135C64.1215 76.4037 63.8448 76.2734 63.7546 76.0223C63.6643 75.7712 63.7947 75.4945 64.0457 75.4043C68.835 73.6826 78.5776 68.168 83.4565 58.9853C85.8756 54.4323 85.5823 51.0923 84.2822 48.7793C82.9642 46.4343 80.5544 45.041 78.5677 44.5229C78.3096 44.4556 78.1549 44.1917 78.2222 43.9336Z" fill="#CFCFCF"/>
<path fill-rule="evenodd" clip-rule="evenodd" d="M43.0411 65.8681C43.3031 65.8179 43.5563 65.9896 43.6065 66.2517C44.5188 71.0134 46.4758 82.4742 46.9928 90.1826C47.2144 93.4871 47.4214 96.7125 47.5939 99.3998C47.823 102.968 47.9911 105.587 48.0517 106.184C48.0786 106.45 47.8852 106.687 47.6198 106.714C47.3543 106.741 47.1173 106.547 47.0904 106.282C47.0282 105.669 46.857 103.002 46.6252 99.3918C46.4532 96.7119 46.2477 93.5121 46.0288 90.2473C45.516 82.6012 43.5687 71.1889 42.6576 66.4335C42.6073 66.1714 42.7791 65.9183 43.0411 65.8681Z" fill="#232323"/>
<path d="M57.8538 52.1449C53.2845 48.8456 51.1767 29.2507 50.6941 19.8656C54.7969 17.222 64.3701 12.0298 69.8405 12.4105C75.3109 12.7912 83.3824 38.7943 86.7343 51.7483C82.5779 54.6828 73.4284 61.0435 70.0818 63.0104C65.8985 65.469 64.1287 69.9897 63.646 67.5311C63.2599 65.5642 64.7723 63.6449 65.5768 62.9311L65.4159 60.6311C64.7991 59.1771 62.4232 55.4442 57.8538 52.1449Z" fill="#E5A072"/>
<ellipse cx="3.61229" cy="1.12362" rx="3.61229" ry="1.12362" transform="matrix(0.988147 -0.153511 0.153304 0.988179 63.5 46.0215)" fill="#232323"/>
<path d="M51.1597 19.3437L50.1354 16.0391L49.6873 16.1543C48.7224 16.4025 47.3122 16.9444 46.2205 17.7818C45.1312 18.6172 44.2492 19.8452 44.677 21.4174C45.1093 23.0058 45.6691 26.3456 45.9392 29.6402C46.0741 31.2848 46.1355 32.9043 46.0751 34.2778C46.0137 35.6738 45.8283 36.7411 45.5184 37.335C45.4553 37.456 45.3128 37.6526 45.07 37.9306C44.8333 38.2017 44.5219 38.5273 44.1429 38.9025C43.3851 39.6526 42.3747 40.5837 41.1909 41.6444C39.781 42.9076 38.1365 44.3445 36.3924 45.8684C35.2049 46.906 33.9713 47.9839 32.7343 49.0747C29.6866 51.7619 26.6252 54.5213 24.2233 56.9141C23.0226 58.1103 21.98 59.2215 21.1841 60.191C20.442 61.095 19.8799 61.9163 19.6258 62.5898C18.4122 63.7681 16.9193 65.7051 16.3268 67.7965C16.0216 68.8734 15.9489 70.0149 16.3019 71.1182C16.657 72.2277 17.4283 73.2528 18.729 74.1133C21.2372 75.7726 25.1301 77.2364 28.9361 78.3903C32.7545 79.5479 36.5365 80.4084 38.8578 80.8475L39.4422 80.958L39.4314 80.3715C39.4044 78.9103 39.3156 76.6581 39.136 74.6479C39.0463 73.6438 38.9331 72.6905 38.7917 71.923C38.7211 71.5396 38.6417 71.1933 38.5516 70.9058C38.4656 70.6315 38.3552 70.361 38.1994 70.1691C37.7806 69.653 37.0232 68.9721 36.2761 68.3485C35.5196 67.717 34.7397 67.1163 34.2507 66.7547L34.2308 66.74L34.2101 66.7277C36.099 63.4353 39.0539 58.5142 42.0643 53.958C43.6323 51.5848 45.2123 49.3153 46.6623 47.4284C48.1189 45.5328 49.4221 44.0531 50.4366 43.2347C51.6283 42.2735 52.3236 40.6483 52.7067 38.7543C53.0927 36.8464 53.1779 34.5844 53.0809 32.2531C52.8868 27.5884 51.9591 22.5633 51.1629 19.3568L51.1597 19.3437Z" fill="#E5A072"/>
<path d="M34.3907 66.8583L34.2024 66.7383C34.9915 69.7552 34.8468 75.2072 30.3953 78.8188C33.6973 79.7604 36.8332 80.464 38.8578 80.847L39.4422 80.9575L39.4314 80.371C39.4044 78.9097 39.3155 76.6576 39.1359 74.6474C39.0462 73.6433 38.9331 72.69 38.7917 71.9224C38.721 71.5391 38.6417 71.1927 38.5516 70.9053C38.4656 70.631 38.3551 70.3605 38.1994 70.1686C37.7806 69.6525 37.0231 68.9716 36.2761 68.348C35.5882 67.7737 34.881 67.225 34.3907 66.8583Z" fill="#BE693B"/>
<path d="M51.2765 32.7512L47.3957 28.6699C47.5006 32.5356 47.5989 40.3649 47.3598 46.5381C48.5349 45.0692 49.587 43.9201 50.4366 43.2347C51.6283 42.2735 52.3236 40.6483 52.7067 38.7543C53.041 37.1018 51.3165 34.75 51.2765 32.7512Z" fill="#BE693B"/>
<path fill-rule="evenodd" clip-rule="evenodd" d="M61.693 33.6439C61.8803 33.4539 62.1862 33.4518 62.3762 33.6391C62.533 33.7937 62.7111 33.9713 62.8422 34.1958C62.9826 34.4363 63.056 34.7045 63.065 35.0346C63.0815 35.6475 62.8725 36.5369 62.4183 38.0115C62.1823 38.7777 62.0415 39.3528 61.9737 39.7788C61.9038 40.2173 61.9202 40.4469 61.9508 40.5522C61.9524 40.5576 61.9539 40.5623 61.9553 40.5664C62.0055 40.5686 62.1088 40.5579 62.2929 40.5024C62.4634 40.4511 62.6493 40.3794 62.8645 40.2964C62.9152 40.2769 62.9674 40.2568 63.0215 40.2361C63.2928 40.1325 63.5994 40.0203 63.9086 39.9476C64.52 39.8038 65.2904 39.7844 65.8456 40.4511C66.0163 40.6561 65.9885 40.9607 65.7835 41.1315C65.5785 41.3022 65.2739 41.2744 65.1031 41.0694C64.904 40.8302 64.6184 40.7732 64.1298 40.8881C63.889 40.9448 63.6347 41.0361 63.3663 41.1387C63.3206 41.1561 63.2739 41.1741 63.2267 41.1924C63.0097 41.2761 62.7806 41.3646 62.5716 41.4275C62.3284 41.5008 62.0215 41.5703 61.7312 41.509C61.573 41.4755 61.4157 41.4026 61.2831 41.2731C61.1528 41.1457 61.0713 40.9877 61.023 40.8218C60.9314 40.5064 60.9435 40.1037 61.0195 39.6268C61.0975 39.1374 61.2526 38.5139 61.4949 37.7271C61.9578 36.2245 62.1107 35.488 62.0991 35.0607C62.094 34.8708 62.0559 34.7653 62.0077 34.6829C61.9503 34.5844 61.8629 34.4898 61.6979 34.3271C61.5079 34.1398 61.5057 33.8339 61.693 33.6439ZM61.9658 40.5906C61.9658 40.5906 61.9656 40.5904 61.9654 40.5899Z" fill="#232323"/>
<path d="M70.8863 52.6209C68.1189 53.8898 64.1019 53.5197 62.4394 53.176C72.5435 58.2519 80.2182 53.5461 82.7925 50.5588L79.4137 40.0898C78.6897 45.1657 74.3455 51.0347 70.8863 52.6209Z" fill="#BE693B"/>
<path d="M65.5768 28.1943C68.0224 27.1157 72.6829 28.115 74.8282 28.5115L78.1265 30.8908C76.3298 30.4414 72.0286 29.5426 69.1969 29.5426C68.6078 29.5426 68.0688 29.57 67.5825 29.6171C65.6171 29.8073 63.5029 29.1999 65.2771 28.3333C65.3718 28.287 65.4716 28.2407 65.5768 28.1943Z" fill="#232323"/>
<path d="M56.4225 28.5517C54.6369 28.7512 53.7349 29.6062 53.3042 30.3729C53.0672 30.7948 53.5093 31.1614 53.9677 31.0066C58.1904 29.5814 60.957 30.6615 60.7953 29.8746C60.4653 28.2683 59.8052 28.1738 56.4225 28.5517Z" fill="#232323"/>
<path d="M52.6248 23.5138C52.1099 25.7345 52.4639 34.0092 52.7052 37.869C55.8588 48.211 61.4739 52.8057 63.8873 53.8103L65.4963 60.5517L62.6002 62.6138C62.4715 58.8069 61.1522 58.1195 60.5086 58.2517L50.2918 57.9345C50.4795 57.4322 51.0963 55.6503 52.0616 52.5414C53.2683 48.6552 52.1421 47.5448 48.7633 37.3138C46.0603 29.129 47.798 22.5885 49.0047 20.3414C48.6292 20.3679 48.4094 19.2945 50.5332 14.7897C52.657 10.2849 58.0147 9.79316 60.4281 10.1104C82.3097 0.355243 90.8371 36.5207 95.2617 44.2931C98.8014 50.511 106.015 63.3804 109.179 69.0379C108.428 68.7206 106.508 67.7055 104.835 66.1827C103.211 64.7052 98.1946 56.7285 96.2189 53.4182C97.674 56.2128 100.726 62.3993 102.421 65.8655C101.644 64.8873 99.3967 62.122 96.6293 58.8862C93.8619 55.6503 90.2204 55.6873 88.7455 56.1103L88.1019 50.7965C88.1287 51.1138 88.1502 52.5572 88.0215 55.7931C87.8927 59.0289 85.3935 60.7368 84.16 61.1862C86.5412 59.0924 86.7611 54.762 86.5734 52.8586C86.6378 57.1731 82.7924 61.6885 80.8617 63.4069C81.4784 62.4816 82.6637 59.9648 82.4706 57.3C82.2293 53.969 78.3678 38.6621 77.322 36.8379C76.2762 35.0138 71.1276 22.6414 66.6226 19.8656C63.0185 17.6449 60.2404 18.0943 59.3019 18.5966L60.9913 18.7552C58.417 19.4161 53.1396 21.2931 52.6248 23.5138Z" fill="#232323"/>
<path fill-rule="evenodd" clip-rule="evenodd" d="M93.8394 40.0108C94.5394 41.7262 95.146 43.114 95.6815 44.0548C99.2222 50.2745 106.437 63.1455 109.601 68.8027C109.701 68.9829 109.677 69.2071 109.539 69.3608C109.401 69.5146 109.181 69.5639 108.991 69.4836C108.2 69.1492 106.231 68.1068 104.51 66.5407C104.061 66.1327 103.416 65.3169 102.69 64.3145C102.169 63.5943 101.592 62.7584 100.996 61.8698C101.687 63.2701 102.335 64.5904 102.855 65.6538C102.964 65.8753 102.888 66.1429 102.679 66.2746C102.471 66.4063 102.197 66.3598 102.043 66.1668C101.269 65.1932 99.0259 62.4324 96.2621 59.2008C93.6456 56.1413 90.2168 56.1916 88.8787 56.5754C88.7427 56.6144 88.5964 56.5918 88.4785 56.5136C88.4665 56.5057 88.4549 56.4972 88.4438 56.4883C88.0126 59.5539 85.5761 61.1851 84.3254 61.6407C84.107 61.7203 83.863 61.6331 83.7445 61.4333C83.6693 61.3065 83.6581 61.1573 83.7045 61.0259C82.7965 62.1971 81.8742 63.1531 81.1828 63.7684C81.0013 63.9299 80.728 63.9315 80.5447 63.7721C80.3613 63.6126 80.3249 63.3418 80.4597 63.1396C81.0396 62.2696 82.1716 59.8587 81.9888 57.3356C81.8718 55.7213 80.8592 51.1074 79.7295 46.6225C79.1674 44.391 78.5808 42.209 78.0703 40.4733C77.8149 39.605 77.5796 38.8521 77.3767 38.262C77.1694 37.6588 77.0077 37.2617 76.9029 37.0789C76.6937 36.7139 76.3327 35.9566 75.8648 34.975C75.7218 34.6748 75.5687 34.3537 75.4069 34.0164C74.7079 32.5588 73.8294 30.7627 72.8444 28.9389C71.8586 27.1136 70.771 25.2696 69.6553 23.7143C68.532 22.1484 67.411 20.9195 66.3691 20.2775C64.3889 19.0573 62.6976 18.6878 61.4667 18.6702C61.4695 18.6858 61.4716 18.7017 61.4728 18.7178C61.4913 18.9519 61.3388 19.1654 61.1114 19.2238C59.846 19.5487 57.9155 20.1732 56.247 20.9847C55.412 21.3908 54.6606 21.8351 54.0937 22.3004C53.517 22.7739 53.1884 23.2225 53.0954 23.6236C52.9787 24.127 52.9045 25.017 52.869 26.1665C52.8339 27.3035 52.8373 28.6578 52.8644 30.0681C52.918 32.8607 53.0641 35.8556 53.1838 37.7828C56.3094 47.9849 61.828 52.4305 64.073 53.365C64.2157 53.4244 64.3213 53.5485 64.3572 53.6988L65.9662 60.4402C66.0119 60.6317 65.9368 60.8317 65.7765 60.9459L62.8804 63.008C62.7355 63.1111 62.5456 63.1263 62.3861 63.0475C62.2266 62.9687 62.1234 62.8085 62.1174 62.6308C62.0544 60.7695 61.701 59.7505 61.3471 59.2267C61.0001 58.7129 60.6881 58.7087 60.6058 58.7256C60.5689 58.7332 60.5312 58.7364 60.4936 58.7352L50.2768 58.418C50.1212 58.4132 49.9774 58.3336 49.8907 58.2043C49.8039 58.075 49.7848 57.9119 49.8393 57.766C50.0222 57.2765 50.6358 55.5048 51.6003 52.3988C51.8935 51.4543 52.037 50.7043 52.0474 49.9552C52.0579 49.2053 51.9354 48.4298 51.6657 47.4338C51.3624 46.3138 50.8888 44.9645 50.2388 43.1128C49.7113 41.6101 49.0677 39.7765 48.3046 37.466C45.6854 29.5351 47.159 23.0899 48.4032 20.4627C48.3618 20.3863 48.3347 20.3069 48.3167 20.2322C48.2518 19.9622 48.2718 19.6069 48.3577 19.1718C48.533 18.2846 49.0293 16.8473 50.0962 14.5844C51.2283 12.1829 53.222 10.8612 55.2169 10.1849C57.1336 9.53513 59.0802 9.46928 60.3546 9.61532C65.9036 7.17887 70.6571 7.62058 74.7103 9.81901C78.7643 12.0179 82.0744 15.95 84.8025 20.3761C87.5345 24.8083 89.7111 29.7834 91.4768 34.1197C91.9186 35.2045 92.335 36.2507 92.728 37.2385L92.7691 37.3418C93.1471 38.2919 93.5028 39.1862 93.8394 40.0108ZM58.906 18.8742C58.8687 18.8209 58.8417 18.7595 58.8283 18.6927C58.7862 18.4838 58.886 18.2719 59.0739 18.1713C60.1957 17.5709 63.1589 17.1646 66.876 19.4549C68.0866 20.2009 69.2986 21.5595 70.4404 23.1511C71.5897 24.7533 72.6993 26.6369 73.6945 28.4797C74.6906 30.324 75.5769 32.1365 76.2781 33.5986C76.4497 33.9562 76.6092 34.2909 76.756 34.5989C77.2164 35.5645 77.5518 36.2681 77.7411 36.5983C77.8977 36.8715 78.0855 37.3518 78.2904 37.9479C78.4999 38.557 78.7397 39.3252 78.9972 40.2006C79.5123 41.952 80.1023 44.1469 80.6664 46.3865C81.7892 50.8439 82.8281 55.549 82.9524 57.2657C83.05 58.6118 82.8158 59.9157 82.4735 61.0163C83.0086 60.3719 83.5559 59.6392 84.0578 58.8481C85.2307 56.9994 86.1205 54.8875 86.0904 52.8665C86.0865 52.6075 86.2875 52.3916 86.5461 52.377C86.8046 52.3623 87.0287 52.5541 87.0542 52.8119C87.1522 53.8063 87.1433 55.4144 86.803 57.0501C86.65 57.7854 86.4271 58.5408 86.1082 59.2538C86.8551 58.4338 87.4787 57.2838 87.5387 55.7745C87.6677 52.5333 87.6444 51.1201 87.6205 50.8379C87.5983 50.5754 87.7905 50.3436 88.0525 50.3166C88.3145 50.2897 88.5498 50.4776 88.5815 50.7391L89.161 55.5239C90.9868 55.2142 94.3706 55.5025 96.9964 58.5729C98.1528 59.925 99.2185 61.1952 100.125 62.2878C98.5704 59.1375 96.8033 55.588 95.7969 53.6543C95.5149 53.1817 95.2929 52.8009 95.1514 52.5468C95.0818 52.4218 95.0252 52.3162 94.9913 52.2434C94.9854 52.2309 94.9791 52.2169 94.9728 52.2021C94.9696 52.1945 94.9664 52.1866 94.9633 52.1787L94.9629 52.1775C94.9574 52.1634 94.9371 52.1111 94.9286 52.0466L94.9284 52.0448C94.9254 52.0231 94.9091 51.9033 94.9714 51.7718C95.0121 51.6862 95.0893 51.5906 95.2148 51.5355C95.3325 51.4839 95.4401 51.4912 95.5043 51.504C95.6133 51.5255 95.6859 51.5796 95.7022 51.5918L95.7033 51.5925C95.7304 51.6127 95.7507 51.6319 95.7617 51.6428C95.8063 51.6868 95.8409 51.7362 95.8584 51.7617C95.8812 51.7949 95.9054 51.8331 95.93 51.8734C95.9794 51.9545 96.0398 52.0601 96.1091 52.1851C96.2466 52.4334 96.4273 52.7732 96.6409 53.1833C97.6267 54.8345 99.3667 57.6429 101.063 60.2231C101.913 61.5164 102.749 62.7488 103.473 63.7478C104.206 64.7599 104.796 65.4953 105.16 65.8261C106.107 66.688 107.137 67.383 107.973 67.8724C104.523 61.7076 98.1127 50.2785 94.8419 44.5328C94.2712 43.5304 93.6434 42.0878 92.9448 40.3759C92.6066 39.5472 92.2494 38.6493 91.8721 37.7009L91.8303 37.5956C91.4372 36.6076 91.0221 35.5648 90.582 34.4841C88.8206 30.1583 86.6682 25.2443 83.98 20.8831C81.2881 16.5157 78.0869 12.7497 74.2496 10.6683C70.4414 8.60271 65.9638 8.17211 60.6248 10.5523C60.5434 10.5886 60.4535 10.6016 60.3652 10.59C59.2209 10.4396 57.3539 10.4806 55.5271 11.1C53.7088 11.7164 51.9617 12.893 50.9701 14.9964C49.9131 17.2383 49.4575 18.59 49.3056 19.3591C49.2492 19.6444 49.2405 19.8226 49.2458 19.9235C49.3111 19.9611 49.3679 20.0142 49.4103 20.0797C49.5059 20.2275 49.5135 20.4156 49.4303 20.5706C48.2872 22.6992 46.5599 29.102 49.222 37.163C49.9643 39.4107 50.6024 41.2297 51.1312 42.7376C51.796 44.633 52.2883 46.0365 52.5983 47.1813C52.8817 48.2276 53.0257 49.0978 53.0135 49.9687C53.0014 50.8405 52.8331 51.6866 52.523 52.6853C51.7997 55.0147 51.2704 56.6046 50.9693 57.4728L60.474 57.768C61.0218 57.6847 61.6608 57.9649 62.1478 58.6858C62.5666 59.3059 62.895 60.2711 63.0286 61.7164L64.9508 60.3477L63.473 54.1559C60.8 52.9087 55.3365 48.1555 52.2431 38.0105C52.2321 37.9745 52.2254 37.9374 52.2231 37.8998C52.1021 35.9649 51.9529 32.9241 51.8984 30.0867C51.8712 28.6683 51.8675 27.2962 51.9033 26.1366C51.9387 24.9894 52.0134 24.0123 52.1542 23.4054C52.3186 22.6961 52.8427 22.0774 53.4807 21.5536C54.1286 21.0218 54.9539 20.5392 55.8244 20.1158C56.8275 19.628 57.9145 19.2074 58.906 18.8742ZM49.2589 20.0159C49.2588 20.0159 49.2586 20.0153 49.2582 20.014C49.2587 20.0152 49.2589 20.0159 49.2589 20.0159ZM83.897 60.7739C84.5286 60.1991 84.9989 59.4363 85.3414 58.5885C85.1905 58.8537 85.0339 59.1131 84.8736 59.3657C84.5606 59.8591 84.231 60.3306 83.897 60.7739Z" fill="#232323"/>
<ellipse cx="57.3712" cy="33.984" rx="2.49386" ry="2.45862" fill="white"/>
<ellipse cx="69.1164" cy="32.8727" rx="2.49386" ry="2.45862" fill="white"/>
<ellipse cx="57.3712" cy="34.8031" rx="1.66257" ry="1.63908" fill="#232323"/>
<ellipse cx="69.1165" cy="33.6918" rx="1.66257" ry="1.63908" fill="#232323"/>
<ellipse opacity="0.3" cx="70.8886" cy="38.4021" rx="3.31897" ry="0.892381" fill="#E50A3E"/>
<ellipse opacity="0.3" cx="57.1251" cy="39.0994" rx="3.31897" ry="0.892381" fill="#E50A3E"/>
<path fill-rule="evenodd" clip-rule="evenodd" d="M45.1902 48.9822C45.4043 49.1415 45.4488 49.4441 45.2895 49.6582C44.2443 51.0633 42.26 54.259 40.1742 57.6906C39.3677 59.0174 38.5473 60.3774 37.7637 61.6765C36.6247 63.5646 35.5635 65.3239 34.7356 66.6653L38.0813 69.9637C38.2713 70.151 38.2735 70.4569 38.0861 70.6469C37.8988 70.8369 37.593 70.8391 37.403 70.6518L33.5081 66.8119L33.7115 66.4841C34.5626 65.1125 35.6995 63.2278 36.9307 61.1868C37.7149 59.8868 38.5373 58.5234 39.3485 57.1887C41.4245 53.7732 43.4357 50.5315 44.5143 49.0815C44.6735 48.8674 44.9762 48.823 45.1902 48.9822Z" fill="#232323"/>
<path d="M61.2326 58.8068C60.3477 58.4896 47.6371 57.6965 46.6717 59.0448C45.9135 60.1037 47.1092 68.5871 47.8382 72.924L48.0393 74.9861L57.6929 83.4723L64.2092 76.2551C63.5119 70.5447 61.9405 59.0606 61.2326 58.8068Z" fill="#BE0E22"/>
<path fill-rule="evenodd" clip-rule="evenodd" d="M47.063 59.3294C47.0577 59.339 47.0396 59.3748 47.0183 59.4539C46.994 59.544 46.9719 59.6658 46.9543 59.8219C46.9192 60.1344 46.9064 60.5464 46.9146 61.0429C46.9311 62.0338 47.0306 63.3126 47.1777 64.7051C47.4715 67.4872 47.9511 70.6819 48.3146 72.8446C48.3281 72.9251 48.3415 73.0041 48.3547 73.0816L48.3391 73.0843L48.5016 74.75L57.6539 82.7954L63.7028 76.0956C63.3528 73.246 62.8007 69.0785 62.2477 65.5604C61.9638 63.7546 61.6809 62.1274 61.426 60.9392C61.2981 60.3432 61.1799 59.8699 61.0752 59.5434C61.031 59.4059 60.9929 59.3059 60.9621 59.2383C60.932 59.2326 60.897 59.2265 60.8569 59.22C60.7252 59.1988 60.551 59.1756 60.3378 59.1513C59.9123 59.1029 59.3463 59.0517 58.6845 59.003C57.3614 58.9057 55.668 58.8194 53.9725 58.7849C52.2744 58.7503 50.5864 58.768 49.2693 58.8763C48.6089 58.9306 48.0581 59.0065 47.6517 59.1047C47.4482 59.1539 47.2953 59.2053 47.1886 59.255C47.0998 59.2964 47.0681 59.325 47.063 59.3294ZM47.359 72.9883L47.577 75.2236L57.732 84.1506L64.7154 76.4159L64.6887 76.1972C64.3397 73.3389 63.7718 69.0344 63.2021 65.4104C62.9175 63.5997 62.6313 61.9514 62.3707 60.7365C62.2408 60.131 62.1146 59.6208 61.9952 59.2483C61.9361 59.064 61.8734 58.8967 61.8057 58.7636C61.772 58.6974 61.7299 58.6251 61.6769 58.5597C61.6297 58.5013 61.5387 58.404 61.3956 58.3528C61.2932 58.316 61.1508 58.2888 61.0108 58.2662C60.8586 58.2416 60.6681 58.2165 60.4471 58.1914C60.0044 58.141 59.4247 58.0887 58.7553 58.0395C57.4161 57.941 55.7056 57.8538 53.9922 57.8189C52.2813 57.7841 50.5554 57.8011 49.1901 57.9134C48.5092 57.9694 47.9017 58.0503 47.4248 58.1655C47.1866 58.2231 46.9665 58.2926 46.7806 58.3792C46.6028 58.462 46.4097 58.5816 46.2789 58.7642C46.1835 58.8974 46.125 59.0554 46.0854 59.2024C46.0443 59.355 46.0151 59.5283 45.9942 59.7139C45.9524 60.0851 45.94 60.5434 45.9486 61.059C45.9658 62.092 46.0687 63.4037 46.2168 64.8065C46.5127 67.6079 46.9939 70.8143 47.359 72.9883Z" fill="#E50A3E"/>
<path d="M72.4148 86.0114C75.2465 91.7218 89.255 100.393 95.9053 104.015L74.9891 104.253L69.1969 96.7976C68.8751 96.454 67.057 95.1638 62.3589 92.7528C57.6608 90.3418 56.379 86.6724 56.3254 85.139C47.074 80.3011 45.7064 77.6046 47.798 77.6046C49.011 77.6046 51.7347 78.8549 53.9279 79.996C52.0063 78.9041 49.7436 77.505 48.8438 76.5735C47.2349 74.908 47.4762 73.4804 49.6483 74.1149C51.8204 74.7494 62.6807 81.3321 62.6807 79.9839C62.6807 78.6356 61.3131 75.7011 58.7388 73.0839C56.1645 70.4666 56.4863 68.9597 57.4517 68.246C58.417 67.5322 58.2561 69.0391 62.5198 72.6873C66.7835 76.3356 68.8751 78.8735 72.4148 86.0114Z" fill="#E5A072"/>
<path fill-rule="evenodd" clip-rule="evenodd" d="M59.2218 68.6502C59.8392 69.4009 60.8458 70.6248 62.8362 72.3279C64.9816 74.1637 66.5987 75.7356 68.1259 77.7565C69.6501 79.7735 71.0732 82.2225 72.8484 85.8024C73.5168 87.1501 74.8704 88.7147 76.6742 90.3765C78.4695 92.0305 80.6762 93.75 83.0106 95.4105C87.6789 98.7313 92.8266 101.794 96.1387 103.598L97.7391 104.47L76.0321 106.532L68.8297 97.1075C68.7736 97.052 68.6338 96.9338 68.3698 96.7448C68.0921 96.546 67.6976 96.2834 67.1632 95.954C66.0947 95.2954 64.4772 94.3763 62.1361 93.1749C57.537 90.8147 56.0544 87.2543 55.8631 85.4355C51.3707 83.0697 48.7292 81.1995 47.4588 79.886C47.1334 79.5495 46.8849 79.2365 46.7184 78.9487C46.556 78.6681 46.4461 78.3677 46.4654 78.071C46.4869 77.74 46.6657 77.4773 46.9413 77.3188C47.1905 77.1756 47.4955 77.1287 47.798 77.1287C48.1312 77.1287 48.5258 77.2033 48.9438 77.3182C48.7737 77.1737 48.6224 77.0343 48.4943 76.9017C48.0667 76.459 47.7455 76.0157 47.548 75.5989C47.3553 75.1923 47.2551 74.7557 47.3617 74.3597C47.4795 73.9218 47.8204 73.6387 48.2689 73.5341C48.6884 73.4363 49.2046 73.489 49.7854 73.6587C50.3845 73.8337 51.5191 74.3916 52.8254 75.0679C53.5214 75.4283 54.2934 75.8369 55.0849 76.2559C55.7894 76.6288 56.5093 77.0099 57.2046 77.3722C58.6988 78.1509 60.1071 78.858 61.1374 79.2864C61.5791 79.47 61.926 79.5915 62.17 79.6502C62.0822 79.0729 61.7863 78.2284 61.2491 77.2333C60.6065 76.0431 59.6477 74.6915 58.3923 73.4151C57.0779 72.0788 56.4332 70.9596 56.2905 70.0217C56.1409 69.0383 56.5522 68.3162 57.1621 67.8653C57.3055 67.7592 57.4753 67.6574 57.6723 67.6166C57.8911 67.5712 58.0952 67.6101 58.2774 67.7053C58.4414 67.7911 58.5824 67.9197 58.7062 68.0488C58.8329 68.1811 58.9712 68.3462 59.1233 68.5306C59.1551 68.5691 59.1879 68.6089 59.2218 68.6502ZM54.1612 79.5793C53.2077 79.0374 52.1744 78.4219 51.2702 77.8285C50.3536 77.227 49.6029 76.6693 49.1934 76.2454C48.8165 75.8553 48.5645 75.4956 48.4226 75.1961C48.2759 74.8865 48.2706 74.6935 48.2947 74.6038C48.3076 74.5559 48.3338 74.497 48.4911 74.4603C48.6775 74.4168 49.006 74.4236 49.5112 74.5712C49.9981 74.7134 51.0356 75.2163 52.3765 75.9105C53.0788 76.2741 53.8376 76.6758 54.6195 77.0898C55.3203 77.4608 56.0397 77.8416 56.7535 78.2136C58.2458 78.9914 59.6884 79.7168 60.7623 80.1633C61.292 80.3836 61.7675 80.5513 62.1263 80.6135C62.2946 80.6427 62.5103 80.6629 62.7076 80.5996C62.817 80.5645 62.9412 80.497 63.0355 80.3732C63.1311 80.2476 63.1634 80.1069 63.1634 79.9839C63.1634 79.1911 62.7761 78.0362 62.1012 76.7862C61.4164 75.5178 60.4043 74.0935 59.0853 72.7526C57.8255 71.4717 57.3439 70.5288 57.2452 69.8805C57.1535 69.2777 57.3858 68.8895 57.7413 68.6266C57.7914 68.5896 57.8254 68.5696 57.8461 68.559C57.8756 68.5792 57.926 68.6205 58.0044 68.7024C58.103 68.8052 58.2198 68.9437 58.3744 69.1311C58.4059 69.1693 58.4385 69.209 58.4723 69.2501C59.1026 70.0163 60.1499 71.2896 62.2034 73.0467C64.3217 74.8593 65.8823 76.3805 67.3518 78.3251C68.8242 80.2735 70.2168 82.6625 71.9812 86.2205C72.7287 87.728 74.188 89.3886 76.0151 91.0719C77.8507 92.763 80.0926 94.5084 82.4457 96.1822C86.4665 99.0424 90.8343 101.71 94.103 103.559L75.2253 103.774L69.5666 96.4909L69.5516 96.4749C69.4363 96.3517 69.2286 96.1834 68.937 95.9746C68.6365 95.7595 68.2225 95.4845 67.6749 95.147C66.5794 94.4718 64.9388 93.5403 62.5818 92.3307C58.034 89.9968 56.8553 86.4801 56.8078 85.1226L56.7982 84.8476L56.5516 84.7187C51.9363 82.3052 49.3386 80.4505 48.1574 79.2292C47.8644 78.9262 47.6716 78.6754 47.5569 78.4771C47.4469 78.2871 47.429 78.1805 47.4285 78.1404C47.4696 78.1173 47.5794 78.0804 47.798 78.0804C48.031 78.0804 48.3754 78.143 48.8214 78.2738C49.2596 78.4024 49.7653 78.5877 50.3095 78.8115C51.395 79.258 52.6068 79.8469 53.6948 80.4127C54.5239 80.8838 55.2901 81.298 55.8585 81.5942L56.3276 80.7627C55.7553 80.433 54.9964 80.014 54.1612 79.5793Z" fill="#E5A072"/>
<path fill-rule="evenodd" clip-rule="evenodd" d="M52.1036 78.299C53.9734 79.1334 56.0675 80.1438 57.4255 80.8199C57.6644 80.9388 57.7616 81.2288 57.6427 81.4676C57.5238 81.7065 57.2338 81.8037 56.995 81.6848C55.6446 81.0126 53.5635 80.0085 51.7099 79.1814C50.7824 78.7674 49.9179 78.4006 49.233 78.1421C48.8899 78.0126 48.5992 77.913 48.3719 77.8484C48.2582 77.8161 48.1665 77.7943 48.0958 77.7815C48.032 77.77 48.0011 77.7689 47.9942 77.7688C47.6263 77.8056 47.2759 77.8962 47.0298 78.0337C46.7867 78.1696 46.7139 78.3058 46.7101 78.4387C46.7052 78.612 46.8072 78.9568 47.322 79.5093C47.8258 80.0499 48.6673 80.7271 49.986 81.5573C52.6495 83.234 54.0212 83.9777 54.8004 84.3598C55.1046 84.509 55.3174 84.6027 55.4922 84.6797C55.5416 84.7014 55.5879 84.7219 55.6324 84.7418C55.8245 84.8279 55.9848 84.9065 56.1684 85.037L63.8487 88.5862C64.0909 88.6981 64.1965 88.9852 64.0845 89.2274C63.9726 89.4696 63.6856 89.5752 63.4434 89.4633L56.7887 86.388C57.9911 89.0866 61.2285 93.4967 67.4072 95.3834C67.6624 95.4613 67.8061 95.7313 67.7282 95.9865C67.6502 96.2417 67.3802 96.3854 67.1251 96.3075C59.8238 94.078 56.3905 88.4931 55.5118 85.761C55.436 85.7155 55.3539 85.6758 55.2373 85.6235C55.1984 85.6061 55.1559 85.5874 55.1092 85.5668C54.9336 85.4895 54.699 85.3862 54.375 85.2273C53.5532 84.8243 52.1496 84.061 49.4713 82.375C48.1192 81.5238 47.1996 80.7952 46.6151 80.168C46.0417 79.5526 45.7285 78.9675 45.7443 78.4112C45.7613 77.8144 46.1454 77.4212 46.5584 77.1903C46.966 76.9625 47.4664 76.8492 47.9122 76.806L47.9249 76.8049C48.1318 76.7904 48.3935 76.8501 48.636 76.919C48.9003 76.9941 49.2193 77.1042 49.5742 77.2381C50.2852 77.5065 51.1695 77.8822 52.1036 78.299Z" fill="#232323"/>
<path fill-rule="evenodd" clip-rule="evenodd" d="M57.7507 67.0851C57.9265 67.0129 58.1283 67.0504 58.2664 67.1811C59.6073 68.4502 62.8528 71.5282 65.1064 73.6865C65.2991 73.871 65.3057 74.1768 65.1212 74.3695C64.9366 74.5622 64.6308 74.5688 64.4382 74.3843C62.3087 72.3449 59.2915 69.4824 57.8365 68.1046C57.1472 68.4406 56.8404 68.8178 56.7197 69.1625C56.5802 69.5611 56.6451 70.0407 56.896 70.594C57.4052 71.7166 58.5396 72.8434 59.2388 73.5327C59.8422 74.1276 60.5491 75.2643 61.1706 76.3869C61.8021 77.5277 62.379 78.7173 62.7185 79.4671C62.8032 79.6541 62.7604 79.8743 62.6118 80.016C62.4633 80.1577 62.2414 80.19 62.0585 80.0965C60.6127 79.3574 56.9493 77.5147 53.8665 76.0584C51.9362 75.1465 50.5439 74.5694 49.5355 74.3043C48.5033 74.0329 48.0288 74.1309 47.7795 74.3321C47.7681 74.3413 47.7179 74.3858 47.7244 74.5785C47.7309 74.7713 47.7948 75.03 47.9126 75.334C48.1462 75.9369 48.5412 76.5912 48.836 77.0082C48.99 77.2261 48.9383 77.5275 48.7204 77.6816C48.5026 77.8356 48.2011 77.7838 48.0471 77.566C47.7251 77.1105 47.2835 76.3848 47.0116 75.6831C46.8767 75.3348 46.7706 74.96 46.7588 74.611C46.747 74.262 46.8303 73.8564 47.1729 73.58C47.8084 73.0674 48.7016 73.0861 49.7811 73.3699C50.8844 73.6599 52.348 74.2725 54.2792 75.1848C56.6874 76.3224 59.4454 77.6934 61.2342 78.5951C60.9637 78.0487 60.6517 77.4445 60.3253 76.8548C59.6984 75.7224 59.0512 74.7046 58.5605 74.2208L58.5378 74.1984C57.8636 73.5338 56.6064 72.2946 56.0161 70.9931C55.714 70.327 55.5526 69.5724 55.8078 68.8433C56.0665 68.1041 56.7098 67.5127 57.7507 67.0851Z" fill="#232323"/>
<path fill-rule="evenodd" clip-rule="evenodd" d="M103.82 70.3017C104.046 70.1606 104.344 70.2297 104.485 70.4561C106.572 73.8018 110.035 84.3875 107.772 100.52C107.735 100.784 107.49 100.968 107.226 100.931C106.962 100.894 106.778 100.65 106.815 100.386C109.056 84.4137 105.601 74.0721 103.665 70.9673C103.524 70.7409 103.593 70.4429 103.82 70.3017Z" fill="#232323"/>
<path d="M16.9694 64.4242C16.0598 58.8983 15.8822 56.4735 15.9071 55.9519C32.2445 62.0623 28.7187 70.4483 24.9137 73.8775C22.6446 73.0289 17.879 69.9501 16.9694 64.4242Z" fill="#23BA3B"/>
<path fill-rule="evenodd" clip-rule="evenodd" d="M20.8846 62.501C21.112 62.362 21.4098 62.4338 21.5498 62.6612C22.1263 63.5983 22.9053 65.5931 23.6335 67.6498C24.3688 69.7269 25.073 71.9289 25.4971 73.3238C25.5748 73.5791 25.4306 73.8482 25.1752 73.9249C24.9197 74.0017 24.6496 73.8568 24.572 73.6015C24.151 72.2172 23.4514 70.0294 22.7219 67.9689C21.9853 65.8881 21.2387 63.9975 20.7263 63.1646C20.5863 62.9371 20.6572 62.64 20.8846 62.501Z" fill="#1A7B2A"/>
<path d="M99.1417 58.3603C102.729 54.037 104.45 52.305 104.862 51.9794C111.009 68.1861 102.327 71.0908 97.2183 70.5172C96.3646 68.2663 95.554 62.6836 99.1417 58.3603Z" fill="#23BA3B"/>
<path fill-rule="evenodd" clip-rule="evenodd" d="M103.181 60.0115C103.437 60.0902 103.579 60.3598 103.499 60.6137C103.169 61.6612 102.172 63.5574 101.094 65.4569C100.005 67.3751 98.8003 69.3526 98.0231 70.5888C97.8812 70.8146 97.582 70.8838 97.3549 70.7435C97.1278 70.6032 97.0587 70.3065 97.2006 70.0807C97.972 68.8538 99.1685 66.889 100.249 64.986C101.34 63.0643 102.28 61.2604 102.574 60.3287C102.653 60.0748 102.925 59.9328 103.181 60.0115Z" fill="#1A7B2A"/>
<path d="M119.044 37.2226C124.683 37.4975 127.111 37.833 127.621 37.9664C118.175 52.5291 110.644 47.3544 108.059 42.9467C109.371 40.9241 113.405 36.9476 119.044 37.2226Z" fill="#23BA3B"/>
<path fill-rule="evenodd" clip-rule="evenodd" d="M120.117 41.4234C120.204 41.6754 120.071 41.9507 119.819 42.0382C118.776 42.4006 116.647 42.7384 114.466 43.0138C112.264 43.2919 109.946 43.5136 108.481 43.6329C108.216 43.6546 107.982 43.4565 107.961 43.1906C107.939 42.9247 108.137 42.6916 108.403 42.6699C109.856 42.5515 112.16 42.3311 114.345 42.0552C116.551 41.7766 118.572 41.4484 119.502 41.1255C119.754 41.038 120.029 41.1714 120.117 41.4234Z" fill="#1A7B2A"/>
<path d="M25.4863 40.2352C35.2321 40.2352 43.1326 32.4464 43.1326 22.8383C43.1326 13.2303 35.2321 5.44141 25.4863 5.44141C15.7406 5.44141 7.84006 13.2303 7.84006 22.8383C7.84006 32.4464 15.7406 40.2352 25.4863 40.2352Z" fill="#E50A3E"/>
<g clip-path="url(#clip0_6902_38118)">
<path d="M21.825 21.2609C21.6796 21.2609 21.5375 21.3039 21.4167 21.3847C21.2958 21.4655 21.2016 21.5803 21.146 21.7146C21.0903 21.8489 21.0758 21.9967 21.1041 22.1392C21.1325 22.2819 21.2025 22.4129 21.3053 22.5156C21.4081 22.6184 21.5391 22.6884 21.6816 22.7167C21.8242 22.7451 21.972 22.7305 22.1063 22.6749C22.2406 22.6193 22.3554 22.525 22.4361 22.4042C22.5169 22.2833 22.56 22.1412 22.56 21.9959C22.56 21.8009 22.4826 21.614 22.3448 21.4762C22.2069 21.3384 22.02 21.2609 21.825 21.2609ZM30.645 18.3209H29.91V16.1159C29.91 15.9209 29.8326 15.734 29.6948 15.5961C29.557 15.4583 29.37 15.3809 29.175 15.3809H21.825C21.6301 15.3809 21.4431 15.4583 21.3053 15.5961C21.1675 15.734 21.09 15.9209 21.09 16.1159V18.3209H20.355C19.7702 18.3209 19.2094 18.5532 18.7958 18.9667C18.3823 19.3802 18.15 19.941 18.15 20.5259V24.9359C18.15 25.5206 18.3823 26.0815 18.7958 26.495C19.2094 26.9085 19.7702 27.1409 20.355 27.1409H21.09V29.3459C21.09 29.5408 21.1675 29.7278 21.3053 29.8656C21.4431 30.0034 21.6301 30.0809 21.825 30.0809H29.175C29.37 30.0809 29.5569 30.0034 29.6948 29.8656C29.8326 29.7278 29.91 29.5408 29.91 29.3459V27.1409H30.645C31.2298 27.1409 31.7906 26.9085 32.2042 26.495C32.6177 26.0815 32.85 25.5206 32.85 24.9359V20.5259C32.85 19.941 32.6177 19.3802 32.2042 18.9667C31.7906 18.5532 31.2298 18.3209 30.645 18.3209ZM22.56 16.8509H28.44V18.3209H22.56V16.8509ZM28.44 28.6109H22.56V25.6709H28.44V28.6109ZM31.38 24.9359C31.38 25.1308 31.3026 25.3178 31.1648 25.4556C31.027 25.5934 30.84 25.6709 30.645 25.6709H29.91V24.9359C29.91 24.7409 29.8326 24.554 29.6948 24.4162C29.557 24.2784 29.37 24.2009 29.175 24.2009H21.825C21.6301 24.2009 21.4431 24.2784 21.3053 24.4162C21.1675 24.554 21.09 24.7409 21.09 24.9359V25.6709H20.355C20.1601 25.6709 19.9731 25.5934 19.8353 25.4556C19.6975 25.3178 19.62 25.1308 19.62 24.9359V20.5259C19.62 20.3309 19.6975 20.144 19.8353 20.0061C19.9731 19.8683 20.1601 19.7909 20.355 19.7909H30.645C30.84 19.7909 31.0269 19.8683 31.1648 20.0061C31.3026 20.144 31.38 20.3309 31.38 20.5259V24.9359Z" fill="white"/>
</g>
<path fill-rule="evenodd" clip-rule="evenodd" d="M25.4863 37.8198C33.9306 37.8198 40.7172 31.0801 40.7172 22.8383C40.7172 14.5966 33.9306 7.85687 25.4863 7.85687C17.0421 7.85687 10.2555 14.5966 10.2555 22.8383C10.2555 31.0801 17.0421 37.8198 25.4863 37.8198ZM43.1326 22.8383C43.1326 32.4464 35.2321 40.2352 25.4863 40.2352C15.7406 40.2352 7.84006 32.4464 7.84006 22.8383C7.84006 13.2303 15.7406 5.44141 25.4863 5.44141C35.2321 5.44141 43.1326 13.2303 43.1326 22.8383Z" fill="white"/>
</g>
<defs>
<clipPath id="clip0_6902_38118">
<rect width="16" height="16" fill="white" transform="translate(17.5 14.7305)"/>
</clipPath>
</defs>
</svg>
