<svg width="277" height="200" viewBox="0 0 277 200" fill="none" xmlns="http://www.w3.org/2000/svg">
<mask id="mask0_2184_29211" style="mask-type:alpha" maskUnits="userSpaceOnUse" x="0" y="0" width="277" height="200">
<rect x="0.5" width="276" height="200" rx="76.1905" fill="#FFB21D"/>
</mask>
<g mask="url(#mask0_2184_29211)">
<path fill-rule="evenodd" clip-rule="evenodd" d="M18.7834 36.7456C18.7147 36.7419 18.6467 36.7417 18.5795 36.7448C17.5103 36.7936 16.6494 37.683 16.6601 38.7779L17.1287 86.8468C17.1321 87.2007 17.2278 87.5376 17.3959 87.8306L17.3044 87.7996C17.0409 87.7103 16.7548 87.8515 16.6655 88.1151C16.5761 88.3786 16.7174 88.6647 16.9809 88.754L19.8387 89.7226L16.6392 93.0635L16.7772 107.695C16.7323 107.682 16.6849 107.675 16.6359 107.675C16.3577 107.677 16.1335 107.904 16.1354 108.183L16.365 143.345L12.8912 143.646C12.2762 143.699 11.7768 144.009 11.4536 144.442C10.3292 144.396 9.3513 145.304 9.36285 146.476L9.36303 146.476L9.82774 193.695C9.83603 194.537 10.3667 195.285 11.1584 195.571L11.1591 195.571L19.4118 198.55C19.5959 198.783 19.8217 198.964 20.0518 199.037L25.8515 200.874L40.0949 206.014L40.4567 206.145C40.522 206.169 40.5919 206.176 40.6607 206.167C40.7025 206.162 40.7422 206.15 40.7792 206.134C40.867 206.134 40.9549 206.128 41.0424 206.117L41.6883 206.032C42.0252 206.193 42.4117 206.262 42.8134 206.211L105.574 198.115C105.848 198.079 106.042 197.83 106.01 197.556L108.52 197.226L108.527 199.994C108.529 200.955 109.209 201.78 110.151 201.967L213.85 222.474C213.977 222.499 214.105 222.511 214.234 222.512L214.234 222.521C214.234 222.537 214.246 222.552 214.262 222.555C214.267 222.556 214.272 222.556 214.277 222.555L214.667 222.467L214.686 222.462L246.095 215.361L253.395 213.71L272.88 209.305C272.994 209.279 273.104 209.244 273.209 209.2C273.946 208.894 274.445 208.173 274.451 207.353L275.179 102.627C275.179 102.596 275.179 102.565 275.178 102.534C275.16 102.073 274.988 101.654 274.714 101.325L275.195 100.37L166.939 94.0712L108.279 98.8579L109.138 99.3868C108.622 99.7514 108.283 100.353 108.284 101.039L108.393 145.22L107.137 145.323C106.883 144.775 106.382 144.333 105.67 144.206L105.533 144.182L106.013 92.5596L105.943 92.56L105.954 91.5739L115.626 91.3462C116.72 91.3204 117.594 90.4259 117.594 89.3313V39.1559C117.594 38.0405 116.688 37.1372 115.573 37.1404L30.7377 37.3865L18.7834 36.7456Z" fill="white"/>
<g opacity="0.9">
<path d="M22.4297 87.017L16.6392 93.0634L19.6603 103.141L105.762 108.935L106.013 86.2612L22.4297 87.017Z" fill="white"/>
<path d="M31.6584 93.2008L18.4967 88.7362C17.6857 88.4611 17.1371 87.7035 17.1288 86.8472L16.6602 38.778C16.6488 37.6148 17.6218 36.6835 18.7834 36.7458L30.7377 37.3867L115.573 37.1406C116.688 37.1374 117.594 38.0406 117.594 39.156V89.3315C117.594 90.4261 116.72 91.3206 115.626 91.3464L32.3533 93.3071C32.1172 93.3127 31.882 93.2767 31.6584 93.2008Z" fill="#A9A9A9"/>
<path d="M31.765 38.4081C31.763 37.8422 31.3031 37.3849 30.7376 37.3866L18.7818 36.7456C17.621 36.6834 16.6487 37.6147 16.6601 38.7779L17.1287 86.8468C17.137 87.7033 17.6854 88.4609 18.4961 88.7359L29.2876 92.3966C30.5965 92.8405 31.9531 91.8636 31.9482 90.4807L31.765 38.4081Z" fill="#D4D4D4"/>
<path d="M73.0187 138.434L12.8912 143.646C11.329 143.781 10.513 145.57 11.4349 146.839L13.2183 149.292C13.3166 149.428 13.4314 149.55 13.56 149.657L48.0625 178.348C48.6983 178.877 49.5927 178.963 50.3182 178.567L106.282 147.958C107.951 147.045 107.542 144.541 105.67 144.206L73.5477 138.458C73.3732 138.427 73.1953 138.419 73.0187 138.434Z" fill="white"/>
<path d="M17.1427 146.473L105.51 146.725L106.013 92.5596L16.6392 93.0634L17.1427 146.473Z" fill="#A9A9A9"/>
<path d="M9.36308 146.476L9.82797 193.695C9.83626 194.537 10.3671 195.285 11.1591 195.571L40.095 206.014C40.3981 206.124 40.723 206.159 41.0424 206.117L109.557 197.089C110.556 196.957 111.304 196.108 111.309 195.101L111.541 147.159C111.547 145.977 110.539 145.044 109.361 145.141L41.106 150.731C40.9084 150.748 40.7095 150.734 40.5157 150.693L11.8042 144.487C10.5407 144.214 9.35035 145.184 9.36308 146.476Z" fill="#A9A9A9"/>
<path d="M40.8332 150.777C40.8332 150.764 40.8229 150.755 40.8109 150.756C40.8089 150.756 40.8068 150.756 40.8048 150.756L11.8021 144.487C10.5395 144.214 9.35018 145.184 9.36291 146.477L9.8278 193.695C9.83609 194.538 10.3668 195.286 11.1585 195.571L40.4568 206.145C40.522 206.169 40.592 206.176 40.6607 206.167C40.8773 206.139 41.039 205.954 41.0382 205.735L40.8332 150.777Z" fill="#D4D4D4"/>
<path d="M166.939 94.0713L108.279 98.858L160.645 131.105L259.082 132.365L275.195 100.37L166.939 94.0713Z" fill="white"/>
<path d="M108.285 101.039L108.527 199.994C108.529 200.955 109.209 201.78 110.151 201.967L213.85 222.474C214.127 222.528 214.411 222.524 214.686 222.462L272.88 209.305C273.793 209.098 274.444 208.29 274.451 207.353L275.179 102.627C275.187 101.424 274.146 100.481 272.95 100.609L213.949 106.9C213.827 106.913 213.704 106.915 213.582 106.906L110.454 99.0241C109.281 98.9345 108.282 99.863 108.285 101.039Z" fill="#D4D4D4"/>
<path d="M214.262 222.555C214.246 222.552 214.234 222.538 214.234 222.521L214.032 108.707C214.03 107.675 214.807 106.809 215.833 106.699L272.95 100.609C274.146 100.481 275.187 101.424 275.179 102.627L274.451 207.353C274.444 208.29 273.793 209.098 272.88 209.305L214.277 222.555C214.272 222.556 214.267 222.556 214.262 222.555Z" fill="#A9A9A9"/>
<path d="M40.5562 151.26L41.044 204.226C41.0524 205.132 41.8504 205.827 42.7489 205.711L105.51 197.615" stroke="#232323" stroke-width="1.00773" stroke-linecap="round"/>
<path d="M17.1428 88.2769L32.7518 93.5674L102.992 91.552" stroke="#232323" stroke-width="1.00773" stroke-linecap="round"/>
<path d="M32.2485 93.3154L31.7446 46.96" stroke="#232323" stroke-width="1.00773" stroke-linecap="round"/>
<path d="M254.173 212.607C254.235 213.12 253.899 213.596 253.395 213.71L246.095 215.361C245.476 215.501 244.883 215.04 244.866 214.405L244.532 202.048C244.51 201.237 245.406 200.734 246.087 201.175L247.874 202.332C248.356 202.644 249.002 202.49 249.292 201.993L250.771 199.456C251.258 198.62 252.527 198.883 252.643 199.843L254.173 212.607Z" fill="white"/>
<path d="M27.0477 200.326C27.1009 200.869 26.8099 201.177 26.3737 201.039L20.0518 199.037C19.5154 198.867 19.002 198.11 18.9871 197.466L18.6981 184.942C18.6791 184.121 19.455 184.066 20.0445 184.847L21.5923 186.899C22.0103 187.453 22.5696 187.622 22.8203 187.27L24.1019 185.472C24.5234 184.88 25.6224 185.778 25.722 186.795L27.0477 200.326Z" fill="white"/>
<path d="M20.761 147.032C20.7078 146.488 20.9988 146.18 21.435 146.318L27.7569 148.32C28.2933 148.49 28.8067 149.248 28.8216 149.891L29.1106 162.415C29.1296 163.237 28.3537 163.292 27.7642 162.51L26.2164 160.459C25.7984 159.905 25.2391 159.736 24.9884 160.088L23.7068 161.886C23.2853 162.477 22.1863 161.58 22.0867 160.562L20.761 147.032Z" fill="white"/>
<path d="M240.868 104.641C240.875 104.125 241.271 103.697 241.785 103.65L249.238 102.976C249.871 102.919 250.398 103.454 250.331 104.085L249.037 116.379C248.952 117.185 247.997 117.566 247.381 117.039L245.762 115.657C245.324 115.284 244.664 115.351 244.311 115.806L242.511 118.127C241.918 118.89 240.695 118.463 240.707 117.496L240.868 104.641Z" fill="white"/>
<path d="M16.6392 108.18L16.8779 144.723C16.8851 145.831 17.7853 146.725 18.8933 146.725H69.2567" stroke="#232323" stroke-width="1.00773" stroke-linecap="round"/>
</g>
<path d="M214.269 128.334V222.053L112.559 202.402" stroke="black" stroke-width="1.00773"/>
<path d="M198.169 193.305C197.48 196.444 197.247 203.4 201.828 206.116C206.41 208.832 214.304 206.263 217.678 204.638C232.022 210.804 262.054 226.534 267.42 240.126" stroke="#232323" stroke-width="2.14085" stroke-linecap="round"/>
<path d="M224.954 142.251C227.085 145.618 258.821 176.456 274.422 191.454L267.41 231.014L251.89 227.903C237.701 222.708 232.076 211.495 231.038 206.538L216.774 199.78L210.628 201.647C208.973 202.29 205.017 202.865 202.436 200.013C199.854 197.16 200.211 192.556 200.713 190.61C192.283 191.109 189.034 182.184 188.463 177.66C186.126 178.23 180.608 178.442 177.229 174.73C173.85 171.017 176.155 162.017 177.729 157.981L177.349 157.614C175.422 161.676 172.87 162.614 171.835 162.575C166.867 162.867 163.532 153.321 164.747 147.432C165.962 141.542 177.357 129.6 184.434 128.349C196.041 126.298 218.568 132.161 224.954 142.251Z" fill="#D4D4D4"/>
<path fill-rule="evenodd" clip-rule="evenodd" d="M166.511 143.422C168.068 140.863 170.457 137.988 173.125 135.434C183.384 130.824 200.562 138.74 195.506 146.33L194.951 148.835C193.985 148.219 192.818 147.456 191.534 146.617C185.674 142.785 177.371 137.356 174.483 137.035C170.083 136.546 171.061 144.863 173.994 151.712C176.341 157.191 189.639 168.998 195.995 174.217L201.373 184.001L207.728 195.254C207.376 196.487 205.493 197.787 200.939 197.426C200.056 194.883 200.346 192.034 200.712 190.61C192.283 191.109 189.034 182.184 188.463 177.66C186.126 178.23 180.608 178.442 177.229 174.73C173.85 171.018 176.155 162.017 177.729 157.981L177.349 157.614C175.422 161.676 172.87 162.614 171.834 162.575C167.931 162.805 165.035 156.958 164.564 151.585C165.08 148.781 165.757 146.038 166.511 143.422Z" fill="#969696"/>
<path d="M187.329 170.762C187.095 171.512 186.997 172.331 187.202 173.11C187.579 174.543 190.714 175.001 193.315 175.079C194.351 175.11 195.001 174.031 194.559 173.093C194.461 172.885 194.316 172.704 194.135 172.564L190.885 170.035C189.645 169.07 187.8 169.262 187.33 170.76L187.329 170.762Z" fill="#EFEFEF"/>
<path d="M182.796 143.407C181.47 142.037 179.808 140.7 178.36 140.511C175.729 140.169 171.193 143.624 175.283 149.259C176.118 150.411 177.737 150.532 178.906 149.721L182.267 147.39C183.615 146.455 183.938 144.585 182.796 143.407Z" fill="#EFEFEF"/>
<path d="M194.59 147.924C194.934 145.751 195.637 141.318 195.7 140.972" stroke="#232323" stroke-width="2.93541" stroke-linecap="round"/>
<path d="M183.25 162.857C182.254 163.421 180.114 164.553 179.516 164.564" stroke="#232323" stroke-width="2.93541" stroke-linecap="round"/>
<path d="M177.611 157.811C176.865 159.464 174.608 162.72 171.546 162.523C167.719 162.276 161.604 151.631 166.422 143.116C171.24 134.601 180.017 128.89 186.727 128.02" stroke="#232323" stroke-width="2.93541" stroke-linecap="round"/>
<path d="M177.493 157.641C175.775 162.743 173.632 173.213 178.488 176.001C183.344 178.789 192.753 176.998 196.85 175.753" stroke="#232323" stroke-width="2.93541" stroke-linecap="round"/>
<path d="M188.489 177.516C188.444 182.425 191.565 191.783 204.408 189.939" stroke="#232323" stroke-width="2.93541" stroke-linecap="round"/>
<path d="M211.607 158.358C196.655 158.368 186.476 138.084 177.106 138.12C170.886 138.144 168.051 148.925 178.568 158.282C186.982 165.768 194.41 172.777 197.072 175.346C198.753 180.867 204.995 193.443 216.511 199.584" stroke="#232323" stroke-width="2.93541" stroke-linecap="round"/>
<path d="M164.758 113.71C165.975 112.388 168.032 112.304 169.354 113.521L174.379 118.152C175.409 119.1 175.662 120.626 174.995 121.856C170.964 129.286 165.197 135.631 158.186 140.348L157.67 140.694C156.442 141.521 154.807 141.396 153.717 140.392L148.799 135.861C147.478 134.643 147.393 132.584 148.609 131.262L164.758 113.71Z" fill="#232323"/>
<ellipse cx="51.7277" cy="51.7611" rx="51.7277" ry="51.7611" transform="matrix(0.983964 0.178367 -0.178129 0.984007 85.504 35.4722)" fill="#232323"/>
<path d="M177.744 136.925L166.155 126.881L153.878 131.364L171.158 149.43C170.373 145.192 171.412 140.907 172.348 139.311L177.744 136.925Z" fill="#232323"/>
<ellipse cx="40.4448" cy="40.4709" rx="40.4448" ry="40.4709" transform="matrix(0.983964 0.178367 -0.178129 0.984007 94.7345 48.7964)" fill="#999999"/>
<path d="M122.995 77.8316C127.053 75.3987 132.735 76.4288 135.682 80.1314C138.632 83.8346 137.732 88.8088 133.671 91.2411C132.967 91.6668 132.209 91.9837 131.428 92.2007C129.004 92.8773 126.55 94.4045 126.101 96.8826L125.695 99.1273M123.127 113.432L123.003 114.116" stroke="white" stroke-width="8.33754" stroke-linecap="round" stroke-linejoin="round"/>
<path d="M178.285 59.9877L184.322 49.7577" stroke="white" stroke-width="1.90476" stroke-linecap="round"/>
<path d="M182.095 64.4489L191.375 56.9403" stroke="white" stroke-width="1.90476" stroke-linecap="round"/>
<path d="M185.622 69.4503L197.266 66.5681" stroke="white" stroke-width="1.90476" stroke-linecap="round"/>
<path d="M68.6796 113.265L57.1819 116.226" stroke="white" stroke-width="1.90476" stroke-linecap="round"/>
<path d="M69.1375 107.414L57.2699 106.157" stroke="white" stroke-width="1.90476" stroke-linecap="round"/>
<path d="M70.178 101.382L59.908 95.1806" stroke="white" stroke-width="1.90476" stroke-linecap="round"/>
</g>
</svg>
