<svg width="241" height="225" viewBox="0 0 241 225" fill="none" xmlns="http://www.w3.org/2000/svg">
<path d="M79.2799 22.7778C81.4475 21.8554 83.582 20.8438 85.7891 20.0234C95.0697 16.5797 104.698 14.73 114.556 14.1979C125.841 13.5891 136.924 14.9487 147.751 18.2299C159.691 21.8489 170.565 27.5373 180.366 35.2711C188.86 41.9737 196.044 49.8855 201.956 58.9529C202.355 59.565 202.983 60.1152 202.454 61.0498C202.238 61.4325 202.45 62.0595 202.469 62.6815C203.03 62.566 203.494 62.471 204.12 62.3419C205.496 64.9194 206.887 67.5178 208.35 70.2592C206.982 70.4515 205.832 70.6726 204.676 70.7343C204.377 70.7512 203.94 70.339 203.755 70.0149C201.915 66.7819 200.265 63.4282 198.255 60.3082C196.532 57.6331 194.477 55.1602 192.454 52.6919C182.9 41.0312 171.208 32.1627 157.444 26.059C146.634 21.2676 135.311 18.6443 123.495 18.1335C117.009 17.8529 110.589 18.3707 104.168 19.2663C99.8994 19.8616 95.7674 20.9755 91.6987 22.2635C87.6236 23.5547 83.5893 25.0712 79.7169 26.8785C75.8147 28.7014 72.0583 30.8791 68.3727 33.1223C63.415 36.1438 58.9568 39.8433 54.7036 43.8C51.8783 46.428 49.2885 49.27 46.8702 52.2595C46.0571 53.2661 45.3253 53.7785 44.0833 53.2278C43.8884 53.1408 43.6498 53.1491 43.3742 53.1055C42.7646 54.0812 43.3672 55.0056 43.4194 55.9295C43.4336 56.193 43.4684 56.5221 43.3357 56.7147C42.135 58.4897 40.899 60.2399 39.6051 62.0989C38.7695 61.4178 38.0311 61.8831 37.6696 62.5929C37.4975 62.9283 38.0146 63.6176 38.2971 64.3444C35.1445 69.7138 32.259 75.5536 30.2874 81.7866C29.0306 85.7616 28.0564 89.8295 26.9834 93.8609C26.8087 94.5193 26.3908 94.8114 25.9335 95.2624C24.917 96.2678 23.7042 95.8434 22.4423 96.4189C22.82 94.4918 23.1213 92.7357 23.5143 90.9987C26.491 77.8629 31.9036 65.8264 39.7695 54.9003C45.4398 47.0216 52.1374 40.1473 59.8247 34.239C60.2347 33.9228 60.6869 33.6144 61.1705 33.448C62.1203 33.1223 63.2149 33.0463 63.3471 31.696C63.3589 31.5685 63.622 31.4583 63.776 31.352C68.4985 28.1188 73.4609 25.3094 78.663 22.9217C78.8646 22.8293 79.0947 22.7924 79.3097 22.7302C79.2686 22.8275 79.2156 22.9218 79.1889 23.024C79.0938 23.3714 79.0081 23.7198 78.9178 24.0689C79.2638 24.1095 79.6817 24.2887 79.9398 24.1586C80.3127 23.9689 80.5691 23.5508 80.8758 23.2308C80.6344 23.0245 80.4191 22.7275 80.142 22.6406C79.8892 22.564 79.5665 22.7215 79.2744 22.7717L79.2799 22.7778ZM68.289 32.1044C69.0557 31.2553 69.8352 30.4158 70.553 29.5278C70.596 29.476 70.1777 28.8392 69.9123 28.7873C69.1655 28.6405 67.3393 29.9452 67.09 30.6895C66.8008 31.5562 67.1718 32.0189 68.289 32.1044ZM86.4316 21.7841C87.7163 22.4594 88.9167 22.373 89.6187 21.4369C89.8745 21.0966 89.9702 20.4288 89.8117 20.0484C89.7028 19.7937 88.9999 19.6339 88.5965 19.6883C87.4471 19.8453 86.8141 20.655 86.4316 21.7841ZM25.0866 89.9517C26.3055 90.2563 27.1412 89.8986 27.168 88.9681C27.18 88.5981 26.7516 88.0039 26.3937 87.878C25.8076 87.6721 25.1427 88.7585 25.0866 89.9517ZM109.646 17.524C109.946 17.0425 110.222 16.7497 110.289 16.4131C110.313 16.2907 109.763 15.8737 109.598 15.9336C109.272 16.0503 109.032 16.4067 108.758 16.6626C108.998 16.8965 109.239 17.1304 109.646 17.524Z" fill="#FF8080"/>
<path d="M102.25 209.516C102.736 209.027 103.119 208.714 103.407 208.326C103.61 208.053 103.679 207.682 103.809 207.354C103.409 207.202 102.95 206.846 102.621 206.94C101.998 207.122 101.354 207.466 100.888 207.916C99.9281 208.84 98.9665 208.969 97.6632 208.664C85.0933 205.731 73.523 200.568 62.9663 193.144C56.7834 188.796 51.1607 183.805 46.1442 178.137C46.0465 178.027 45.9649 177.902 45.9257 177.85C46.9433 177.048 47.9408 176.265 48.8739 175.527C51.6248 178.17 54.419 181.072 57.4392 183.714C71.0036 195.575 86.7014 202.956 104.463 205.915C105.611 206.106 106.776 206.208 107.922 206.41C108.608 206.531 109.422 206.28 109.711 207.44C109.859 208.04 110.69 207.783 111.236 207.359C111.561 207.105 112.031 206.858 112.418 206.884C119.769 207.386 127.078 207.086 134.36 205.964C134.798 205.896 135.311 206.119 135.752 206.297C136.5 206.6 137.105 206.652 137.485 205.765C137.566 205.578 137.804 205.382 138.004 205.331C140.119 204.798 142.243 204.291 144.364 203.79C144.574 203.739 144.851 203.694 145.017 203.787C145.695 204.172 146.022 203.85 146.528 203.376C147.011 202.926 147.793 202.77 148.463 202.555C159.251 199.112 169.074 193.853 177.945 186.817C190.301 177.017 199.61 164.85 205.988 150.426C206.733 148.74 207.388 147.017 208.121 145.223C208.993 145.565 209.707 145.249 209.846 144.337C209.906 143.938 209.395 143.451 209.115 142.957C210.135 138.755 211.196 134.334 212.301 129.925C212.368 129.659 212.753 129.344 213.038 129.286C214.104 129.072 215.188 128.959 216.516 128.772C216.106 130.873 215.723 132.83 215.326 134.863C214.693 134.762 214.156 134.678 213.513 134.573C213.286 135.763 213.334 136.791 214.073 137.76C214.269 138.018 214.353 138.501 214.266 138.822C211.782 147.928 208.032 156.486 203.063 164.499C196.503 175.079 188.243 184.112 178.282 191.568C170.06 197.721 161.138 202.592 151.354 205.718C146.456 207.282 141.402 208.354 136.418 209.638C136.021 209.74 135.603 209.76 135.207 209.815C134.488 208.257 134.251 208.263 132.932 209.403C132.376 209.884 131.624 210.335 130.918 210.413C121.525 211.48 112.154 211.305 102.828 209.666C102.692 209.642 102.56 209.596 102.245 209.512L102.25 209.516ZM195.356 171.452C196.669 171.727 197.421 171.395 197.438 170.422C197.444 170.046 197.005 169.458 196.64 169.326C196.082 169.128 195.383 170.311 195.356 171.452ZM202.37 159.144C201.971 159.976 201.668 160.456 201.534 160.98C201.498 161.127 202.141 161.609 202.166 161.589C202.639 161.168 203.088 160.711 203.467 160.207C203.496 160.169 202.951 159.703 202.37 159.146L202.37 159.144ZM96.3283 205.308C95.4521 205.426 94.6963 205.622 94.6054 206.6C94.5969 206.686 95.3399 207 95.6749 206.93C96.4863 206.757 96.942 206.279 96.3283 205.308ZM159.874 199.397L160.045 199.95C160.579 199.932 161.115 199.914 161.65 199.896L161.569 198.237C161.446 198.19 161.321 198.146 161.198 198.099C160.757 198.532 160.315 198.962 159.873 199.395L159.874 199.397Z" fill="#FF8080"/>
<path d="M63.8449 154.258L63.2984 150.369C63.7233 150.289 64.1121 150.196 64.5062 150.14C103.898 144.602 143.293 139.07 182.681 133.504C183.808 133.346 184.091 133.672 184.206 134.716C184.487 137.289 184.536 137.296 181.972 137.656C149.148 142.269 116.325 146.878 83.5009 151.489C77.4278 152.342 71.3554 153.2 65.2826 154.056C64.8437 154.118 64.4048 154.179 63.8449 154.258ZM105.273 148.291C106.647 146.856 106.704 146.317 105.661 145.075C104.151 145.962 103.985 147.157 105.273 148.291ZM83.2679 150.627C83.9648 150.126 84.9633 149.935 84.6319 148.845C84.5722 148.647 83.6323 148.459 83.3434 148.646C82.6297 149.108 82.5518 149.821 83.2679 150.627ZM93.7594 148.049C93.8857 148.07 94.0117 148.089 94.138 148.11C94.2394 147.776 94.524 147.315 94.3983 147.136C94.2095 146.865 93.7399 146.789 93.389 146.632C93.322 146.724 93.255 146.816 93.1905 146.91C93.381 147.29 93.5689 147.669 93.7594 148.049Z" fill="#FF8080"/>
<path d="M175.761 74.7935L55.1214 91.7483L54.5904 87.9698C54.982 87.8964 55.4043 87.7982 55.8321 87.738C84.4917 83.7148 113.154 79.6957 141.814 75.6701C152.509 74.1671 163.207 72.6681 173.895 71.1179C174.992 70.9592 175.39 71.2441 175.429 72.3186C175.457 73.0996 175.632 73.8758 175.761 74.7935ZM141.776 77.6798C142.213 77.1333 142.498 76.7729 142.786 76.4144C142.5 76.2349 142.131 75.8453 141.942 75.9198C141.516 76.0872 141.176 76.4827 140.803 76.7846C141.063 77.0249 141.323 77.2653 141.774 77.6823L141.776 77.6798Z" fill="#FF8080"/>
<path d="M193.488 153.679L193.72 155.326C194.006 155.348 194.29 155.369 194.63 155.397C194.588 155.54 194.573 155.691 194.505 155.808C191.545 160.99 188.07 165.801 184.108 170.255C180.089 174.771 175.669 178.856 170.789 182.432C170 183.01 169.208 183.583 168.39 184.117C167.717 184.555 167.17 185.233 166.112 184.785C165.738 184.627 164.832 185.136 164.489 185.585C161.762 189.176 157.564 190.341 153.782 192.174C152.726 192.686 151.516 192.868 150.408 193.287C148.812 193.891 147.279 194.681 145.658 195.203C139.514 197.188 133.218 198.473 126.773 198.94C124.135 199.13 121.485 199.273 118.84 199.252C116.099 199.227 113.349 199.081 110.624 198.798C107.936 198.521 105.253 198.1 102.603 197.571C99.9532 197.044 97.3102 196.42 94.7226 195.637C84.0171 192.403 74.2738 187.306 65.53 180.302C60.247 176.071 55.4913 171.316 51.3594 165.948C50.9766 165.45 50.7227 164.765 50.6511 164.141C50.5697 163.432 50.2783 163.098 49.6623 162.809C49.1245 162.557 48.5365 162.191 48.2247 161.711C46.4494 158.975 44.7494 156.189 43.0068 153.393C44.822 152.627 45.0074 152.695 45.8207 154.112C55.9713 171.791 70.5151 184.382 89.5007 191.726C103.831 197.27 118.644 198.664 133.755 196.055C151.227 193.039 166.315 185.239 178.982 172.78C179.664 172.108 180.525 171.605 181.146 170.886C182.583 169.217 184.01 167.529 185.279 165.733C187.885 162.049 190.385 158.291 192.925 154.561C193.069 154.349 193.2 154.127 193.483 153.675L193.488 153.679Z" fill="#FF8080"/>
<path d="M136.544 179.438C134.227 178.583 132.166 177.879 130.157 177.054C129.12 176.628 128.317 176.633 127.396 177.374C125.672 178.758 123.843 180.01 121.827 181.488C121.844 180.506 121.841 179.754 121.877 179.003C121.958 177.273 122.097 175.547 122.126 173.817C122.132 173.459 121.843 172.976 121.542 172.753C119.693 171.393 117.802 170.094 115.926 168.769C115.784 168.668 115.659 168.541 115.368 168.289C117.739 167.641 119.922 166.977 122.14 166.464C123.156 166.229 123.637 165.741 123.923 164.755C124.549 162.592 125.303 160.466 126.076 158.106C127.162 159.708 128.157 161.145 129.119 162.6C130.778 165.106 130.77 165.097 133.746 165.02C135.496 164.976 137.248 164.983 139.264 164.963C137.677 166.911 136.283 168.675 134.827 170.387C134.196 171.13 133.915 171.765 134.344 172.784C135.055 174.481 135.552 176.266 136.132 178.018C136.259 178.403 136.36 178.796 136.546 179.435L136.544 179.438ZM132.983 170.413C133.424 169.877 133.724 169.51 134.026 169.143C133.694 168.961 133.301 168.567 133.05 168.646C132.655 168.766 132.358 169.203 132.02 169.507C132.285 169.756 132.549 170.005 132.985 170.415L132.983 170.413Z" fill="#FF8080"/>
<path d="M109.874 43.1258C111.308 45.2077 112.657 47.1209 113.956 49.0686C114.366 49.6813 114.768 49.9909 115.581 49.9591C117.971 49.8681 120.366 49.9113 123.05 49.9002C121.606 51.7025 120.423 53.3926 119.016 54.8672C117.953 55.9799 117.8 56.9555 118.38 58.3499C119.156 60.2155 119.697 62.1804 120.426 64.3638C118.691 63.7358 117.106 63.3568 115.718 62.6115C113.443 61.3935 111.582 61.5727 109.707 63.4037C108.59 64.4941 107.175 65.2788 105.891 66.1983C105.866 66.2156 105.819 66.2039 105.624 66.2175C105.705 64.275 105.627 62.3205 105.908 60.4207C106.17 58.6449 105.627 57.5794 104.096 56.71C102.597 55.859 101.239 54.7593 99.8248 53.7615C99.6575 53.6431 99.5225 53.479 99.2353 53.2059C101.262 52.6465 103.107 52.0097 105.006 51.6467C106.698 51.3242 107.661 50.5986 108.041 48.8177C108.447 46.9186 109.217 45.0967 109.869 43.1242L109.874 43.1258ZM113.931 55.1105C114.603 54.7918 115.256 54.4827 115.684 54.2784C116.051 54.7119 116.331 55.2765 116.552 55.2547C116.986 55.2119 117.485 54.9245 117.78 54.5856C118.02 54.3093 118.068 53.8083 118.069 53.4078C118.07 53.0918 117.927 52.5605 117.741 52.5088C117.459 52.4318 116.901 52.5925 116.787 52.8168C116.431 53.5189 115.934 53.4446 115.302 53.3985C114.15 53.3109 113.755 53.8309 113.928 55.1108L113.931 55.1105Z" fill="#FF8080"/>
<path d="M195.818 71.938C193.915 72.4023 193.926 72.3962 193.05 70.8604C192.51 69.9134 191.955 68.9709 191.372 68.0508C190.826 67.1871 190.109 66.3772 191.264 65.041C189.228 65.4713 188.837 64.0688 188.09 63.1075C186.381 60.9085 184.662 58.7179 183.075 56.6871C183.144 56.0618 183.202 55.5458 183.259 55.0274C182.745 54.9922 182.231 54.9591 181.521 54.9102C179.434 52.9474 177.194 50.7179 174.825 48.6368C167.371 42.0833 158.998 37.0021 149.707 33.5485C145.703 32.0611 141.525 31.0443 137.417 29.8415C136.712 29.6363 135.98 29.579 136.201 28.5228C136.234 28.3671 135.945 28.1424 135.803 27.9495C135.625 28.1073 135.389 28.2342 135.284 28.432C135.165 28.6525 135.163 28.9364 135.078 29.3511C133.783 28.8925 132.243 29.3948 131.409 28.2856C130.553 28.351 129.864 28.4845 129.186 28.4424C125.75 28.2321 122.316 27.9779 118.896 27.7378C119.015 27.2017 119.149 26.6016 119.287 25.9851C150.341 25.3206 181.396 43.8189 195.818 71.938Z" fill="#FF8080"/>
<path d="M139.218 41.9304C140.53 43.8717 141.69 45.5255 142.776 47.2263C143.168 47.8393 143.602 48.0804 144.323 48.0614C146.407 48.0065 148.494 48.0198 150.807 48.0058C149.689 49.4055 148.756 50.7653 147.625 51.9287C146.448 53.1421 146.065 54.2645 146.851 55.893C147.546 57.3306 147.893 58.9362 148.48 60.7231C146.674 60.0754 145.019 59.6101 143.482 58.8926C142.052 58.2263 140.96 58.3341 139.759 59.3907C138.499 60.5013 137.052 61.4002 135.471 62.5491C135.51 61.2829 135.377 60.1918 135.605 59.1827C136.268 56.2477 135.369 54.2187 132.584 52.9558C131.618 52.5172 130.812 51.7221 129.717 50.9333C131.839 50.3559 133.728 49.8089 135.636 49.3418C136.55 49.1172 137.111 48.7409 137.372 47.7386C137.854 45.8862 138.523 44.0851 139.221 41.9301L139.218 41.9304ZM141.091 55.7095C140.089 56.1866 139.496 57.1348 139.938 57.615C140.135 57.8299 140.794 57.9363 140.991 57.7782C141.742 57.1761 141.547 56.4325 141.091 55.7095Z" fill="#FF8080"/>
<path d="M108.918 171.267C107.478 173.066 106.258 174.688 104.924 176.208C104.351 176.858 104.355 177.411 104.613 178.137C105.271 180.012 105.888 181.902 106.599 184.017C104.91 183.406 103.349 183.003 101.944 182.289C100.248 181.427 98.9392 181.607 97.5403 182.897C96.3698 183.977 94.9626 184.801 93.5236 185.839C93.6285 183.726 93.6996 181.778 93.8423 179.836C93.8662 179.519 94.2889 179.244 94.3657 178.913C94.4832 178.4 94.4612 177.854 94.4984 177.323C94.0794 177.347 93.6601 177.386 93.2408 177.392C92.9149 177.396 92.5105 177.476 92.2741 177.322C90.8349 176.375 89.4351 175.369 87.8 174.23C89.4652 173.763 90.8959 173.202 92.3793 172.985C94.4133 172.687 95.5205 171.71 95.9062 169.661C96.1677 168.272 96.7645 166.946 97.2114 165.592C97.2208 165.561 97.2611 165.54 97.4409 165.356C98.3067 167.081 99.9227 168.245 100.235 170.322C100.299 170.741 101.487 171.236 102.179 171.271C104.348 171.378 106.527 171.285 108.92 171.266L108.918 171.267Z" fill="#FF8080"/>
<path d="M145.876 166.025C148.195 165.385 150.228 164.868 152.227 164.242C152.671 164.104 153.146 163.65 153.342 163.22C153.745 162.335 153.887 161.332 154.288 160.447C154.687 159.567 155.274 158.773 155.888 157.762C157.038 159.449 158.009 160.96 159.085 162.393C159.36 162.761 159.958 163.078 160.416 163.091C162.514 163.149 164.616 163.091 167.002 163.072C165.464 164.983 164.095 166.695 162.702 168.389C162.605 168.508 162.326 168.538 162.144 168.514C160.774 168.331 160.304 168.925 160.791 170.324C161.362 170.067 161.929 169.809 162.571 169.52C163.266 171.607 163.932 173.598 164.671 175.814C163.013 175.217 161.45 174.821 160.051 174.107C158.351 173.241 157.026 173.434 155.624 174.699C154.463 175.748 153.099 176.571 151.827 177.496C151.712 177.457 151.594 177.419 151.479 177.38C151.707 176.06 151.944 174.743 152.153 173.418C152.193 173.163 152.145 172.889 152.097 172.63C152.047 172.351 151.839 172.058 151.891 171.812C152.145 170.633 151.638 169.96 150.652 169.351C149.092 168.387 147.634 167.258 145.878 166.022L145.876 166.025Z" fill="#FF8080"/>
<path d="M45.0802 72.15C44.9006 71.6032 44.7439 71.1218 44.5846 70.6385C44.3292 71.0634 44.1067 71.5111 43.8078 71.9032C43.5686 72.216 43.2371 72.4571 42.7236 72.5727C43.2417 71.6121 43.7425 70.6425 44.2808 69.6951C48.5181 62.2466 53.7435 55.5723 59.9363 49.6566C60.4234 49.1901 60.8518 48.9079 61.5874 49.0722C62.455 49.2661 63.3314 49.1978 63.8786 48.1027C63.5225 47.8599 63.1437 47.6019 62.5956 47.2282C78.4412 33.5949 96.7844 26.6192 117.633 26.0139C116.791 26.981 116.154 28.0202 114.545 28.1045C101.318 28.7828 88.9646 32.5118 77.4731 39.0715C69.1017 43.8495 61.7881 49.9318 55.4768 57.2301C55.1213 57.6416 54.5566 57.8811 54.0664 58.1628C53.4325 58.5265 52.8002 58.8373 53.091 59.7849C53.1536 59.9866 52.9524 60.3101 52.8026 60.5279C50.956 63.2311 49.233 66.0337 47.1805 68.5713C46.2681 69.6995 46.1599 71.1883 45.0853 72.1538L45.0802 72.15Z" fill="#FF8080"/>
<path d="M81.1612 50.1379C82.4421 52.0378 83.5945 53.6239 84.6018 55.2991C85.0933 56.1156 85.6852 56.2818 86.5399 56.2532C88.5177 56.1903 90.4967 56.2005 92.7521 56.1787C91.2456 58.0516 89.8923 59.7313 88.5431 61.4082C86.9376 60.3342 86.4031 60.3819 85.049 61.8284C84.3618 62.561 83.7641 63.3772 83.1152 64.1709C85.0816 65.034 86.5084 64.6573 88.3083 62.7432C88.6114 63.5998 88.8874 64.3779 89.1215 65.036C88.8475 65.4589 88.6448 65.7711 88.442 66.0833C88.7232 66.1994 89.0151 66.2934 89.2799 66.4392C89.4508 66.5342 89.651 66.6754 89.7156 66.8425C89.9428 67.4352 90.1178 68.0467 90.4007 68.9222C88.6788 68.3039 87.083 67.9012 85.6543 67.1753C84.0089 66.338 82.7585 66.6052 81.4229 67.7768C80.2173 68.8341 78.8378 69.6938 77.3645 70.7635C77.4625 68.4547 77.587 66.3344 77.6088 64.2149C77.6129 63.7887 77.3354 63.2122 76.9979 62.9553C75.5018 61.8156 73.9346 60.7705 72.3959 59.6848C72.1956 59.5436 72.0143 59.3746 71.6992 59.1146C73.7686 58.5492 75.6662 57.9805 77.5911 57.5246C78.4973 57.3103 78.9887 56.9072 79.2531 55.9776C79.7935 54.0712 80.4769 52.2064 81.1596 50.1427L81.1612 50.1379Z" fill="#FF8080"/>
<path d="M47.1475 173.301C46.161 174.179 45.2191 175.016 44.2099 175.91C38.8972 169.582 34.3962 162.643 30.704 154.895C32.0364 154.708 33.2352 154.512 34.4405 154.395C34.6455 154.376 34.9824 154.644 35.0907 154.862C38.3674 161.506 42.493 167.594 47.1519 173.332C47.1739 173.359 47.1754 173.402 47.1427 173.299L47.1475 173.301Z" fill="#FF8080"/>
<path d="M204.343 130.515C203.307 134.058 202.373 137.343 201.377 140.606C200.959 141.971 200.441 143.307 199.891 144.627C199.688 145.115 199.254 145.501 198.952 145.951C198.772 146.216 198.496 146.53 198.518 146.799C198.647 148.364 198.01 149.424 196.746 150.343C195.698 151.106 194.868 152.167 193.713 153.325C194.711 151.249 195.599 149.461 196.439 147.649C198.787 142.583 200.603 137.324 201.784 131.868C202.099 130.418 203.069 130.724 204.345 130.515L204.343 130.515Z" fill="#FF8080"/>
<path d="M42.0089 73.9545C42.779 75.5669 43.3392 74.2229 44.2067 73.9454C43.7542 74.8853 43.3685 75.6832 42.9883 76.4711C42.562 76.4601 42.1703 76.4511 41.4619 76.4316C42.7588 77.8762 41.8224 78.9963 41.3668 80.1746C40.8509 81.5079 40.5432 82.9743 39.7806 84.1455C38.9318 85.45 38.9852 86.9184 38.5088 88.2735C38.0135 89.6886 37.6917 91.1684 37.3306 92.6287C36.8811 94.4514 36.8997 94.4534 34.843 94.5571C36.3374 87.398 38.722 80.6104 42.0064 73.9526L42.0089 73.9545Z" fill="#FF8080"/>
<path d="M63.0951 134.699L59.2488 107.332L70.6608 105.728C72.7098 105.44 74.4654 105.489 75.9277 105.874C77.3988 106.257 78.555 106.922 79.3964 107.866C80.2467 108.81 80.7682 109.967 80.961 111.339C81.1075 112.382 81.0201 113.343 80.6988 114.224C80.3762 115.096 79.8694 115.853 79.1783 116.496C78.4873 117.138 77.6535 117.637 76.6769 117.992L76.7144 118.259C77.8266 118.157 78.8886 118.312 79.9004 118.724C80.9211 119.135 81.7847 119.786 82.4913 120.677C83.1967 121.559 83.6421 122.659 83.8274 123.977C84.0339 125.447 83.8445 126.814 83.2589 128.077C82.6721 129.332 81.7174 130.392 80.3948 131.26C79.071 132.118 77.3979 132.689 75.3757 132.974L63.0951 134.699ZM68.9604 128.438L73.0495 127.863C74.4838 127.662 75.5013 127.242 76.102 126.603C76.7116 125.963 76.9481 125.158 76.8116 124.187C76.7127 123.483 76.4628 122.9 76.0618 122.439C75.6596 121.968 75.1361 121.638 74.4915 121.447C73.8457 121.247 73.0996 121.206 72.2533 121.325L68.0439 121.917L68.9604 128.438ZM67.4448 117.654L71.1063 117.139C71.8279 117.038 72.4524 116.828 72.9799 116.508C73.5073 116.189 73.895 115.78 74.1429 115.282C74.3998 114.782 74.4832 114.212 74.393 113.571C74.264 112.653 73.8375 111.977 73.1133 111.543C72.3891 111.109 71.4746 110.969 70.37 111.124L66.6016 111.654L67.4448 117.654ZM94.0037 130.356L86.8946 131.355L92.2822 102.689L101.088 101.452L114.168 127.522L107.059 128.521L97.7546 108.952L97.5407 108.982L94.0037 130.356ZM91.5412 119.718L106.401 117.63L107.107 122.654L92.2473 124.743L91.5412 119.718ZM109.711 105.718L108.956 100.346L132.087 97.0953L132.842 102.467L124.544 103.633L127.635 125.629L121.114 126.545L118.023 104.55L109.711 105.718ZM141.666 123.657L134.557 124.656L139.945 95.991L148.751 94.7533L161.831 120.823L154.722 121.822L145.417 102.253L145.203 102.283L141.666 123.657ZM139.204 113.02L154.063 110.931L154.769 115.956L139.91 118.044L139.204 113.02ZM164.777 120.409L160.931 93.0415L167.546 92.1119L170.637 114.107L182.022 112.507L182.777 117.879L164.777 120.409Z" fill="#FF8080"/>
</svg>
