<svg width="72" height="72" viewBox="0 0 72 72" fill="none" xmlns="http://www.w3.org/2000/svg">
<path fill-rule="evenodd" clip-rule="evenodd" d="M37.798 3.70763C39.9361 1.7651 43.0785 1.61936 45.2927 3.54771C46.423 4.53222 47.8287 5.82807 49.5 7.49903C51.1712 9.16989 52.4673 10.5752 53.4519 11.7054C55.3809 13.9192 55.2357 17.0616 53.2934 19.2003C51.8307 20.8109 49.7379 23.0325 46.8861 25.8848C44.0341 28.737 41.8128 30.8301 40.2024 32.2932C38.0643 34.2357 34.922 34.3814 32.7078 32.4531C31.5774 31.4685 30.1717 30.1727 28.5005 28.5018C26.8293 26.831 25.5332 25.4256 24.5484 24.2954C22.6196 22.0817 22.7647 18.9392 24.7071 16.8006C26.1697 15.1899 28.2626 12.9683 31.1144 10.1161C33.9663 7.26372 36.1876 5.17062 37.798 3.70763ZM19.1066 21.9026C19.3449 24.1025 20.257 26.2646 21.9108 28.1025C22.841 29.1365 23.9675 30.3315 25.3194 31.6833C26.4032 32.7668 27.3861 33.7053 28.2662 34.5141C22.9845 34.5345 19.7718 34.5723 18.3302 34.5928C17.7396 34.6013 17.1393 34.7813 16.8535 35.2982C16.6636 35.6415 16.5 36.1203 16.5 36.75C16.5 37.3797 16.6636 37.8585 16.8535 38.2019C17.1393 38.7188 17.7396 38.8988 18.3302 38.9072C20.3748 38.9364 25.9813 39 36 39C46.0187 39 51.6252 38.9364 53.6698 38.9072C54.2604 38.8988 54.8607 38.7188 55.1465 38.2019C55.3364 37.8585 55.5 37.3797 55.5 36.75C55.5 36.1203 55.3364 35.6415 55.1465 35.2982C54.8607 34.7813 54.2604 34.6013 53.6698 34.5928C52.2929 34.5732 49.3004 34.538 44.4325 34.517C45.939 33.1172 47.8148 31.3202 50.0689 29.0657C52.5247 26.6094 54.4375 24.6026 55.8855 23.033C56.193 22.6995 56.4787 22.3515 56.7419 21.9914C58.1587 22.0289 59.4067 22.0679 60.4917 22.1057C64.7976 22.2561 68.8204 25.0896 69.3757 29.8109C69.5936 31.6616 69.75 33.9618 69.75 36.75C69.75 39.5382 69.5936 41.8385 69.3757 43.6892C68.8204 48.4104 64.7976 51.2439 60.4917 51.3944C55.691 51.5619 47.6988 51.75 36 51.75C24.3013 51.75 16.3091 51.5619 11.5083 51.3944C7.20245 51.2439 3.17952 48.4104 2.6242 43.6892C2.40653 41.8385 2.25 39.5382 2.25 36.75C2.25 33.9618 2.40653 31.6616 2.6242 29.8109C3.1795 25.0896 7.20245 22.2561 11.5083 22.1057C13.4869 22.0367 16.0077 21.9641 19.1066 21.9026ZM2.31153 51.2798C4.71968 53.6967 8.06789 55.0265 11.3776 55.1421C16.2255 55.3113 24.2614 55.5 36.0001 55.5C47.7388 55.5 55.7748 55.3113 60.6228 55.142C63.9328 55.0265 67.2815 53.6964 69.6896 51.279C69.5894 55.092 69.3773 58.1574 69.1429 60.5351C68.6571 65.4657 64.6633 68.9379 59.8827 69.1997C55.006 69.4667 47.1951 69.7499 36.0005 69.7499C24.806 69.7499 16.9952 69.4667 12.1184 69.1997C7.33767 68.9379 3.34398 65.4657 2.85816 60.5351C2.62389 58.1576 2.41181 55.0923 2.31153 51.2798Z" fill="url(#paint0_radial_8429_78645)"/>
<defs>
<radialGradient id="paint0_radial_8429_78645" cx="0" cy="0" r="1" gradientUnits="userSpaceOnUse" gradientTransform="translate(36.09 2.17383) rotate(90.0869) scale(59.3351 67.5007)">
<stop stop-color="#FFC55A"/>
<stop offset="1" stop-color="#00712D"/>
</radialGradient>
</defs>
</svg>
