<svg width="72" height="72" viewBox="0 0 72 72" fill="none" xmlns="http://www.w3.org/2000/svg">
<g clip-path="url(#clip0_8745_53319)">
<path fill-rule="evenodd" clip-rule="evenodd" d="M40.6804 0.181393C41.4113 0.436779 42.0497 0.944569 42.5029 1.63091C42.9561 2.31726 43.2005 3.14636 43.2004 3.99765V23.999H57.6004C58.2589 23.9987 58.9049 24.1991 59.468 24.5783C60.0312 24.9576 60.4899 25.5013 60.7943 26.1501C61.0987 26.799 61.2371 27.5282 61.1945 28.2583C61.1518 28.9885 60.9298 29.6917 60.5524 30.2914L35.3524 70.2941C34.9138 70.9923 34.2862 71.5168 33.5609 71.7912C32.8355 72.0657 32.0502 72.0758 31.3193 71.8201C30.5884 71.5644 29.95 71.0563 29.497 70.3696C29.044 69.6828 28.7999 68.8534 28.8004 68.002V48.0006H14.4004C13.7419 48.0009 13.096 47.8006 12.5328 47.4213C11.9697 47.042 11.5109 46.4983 11.2065 45.8495C10.9021 45.2006 10.7637 44.4714 10.8064 43.7413C10.849 43.0111 11.0711 42.3079 11.4484 41.7082L36.6484 1.7055C37.0877 1.0086 37.7154 0.485463 38.4405 0.212099C39.1656 -0.0612642 39.9502 -0.0706192 40.6804 0.185393V0.181393Z" fill="url(#paint0_radial_8745_53319)"/>
</g>
<defs>
<radialGradient id="paint0_radial_8745_53319" cx="0" cy="0" r="1" gradientUnits="userSpaceOnUse" gradientTransform="translate(36.0676) rotate(90.0609) scale(63.2237 50.4038)">
<stop stop-color="#FFC55A"/>
<stop offset="1" stop-color="#00712D"/>
</radialGradient>
<clipPath id="clip0_8745_53319">
<rect width="72" height="72" fill="white"/>
</clipPath>
</defs>
</svg>
