<svg width="78" height="20" viewBox="0 0 78 20" fill="none" xmlns="http://www.w3.org/2000/svg">
<g clip-path="url(#clip0_1650_1019)">
<path d="M0 10.0849C0 12.6338 2.06625 14.7 4.61509 14.7C4.77244 14.7 4.9 14.5724 4.9 14.4151V0.605C4.9 0.270868 4.62913 0 4.295 0H0.605C0.270868 0 0 0.270868 0 0.605V10.0849Z" fill="#FD6E00"/>
<path d="M5.18491 14.7C5.02756 14.7 4.9 14.8276 4.9 14.9849C4.9 17.5338 6.96625 19.6 9.51509 19.6H14.1302C14.4449 19.6 14.7 19.3449 14.7 19.0302V15.305C14.7 14.9709 14.4291 14.7 14.095 14.7H5.18491Z" fill="#FD6E00"/>
<path fill-rule="evenodd" clip-rule="evenodd" d="M23.2253 5.51638C24.1031 5.51638 24.9182 5.61939 25.6706 5.8254C26.423 6.03141 27.1171 6.35387 27.7531 6.79277C28.389 7.23167 28.8906 7.84523 29.2579 8.63345C29.6251 9.42167 29.8087 10.3487 29.8087 11.4146V18.3743C29.8087 19.2163 29.3878 19.6372 28.5458 19.6372H27.4172C27.0231 19.6372 26.7141 19.5253 26.4901 19.3013C26.2752 19.0774 26.1677 18.7684 26.1677 18.3743V18.2668C24.8958 19.4223 23.4313 20 21.7742 20C20.1351 20 18.8184 19.6014 17.8242 18.8042C16.8389 17.9981 16.3462 16.9367 16.3462 15.62C16.3462 14.2048 16.8881 13.0672 17.9719 12.2073C19.0558 11.3474 20.4889 10.9175 22.2714 10.9175C23.2208 10.9175 24.2643 11.1101 25.4019 11.4952V10.9981C25.4019 10.3532 25.1824 9.84714 24.7435 9.4799C24.3136 9.11265 23.7 8.92903 22.9028 8.92903C21.7474 8.92903 20.7173 9.19775 19.8126 9.73517C19.1229 10.1203 18.5945 9.95462 18.2272 9.23805L17.9182 8.60658C17.7032 8.14977 17.6271 7.79596 17.6898 7.54516C17.7525 7.29436 17.9406 7.07044 18.2541 6.87338C18.9169 6.4524 19.7007 6.12099 20.6053 5.87914C21.51 5.6373 22.3833 5.51638 23.2253 5.51638ZM22.9834 17.0442C23.6911 17.0442 24.2867 16.865 24.7704 16.5067C25.263 16.1485 25.5093 15.7723 25.5093 15.3781V14.2495C24.6405 13.8465 23.8164 13.6449 23.0372 13.6449C22.3654 13.6449 21.8235 13.8062 21.4115 14.1286C21.0084 14.4511 20.8069 14.8676 20.8069 15.3781C20.8069 15.8887 21.0039 16.2962 21.398 16.6008C21.7921 16.8964 22.3206 17.0442 22.9834 17.0442Z" fill="#1F2024"/>
<path d="M45.4043 19.3096C45.5655 19.0767 45.5028 18.7677 45.2162 18.3825L40.6481 12.1349L44.9608 7.01594C45.2474 6.63079 45.3102 6.32625 45.149 6.10232C44.9967 5.86944 44.7146 5.753 44.3026 5.753H41.4945C41.1183 5.753 40.8003 5.85152 40.5406 6.04858C40.2898 6.23668 39.9852 6.55018 39.627 6.98907L36.1606 11.3691V1.29236C36.1606 0.862423 36.0441 0.526532 35.8112 0.28469C35.5783 0.0338917 35.2648 -0.0512007 34.8707 0.0294132L32.6673 0.432482C32.2553 0.504139 31.9462 0.638495 31.7402 0.835551C31.5342 1.03261 31.4312 1.32371 31.4312 1.70887V18.3825C31.4312 18.7766 31.5387 19.0856 31.7537 19.3096C31.9686 19.5335 32.2732 19.6454 32.6673 19.6454H34.8976C35.2917 19.6454 35.6007 19.5335 35.8247 19.3096C36.0486 19.0856 36.1606 18.7766 36.1606 18.3825V15.5207L37.0473 14.4996L39.6538 18.4094C39.9404 18.8214 40.2271 19.1304 40.5137 19.3364C40.8003 19.5424 41.1362 19.6454 41.5214 19.6454H44.531C44.9609 19.6454 45.252 19.5335 45.4043 19.3096Z" fill="#1F2024"/>
<path fill-rule="evenodd" clip-rule="evenodd" d="M67.0657 13.4548C67.1732 14.3416 67.5629 15.0357 68.2346 15.5373C68.9064 16.0389 69.7126 16.2897 70.653 16.2897C71.6562 16.2897 72.637 15.9583 73.5955 15.2955C73.7836 15.1522 73.9448 15.0492 74.0791 14.9865C74.2135 14.9238 74.3613 14.9103 74.5225 14.9462C74.6837 14.982 74.8494 15.0895 75.0196 15.2686L75.9601 16.236C76.4348 16.6928 76.4528 17.1586 76.0139 17.6333C75.4137 18.2692 74.5628 18.7708 73.4611 19.1381C72.3594 19.4964 71.2397 19.6755 70.1022 19.6755C67.8898 19.6755 66.0625 18.9992 64.6204 17.6467C63.1873 16.2852 62.4707 14.5386 62.4707 12.4068C62.4707 11.0364 62.7842 9.80479 63.4112 8.71203C64.0382 7.6103 64.916 6.75042 66.0446 6.13238C67.1732 5.50539 68.4496 5.19189 69.8738 5.19189C70.9486 5.19189 71.9294 5.36655 72.8162 5.71588C73.7119 6.0652 74.4643 6.54441 75.0734 7.15349C75.7093 7.78945 76.202 8.54184 76.5513 9.41068C76.9096 10.2795 77.0887 11.1842 77.0887 12.1247C77.0887 12.6263 76.9991 12.9756 76.82 13.1727C76.6498 13.3608 76.3184 13.4548 75.8258 13.4548H67.0657ZM69.7663 8.47018C69.0318 8.47018 68.4272 8.68068 67.9525 9.10166C67.4867 9.52264 67.2046 10.1004 67.106 10.8349H72.4669C72.3594 10.172 72.1041 9.63908 71.701 9.23602C71.1905 8.72546 70.5456 8.47018 69.7663 8.47018Z" fill="#1F2024"/>
<path fill-rule="evenodd" clip-rule="evenodd" d="M47.6679 17.6199C49.119 18.9903 50.9552 19.6755 53.1765 19.6755C54.6455 19.6755 55.9622 19.362 57.1266 18.735C58.3 18.108 59.2136 17.2437 59.8675 16.1419C60.5213 15.0402 60.8483 13.8041 60.8483 12.4337C60.8483 11.0633 60.5213 9.82718 59.8675 8.72546C59.2136 7.62374 58.3 6.75938 57.1266 6.13238C55.9622 5.50539 54.6455 5.19189 53.1765 5.19189C50.9552 5.19189 49.119 5.88158 47.6679 7.26098C46.2169 8.63141 45.4913 10.3557 45.4913 12.4337C45.4913 14.5117 46.2169 16.2405 47.6679 17.6199ZM53.1765 15.6045C52.3166 15.6045 51.6001 15.3044 51.0268 14.7043C50.4625 14.1042 50.1804 13.3473 50.1804 12.4337C50.1804 11.5201 50.4625 10.7632 51.0268 10.1631C51.6001 9.56295 52.3166 9.26289 53.1765 9.26289C54.0364 9.26289 54.744 9.56295 55.2994 10.1631C55.8637 10.7632 56.1458 11.5201 56.1458 12.4337C56.1458 13.3473 55.8637 14.1042 55.2994 14.7043C54.744 15.3044 54.0364 15.6045 53.1765 15.6045Z" fill="#1F2024"/>
</g>
<defs>
<clipPath id="clip0_1650_1019">
<rect width="77.1" height="20" fill="white"/>
</clipPath>
</defs>
</svg>
