<svg width="16" height="16" viewBox="0 0 16 16" fill="none" xmlns="http://www.w3.org/2000/svg">
<g clip-path="url(#clip0_25_8)">
<path d="M9 1.33337C9 0.781089 8.55228 0.333374 8 0.333374C7.44771 0.333374 7 0.781089 7 1.33337V7.00004H1.33333C0.781044 7.00004 0.333328 7.44776 0.333328 8.00004C0.333328 8.55233 0.781044 9.00004 1.33333 9.00004H7V14.6667C7 15.219 7.44771 15.6667 8 15.6667C8.55228 15.6667 9 15.219 9 14.6667V9.00004H14.6667C15.2189 9.00004 15.6667 8.55233 15.6667 8.00004C15.6667 7.44776 15.2189 7.00004 14.6667 7.00004H9V1.33337Z" fill="#FD6E00"/>
</g>
<defs>
<clipPath id="clip0_25_8">
<rect width="16" height="16" fill="white"/>
</clipPath>
</defs>
</svg>
