<svg width="25" height="25" viewBox="0 0 25 25" fill="none" xmlns="http://www.w3.org/2000/svg">
<path fill-rule="evenodd" clip-rule="evenodd" d="M1.73158 10.7418C0.945106 11.528 0.945106 12.8031 1.73158 13.5895L8.57711 20.4339C8.95511 20.8109 9.46736 21.0235 10.001 21.0235H19.9703C21.7495 21.0235 23.1917 19.5812 23.1917 17.8021V6.52808C23.1917 4.74898 21.7495 3.30664 19.9703 3.30664H10.001C9.46736 3.30664 8.95511 3.51927 8.57711 3.89727L1.73158 10.7418ZM12.4858 9.18045C12.0632 8.7268 11.308 8.9008 11.1264 9.49358C11.0363 9.78823 11.122 10.1086 11.3476 10.3187L13.1945 12.1656L11.3476 14.0125C10.8939 14.4351 11.0679 15.1903 11.6607 15.3719C11.9554 15.4621 12.2757 15.3763 12.4858 15.1508L14.3328 13.3039L16.1797 15.1508C16.6023 15.6044 17.3574 15.4305 17.539 14.8376C17.6292 14.543 17.5435 14.2226 17.318 14.0125L15.471 12.1656L17.318 10.3187C17.7715 9.89605 17.5976 9.14089 17.0048 8.9593C16.7101 8.86911 16.3898 8.95489 16.1797 9.18045L14.3328 11.0273L12.4858 9.18045Z" fill="#1F2024"/>
</svg>
