<svg width="24" height="24" viewBox="0 0 24 24" fill="none" xmlns="http://www.w3.org/2000/svg">
<g clip-path="url(#clip0_1650_1026)">
<path fill-rule="evenodd" clip-rule="evenodd" d="M4.36463 8.61067C4.3711 2.73292 10.7381 -0.933681 15.8253 2.01087C18.1809 3.37444 19.6327 5.88887 19.6357 8.61067V9.45909C19.6357 11.8606 20.5406 14.0483 22.0315 15.7031C22.4336 16.1487 22.2586 16.8594 21.6956 17.0673C19.9491 17.7121 18.121 18.1872 16.2308 18.4734C16.4692 21.7301 13.0926 24.0236 10.1529 22.6016C8.58722 21.8443 7.64251 20.2079 7.76944 18.4734C5.90485 18.1908 4.07382 17.7194 2.30466 17.0662C1.74226 16.8586 1.56676 16.149 1.96754 15.7031C3.51366 13.9913 4.3681 11.7658 4.36463 9.45909V8.61067ZM9.45722 18.6781C9.37454 20.6356 11.4419 21.9486 13.1785 21.0415C14.053 20.5847 14.5847 19.6638 14.5431 18.6781C12.8512 18.8306 11.149 18.8306 9.45722 18.6781Z" fill="#1F2024"/>
</g>
<defs>
<clipPath id="clip0_1650_1026">
<rect width="24" height="23.9996" fill="white" transform="translate(0 0.000244141)"/>
</clipPath>
</defs>
</svg>
