<svg width="20" height="20" viewBox="0 0 20 20" fill="none" xmlns="http://www.w3.org/2000/svg">
<path fill-rule="evenodd" clip-rule="evenodd" d="M5.57305 0.689941H14.4269C15.5058 0.689941 16.0452 0.689941 16.4803 0.841308C17.3053 1.12845 17.9531 1.79519 18.2319 2.64457C18.379 3.09241 18.379 3.64777 18.379 4.75847V17.7963C18.379 18.5953 17.4619 19.0192 16.8819 18.4884C16.541 18.1765 16.0275 18.1765 15.6866 18.4884L15.2368 18.9C14.6395 19.4466 13.7394 19.4466 13.1421 18.9C12.5448 18.3535 11.6447 18.3535 11.0473 18.9C10.45 19.4466 9.54991 19.4466 8.9526 18.9C8.35528 18.3535 7.45516 18.3535 6.85785 18.9C6.26053 19.4466 5.36041 19.4466 4.7631 18.9L4.31335 18.4884C3.97254 18.1765 3.45891 18.1765 3.11809 18.4884C2.53804 19.0192 1.62097 18.5953 1.62097 17.7963V4.75847C1.62097 3.64777 1.62097 3.09241 1.76806 2.64457C2.04689 1.79519 2.69463 1.12845 3.51963 0.841308C3.95473 0.689941 4.49417 0.689941 5.57305 0.689941ZM5.34497 5.11219C4.95935 5.11219 4.64672 5.42482 4.64672 5.81044C4.64672 6.19606 4.95935 6.50869 5.34497 6.50869H5.81047C6.19609 6.50869 6.50872 6.19606 6.50872 5.81044C6.50872 5.42482 6.19609 5.11219 5.81047 5.11219H5.34497ZM8.60347 5.11219C8.21785 5.11219 7.90522 5.42482 7.90522 5.81044C7.90522 6.19606 8.21785 6.50869 8.60347 6.50869H14.655C15.0406 6.50869 15.3532 6.19606 15.3532 5.81044C15.3532 5.42482 15.0406 5.11219 14.655 5.11219H8.60347ZM5.34497 8.37069C4.95935 8.37069 4.64672 8.68332 4.64672 9.06894C4.64672 9.45456 4.95935 9.76719 5.34497 9.76719H5.81047C6.19609 9.76719 6.50872 9.45456 6.50872 9.06894C6.50872 8.68332 6.19609 8.37069 5.81047 8.37069H5.34497ZM8.60347 8.37069C8.21785 8.37069 7.90522 8.68332 7.90522 9.06894C7.90522 9.45456 8.21785 9.76719 8.60347 9.76719H14.655C15.0406 9.76719 15.3532 9.45456 15.3532 9.06894C15.3532 8.68332 15.0406 8.37069 14.655 8.37069H8.60347ZM5.34497 11.6292C4.95935 11.6292 4.64672 11.9418 4.64672 12.3274C4.64672 12.7131 4.95935 13.0257 5.34497 13.0257H5.81047C6.19609 13.0257 6.50872 12.7131 6.50872 12.3274C6.50872 11.9418 6.19609 11.6292 5.81047 11.6292H5.34497ZM8.60347 11.6292C8.21785 11.6292 7.90522 11.9418 7.90522 12.3274C7.90522 12.7131 8.21785 13.0257 8.60347 13.0257H14.655C15.0406 13.0257 15.3532 12.7131 15.3532 12.3274C15.3532 11.9418 15.0406 11.6292 14.655 11.6292H8.60347Z" fill="#2F3036"/>
<path fill-rule="evenodd" clip-rule="evenodd" d="M5.57305 0.689941H14.4269C15.5058 0.689941 16.0452 0.689941 16.4803 0.841308C17.3053 1.12845 17.9531 1.79519 18.2319 2.64457C18.379 3.09241 18.379 3.64777 18.379 4.75847V17.7963C18.379 18.5953 17.4619 19.0192 16.8819 18.4884C16.541 18.1765 16.0275 18.1765 15.6866 18.4884L15.2368 18.9C14.6395 19.4466 13.7394 19.4466 13.1421 18.9C12.5448 18.3535 11.6447 18.3535 11.0473 18.9C10.45 19.4466 9.54991 19.4466 8.9526 18.9C8.35528 18.3535 7.45516 18.3535 6.85785 18.9C6.26053 19.4466 5.36041 19.4466 4.7631 18.9L4.31335 18.4884C3.97254 18.1765 3.45891 18.1765 3.11809 18.4884C2.53804 19.0192 1.62097 18.5953 1.62097 17.7963V4.75847C1.62097 3.64777 1.62097 3.09241 1.76806 2.64457C2.04689 1.79519 2.69463 1.12845 3.51963 0.841308C3.95473 0.689941 4.49417 0.689941 5.57305 0.689941ZM5.34497 5.11219C4.95935 5.11219 4.64672 5.42482 4.64672 5.81044C4.64672 6.19606 4.95935 6.50869 5.34497 6.50869H5.81047C6.19609 6.50869 6.50872 6.19606 6.50872 5.81044C6.50872 5.42482 6.19609 5.11219 5.81047 5.11219H5.34497ZM8.60347 5.11219C8.21785 5.11219 7.90522 5.42482 7.90522 5.81044C7.90522 6.19606 8.21785 6.50869 8.60347 6.50869H14.655C15.0406 6.50869 15.3532 6.19606 15.3532 5.81044C15.3532 5.42482 15.0406 5.11219 14.655 5.11219H8.60347ZM5.34497 8.37069C4.95935 8.37069 4.64672 8.68332 4.64672 9.06894C4.64672 9.45456 4.95935 9.76719 5.34497 9.76719H5.81047C6.19609 9.76719 6.50872 9.45456 6.50872 9.06894C6.50872 8.68332 6.19609 8.37069 5.81047 8.37069H5.34497ZM8.60347 8.37069C8.21785 8.37069 7.90522 8.68332 7.90522 9.06894C7.90522 9.45456 8.21785 9.76719 8.60347 9.76719H14.655C15.0406 9.76719 15.3532 9.45456 15.3532 9.06894C15.3532 8.68332 15.0406 8.37069 14.655 8.37069H8.60347ZM5.34497 11.6292C4.95935 11.6292 4.64672 11.9418 4.64672 12.3274C4.64672 12.7131 4.95935 13.0257 5.34497 13.0257H5.81047C6.19609 13.0257 6.50872 12.7131 6.50872 12.3274C6.50872 11.9418 6.19609 11.6292 5.81047 11.6292H5.34497ZM8.60347 11.6292C8.21785 11.6292 7.90522 11.9418 7.90522 12.3274C7.90522 12.7131 8.21785 13.0257 8.60347 13.0257H14.655C15.0406 13.0257 15.3532 12.7131 15.3532 12.3274C15.3532 11.9418 15.0406 11.6292 14.655 11.6292H8.60347Z" fill="black" fill-opacity="0.2"/>
</svg>
