<svg width="20" height="20" viewBox="0 0 20 20" fill="none" xmlns="http://www.w3.org/2000/svg">
<path fill-rule="evenodd" clip-rule="evenodd" d="M17.292 17.9553C16.6979 17.4512 15.8028 17.4512 15.2087 17.9553C14.6146 18.4594 13.7194 18.4593 13.1253 17.9553C12.5312 17.4512 11.6361 17.4512 11.042 17.9553C10.4479 18.4594 9.55276 18.4593 8.95866 17.9553C8.36455 17.4512 7.46936 17.4512 6.87533 17.9553C6.28129 18.4593 5.38603 18.4593 4.79199 17.9553C4.19796 17.4512 3.30269 17.4512 2.70866 17.9553C2.30503 18.2977 1.66699 18.0242 1.66699 17.5087V2.49131C1.66699 1.97579 2.30503 1.70226 2.70866 2.04474C3.30269 2.54885 4.19796 2.54885 4.79199 2.04474C5.38603 1.54063 6.28129 1.54063 6.87533 2.04474C7.46936 2.54885 8.36455 2.54885 8.95866 2.04474C9.55276 1.54063 10.4479 1.54063 11.042 2.04474C11.6361 2.54885 12.5312 2.54885 13.1253 2.04474C13.7194 1.54063 14.6146 1.54063 15.2087 2.04474C15.8028 2.54885 16.6979 2.54885 17.292 2.04474C17.6956 1.70226 18.3337 1.97579 18.3337 2.49131V17.5087C18.3337 18.0242 17.6956 18.2977 17.292 17.9553ZM5.13921 10C5.13921 9.6165 5.45016 9.30556 5.83366 9.30556H14.167C14.5505 9.30556 14.8614 9.6165 14.8614 10C14.8614 10.3835 14.5505 10.6944 14.167 10.6944H5.83366C5.45016 10.6944 5.13921 10.3835 5.13921 10ZM5.83366 6.06485C5.45016 6.06485 5.13921 6.37572 5.13921 6.7593C5.13921 7.14287 5.45016 7.45374 5.83366 7.45374H14.167C14.5505 7.45374 14.8614 7.1428 14.8614 6.7593C14.8614 6.37579 14.5505 6.06485 14.167 6.06485H5.83366ZM5.13921 13.2407C5.13921 12.8572 5.45016 12.5463 5.83366 12.5463H14.167C14.5505 12.5463 14.8614 12.8572 14.8614 13.2407C14.8614 13.6242 14.5505 13.9352 14.167 13.9352H5.83366C5.45016 13.9352 5.13921 13.6243 5.13921 13.2407Z" fill="#2F3036"/>
<path fill-rule="evenodd" clip-rule="evenodd" d="M17.292 17.9553C16.6979 17.4512 15.8028 17.4512 15.2087 17.9553C14.6146 18.4594 13.7194 18.4593 13.1253 17.9553C12.5312 17.4512 11.6361 17.4512 11.042 17.9553C10.4479 18.4594 9.55276 18.4593 8.95866 17.9553C8.36455 17.4512 7.46936 17.4512 6.87533 17.9553C6.28129 18.4593 5.38603 18.4593 4.79199 17.9553C4.19796 17.4512 3.30269 17.4512 2.70866 17.9553C2.30503 18.2977 1.66699 18.0242 1.66699 17.5087V2.49131C1.66699 1.97579 2.30503 1.70226 2.70866 2.04474C3.30269 2.54885 4.19796 2.54885 4.79199 2.04474C5.38603 1.54063 6.28129 1.54063 6.87533 2.04474C7.46936 2.54885 8.36455 2.54885 8.95866 2.04474C9.55276 1.54063 10.4479 1.54063 11.042 2.04474C11.6361 2.54885 12.5312 2.54885 13.1253 2.04474C13.7194 1.54063 14.6146 1.54063 15.2087 2.04474C15.8028 2.54885 16.6979 2.54885 17.292 2.04474C17.6956 1.70226 18.3337 1.97579 18.3337 2.49131V17.5087C18.3337 18.0242 17.6956 18.2977 17.292 17.9553ZM5.13921 10C5.13921 9.6165 5.45016 9.30556 5.83366 9.30556H14.167C14.5505 9.30556 14.8614 9.6165 14.8614 10C14.8614 10.3835 14.5505 10.6944 14.167 10.6944H5.83366C5.45016 10.6944 5.13921 10.3835 5.13921 10ZM5.83366 6.06485C5.45016 6.06485 5.13921 6.37572 5.13921 6.7593C5.13921 7.14287 5.45016 7.45374 5.83366 7.45374H14.167C14.5505 7.45374 14.8614 7.1428 14.8614 6.7593C14.8614 6.37579 14.5505 6.06485 14.167 6.06485H5.83366ZM5.13921 13.2407C5.13921 12.8572 5.45016 12.5463 5.83366 12.5463H14.167C14.5505 12.5463 14.8614 12.8572 14.8614 13.2407C14.8614 13.6242 14.5505 13.9352 14.167 13.9352H5.83366C5.45016 13.9352 5.13921 13.6243 5.13921 13.2407Z" fill="black" fill-opacity="0.2"/>
</svg>
