<svg width="21" height="20" viewBox="0 0 21 20" fill="none" xmlns="http://www.w3.org/2000/svg">
<path d="M14.5096 1.56836H6.49036C5.51309 1.56836 5.02454 1.56836 4.63041 1.70541C3.88317 1.96549 3.29648 2.56944 3.04388 3.33873C2.91068 3.74442 2.91068 4.24739 2.91068 5.25341V17.0625C2.91068 17.7862 3.74133 18.1702 4.26673 17.6893C4.57545 17.4068 5.04065 17.4068 5.34929 17.6893L5.75668 18.0621C6.29772 18.5572 7.11296 18.5572 7.65401 18.0621C8.19505 17.5671 9.01029 17.5671 9.55133 18.0621C10.0924 18.5571 10.9076 18.5572 11.4487 18.0621C11.9897 17.567 12.8049 17.5671 13.346 18.0621C13.887 18.5571 14.7023 18.5572 15.2433 18.0621L15.6507 17.6893C15.9594 17.4068 16.4245 17.4068 16.7333 17.6893C17.2587 18.1702 18.0893 17.7862 18.0893 17.0625V5.25341C18.0893 4.24739 18.0893 3.74442 17.956 3.33873C17.7035 2.56944 17.1168 1.96549 16.3696 1.70541C15.9755 1.56836 15.4869 1.56836 14.5096 1.56836Z" stroke="#FD6E00" stroke-width="1.5"/>
<path d="M8.39185 8.65078L9.59651 9.99997L12.6082 6.62695" stroke="#FD6E00" stroke-width="1.5" stroke-linecap="round" stroke-linejoin="round"/>
<path d="M6.70534 12.9512H14.2947" stroke="#FD6E00" stroke-width="1.5" stroke-linecap="round"/>
</svg>
