<svg width="24" height="24" viewBox="0 0 24 24" fill="none" xmlns="http://www.w3.org/2000/svg">
<path fill-rule="evenodd" clip-rule="evenodd" d="M6.33333 2H17.6668C17.9762 2 18.131 2 18.2615 2.01199C19.7118 2.14507 20.8617 3.35153 20.9886 4.87322C21 5.01013 21 5.17254 21 5.49729V20.2598C21 21.1324 19.9413 21.5027 19.4423 20.8045C19.0962 20.3204 18.4038 20.3204 18.0577 20.8045L17.625 21.4098C17.0625 22.1967 15.9375 22.1967 15.375 21.4098C14.8125 20.6231 13.6875 20.6231 13.125 21.4098C12.5625 22.1967 11.4375 22.1967 10.875 21.4098C10.3125 20.6231 9.1875 20.6231 8.625 21.4098C8.0625 22.1967 6.9375 22.1967 6.375 21.4098L5.94235 20.8045C5.59617 20.3204 4.90383 20.3204 4.55765 20.8045C4.05867 21.5027 3 21.1324 3 20.2598V5.49729C3 5.17254 3 5.01013 3.01139 4.87322C3.13827 3.35153 4.28818 2.14507 5.73852 2.01199C5.86905 2 6.02381 2 6.33333 2ZM10.5303 7.46965C10.2375 7.1768 9.76259 7.1768 9.46973 7.46965C9.17679 7.7626 9.17679 8.23743 9.46973 8.53037L10.9394 10L9.46973 11.4697C9.17679 11.7626 9.17679 12.2374 9.46973 12.5303C9.76259 12.8232 10.2375 12.8232 10.5304 12.5303L12 11.0607L13.4697 12.5303C13.7626 12.8232 14.2374 12.8232 14.5303 12.5303C14.8232 12.2374 14.8232 11.7625 14.5303 11.4697L13.0607 10L14.5303 8.53037C14.8232 8.23743 14.8232 7.7626 14.5303 7.46974C14.2375 7.1768 13.7626 7.1768 13.4697 7.46974L12 8.93938L10.5303 7.46965ZM7.5 14.75C7.0858 14.75 6.75 15.0858 6.75 15.5C6.75 15.9142 7.0858 16.25 7.5 16.25H16.5C16.9142 16.25 17.25 15.9142 17.25 15.5C17.25 15.0858 16.9142 14.75 16.5 14.75H7.5Z" fill="#FD6E00"/>
</svg>
