<svg width="20" height="20" viewBox="0 0 20 20" fill="none" xmlns="http://www.w3.org/2000/svg">
<g clip-path="url(#clip0_2019_9064)">
<path d="M15.1245 3.09043L13.287 2.12613C11.6741 1.27973 10.8676 0.856445 10 0.856445C9.13242 0.856445 8.32594 1.27973 6.71297 2.12613L6.41742 2.28129L14.6155 6.9659L18.3058 5.12066C17.7121 4.44832 16.7542 3.94566 15.1245 3.09043Z" fill="#FD6E00"/>
<path d="M18.9563 6.33643L15.2828 8.17322V10.9629C15.2828 11.3435 14.9743 11.652 14.5937 11.652C14.2132 11.652 13.9047 11.3435 13.9047 10.9629V8.86221L10.6891 10.47V19.1435C11.3486 18.9792 12.0991 18.5853 13.287 17.962L15.1245 16.9978C17.1014 15.9603 18.0898 15.4417 18.6387 14.5096C19.1875 13.5775 19.1875 12.4176 19.1875 10.0979V9.99049C19.1875 8.25166 19.1875 7.16447 18.9563 6.33643Z" fill="#FD6E00"/>
<path d="M9.31094 19.1435V10.47L1.04367 6.33643C0.8125 7.16447 0.8125 8.25166 0.8125 9.99041V10.0979C0.8125 12.4176 0.8125 13.5775 1.36133 14.5096C1.91023 15.4417 2.89867 15.9603 4.87547 16.9978L6.71297 17.962C7.90086 18.5853 8.65141 18.9792 9.31094 19.1435Z" fill="#FD6E00"/>
<path d="M1.69421 5.12055L10 9.27352L13.1341 7.70648L4.96945 3.04102L4.87546 3.09031C3.24585 3.94547 2.28789 4.4482 1.69421 5.12055Z" fill="#FD6E00"/>
</g>
<defs>
<clipPath id="clip0_2019_9064">
<rect width="20" height="20" fill="white"/>
</clipPath>
</defs>
</svg>
