<svg width="20" height="20" viewBox="0 0 20 20" fill="none" xmlns="http://www.w3.org/2000/svg">
<path d="M14.8804 3.38786C16.4323 4.20617 17.3448 4.68737 17.9102 5.33073L14.3956 7.09657L6.58776 2.61353L6.87003 2.46464C8.40568 1.65493 9.17366 1.25 9.9998 1.25C10.8259 1.25 11.5939 1.65493 13.1296 2.46464L14.8804 3.38786Z" fill="#2F3036"/>
<path d="M14.8804 3.38786C16.4323 4.20617 17.3448 4.68737 17.9102 5.33073L14.3956 7.09657L6.58776 2.61353L6.87003 2.46464C8.40568 1.65493 9.17366 1.25 9.9998 1.25C10.8259 1.25 11.5939 1.65493 13.1296 2.46464L14.8804 3.38786Z" fill="black" fill-opacity="0.2"/>
<path d="M15.0312 8.25173L18.5298 6.49397C18.75 7.28639 18.75 8.3268 18.75 9.9908V10.0936C18.75 12.3135 18.75 13.4235 18.2273 14.3155C17.7045 15.2074 16.7632 15.7038 14.8804 16.6965L13.1295 17.6197C11.9987 18.216 11.2841 18.5928 10.6561 18.75V10.4497L13.7187 8.91107V10.9214C13.7187 11.2856 14.0125 11.5808 14.3749 11.5808C14.7374 11.5808 15.0312 11.2856 15.0312 10.9214V8.25173Z" fill="#2F3036"/>
<path d="M15.0312 8.25173L18.5298 6.49397C18.75 7.28639 18.75 8.3268 18.75 9.9908V10.0936C18.75 12.3135 18.75 13.4235 18.2273 14.3155C17.7045 15.2074 16.7632 15.7038 14.8804 16.6965L13.1295 17.6197C11.9987 18.216 11.2841 18.5928 10.6561 18.75V10.4497L13.7187 8.91107V10.9214C13.7187 11.2856 14.0125 11.5808 14.3749 11.5808C14.7374 11.5808 15.0312 11.2856 15.0312 10.9214V8.25173Z" fill="black" fill-opacity="0.2"/>
<path d="M9.34389 18.7499V10.4497L1.47017 6.49397C1.25 7.28639 1.25 8.3268 1.25 9.99073V10.0936C1.25 12.3135 1.25 13.4235 1.7727 14.3155C2.29543 15.2073 3.23669 15.7037 5.11904 16.6963L6.86959 17.6193L6.8705 17.6198C8.00132 18.216 8.71592 18.5928 9.34389 18.7499Z" fill="#2F3036"/>
<path d="M9.34389 18.7499V10.4497L1.47017 6.49397C1.25 7.28639 1.25 8.3268 1.25 9.99073V10.0936C1.25 12.3135 1.25 13.4235 1.7727 14.3155C2.29543 15.2073 3.23669 15.7037 5.11904 16.6963L6.86959 17.6193L6.8705 17.6198C8.00132 18.216 8.71592 18.5928 9.34389 18.7499Z" fill="black" fill-opacity="0.2"/>
<path d="M9.99965 9.30499L2.08925 5.33072C2.65466 4.68731 3.56703 4.20621 5.11906 3.38785L5.20857 3.34067L12.9845 7.80539L9.99965 9.30499Z" fill="#2F3036"/>
<path d="M9.99965 9.30499L2.08925 5.33072C2.65466 4.68731 3.56703 4.20621 5.11906 3.38785L5.20857 3.34067L12.9845 7.80539L9.99965 9.30499Z" fill="black" fill-opacity="0.2"/>
</svg>
