<svg width="16" height="16" viewBox="0 0 16 16" fill="none" xmlns="http://www.w3.org/2000/svg">
<g clip-path="url(#clip0_1650_1099)">
<path d="M4.99984 6.99951H4.33317C4.15636 6.99951 3.98679 7.06975 3.86177 7.19477C3.73674 7.3198 3.6665 7.48937 3.6665 7.66618C3.6665 7.84299 3.73674 8.01256 3.86177 8.13758C3.98679 8.26261 4.15636 8.33285 4.33317 8.33285H4.99984C5.17665 8.33285 5.34622 8.26261 5.47124 8.13758C5.59627 8.01256 5.6665 7.84299 5.6665 7.66618C5.6665 7.48937 5.59627 7.3198 5.47124 7.19477C5.34622 7.06975 5.17665 6.99951 4.99984 6.99951Z" fill="#1F2024"/>
<path d="M8.33333 6.99951H7.66667C7.48986 6.99951 7.32029 7.06975 7.19526 7.19477C7.07024 7.3198 7 7.48937 7 7.66618C7 7.84299 7.07024 8.01256 7.19526 8.13758C7.32029 8.26261 7.48986 8.33285 7.66667 8.33285H8.33333C8.51014 8.33285 8.67971 8.26261 8.80474 8.13758C8.92976 8.01256 9 7.84299 9 7.66618C9 7.48937 8.92976 7.3198 8.80474 7.19477C8.67971 7.06975 8.51014 6.99951 8.33333 6.99951Z" fill="#1F2024"/>
<path d="M11.6666 6.99951H10.9999C10.8231 6.99951 10.6535 7.06975 10.5285 7.19477C10.4035 7.3198 10.3333 7.48937 10.3333 7.66618C10.3333 7.84299 10.4035 8.01256 10.5285 8.13758C10.6535 8.26261 10.8231 8.33285 10.9999 8.33285H11.6666C11.8434 8.33285 12.013 8.26261 12.138 8.13758C12.263 8.01256 12.3333 7.84299 12.3333 7.66618C12.3333 7.48937 12.263 7.3198 12.138 7.19477C12.013 7.06975 11.8434 6.99951 11.6666 6.99951Z" fill="#1F2024"/>
<path d="M4.99984 9.66626H4.33317C4.15636 9.66626 3.98679 9.7365 3.86177 9.86152C3.73674 9.98655 3.6665 10.1561 3.6665 10.3329C3.6665 10.5097 3.73674 10.6793 3.86177 10.8043C3.98679 10.9294 4.15636 10.9996 4.33317 10.9996H4.99984C5.17665 10.9996 5.34622 10.9294 5.47124 10.8043C5.59627 10.6793 5.6665 10.5097 5.6665 10.3329C5.6665 10.1561 5.59627 9.98655 5.47124 9.86152C5.34622 9.7365 5.17665 9.66626 4.99984 9.66626Z" fill="#1F2024"/>
<path d="M8.33333 9.66626H7.66667C7.48986 9.66626 7.32029 9.7365 7.19526 9.86152C7.07024 9.98655 7 10.1561 7 10.3329C7 10.5097 7.07024 10.6793 7.19526 10.8043C7.32029 10.9294 7.48986 10.9996 7.66667 10.9996H8.33333C8.51014 10.9996 8.67971 10.9294 8.80474 10.8043C8.92976 10.6793 9 10.5097 9 10.3329C9 10.1561 8.92976 9.98655 8.80474 9.86152C8.67971 9.7365 8.51014 9.66626 8.33333 9.66626Z" fill="#1F2024"/>
<path d="M11.6666 9.66626H10.9999C10.8231 9.66626 10.6535 9.7365 10.5285 9.86152C10.4035 9.98655 10.3333 10.1561 10.3333 10.3329C10.3333 10.5097 10.4035 10.6793 10.5285 10.8043C10.6535 10.9294 10.8231 10.9996 10.9999 10.9996H11.6666C11.8434 10.9996 12.013 10.9294 12.138 10.8043C12.263 10.6793 12.3333 10.5097 12.3333 10.3329C12.3333 10.1561 12.263 9.98655 12.138 9.86152C12.013 9.7365 11.8434 9.66626 11.6666 9.66626Z" fill="#1F2024"/>
<path d="M4.99984 12.3328H4.33317C4.15636 12.3328 3.98679 12.403 3.86177 12.528C3.73674 12.653 3.6665 12.8226 3.6665 12.9994C3.6665 13.1762 3.73674 13.3458 3.86177 13.4708C3.98679 13.5959 4.15636 13.6661 4.33317 13.6661H4.99984C5.17665 13.6661 5.34622 13.5959 5.47124 13.4708C5.59627 13.3458 5.6665 13.1762 5.6665 12.9994C5.6665 12.8226 5.59627 12.653 5.47124 12.528C5.34622 12.403 5.17665 12.3328 4.99984 12.3328Z" fill="#1F2024"/>
<path d="M8.33333 12.3328H7.66667C7.48986 12.3328 7.32029 12.403 7.19526 12.528C7.07024 12.653 7 12.8226 7 12.9994C7 13.1762 7.07024 13.3458 7.19526 13.4708C7.32029 13.5959 7.48986 13.6661 7.66667 13.6661H8.33333C8.51014 13.6661 8.67971 13.5959 8.80474 13.4708C8.92976 13.3458 9 13.1762 9 12.9994C9 12.8226 8.92976 12.653 8.80474 12.528C8.67971 12.403 8.51014 12.3328 8.33333 12.3328Z" fill="#1F2024"/>
<path d="M11.6666 12.3328H10.9999C10.8231 12.3328 10.6535 12.403 10.5285 12.528C10.4035 12.653 10.3333 12.8226 10.3333 12.9994C10.3333 13.1762 10.4035 13.3458 10.5285 13.4708C10.6535 13.5959 10.8231 13.6661 10.9999 13.6661H11.6666C11.8434 13.6661 12.013 13.5959 12.138 13.4708C12.263 13.3458 12.3333 13.1762 12.3333 12.9994C12.3333 12.8226 12.263 12.653 12.138 12.528C12.013 12.403 11.8434 12.3328 11.6666 12.3328Z" fill="#1F2024"/>
<path d="M14.3333 1.99951H12.4999C12.4557 1.99951 12.4133 1.98195 12.3821 1.9507C12.3508 1.91944 12.3333 1.87705 12.3333 1.83285V0.666178C12.3333 0.489367 12.263 0.319798 12.138 0.194774C12.013 0.0697496 11.8434 -0.000488281 11.6666 -0.000488281C11.4898 -0.000488281 11.3202 0.0697496 11.1952 0.194774C11.0702 0.319798 10.9999 0.489367 10.9999 0.666178V3.83285C10.9999 3.96545 10.9472 4.09263 10.8535 4.1864C10.7597 4.28017 10.6325 4.33285 10.4999 4.33285C10.3673 4.33285 10.2401 4.28017 10.1464 4.1864C10.0526 4.09263 9.99992 3.96545 9.99992 3.83285V2.33285C9.99992 2.24444 9.9648 2.15966 9.90229 2.09714C9.83978 2.03463 9.75499 1.99951 9.66658 1.99951H5.49992C5.45572 1.99951 5.41332 1.98195 5.38207 1.9507C5.35081 1.91944 5.33325 1.87705 5.33325 1.83285V0.666178C5.33325 0.489367 5.26301 0.319798 5.13799 0.194774C5.01297 0.0697496 4.8434 -0.000488281 4.66658 -0.000488281C4.48977 -0.000488281 4.3202 0.0697496 4.19518 0.194774C4.07016 0.319798 3.99992 0.489367 3.99992 0.666178V3.83285C3.99992 3.96545 3.94724 4.09263 3.85347 4.1864C3.7597 4.28017 3.63253 4.33285 3.49992 4.33285C3.36731 4.33285 3.24013 4.28017 3.14636 4.1864C3.0526 4.09263 2.99992 3.96545 2.99992 3.83285V2.33285C2.99992 2.24444 2.9648 2.15966 2.90229 2.09714C2.83978 2.03463 2.75499 1.99951 2.66659 1.99951H1.66659C1.31296 1.99951 0.973825 2.13999 0.723776 2.39004C0.473728 2.64008 0.333252 2.97922 0.333252 3.33285V14.6662C0.333252 15.0198 0.473728 15.3589 0.723776 15.609C0.973825 15.859 1.31296 15.9995 1.66659 15.9995H14.3333C14.6869 15.9995 15.026 15.859 15.2761 15.609C15.5261 15.3589 15.6666 15.0198 15.6666 14.6662V3.33285C15.6666 2.97922 15.5261 2.64008 15.2761 2.39004C15.026 2.13999 14.6869 1.99951 14.3333 1.99951ZM14.3333 14.3328C14.3333 14.4213 14.2981 14.506 14.2356 14.5685C14.1731 14.6311 14.0883 14.6662 13.9999 14.6662H1.99992C1.91151 14.6662 1.82673 14.6311 1.76422 14.5685C1.7017 14.506 1.66659 14.4213 1.66659 14.3328V6.33285C1.66659 6.24444 1.7017 6.15965 1.76422 6.09714C1.82673 6.03463 1.91151 5.99951 1.99992 5.99951H13.9999C14.0883 5.99951 14.1731 6.03463 14.2356 6.09714C14.2981 6.15965 14.3333 6.24444 14.3333 6.33285V14.3328Z" fill="#1F2024"/>
</g>
<defs>
<clipPath id="clip0_1650_1099">
<rect width="16" height="16" fill="white" transform="translate(0 -0.000488281)"/>
</clipPath>
</defs>
</svg>
