<svg xmlns="http://www.w3.org/2000/svg" viewBox="0 0 24 24" fill="none">
<g clip-path="url(#clip0_4344_34676)">
<path d="M7.06404 1.11109C7.06404 0.62999 6.67404 0.23999 6.19294 0.23999C5.71184 0.23999 5.32184 0.62999 5.32184 1.11109V2.94539C3.65004 3.07919 2.55254 3.40779 1.74624 4.21409C0.939939 5.02039 0.611439 6.11789 0.477539 7.78959H23.523C23.3892 6.11789 23.0606 5.02039 22.2543 4.21409C21.448 3.40779 20.3505 3.07919 18.6788 2.94539V1.11109C18.6788 0.62999 18.2888 0.23999 17.8077 0.23999C17.3266 0.23999 16.9366 0.62999 16.9366 1.11109V2.86829C16.1639 2.85329 15.2977 2.85329 14.3233 2.85329H9.67734C8.70284 2.85329 7.83674 2.85329 7.06404 2.86829V1.11109Z" fill="black"/>
<path fill-rule="evenodd" clip-rule="evenodd" d="M0.384766 12.1452C0.384766 11.1707 0.384766 10.3046 0.399766 9.53186H23.5994C23.6144 10.3046 23.6144 11.1707 23.6144 12.1452V14.4681C23.6144 18.8483 23.6144 21.0385 22.2536 22.3992C20.893 23.76 18.7027 23.76 14.3226 23.76H9.67657C5.29637 23.76 3.10627 23.76 1.74547 22.3992C0.384766 21.0385 0.384766 18.8483 0.384766 14.4681V12.1452ZM17.807 14.4681C18.4485 14.4681 18.9685 13.9481 18.9685 13.3067C18.9685 12.6653 18.4485 12.1452 17.807 12.1452C17.1655 12.1452 16.6455 12.6652 16.6455 13.3067C16.6455 13.9482 17.1655 14.4681 17.807 14.4681ZM17.807 19.1141C18.4485 19.1141 18.9685 18.5941 18.9685 17.9526C18.9685 17.3111 18.4485 16.7911 17.807 16.7911C17.1655 16.7911 16.6455 17.3111 16.6455 17.9526C16.6455 18.5941 17.1655 19.1141 17.807 19.1141ZM13.1611 13.3067C13.1611 13.9482 12.6411 14.4681 11.9996 14.4681C11.3581 14.4681 10.8381 13.9481 10.8381 13.3067C10.8381 12.6653 11.3581 12.1452 11.9996 12.1452C12.6411 12.1452 13.1611 12.6652 13.1611 13.3067ZM13.1611 17.9526C13.1611 18.5941 12.6411 19.1141 11.9996 19.1141C11.3581 19.1141 10.8381 18.5941 10.8381 17.9526C10.8381 17.3111 11.3581 16.7911 11.9996 16.7911C12.6411 16.7911 13.1611 17.3111 13.1611 17.9526ZM6.19217 14.4682C6.83357 14.4682 7.35367 13.9482 7.35367 13.3067C7.35367 12.6652 6.83357 12.1452 6.19217 12.1452C5.55077 12.1452 5.03067 12.6652 5.03067 13.3067C5.03067 13.9482 5.55067 14.4682 6.19217 14.4682ZM6.19217 19.1141C6.83357 19.1141 7.35367 18.5941 7.35367 17.9526C7.35367 17.3111 6.83357 16.7911 6.19217 16.7911C5.55077 16.7911 5.03067 17.3111 5.03067 17.9526C5.03067 18.5941 5.55067 19.1141 6.19217 19.1141Z" fill="black"/>
</g>
<defs>
<clipPath id="clip0_4344_34676">
<rect width="24" height="24" fill="white"/>
</clipPath>
</defs>
</svg>