<svg width="21" height="20" viewBox="0 0 21 20" fill="none" xmlns="http://www.w3.org/2000/svg">
<path d="M18.9318 9.15664C18.9241 6.53049 18.841 5.13829 17.9446 4.24181C16.9567 3.25391 15.3666 3.25391 12.1865 3.25391H8.81349C5.63334 3.25391 4.04335 3.25391 3.05537 4.24181C2.06747 5.22978 2.06747 6.81978 2.06747 9.99993C2.06747 13.18 2.06747 14.7702 3.05537 15.758C4.04335 16.746 5.63334 16.746 8.81349 16.746H10.0784" stroke="#FD6E00" stroke-width="1.5" stroke-linecap="round"/>
<path d="M13.4514 11.6855V16.7451M13.4514 16.7451L15.1379 15.0586M13.4514 16.7451L11.7649 15.0586M17.246 16.7451V11.6855M17.246 11.6855L18.9325 13.3721M17.246 11.6855L15.5595 13.3721" stroke="#FD6E00" stroke-width="1.5" stroke-linecap="round" stroke-linejoin="round"/>
<path d="M8.81349 13.373H5.44048" stroke="#FD6E00" stroke-width="1.5" stroke-linecap="round"/>
<path d="M2.06747 8.31445H18.9325" stroke="#FD6E00" stroke-width="1.5" stroke-linecap="round"/>
</svg>
