<svg width="24" height="24" viewBox="0 0 24 24" fill="none" xmlns="http://www.w3.org/2000/svg">
<path fill-rule="evenodd" clip-rule="evenodd" d="M19.1328 13.2069C19.4556 12.884 19.9791 12.884 20.302 13.2069L22.507 15.4119C22.83 15.7348 22.83 16.2583 22.507 16.5812C22.1841 16.9042 21.6606 16.9042 21.3378 16.5812L20.5443 15.7879V20.4066C20.5443 20.8632 20.1741 21.2334 19.7174 21.2334C19.2607 21.2334 18.8905 20.8632 18.8905 20.4066V15.7879L18.097 16.5812C17.7741 16.9042 17.2506 16.9042 16.9278 16.5812C16.6048 16.2583 16.6048 15.7348 16.9278 15.4119L19.1328 13.2069Z" fill="#FD6E00"/>
<path d="M9.79452 2.76654H14.2045C18.3622 2.76654 20.4412 2.76654 21.7328 4.05823C22.6629 4.98823 22.9233 6.32632 22.9962 8.55467H1.00293C1.07577 6.32632 1.33621 4.98823 2.26621 4.05823C3.5578 2.76654 5.63671 2.76654 9.79452 2.76654Z" fill="#FD6E00"/>
<path fill-rule="evenodd" clip-rule="evenodd" d="M9.79461 20.4066H14.2046C15.3687 20.4066 16.37 20.4066 17.2365 20.3782V18.462C16.6964 18.4019 16.1722 18.1647 15.758 17.7506C14.7892 16.7819 14.7892 15.2112 15.758 14.2425L17.963 12.0375C18.9318 11.0687 20.5025 11.0687 21.4712 12.0375L23.0177 13.5841C23.0246 12.9772 23.0246 12.3137 23.0246 11.5866C23.0246 11.0993 23.0246 10.6406 23.0225 10.2084H0.976672C0.974609 10.6406 0.974609 11.0993 0.974609 11.5866C0.974609 15.7443 0.974609 17.8233 2.2663 19.1149C3.55789 20.4066 5.6368 20.4066 9.79461 20.4066ZM4.55773 15.9966C4.55773 15.5399 4.92795 15.1697 5.38461 15.1697H9.79461C10.2513 15.1697 10.6215 15.5399 10.6215 15.9966C10.6215 16.4532 10.2513 16.8234 9.79461 16.8234H5.38461C4.92795 16.8234 4.55773 16.4532 4.55773 15.9966ZM12.5509 15.1697C12.0942 15.1697 11.724 15.5399 11.724 15.9966C11.724 16.4532 12.0942 16.8234 12.5509 16.8234H14.2046C14.6613 16.8234 15.0315 16.4532 15.0315 15.9966C15.0315 15.5399 14.6613 15.1697 14.2046 15.1697H12.5509Z" fill="#FD6E00"/>
</svg>
