<svg width="20" height="20" viewBox="0 0 20 20" fill="none" xmlns="http://www.w3.org/2000/svg">
<path d="M11.8046 3H8.19532C4.79243 3 3.09099 3 2.03391 4.11581C1.27277 4.91918 1.05962 6.07507 1 8H19C18.9404 6.07507 18.7272 4.91918 17.966 4.11581C16.9089 3 15.2074 3 11.8046 3Z" fill="#2F3036"/>
<path d="M11.8046 3H8.19532C4.79243 3 3.09099 3 2.03391 4.11581C1.27277 4.91918 1.05962 6.07507 1 8H19C18.9404 6.07507 18.7272 4.91918 17.966 4.11581C16.9089 3 15.2074 3 11.8046 3Z" fill="black" fill-opacity="0.2"/>
<path fill-rule="evenodd" clip-rule="evenodd" d="M11.8 17H8.2C4.80587 17 3.1088 17 2.05444 15.9867C1 14.9735 1 13.3426 1 10.0811C1 9.69888 1 9.33903 1.00168 9H18.9983C19 9.33903 19 9.69888 19 10.0811C19 13.3426 19 14.9735 17.9456 15.9867C16.8912 17 15.1941 17 11.8 17ZM13.6403 10.2973C14.0299 10.2972 14.387 10.2972 14.6775 10.3347C14.9975 10.3761 15.3356 10.4733 15.6137 10.7406C15.8919 11.0079 15.993 11.3328 16.036 11.6403C16.0751 11.9194 16.0751 12.2627 16.075 12.637V12.7144C16.0751 13.0888 16.0751 13.4319 16.036 13.7111C15.993 14.0186 15.8919 14.3435 15.6137 14.6107C15.3356 14.8781 14.9975 14.9753 14.6775 15.0166C14.387 15.0541 14.0299 15.0541 13.6403 15.0541H13.6H13.5597C13.1701 15.0541 12.813 15.0541 12.5225 15.0166C12.2026 14.9753 11.8644 14.8781 11.5863 14.6107C11.3081 14.3435 11.207 14.0186 11.164 13.7111C11.1249 13.4319 11.1249 13.0888 11.125 12.7144V12.6757V12.637C11.1249 12.2626 11.1249 11.9194 11.164 11.6403C11.207 11.3328 11.3081 11.0079 11.5863 10.7406C11.8644 10.4733 12.2026 10.3761 12.5225 10.3347C12.813 10.2972 13.1701 10.2972 13.5597 10.2973H13.6403ZM3.925 11.3784C3.925 11.0202 4.22722 10.7297 4.6 10.7297H6.4C6.77278 10.7297 7.075 11.0202 7.075 11.3784C7.075 11.7366 6.77278 12.027 6.4 12.027H4.6C4.22722 12.027 3.925 11.7366 3.925 11.3784ZM3.925 13.973C3.925 13.6147 4.22722 13.3243 4.6 13.3243H8.2C8.57278 13.3243 8.875 13.6147 8.875 13.973C8.875 14.3312 8.57278 14.6216 8.2 14.6216H4.6C4.22722 14.6216 3.925 14.3312 3.925 13.973Z" fill="#2F3036"/>
<path fill-rule="evenodd" clip-rule="evenodd" d="M11.8 17H8.2C4.80587 17 3.1088 17 2.05444 15.9867C1 14.9735 1 13.3426 1 10.0811C1 9.69888 1 9.33903 1.00168 9H18.9983C19 9.33903 19 9.69888 19 10.0811C19 13.3426 19 14.9735 17.9456 15.9867C16.8912 17 15.1941 17 11.8 17ZM13.6403 10.2973C14.0299 10.2972 14.387 10.2972 14.6775 10.3347C14.9975 10.3761 15.3356 10.4733 15.6137 10.7406C15.8919 11.0079 15.993 11.3328 16.036 11.6403C16.0751 11.9194 16.0751 12.2627 16.075 12.637V12.7144C16.0751 13.0888 16.0751 13.4319 16.036 13.7111C15.993 14.0186 15.8919 14.3435 15.6137 14.6107C15.3356 14.8781 14.9975 14.9753 14.6775 15.0166C14.387 15.0541 14.0299 15.0541 13.6403 15.0541H13.6H13.5597C13.1701 15.0541 12.813 15.0541 12.5225 15.0166C12.2026 14.9753 11.8644 14.8781 11.5863 14.6107C11.3081 14.3435 11.207 14.0186 11.164 13.7111C11.1249 13.4319 11.1249 13.0888 11.125 12.7144V12.6757V12.637C11.1249 12.2626 11.1249 11.9194 11.164 11.6403C11.207 11.3328 11.3081 11.0079 11.5863 10.7406C11.8644 10.4733 12.2026 10.3761 12.5225 10.3347C12.813 10.2972 13.1701 10.2972 13.5597 10.2973H13.6403ZM3.925 11.3784C3.925 11.0202 4.22722 10.7297 4.6 10.7297H6.4C6.77278 10.7297 7.075 11.0202 7.075 11.3784C7.075 11.7366 6.77278 12.027 6.4 12.027H4.6C4.22722 12.027 3.925 11.7366 3.925 11.3784ZM3.925 13.973C3.925 13.6147 4.22722 13.3243 4.6 13.3243H8.2C8.57278 13.3243 8.875 13.6147 8.875 13.973C8.875 14.3312 8.57278 14.6216 8.2 14.6216H4.6C4.22722 14.6216 3.925 14.3312 3.925 13.973Z" fill="black" fill-opacity="0.2"/>
<path d="M12.088 12.0586L12.0908 12.0576C12.0932 12.0567 12.097 12.0554 12.1032 12.0537C12.1293 12.0465 12.1873 12.0343 12.3033 12.0239C12.5561 12.0013 12.9089 12 13.5 12C14.0911 12 14.4439 12.0013 14.6967 12.0239C14.8127 12.0344 14.8707 12.0465 14.8968 12.0537C14.903 12.0554 14.9068 12.0567 14.9092 12.0576L14.9121 12.0586L14.9137 12.0605C14.9149 12.0621 14.9169 12.0647 14.9194 12.0688C14.9301 12.0862 14.9485 12.1249 14.9641 12.2022C14.9981 12.3707 15 12.6059 15 13C15 13.3941 14.9981 13.6293 14.9641 13.7978C14.9485 13.8751 14.9301 13.9138 14.9194 13.9312C14.9169 13.9353 14.9149 13.9379 14.9137 13.9395L14.9121 13.9414L14.9092 13.9424C14.9068 13.9433 14.9029 13.9446 14.8968 13.9463C14.8707 13.9534 14.8127 13.9656 14.6967 13.9761C14.4439 13.9987 14.0911 14 13.5 14C12.9089 14 12.5561 13.9987 12.3033 13.9761C12.1873 13.9656 12.1293 13.9534 12.1032 13.9463C12.097 13.9446 12.0932 13.9433 12.0908 13.9424L12.0879 13.9414L12.0863 13.9395C12.0851 13.9379 12.0831 13.9352 12.0806 13.9312C12.0698 13.9138 12.0514 13.8751 12.0359 13.7978C12.0019 13.6293 12 13.3941 12 13C12 12.6059 12.0019 12.3707 12.0359 12.2022C12.0515 12.1249 12.0698 12.0862 12.0806 12.0688C12.0831 12.0647 12.0851 12.0621 12.0863 12.0605L12.088 12.0586Z" fill="#2F3036"/>
<path d="M12.088 12.0586L12.0908 12.0576C12.0932 12.0567 12.097 12.0554 12.1032 12.0537C12.1293 12.0465 12.1873 12.0343 12.3033 12.0239C12.5561 12.0013 12.9089 12 13.5 12C14.0911 12 14.4439 12.0013 14.6967 12.0239C14.8127 12.0344 14.8707 12.0465 14.8968 12.0537C14.903 12.0554 14.9068 12.0567 14.9092 12.0576L14.9121 12.0586L14.9137 12.0605C14.9149 12.0621 14.9169 12.0647 14.9194 12.0688C14.9301 12.0862 14.9485 12.1249 14.9641 12.2022C14.9981 12.3707 15 12.6059 15 13C15 13.3941 14.9981 13.6293 14.9641 13.7978C14.9485 13.8751 14.9301 13.9138 14.9194 13.9312C14.9169 13.9353 14.9149 13.9379 14.9137 13.9395L14.9121 13.9414L14.9092 13.9424C14.9068 13.9433 14.9029 13.9446 14.8968 13.9463C14.8707 13.9534 14.8127 13.9656 14.6967 13.9761C14.4439 13.9987 14.0911 14 13.5 14C12.9089 14 12.5561 13.9987 12.3033 13.9761C12.1873 13.9656 12.1293 13.9534 12.1032 13.9463C12.097 13.9446 12.0932 13.9433 12.0908 13.9424L12.0879 13.9414L12.0863 13.9395C12.0851 13.9379 12.0831 13.9352 12.0806 13.9312C12.0698 13.9138 12.0514 13.8751 12.0359 13.7978C12.0019 13.6293 12 13.3941 12 13C12 12.6059 12.0019 12.3707 12.0359 12.2022C12.0515 12.1249 12.0698 12.0862 12.0806 12.0688C12.0831 12.0647 12.0851 12.0621 12.0863 12.0605L12.088 12.0586Z" fill="black" fill-opacity="0.2"/>
</svg>
