<svg viewBox="0 0 24 24" fill="none" xmlns="http://www.w3.org/2000/svg" id="Check-Circle--Streamline-Solar"><desc>Check Circle Streamline Icon: https://streamlinehq.com</desc><path fill-rule="evenodd" clip-rule="evenodd" d="M22 12c0 5.5228 -4.4772 10 -10 10 -5.52285 0 -10 -4.4772 -10 -10C2 6.47715 6.47715 2 12 2c5.5228 0 10 4.47715 10 10Zm-5.9697 -3.03033c0.2929 0.29289 0.2929 0.76777 0 1.06063l-5 5c-0.2929 0.2929 -0.7677 0.2929 -1.06063 0l-2 -2c-0.29289 -0.2929 -0.29289 -0.7677 0 -1.0606 0.29289 -0.2929 0.76777 -0.2929 1.06066 0L10.5 13.4393l2.2348 -2.2348 2.2349 -2.23483c0.2929 -0.29289 0.7677 -0.29289 1.0606 0Z" fill="#000000" stroke-width="1"></path></svg>