<svg xmlns="http://www.w3.org/2000/svg" fill="none" viewBox="0 0 24 24" id="Cloud-Off--Streamline-Flex" height="24" width="24"><desc>Cloud Off Streamline Icon: https://streamlinehq.com</desc><g id="cloud-off--cloud-network-internet-disable-server-off"><path id="Union" fill="#000000" fill-rule="evenodd" d="M0.28988571428571425 2.094102857142857C-0.14706617142857142 1.53438 -0.047541771428571425 0.7264182857142857 0.5121788571428572 0.28946742857142854c0.5597228571428571 -0.4369520571428572 1.367689714285714 -0.3374274857142857 1.8046268571428572 0.22229314285714286C4.07484 2.76372 5.636365714285714 4.700177142857142 7.124142857142857 6.445748571428571c0.5141142857142856 -0.7381542857142857 1.1812114285714286 -1.3699885714285713 1.9648628571428568 -1.8505542857142858 1.289297142857143 -0.7906457142857143 2.8160914285714282 -1.1240742857142856 4.3257771428571425 -0.9446742857142857 1.5096857142857143 0.17941714285714286 2.9110114285714284 0.8607942857142856 3.970302857142857 1.9305428571428571 1.059257142857143 1.0697485714285715 1.7124 2.4631714285714286 1.8505714285714283 3.9479314285714286 0.011657142857142856 0.07817142857142857 0.045771428571428574 0.15149142857142858 0.09839999999999999 0.21126857142857142 0.05262857142857143 0.05977714285714285 0.12171428571428569 0.10355999999999999 0.19885714285714284 0.12613714285714286 1.1178857142857141 0.25820571428571426 2.100342857142857 0.9092914285714285 2.7613714285714286 1.8299828571428571 0.6611999999999999 0.9206914285714286 0.9548571428571428 2.04708 0.8257714285714286 3.1658571428571425 -0.12908571428571428 1.1187942857142856 -0.6723428571428571 2.15232 -1.5265714285714285 2.9047885714285715 -0.4674857142857143 0.41194285714285717 -1.0164 0.7741714285714285 -1.6283999999999998 1.087542857142857 1.0918285714285714 0.8936571428571428 2.2616571428571426 1.8313714285714284 3.529885714285714 2.8340571428571426 0.5571428571428572 0.4404 0.6516 1.2488571428571429 0.2112 1.806 -0.44022857142857136 0.5569714285714286 -1.2488571428571429 0.6516 -1.8058285714285711 0.2112C11.964342857142857 15.850885714285713 7.893891428571429 11.83458857142857 0.28988571428571425 2.094102857142857Zm1.91628 7.94298857142857c0.3246685714285714 -0.3641142857142857 0.6972342857142857 -0.6828857142857142 1.1071542857142855 -0.9483257142857142 3.658114285714286 4.344942857142857 6.83076 7.530685714285714 11.149885714285714 11.217634285714285 -4.37508 0.4023428571428571 -9.242759999999999 -0.5401714285714285 -11.73714857142857 -2.678057142857143C1.630314857142857 16.689325714285715 0.9599554285714285 15.361954285714285 0.8624571428571428 13.938308571428571c-0.0975 -1.4236457142857142 0.3858462857142857 -2.826942857142857 1.3437085714285715 -3.901217142857143Z" clip-rule="evenodd" stroke-width="1"></path></g></svg>