<svg width="100" height="100" viewBox="0 0 100 100" fill="none" xmlns="http://www.w3.org/2000/svg">
<mask id="path-1-outside-1_9034_54428" maskUnits="userSpaceOnUse" x="3.1665" y="3.16675" width="93" height="93" fill="black">
<rect fill="white" x="3.1665" y="3.16675" width="93" height="93"/>
<path fill-rule="evenodd" clip-rule="evenodd" d="M49.9998 95.8334C75.3129 95.8334 95.8332 75.3131 95.8332 50.0001C95.8332 24.687 75.3129 4.16675 49.9998 4.16675C24.6868 4.16675 4.1665 24.687 4.1665 50.0001C4.1665 75.3131 24.6868 95.8334 49.9998 95.8334ZM49.9998 8.33342C48.6227 8.33342 47.2606 8.40029 45.9167 8.53109C44.7715 8.64254 43.9335 9.66124 44.045 10.8064C44.1564 11.9516 45.1751 12.7896 46.3203 12.6782C47.5303 12.5604 48.7577 12.5001 49.9998 12.5001C51.242 12.5001 52.4694 12.5604 53.6794 12.6782C54.8246 12.7896 55.8433 11.9516 55.9547 10.8064C56.0662 9.66124 55.2282 8.64254 54.083 8.53109C52.739 8.40029 51.3769 8.33342 49.9998 8.33342ZM39.1096 14.1053C40.2107 13.7717 40.833 12.6085 40.4993 11.5074C40.1657 10.4062 39.0026 9.78398 37.9014 10.1176C35.2651 10.9163 32.7396 11.9691 30.3534 13.2472C29.3391 13.7904 28.9573 15.0531 29.5006 16.0673C30.0438 17.0816 31.3065 17.4634 32.3207 16.9202C34.4676 15.7702 36.7391 14.8235 39.1096 14.1053ZM59.5003 11.5074C59.834 10.4062 60.9971 9.78398 62.0982 10.1176C64.7345 10.9163 67.2601 11.9691 69.6463 13.2472C70.6605 13.7904 71.0424 15.0531 70.4991 16.0673C69.9558 17.0816 68.6932 17.4634 67.679 16.9202C65.532 15.7702 63.2606 14.8235 60.8901 14.1053C59.7889 13.7717 59.1667 12.6085 59.5003 11.5074ZM76.4342 17.7909C75.5452 17.0605 74.2324 17.189 73.5019 18.078C72.7715 18.967 72.9001 20.2798 73.7891 21.0103C75.6874 22.57 77.4299 24.3125 78.9896 26.2108C79.7201 27.0999 81.0329 27.2284 81.9219 26.498C82.8109 25.7676 82.9395 24.4547 82.209 23.5657C80.4771 21.4577 78.5422 19.5229 76.4342 17.7909ZM26.4977 18.078C27.2282 18.967 27.0996 20.2798 26.2106 21.0103C24.3123 22.57 22.5697 24.3125 21.01 26.2109C20.2796 27.0999 18.9668 27.2284 18.0778 26.498C17.1888 25.7676 17.0602 24.4547 17.7906 23.5657C19.5226 21.4577 21.4575 19.5229 23.5655 17.7909C24.4545 17.0605 25.7673 17.189 26.4977 18.078ZM86.7528 30.3537C86.2095 29.3394 84.9469 28.9576 83.9326 29.5008C82.9183 30.0441 82.5365 31.3067 83.0798 32.321C84.2297 34.4679 85.1765 36.7393 85.8947 39.1098C86.2283 40.211 87.3914 40.8332 88.4926 40.4996C89.5937 40.166 90.2159 39.0028 89.8823 37.9017C89.0836 35.2654 88.0308 32.7398 86.7528 30.3537ZM16.0671 29.5008C17.0813 30.0441 17.4632 31.3067 16.9199 32.321C15.77 34.4679 14.8232 36.7393 14.105 39.1098C13.7714 40.211 12.6083 40.8332 11.5071 40.4996C10.406 40.166 9.78374 39.0028 10.1174 37.9017C10.9161 35.2654 11.9688 32.7398 13.2469 30.3537C13.7902 29.3394 15.0528 28.9576 16.0671 29.5008ZM12.6779 46.3205C12.7894 45.1754 11.9514 44.1567 10.8062 44.0452C9.661 43.9338 8.64229 44.7718 8.53084 45.9169C8.40005 47.2609 8.33317 48.623 8.33317 50.0001C8.33317 51.3772 8.40005 52.7393 8.53084 54.0832C8.64229 55.2284 9.661 56.0664 10.8062 55.955C11.9514 55.8435 12.7894 54.8248 12.6779 53.6796C12.5602 52.4696 12.4998 51.2422 12.4998 50.0001C12.4998 48.758 12.5602 47.5305 12.6779 46.3205ZM89.1935 44.0452C90.3387 43.9338 91.3574 44.7718 91.4688 45.9169C91.5996 47.2609 91.6665 48.623 91.6665 50.0001C91.6665 51.3772 91.5996 52.7393 91.4688 54.0832C91.3574 55.2284 90.3387 56.0664 89.1935 55.955C88.0483 55.8435 87.2103 54.8248 87.3218 53.6796C87.4395 52.4696 87.4998 51.2422 87.4998 50.0001C87.4998 48.758 87.4395 47.5306 87.3218 46.3205C87.2103 45.1754 88.0483 44.1567 89.1935 44.0452ZM14.105 60.8903C13.7714 59.7892 12.6083 59.167 11.5071 59.5006C10.406 59.8342 9.78374 60.9973 10.1174 62.0985C10.9161 64.7348 11.9688 67.2603 13.2469 69.6465C13.7902 70.6608 15.0528 71.0426 16.0671 70.4993C17.0813 69.9561 17.4632 68.6935 16.9199 67.6792C15.77 65.5323 14.8232 63.2608 14.105 60.8903ZM88.4926 59.5006C89.5937 59.8342 90.2159 60.9973 89.8823 62.0985C89.0836 64.7348 88.0308 67.2603 86.7528 69.6465C86.2095 70.6608 84.9469 71.0426 83.9326 70.4993C82.9183 69.9561 82.5365 68.6935 83.0798 67.6792C84.2297 65.5323 85.1765 63.2608 85.8947 60.8903C86.2283 59.7892 87.3914 59.167 88.4926 59.5006ZM82.209 76.4344C82.9395 75.5454 82.8109 74.2326 81.9219 73.5022C81.0329 72.7717 79.7201 72.9003 78.9897 73.7893C77.4299 75.6877 75.6874 77.4302 73.7891 78.9899C72.9001 79.7203 72.7715 81.0331 73.5019 81.9221C74.2324 82.8112 75.5452 82.9397 76.4342 82.2093C78.5422 80.4773 80.4771 78.5424 82.209 76.4344ZM18.0778 73.5022C18.9668 72.7718 20.2796 72.9003 21.01 73.7893C22.5697 75.6877 24.3123 77.4302 26.2106 78.9899C27.0996 79.7203 27.2282 81.0331 26.4977 81.9221C25.7673 82.8112 24.4545 82.9397 23.5655 82.2093C21.4575 80.4773 19.5226 78.5424 17.7906 76.4344C17.0602 75.5454 17.1888 74.2326 18.0778 73.5022ZM69.6463 86.753C70.6605 86.2097 71.0424 84.9471 70.4991 83.9328C69.9558 82.9186 68.6932 82.5368 67.679 83.08C65.532 84.2299 63.2606 85.1767 60.8901 85.8949C59.7889 86.2285 59.1667 87.3916 59.5003 88.4928C59.834 89.594 60.9971 90.2162 62.0982 89.8826C64.7345 89.0838 67.2601 88.0311 69.6463 86.753ZM29.5006 83.9329C30.0438 82.9186 31.3065 82.5368 32.3207 83.08C34.4676 84.2299 36.7391 85.1767 39.1096 85.8949C40.2107 86.2285 40.833 87.3916 40.4993 88.4928C40.1657 89.594 39.0026 90.2162 37.9014 89.8826C35.2651 89.0838 32.7396 88.0311 30.3534 86.753C29.3391 86.2097 28.9573 84.9471 29.5006 83.9329ZM46.3203 87.322C45.1751 87.2106 44.1564 88.0486 44.045 89.1937C43.9335 90.3389 44.7715 91.3576 45.9167 91.4691C47.2606 91.5999 48.6227 91.6668 49.9998 91.6668C51.3769 91.6668 52.739 91.5999 54.083 91.4691C55.2282 91.3576 56.0662 90.3389 55.9547 89.1937C55.8433 88.0486 54.8246 87.2106 53.6794 87.322C52.4694 87.4398 51.242 87.5001 49.9998 87.5001C48.7577 87.5001 47.5303 87.4398 46.3203 87.322ZM44.9005 60.4168C39.6626 60.4168 35.4165 56.0243 35.4165 50.6057V30.4529C35.4165 29.7426 35.9731 29.1667 36.6598 29.1667H44.2427C44.9293 29.1667 45.4859 29.7426 45.4859 30.4529V59.8111C45.4859 60.1455 45.2238 60.4168 44.9005 60.4168ZM46.0714 60.4168C45.7481 60.4168 45.4859 60.688 45.4859 61.0224C45.4859 66.441 49.7321 70.8334 54.9699 70.8334H64.4539C65.1006 70.8334 65.6248 70.2911 65.6248 69.6221V61.7029C65.6248 60.9926 65.0681 60.4168 64.3816 60.4168H46.0714Z"/>
</mask>
<path fill-rule="evenodd" clip-rule="evenodd" d="M49.9998 95.8334C75.3129 95.8334 95.8332 75.3131 95.8332 50.0001C95.8332 24.687 75.3129 4.16675 49.9998 4.16675C24.6868 4.16675 4.1665 24.687 4.1665 50.0001C4.1665 75.3131 24.6868 95.8334 49.9998 95.8334ZM49.9998 8.33342C48.6227 8.33342 47.2606 8.40029 45.9167 8.53109C44.7715 8.64254 43.9335 9.66124 44.045 10.8064C44.1564 11.9516 45.1751 12.7896 46.3203 12.6782C47.5303 12.5604 48.7577 12.5001 49.9998 12.5001C51.242 12.5001 52.4694 12.5604 53.6794 12.6782C54.8246 12.7896 55.8433 11.9516 55.9547 10.8064C56.0662 9.66124 55.2282 8.64254 54.083 8.53109C52.739 8.40029 51.3769 8.33342 49.9998 8.33342ZM39.1096 14.1053C40.2107 13.7717 40.833 12.6085 40.4993 11.5074C40.1657 10.4062 39.0026 9.78398 37.9014 10.1176C35.2651 10.9163 32.7396 11.9691 30.3534 13.2472C29.3391 13.7904 28.9573 15.0531 29.5006 16.0673C30.0438 17.0816 31.3065 17.4634 32.3207 16.9202C34.4676 15.7702 36.7391 14.8235 39.1096 14.1053ZM59.5003 11.5074C59.834 10.4062 60.9971 9.78398 62.0982 10.1176C64.7345 10.9163 67.2601 11.9691 69.6463 13.2472C70.6605 13.7904 71.0424 15.0531 70.4991 16.0673C69.9558 17.0816 68.6932 17.4634 67.679 16.9202C65.532 15.7702 63.2606 14.8235 60.8901 14.1053C59.7889 13.7717 59.1667 12.6085 59.5003 11.5074ZM76.4342 17.7909C75.5452 17.0605 74.2324 17.189 73.5019 18.078C72.7715 18.967 72.9001 20.2798 73.7891 21.0103C75.6874 22.57 77.4299 24.3125 78.9896 26.2108C79.7201 27.0999 81.0329 27.2284 81.9219 26.498C82.8109 25.7676 82.9395 24.4547 82.209 23.5657C80.4771 21.4577 78.5422 19.5229 76.4342 17.7909ZM26.4977 18.078C27.2282 18.967 27.0996 20.2798 26.2106 21.0103C24.3123 22.57 22.5697 24.3125 21.01 26.2109C20.2796 27.0999 18.9668 27.2284 18.0778 26.498C17.1888 25.7676 17.0602 24.4547 17.7906 23.5657C19.5226 21.4577 21.4575 19.5229 23.5655 17.7909C24.4545 17.0605 25.7673 17.189 26.4977 18.078ZM86.7528 30.3537C86.2095 29.3394 84.9469 28.9576 83.9326 29.5008C82.9183 30.0441 82.5365 31.3067 83.0798 32.321C84.2297 34.4679 85.1765 36.7393 85.8947 39.1098C86.2283 40.211 87.3914 40.8332 88.4926 40.4996C89.5937 40.166 90.2159 39.0028 89.8823 37.9017C89.0836 35.2654 88.0308 32.7398 86.7528 30.3537ZM16.0671 29.5008C17.0813 30.0441 17.4632 31.3067 16.9199 32.321C15.77 34.4679 14.8232 36.7393 14.105 39.1098C13.7714 40.211 12.6083 40.8332 11.5071 40.4996C10.406 40.166 9.78374 39.0028 10.1174 37.9017C10.9161 35.2654 11.9688 32.7398 13.2469 30.3537C13.7902 29.3394 15.0528 28.9576 16.0671 29.5008ZM12.6779 46.3205C12.7894 45.1754 11.9514 44.1567 10.8062 44.0452C9.661 43.9338 8.64229 44.7718 8.53084 45.9169C8.40005 47.2609 8.33317 48.623 8.33317 50.0001C8.33317 51.3772 8.40005 52.7393 8.53084 54.0832C8.64229 55.2284 9.661 56.0664 10.8062 55.955C11.9514 55.8435 12.7894 54.8248 12.6779 53.6796C12.5602 52.4696 12.4998 51.2422 12.4998 50.0001C12.4998 48.758 12.5602 47.5305 12.6779 46.3205ZM89.1935 44.0452C90.3387 43.9338 91.3574 44.7718 91.4688 45.9169C91.5996 47.2609 91.6665 48.623 91.6665 50.0001C91.6665 51.3772 91.5996 52.7393 91.4688 54.0832C91.3574 55.2284 90.3387 56.0664 89.1935 55.955C88.0483 55.8435 87.2103 54.8248 87.3218 53.6796C87.4395 52.4696 87.4998 51.2422 87.4998 50.0001C87.4998 48.758 87.4395 47.5306 87.3218 46.3205C87.2103 45.1754 88.0483 44.1567 89.1935 44.0452ZM14.105 60.8903C13.7714 59.7892 12.6083 59.167 11.5071 59.5006C10.406 59.8342 9.78374 60.9973 10.1174 62.0985C10.9161 64.7348 11.9688 67.2603 13.2469 69.6465C13.7902 70.6608 15.0528 71.0426 16.0671 70.4993C17.0813 69.9561 17.4632 68.6935 16.9199 67.6792C15.77 65.5323 14.8232 63.2608 14.105 60.8903ZM88.4926 59.5006C89.5937 59.8342 90.2159 60.9973 89.8823 62.0985C89.0836 64.7348 88.0308 67.2603 86.7528 69.6465C86.2095 70.6608 84.9469 71.0426 83.9326 70.4993C82.9183 69.9561 82.5365 68.6935 83.0798 67.6792C84.2297 65.5323 85.1765 63.2608 85.8947 60.8903C86.2283 59.7892 87.3914 59.167 88.4926 59.5006ZM82.209 76.4344C82.9395 75.5454 82.8109 74.2326 81.9219 73.5022C81.0329 72.7717 79.7201 72.9003 78.9897 73.7893C77.4299 75.6877 75.6874 77.4302 73.7891 78.9899C72.9001 79.7203 72.7715 81.0331 73.5019 81.9221C74.2324 82.8112 75.5452 82.9397 76.4342 82.2093C78.5422 80.4773 80.4771 78.5424 82.209 76.4344ZM18.0778 73.5022C18.9668 72.7718 20.2796 72.9003 21.01 73.7893C22.5697 75.6877 24.3123 77.4302 26.2106 78.9899C27.0996 79.7203 27.2282 81.0331 26.4977 81.9221C25.7673 82.8112 24.4545 82.9397 23.5655 82.2093C21.4575 80.4773 19.5226 78.5424 17.7906 76.4344C17.0602 75.5454 17.1888 74.2326 18.0778 73.5022ZM69.6463 86.753C70.6605 86.2097 71.0424 84.9471 70.4991 83.9328C69.9558 82.9186 68.6932 82.5368 67.679 83.08C65.532 84.2299 63.2606 85.1767 60.8901 85.8949C59.7889 86.2285 59.1667 87.3916 59.5003 88.4928C59.834 89.594 60.9971 90.2162 62.0982 89.8826C64.7345 89.0838 67.2601 88.0311 69.6463 86.753ZM29.5006 83.9329C30.0438 82.9186 31.3065 82.5368 32.3207 83.08C34.4676 84.2299 36.7391 85.1767 39.1096 85.8949C40.2107 86.2285 40.833 87.3916 40.4993 88.4928C40.1657 89.594 39.0026 90.2162 37.9014 89.8826C35.2651 89.0838 32.7396 88.0311 30.3534 86.753C29.3391 86.2097 28.9573 84.9471 29.5006 83.9329ZM46.3203 87.322C45.1751 87.2106 44.1564 88.0486 44.045 89.1937C43.9335 90.3389 44.7715 91.3576 45.9167 91.4691C47.2606 91.5999 48.6227 91.6668 49.9998 91.6668C51.3769 91.6668 52.739 91.5999 54.083 91.4691C55.2282 91.3576 56.0662 90.3389 55.9547 89.1937C55.8433 88.0486 54.8246 87.2106 53.6794 87.322C52.4694 87.4398 51.242 87.5001 49.9998 87.5001C48.7577 87.5001 47.5303 87.4398 46.3203 87.322ZM44.9005 60.4168C39.6626 60.4168 35.4165 56.0243 35.4165 50.6057V30.4529C35.4165 29.7426 35.9731 29.1667 36.6598 29.1667H44.2427C44.9293 29.1667 45.4859 29.7426 45.4859 30.4529V59.8111C45.4859 60.1455 45.2238 60.4168 44.9005 60.4168ZM46.0714 60.4168C45.7481 60.4168 45.4859 60.688 45.4859 61.0224C45.4859 66.441 49.7321 70.8334 54.9699 70.8334H64.4539C65.1006 70.8334 65.6248 70.2911 65.6248 69.6221V61.7029C65.6248 60.9926 65.0681 60.4168 64.3816 60.4168H46.0714Z" fill="#2F3036"/>
<path fill-rule="evenodd" clip-rule="evenodd" d="M49.9998 95.8334C75.3129 95.8334 95.8332 75.3131 95.8332 50.0001C95.8332 24.687 75.3129 4.16675 49.9998 4.16675C24.6868 4.16675 4.1665 24.687 4.1665 50.0001C4.1665 75.3131 24.6868 95.8334 49.9998 95.8334ZM49.9998 8.33342C48.6227 8.33342 47.2606 8.40029 45.9167 8.53109C44.7715 8.64254 43.9335 9.66124 44.045 10.8064C44.1564 11.9516 45.1751 12.7896 46.3203 12.6782C47.5303 12.5604 48.7577 12.5001 49.9998 12.5001C51.242 12.5001 52.4694 12.5604 53.6794 12.6782C54.8246 12.7896 55.8433 11.9516 55.9547 10.8064C56.0662 9.66124 55.2282 8.64254 54.083 8.53109C52.739 8.40029 51.3769 8.33342 49.9998 8.33342ZM39.1096 14.1053C40.2107 13.7717 40.833 12.6085 40.4993 11.5074C40.1657 10.4062 39.0026 9.78398 37.9014 10.1176C35.2651 10.9163 32.7396 11.9691 30.3534 13.2472C29.3391 13.7904 28.9573 15.0531 29.5006 16.0673C30.0438 17.0816 31.3065 17.4634 32.3207 16.9202C34.4676 15.7702 36.7391 14.8235 39.1096 14.1053ZM59.5003 11.5074C59.834 10.4062 60.9971 9.78398 62.0982 10.1176C64.7345 10.9163 67.2601 11.9691 69.6463 13.2472C70.6605 13.7904 71.0424 15.0531 70.4991 16.0673C69.9558 17.0816 68.6932 17.4634 67.679 16.9202C65.532 15.7702 63.2606 14.8235 60.8901 14.1053C59.7889 13.7717 59.1667 12.6085 59.5003 11.5074ZM76.4342 17.7909C75.5452 17.0605 74.2324 17.189 73.5019 18.078C72.7715 18.967 72.9001 20.2798 73.7891 21.0103C75.6874 22.57 77.4299 24.3125 78.9896 26.2108C79.7201 27.0999 81.0329 27.2284 81.9219 26.498C82.8109 25.7676 82.9395 24.4547 82.209 23.5657C80.4771 21.4577 78.5422 19.5229 76.4342 17.7909ZM26.4977 18.078C27.2282 18.967 27.0996 20.2798 26.2106 21.0103C24.3123 22.57 22.5697 24.3125 21.01 26.2109C20.2796 27.0999 18.9668 27.2284 18.0778 26.498C17.1888 25.7676 17.0602 24.4547 17.7906 23.5657C19.5226 21.4577 21.4575 19.5229 23.5655 17.7909C24.4545 17.0605 25.7673 17.189 26.4977 18.078ZM86.7528 30.3537C86.2095 29.3394 84.9469 28.9576 83.9326 29.5008C82.9183 30.0441 82.5365 31.3067 83.0798 32.321C84.2297 34.4679 85.1765 36.7393 85.8947 39.1098C86.2283 40.211 87.3914 40.8332 88.4926 40.4996C89.5937 40.166 90.2159 39.0028 89.8823 37.9017C89.0836 35.2654 88.0308 32.7398 86.7528 30.3537ZM16.0671 29.5008C17.0813 30.0441 17.4632 31.3067 16.9199 32.321C15.77 34.4679 14.8232 36.7393 14.105 39.1098C13.7714 40.211 12.6083 40.8332 11.5071 40.4996C10.406 40.166 9.78374 39.0028 10.1174 37.9017C10.9161 35.2654 11.9688 32.7398 13.2469 30.3537C13.7902 29.3394 15.0528 28.9576 16.0671 29.5008ZM12.6779 46.3205C12.7894 45.1754 11.9514 44.1567 10.8062 44.0452C9.661 43.9338 8.64229 44.7718 8.53084 45.9169C8.40005 47.2609 8.33317 48.623 8.33317 50.0001C8.33317 51.3772 8.40005 52.7393 8.53084 54.0832C8.64229 55.2284 9.661 56.0664 10.8062 55.955C11.9514 55.8435 12.7894 54.8248 12.6779 53.6796C12.5602 52.4696 12.4998 51.2422 12.4998 50.0001C12.4998 48.758 12.5602 47.5305 12.6779 46.3205ZM89.1935 44.0452C90.3387 43.9338 91.3574 44.7718 91.4688 45.9169C91.5996 47.2609 91.6665 48.623 91.6665 50.0001C91.6665 51.3772 91.5996 52.7393 91.4688 54.0832C91.3574 55.2284 90.3387 56.0664 89.1935 55.955C88.0483 55.8435 87.2103 54.8248 87.3218 53.6796C87.4395 52.4696 87.4998 51.2422 87.4998 50.0001C87.4998 48.758 87.4395 47.5306 87.3218 46.3205C87.2103 45.1754 88.0483 44.1567 89.1935 44.0452ZM14.105 60.8903C13.7714 59.7892 12.6083 59.167 11.5071 59.5006C10.406 59.8342 9.78374 60.9973 10.1174 62.0985C10.9161 64.7348 11.9688 67.2603 13.2469 69.6465C13.7902 70.6608 15.0528 71.0426 16.0671 70.4993C17.0813 69.9561 17.4632 68.6935 16.9199 67.6792C15.77 65.5323 14.8232 63.2608 14.105 60.8903ZM88.4926 59.5006C89.5937 59.8342 90.2159 60.9973 89.8823 62.0985C89.0836 64.7348 88.0308 67.2603 86.7528 69.6465C86.2095 70.6608 84.9469 71.0426 83.9326 70.4993C82.9183 69.9561 82.5365 68.6935 83.0798 67.6792C84.2297 65.5323 85.1765 63.2608 85.8947 60.8903C86.2283 59.7892 87.3914 59.167 88.4926 59.5006ZM82.209 76.4344C82.9395 75.5454 82.8109 74.2326 81.9219 73.5022C81.0329 72.7717 79.7201 72.9003 78.9897 73.7893C77.4299 75.6877 75.6874 77.4302 73.7891 78.9899C72.9001 79.7203 72.7715 81.0331 73.5019 81.9221C74.2324 82.8112 75.5452 82.9397 76.4342 82.2093C78.5422 80.4773 80.4771 78.5424 82.209 76.4344ZM18.0778 73.5022C18.9668 72.7718 20.2796 72.9003 21.01 73.7893C22.5697 75.6877 24.3123 77.4302 26.2106 78.9899C27.0996 79.7203 27.2282 81.0331 26.4977 81.9221C25.7673 82.8112 24.4545 82.9397 23.5655 82.2093C21.4575 80.4773 19.5226 78.5424 17.7906 76.4344C17.0602 75.5454 17.1888 74.2326 18.0778 73.5022ZM69.6463 86.753C70.6605 86.2097 71.0424 84.9471 70.4991 83.9328C69.9558 82.9186 68.6932 82.5368 67.679 83.08C65.532 84.2299 63.2606 85.1767 60.8901 85.8949C59.7889 86.2285 59.1667 87.3916 59.5003 88.4928C59.834 89.594 60.9971 90.2162 62.0982 89.8826C64.7345 89.0838 67.2601 88.0311 69.6463 86.753ZM29.5006 83.9329C30.0438 82.9186 31.3065 82.5368 32.3207 83.08C34.4676 84.2299 36.7391 85.1767 39.1096 85.8949C40.2107 86.2285 40.833 87.3916 40.4993 88.4928C40.1657 89.594 39.0026 90.2162 37.9014 89.8826C35.2651 89.0838 32.7396 88.0311 30.3534 86.753C29.3391 86.2097 28.9573 84.9471 29.5006 83.9329ZM46.3203 87.322C45.1751 87.2106 44.1564 88.0486 44.045 89.1937C43.9335 90.3389 44.7715 91.3576 45.9167 91.4691C47.2606 91.5999 48.6227 91.6668 49.9998 91.6668C51.3769 91.6668 52.739 91.5999 54.083 91.4691C55.2282 91.3576 56.0662 90.3389 55.9547 89.1937C55.8433 88.0486 54.8246 87.2106 53.6794 87.322C52.4694 87.4398 51.242 87.5001 49.9998 87.5001C48.7577 87.5001 47.5303 87.4398 46.3203 87.322ZM44.9005 60.4168C39.6626 60.4168 35.4165 56.0243 35.4165 50.6057V30.4529C35.4165 29.7426 35.9731 29.1667 36.6598 29.1667H44.2427C44.9293 29.1667 45.4859 29.7426 45.4859 30.4529V59.8111C45.4859 60.1455 45.2238 60.4168 44.9005 60.4168ZM46.0714 60.4168C45.7481 60.4168 45.4859 60.688 45.4859 61.0224C45.4859 66.441 49.7321 70.8334 54.9699 70.8334H64.4539C65.1006 70.8334 65.6248 70.2911 65.6248 69.6221V61.7029C65.6248 60.9926 65.0681 60.4168 64.3816 60.4168H46.0714Z" fill="black" fill-opacity="0.2"/>
<path fill-rule="evenodd" clip-rule="evenodd" d="M49.9998 95.8334C75.3129 95.8334 95.8332 75.3131 95.8332 50.0001C95.8332 24.687 75.3129 4.16675 49.9998 4.16675C24.6868 4.16675 4.1665 24.687 4.1665 50.0001C4.1665 75.3131 24.6868 95.8334 49.9998 95.8334ZM49.9998 8.33342C48.6227 8.33342 47.2606 8.40029 45.9167 8.53109C44.7715 8.64254 43.9335 9.66124 44.045 10.8064C44.1564 11.9516 45.1751 12.7896 46.3203 12.6782C47.5303 12.5604 48.7577 12.5001 49.9998 12.5001C51.242 12.5001 52.4694 12.5604 53.6794 12.6782C54.8246 12.7896 55.8433 11.9516 55.9547 10.8064C56.0662 9.66124 55.2282 8.64254 54.083 8.53109C52.739 8.40029 51.3769 8.33342 49.9998 8.33342ZM39.1096 14.1053C40.2107 13.7717 40.833 12.6085 40.4993 11.5074C40.1657 10.4062 39.0026 9.78398 37.9014 10.1176C35.2651 10.9163 32.7396 11.9691 30.3534 13.2472C29.3391 13.7904 28.9573 15.0531 29.5006 16.0673C30.0438 17.0816 31.3065 17.4634 32.3207 16.9202C34.4676 15.7702 36.7391 14.8235 39.1096 14.1053ZM59.5003 11.5074C59.834 10.4062 60.9971 9.78398 62.0982 10.1176C64.7345 10.9163 67.2601 11.9691 69.6463 13.2472C70.6605 13.7904 71.0424 15.0531 70.4991 16.0673C69.9558 17.0816 68.6932 17.4634 67.679 16.9202C65.532 15.7702 63.2606 14.8235 60.8901 14.1053C59.7889 13.7717 59.1667 12.6085 59.5003 11.5074ZM76.4342 17.7909C75.5452 17.0605 74.2324 17.189 73.5019 18.078C72.7715 18.967 72.9001 20.2798 73.7891 21.0103C75.6874 22.57 77.4299 24.3125 78.9896 26.2108C79.7201 27.0999 81.0329 27.2284 81.9219 26.498C82.8109 25.7676 82.9395 24.4547 82.209 23.5657C80.4771 21.4577 78.5422 19.5229 76.4342 17.7909ZM26.4977 18.078C27.2282 18.967 27.0996 20.2798 26.2106 21.0103C24.3123 22.57 22.5697 24.3125 21.01 26.2109C20.2796 27.0999 18.9668 27.2284 18.0778 26.498C17.1888 25.7676 17.0602 24.4547 17.7906 23.5657C19.5226 21.4577 21.4575 19.5229 23.5655 17.7909C24.4545 17.0605 25.7673 17.189 26.4977 18.078ZM86.7528 30.3537C86.2095 29.3394 84.9469 28.9576 83.9326 29.5008C82.9183 30.0441 82.5365 31.3067 83.0798 32.321C84.2297 34.4679 85.1765 36.7393 85.8947 39.1098C86.2283 40.211 87.3914 40.8332 88.4926 40.4996C89.5937 40.166 90.2159 39.0028 89.8823 37.9017C89.0836 35.2654 88.0308 32.7398 86.7528 30.3537ZM16.0671 29.5008C17.0813 30.0441 17.4632 31.3067 16.9199 32.321C15.77 34.4679 14.8232 36.7393 14.105 39.1098C13.7714 40.211 12.6083 40.8332 11.5071 40.4996C10.406 40.166 9.78374 39.0028 10.1174 37.9017C10.9161 35.2654 11.9688 32.7398 13.2469 30.3537C13.7902 29.3394 15.0528 28.9576 16.0671 29.5008ZM12.6779 46.3205C12.7894 45.1754 11.9514 44.1567 10.8062 44.0452C9.661 43.9338 8.64229 44.7718 8.53084 45.9169C8.40005 47.2609 8.33317 48.623 8.33317 50.0001C8.33317 51.3772 8.40005 52.7393 8.53084 54.0832C8.64229 55.2284 9.661 56.0664 10.8062 55.955C11.9514 55.8435 12.7894 54.8248 12.6779 53.6796C12.5602 52.4696 12.4998 51.2422 12.4998 50.0001C12.4998 48.758 12.5602 47.5305 12.6779 46.3205ZM89.1935 44.0452C90.3387 43.9338 91.3574 44.7718 91.4688 45.9169C91.5996 47.2609 91.6665 48.623 91.6665 50.0001C91.6665 51.3772 91.5996 52.7393 91.4688 54.0832C91.3574 55.2284 90.3387 56.0664 89.1935 55.955C88.0483 55.8435 87.2103 54.8248 87.3218 53.6796C87.4395 52.4696 87.4998 51.2422 87.4998 50.0001C87.4998 48.758 87.4395 47.5306 87.3218 46.3205C87.2103 45.1754 88.0483 44.1567 89.1935 44.0452ZM14.105 60.8903C13.7714 59.7892 12.6083 59.167 11.5071 59.5006C10.406 59.8342 9.78374 60.9973 10.1174 62.0985C10.9161 64.7348 11.9688 67.2603 13.2469 69.6465C13.7902 70.6608 15.0528 71.0426 16.0671 70.4993C17.0813 69.9561 17.4632 68.6935 16.9199 67.6792C15.77 65.5323 14.8232 63.2608 14.105 60.8903ZM88.4926 59.5006C89.5937 59.8342 90.2159 60.9973 89.8823 62.0985C89.0836 64.7348 88.0308 67.2603 86.7528 69.6465C86.2095 70.6608 84.9469 71.0426 83.9326 70.4993C82.9183 69.9561 82.5365 68.6935 83.0798 67.6792C84.2297 65.5323 85.1765 63.2608 85.8947 60.8903C86.2283 59.7892 87.3914 59.167 88.4926 59.5006ZM82.209 76.4344C82.9395 75.5454 82.8109 74.2326 81.9219 73.5022C81.0329 72.7717 79.7201 72.9003 78.9897 73.7893C77.4299 75.6877 75.6874 77.4302 73.7891 78.9899C72.9001 79.7203 72.7715 81.0331 73.5019 81.9221C74.2324 82.8112 75.5452 82.9397 76.4342 82.2093C78.5422 80.4773 80.4771 78.5424 82.209 76.4344ZM18.0778 73.5022C18.9668 72.7718 20.2796 72.9003 21.01 73.7893C22.5697 75.6877 24.3123 77.4302 26.2106 78.9899C27.0996 79.7203 27.2282 81.0331 26.4977 81.9221C25.7673 82.8112 24.4545 82.9397 23.5655 82.2093C21.4575 80.4773 19.5226 78.5424 17.7906 76.4344C17.0602 75.5454 17.1888 74.2326 18.0778 73.5022ZM69.6463 86.753C70.6605 86.2097 71.0424 84.9471 70.4991 83.9328C69.9558 82.9186 68.6932 82.5368 67.679 83.08C65.532 84.2299 63.2606 85.1767 60.8901 85.8949C59.7889 86.2285 59.1667 87.3916 59.5003 88.4928C59.834 89.594 60.9971 90.2162 62.0982 89.8826C64.7345 89.0838 67.2601 88.0311 69.6463 86.753ZM29.5006 83.9329C30.0438 82.9186 31.3065 82.5368 32.3207 83.08C34.4676 84.2299 36.7391 85.1767 39.1096 85.8949C40.2107 86.2285 40.833 87.3916 40.4993 88.4928C40.1657 89.594 39.0026 90.2162 37.9014 89.8826C35.2651 89.0838 32.7396 88.0311 30.3534 86.753C29.3391 86.2097 28.9573 84.9471 29.5006 83.9329ZM46.3203 87.322C45.1751 87.2106 44.1564 88.0486 44.045 89.1937C43.9335 90.3389 44.7715 91.3576 45.9167 91.4691C47.2606 91.5999 48.6227 91.6668 49.9998 91.6668C51.3769 91.6668 52.739 91.5999 54.083 91.4691C55.2282 91.3576 56.0662 90.3389 55.9547 89.1937C55.8433 88.0486 54.8246 87.2106 53.6794 87.322C52.4694 87.4398 51.242 87.5001 49.9998 87.5001C48.7577 87.5001 47.5303 87.4398 46.3203 87.322ZM44.9005 60.4168C39.6626 60.4168 35.4165 56.0243 35.4165 50.6057V30.4529C35.4165 29.7426 35.9731 29.1667 36.6598 29.1667H44.2427C44.9293 29.1667 45.4859 29.7426 45.4859 30.4529V59.8111C45.4859 60.1455 45.2238 60.4168 44.9005 60.4168ZM46.0714 60.4168C45.7481 60.4168 45.4859 60.688 45.4859 61.0224C45.4859 66.441 49.7321 70.8334 54.9699 70.8334H64.4539C65.1006 70.8334 65.6248 70.2911 65.6248 69.6221V61.7029C65.6248 60.9926 65.0681 60.4168 64.3816 60.4168H46.0714Z" stroke="url(#paint0_linear_9034_54428)" stroke-width="0.2" mask="url(#path-1-outside-1_9034_54428)"/>
<defs>
<linearGradient id="paint0_linear_9034_54428" x1="51.2625" y1="91.6668" x2="37.9928" y2="25.3182" gradientUnits="userSpaceOnUse">
<stop stop-color="#FDECBA"/>
<stop offset="1" stop-color="#FDFFDD" stop-opacity="0"/>
</linearGradient>
</defs>
</svg>
