<svg width="24" height="24" viewBox="0 0 24 24" fill="none" xmlns="http://www.w3.org/2000/svg">
<g clip-path="url(#clip0_2019_9924)">
<path d="M4.00269 4.5C4.00269 3.83696 4.26608 3.20107 4.73492 2.73223C5.20376 2.26339 5.83964 2 6.50269 2H17.5027C18.1657 2 18.8016 2.26339 19.2705 2.73223C19.7393 3.20107 20.0027 3.83696 20.0027 4.5V18.75C20.0027 18.9489 19.9237 19.1397 19.783 19.2803C19.6424 19.421 19.4516 19.5 19.2527 19.5H5.50269C5.50269 19.7652 5.60804 20.0196 5.79558 20.2071C5.98312 20.3946 6.23747 20.5 6.50269 20.5H19.2527C19.4516 20.5 19.6424 20.579 19.783 20.7197C19.9237 20.8603 20.0027 21.0511 20.0027 21.25C20.0027 21.4489 19.9237 21.6397 19.783 21.7803C19.6424 21.921 19.4516 22 19.2527 22H6.50269C5.83964 22 5.20376 21.7366 4.73492 21.2678C4.26608 20.7989 4.00269 20.163 4.00269 19.5V4.5ZM14.0027 8C14.0027 7.46957 13.792 6.96086 13.4169 6.58579C13.0418 6.21071 12.5331 6 12.0027 6C11.4723 6 10.9635 6.21071 10.5885 6.58579C10.2134 6.96086 10.0027 7.46957 10.0027 8C10.0027 8.53043 10.2134 9.03914 10.5885 9.41421C10.9635 9.78929 11.4723 10 12.0027 10C12.5331 10 13.0418 9.78929 13.4169 9.41421C13.792 9.03914 14.0027 8.53043 14.0027 8ZM15.5027 12.5C15.5027 12.1022 15.3447 11.7206 15.0633 11.4393C14.782 11.158 14.4005 11 14.0027 11H10.0027C9.60486 11 9.22333 11.158 8.94203 11.4393C8.66072 11.7206 8.50269 12.1022 8.50269 12.5C8.50269 13.75 9.50269 15 12.0027 15C14.5027 15 15.5027 13.745 15.5027 12.5Z" fill="#FD6E00"/>
</g>
<defs>
<clipPath id="clip0_2019_9924">
<rect width="24" height="24" fill="white" transform="translate(0.00268555)"/>
</clipPath>
</defs>
</svg>
