<svg viewBox="0 0 24 24" fill="none" xmlns="http://www.w3.org/2000/svg" id="Copy--Streamline-Solar" height="24" width="24"><desc>Copy Streamline Icon: https://streamlinehq.com</desc><path d="M15.8102 0.24H11.2306C9.1559 0.24 7.5125 0.24 6.2264 0.4136C4.9027 0.5922 3.8314 0.9687 2.9865 1.817C2.1416 2.6653 1.7667 3.7409 1.5887 5.0698C1.4158 6.3611 1.4158 8.0111 1.4158 10.0942V16.9592C1.4158 18.7328 2.4977 20.2527 4.035 20.8898C3.9559 19.8204 3.956 18.3197 3.956 17.0711V11.2917V11.1797C3.956 9.6724 3.9559 8.3738 4.0951 7.3338C4.2444 6.2193 4.581 5.1509 5.444 4.2844C6.3071 3.4178 7.3712 3.0799 8.4813 2.93C9.5171 2.7902 10.8107 2.7903 12.3118 2.7904L12.4233 2.7904H15.8102L15.9217 2.7904C17.4229 2.7903 18.7136 2.7902 19.7494 2.93C19.1298 1.3546 17.5996 0.24 15.8102 0.24Z" fill="#000000" stroke-width="1"></path><path d="M5.6496 11.2915C5.6496 8.0854 5.6496 6.4824 6.6416 5.4864C7.6336 4.4904 9.2302 4.4904 12.4234 4.4904H15.8103C19.0036 4.4904 20.6001 4.4904 21.5922 5.4864C22.5842 6.4824 22.5842 8.0854 22.5842 11.2915V16.959C22.5842 20.165 22.5842 21.7681 21.5922 22.764C20.6001 23.76 19.0036 23.76 15.8103 23.76H12.4234C9.2302 23.76 7.6336 23.76 6.6416 22.764C5.6496 21.7681 5.6496 20.165 5.6496 16.959V11.2915Z" fill="#000000" stroke-width="1"></path></svg>