<svg width="20" height="20" viewBox="0 0 20 20" fill="none" xmlns="http://www.w3.org/2000/svg">
<path d="M13.7658 13.7511C13.9116 13.6374 14.0438 13.5051 14.3084 13.2405L17.6063 9.9427C17.6859 9.86303 17.6494 9.72569 17.5429 9.68869C17.1537 9.55369 16.6473 9.30011 16.1736 8.82645C15.6999 8.35278 15.4463 7.84637 15.3113 7.4571C15.2743 7.35058 15.137 7.31409 15.0573 7.39381L11.7595 10.6916C11.4949 10.9562 11.3627 11.0884 11.2489 11.2343C11.1148 11.4064 10.9997 11.5924 10.9058 11.7894C10.8263 11.9564 10.7671 12.1339 10.6488 12.4888L10.4959 12.9474L10.2528 13.6765L10.0249 14.3603C9.96676 14.5349 10.0122 14.7274 10.1423 14.8577C10.2726 14.9879 10.4651 15.0333 10.6398 14.9751L11.3235 14.7472L12.0527 14.5041L12.5113 14.3512C12.8661 14.2329 13.0437 14.1738 13.2106 14.0942C13.4076 14.0004 13.5937 13.8853 13.7658 13.7511Z" fill="#2F3036"/>
<path d="M13.7658 13.7511C13.9116 13.6374 14.0438 13.5051 14.3084 13.2405L17.6063 9.9427C17.6859 9.86303 17.6494 9.72569 17.5429 9.68869C17.1537 9.55369 16.6473 9.30011 16.1736 8.82645C15.6999 8.35278 15.4463 7.84637 15.3113 7.4571C15.2743 7.35058 15.137 7.31409 15.0573 7.39381L11.7595 10.6916C11.4949 10.9562 11.3627 11.0884 11.2489 11.2343C11.1148 11.4064 10.9997 11.5924 10.9058 11.7894C10.8263 11.9564 10.7671 12.1339 10.6488 12.4888L10.4959 12.9474L10.2528 13.6765L10.0249 14.3603C9.96676 14.5349 10.0122 14.7274 10.1423 14.8577C10.2726 14.9879 10.4651 15.0333 10.6398 14.9751L11.3235 14.7472L12.0527 14.5041L12.5113 14.3512C12.8661 14.2329 13.0437 14.1738 13.2106 14.0942C13.4076 14.0004 13.5937 13.8853 13.7658 13.7511Z" fill="black" fill-opacity="0.2"/>
<path d="M18.6387 8.91021C19.3426 8.20632 19.3426 7.06514 18.6387 6.36127C17.9348 5.65741 16.7937 5.65741 16.0898 6.36127L15.9838 6.4673C15.8814 6.56961 15.8351 6.71251 15.8607 6.85492C15.8768 6.94451 15.9065 7.07548 15.9608 7.23177C16.0692 7.54432 16.2739 7.95462 16.6597 8.34029C17.0453 8.72604 17.4557 8.93079 17.7682 9.03921C17.9245 9.09346 18.0554 9.12321 18.145 9.13929C18.2874 9.16487 18.4303 9.11854 18.5327 9.01621L18.6387 8.91021Z" fill="#2F3036"/>
<path d="M18.6387 8.91021C19.3426 8.20632 19.3426 7.06514 18.6387 6.36127C17.9348 5.65741 16.7937 5.65741 16.0898 6.36127L15.9838 6.4673C15.8814 6.56961 15.8351 6.71251 15.8607 6.85492C15.8768 6.94451 15.9065 7.07548 15.9608 7.23177C16.0692 7.54432 16.2739 7.95462 16.6597 8.34029C17.0453 8.72604 17.4557 8.93079 17.7682 9.03921C17.9245 9.09346 18.0554 9.12321 18.145 9.13929C18.2874 9.16487 18.4303 9.11854 18.5327 9.01621L18.6387 8.91021Z" fill="black" fill-opacity="0.2"/>
<path fill-rule="evenodd" clip-rule="evenodd" d="M3.47631 2.64293C2.5 3.61925 2.5 5.19059 2.5 8.33329V11.6666C2.5 14.8093 2.5 16.3807 3.47631 17.357C4.45262 18.3333 6.02397 18.3333 9.16667 18.3333H10.8333C13.976 18.3333 15.5474 18.3333 16.5237 17.357C17.4843 16.3963 17.4998 14.8596 17.5 11.8167L15.1514 14.1653C14.9266 14.3902 14.7425 14.5745 14.5346 14.7367C14.2909 14.9267 14.0273 15.0896 13.7484 15.2225C13.5103 15.336 13.2632 15.4183 12.9615 15.5187L11.0351 16.1609C10.4113 16.3688 9.7235 16.2065 9.2585 15.7415C8.79358 15.2765 8.63117 14.5887 8.83917 13.9649L9.06708 13.2812L9.463 12.0934L9.48125 12.0385C9.58175 11.7368 9.664 11.4896 9.77742 11.2515C9.91033 10.9726 10.0732 10.709 10.2633 10.4655C10.4255 10.2575 10.6097 10.0734 10.8347 9.84854L14.1734 6.50986L15.1 5.58333L15.206 5.47731C15.8022 4.88113 16.5836 4.58313 17.365 4.58329C17.2389 3.7245 16.9951 3.11435 16.5237 2.64293C15.5474 1.66663 13.976 1.66663 10.8333 1.66663H9.16667C6.02397 1.66663 4.45262 1.66663 3.47631 2.64293ZM6.04167 7.49996C6.04167 7.15478 6.32149 6.87496 6.66667 6.87496H12.0833C12.4285 6.87496 12.7083 7.15478 12.7083 7.49996C12.7083 7.84513 12.4285 8.12496 12.0833 8.12496H6.66667C6.32149 8.12496 6.04167 7.84513 6.04167 7.49996ZM6.04167 10.8333C6.04167 10.4881 6.32149 10.2083 6.66667 10.2083H8.75C9.09517 10.2083 9.375 10.4881 9.375 10.8333C9.375 11.1785 9.09517 11.4583 8.75 11.4583H6.66667C6.32149 11.4583 6.04167 11.1785 6.04167 10.8333ZM6.04167 14.1666C6.04167 13.8215 6.32149 13.5416 6.66667 13.5416H7.91667C8.26184 13.5416 8.54167 13.8215 8.54167 14.1666C8.54167 14.5118 8.26184 14.7916 7.91667 14.7916H6.66667C6.32149 14.7916 6.04167 14.5118 6.04167 14.1666Z" fill="#2F3036"/>
<path fill-rule="evenodd" clip-rule="evenodd" d="M3.47631 2.64293C2.5 3.61925 2.5 5.19059 2.5 8.33329V11.6666C2.5 14.8093 2.5 16.3807 3.47631 17.357C4.45262 18.3333 6.02397 18.3333 9.16667 18.3333H10.8333C13.976 18.3333 15.5474 18.3333 16.5237 17.357C17.4843 16.3963 17.4998 14.8596 17.5 11.8167L15.1514 14.1653C14.9266 14.3902 14.7425 14.5745 14.5346 14.7367C14.2909 14.9267 14.0273 15.0896 13.7484 15.2225C13.5103 15.336 13.2632 15.4183 12.9615 15.5187L11.0351 16.1609C10.4113 16.3688 9.7235 16.2065 9.2585 15.7415C8.79358 15.2765 8.63117 14.5887 8.83917 13.9649L9.06708 13.2812L9.463 12.0934L9.48125 12.0385C9.58175 11.7368 9.664 11.4896 9.77742 11.2515C9.91033 10.9726 10.0732 10.709 10.2633 10.4655C10.4255 10.2575 10.6097 10.0734 10.8347 9.84854L14.1734 6.50986L15.1 5.58333L15.206 5.47731C15.8022 4.88113 16.5836 4.58313 17.365 4.58329C17.2389 3.7245 16.9951 3.11435 16.5237 2.64293C15.5474 1.66663 13.976 1.66663 10.8333 1.66663H9.16667C6.02397 1.66663 4.45262 1.66663 3.47631 2.64293ZM6.04167 7.49996C6.04167 7.15478 6.32149 6.87496 6.66667 6.87496H12.0833C12.4285 6.87496 12.7083 7.15478 12.7083 7.49996C12.7083 7.84513 12.4285 8.12496 12.0833 8.12496H6.66667C6.32149 8.12496 6.04167 7.84513 6.04167 7.49996ZM6.04167 10.8333C6.04167 10.4881 6.32149 10.2083 6.66667 10.2083H8.75C9.09517 10.2083 9.375 10.4881 9.375 10.8333C9.375 11.1785 9.09517 11.4583 8.75 11.4583H6.66667C6.32149 11.4583 6.04167 11.1785 6.04167 10.8333ZM6.04167 14.1666C6.04167 13.8215 6.32149 13.5416 6.66667 13.5416H7.91667C8.26184 13.5416 8.54167 13.8215 8.54167 14.1666C8.54167 14.5118 8.26184 14.7916 7.91667 14.7916H6.66667C6.32149 14.7916 6.04167 14.5118 6.04167 14.1666Z" fill="black" fill-opacity="0.2"/>
</svg>
