<svg viewBox="0 0 24 24" fill="none" xmlns="http://www.w3.org/2000/svg" id="Hashtag-Square--Streamline-Solar"><desc>Hashtag Square Streamline Icon: https://streamlinehq.com</desc><path d="m14.092 10.75 -0.75 2.5H9.90802l0.74998 -2.5h3.434Z" fill="#000000" stroke-width="1"></path><path fill-rule="evenodd" clip-rule="evenodd" d="M3.46447 3.46447C2 4.92893 2 7.28595 2 12c0 4.714 0 7.0711 1.46447 8.5355C4.92893 22 7.28595 22 12 22c4.714 0 7.0711 0 8.5355 -1.4645C22 19.0711 22 16.714 22 12c0 -4.71405 0 -7.07107 -1.4645 -8.53553C19.0711 2 16.714 2 12 2 7.28595 2 4.92893 2 3.46447 3.46447Zm7.75103 2.81717c0.3968 0.11903 0.6219 0.53714 0.5029 0.93389l-0.6104 2.03448h3.434l0.7396 -2.46551c0.1191 -0.39674 0.5372 -0.62188 0.9339 -0.50286 0.3968 0.11903 0.6219 0.53714 0.5029 0.93389l-0.6104 2.03448H18c0.4142 0 0.75 0.33579 0.75 0.74999 0 0.4142 -0.3358 0.75 -0.75 0.75h-2.342l-0.75 2.5H17c0.4142 0 0.75 0.3358 0.75 0.75s-0.3358 0.75 -0.75 0.75h-2.542l-0.7396 2.4655c-0.1191 0.3968 -0.5372 0.6219 -0.9339 0.5029 -0.3968 -0.119 -0.6219 -0.5372 -0.5029 -0.9339l0.6104 -2.0345H9.45802l-0.73965 2.4655c-0.11902 0.3968 -0.53714 0.6219 -0.93388 0.5029 -0.39675 -0.119 -0.62188 -0.5372 -0.50286 -0.9339l0.61035 -2.0345H6c-0.41421 0 -0.75 -0.3358 -0.75 -0.75s0.33579 -0.75 0.75 -0.75h2.34198l0.75 -2.5H7c-0.41421 0 -0.75 -0.3358 -0.75 -0.75s0.33579 -0.74999 0.75 -0.74999h2.54198l0.73962 -2.46551c0.1191 -0.39674 0.5372 -0.62188 0.9339 -0.50286Z" fill="#000000" stroke-width="1"></path></svg>