<svg viewBox="0 0 24 24" fill="none" xmlns="http://www.w3.org/2000/svg" id="Hashtag--Streamline-Solar"><desc>Hashtag Streamline Icon: https://streamlinehq.com</desc><path fill-rule="evenodd" clip-rule="evenodd" d="M10.7226 3.20068c0.1109 -0.3991 -0.1228 -0.81251 -0.5219 -0.92337 -0.39907 -0.11086 -0.81248 0.1228 -0.92334 0.5219L7.76327 8.24995H4c-0.41421 0 -0.75 0.33578 -0.75 0.75 0 0.41421 0.33579 0.75 0.75 0.75h3.3466L5.81882 15.2499H2c-0.41421 0 -0.75 0.3358 -0.75 0.75 0 0.4143 0.33579 0.75 0.75 0.75h3.40216l-1.1248 4.0493c-0.11086 0.3991 0.1228 0.8125 0.52191 0.9234 0.3991 0.1108 0.81251 -0.1228 0.92337 -0.5219l1.23631 -4.4508h7.44325l-1.1248 4.0493c-0.1109 0.3991 0.1228 0.8125 0.5219 0.9234 0.3991 0.1108 0.8125 -0.1228 0.9233 -0.5219l1.2364 -4.4508H20c0.4142 0 0.75 -0.3357 0.75 -0.75 0 -0.4142 -0.3358 -0.75 -0.75 -0.75h-3.6244l1.5278 -5.49995H22c0.4142 0 0.75 -0.33579 0.75 -0.75 0 -0.41422 -0.3358 -0.75 -0.75 -0.75h-3.6799l1.4025 -5.04927c0.1109 -0.3991 -0.1228 -0.81251 -0.5219 -0.92337 -0.3991 -0.11086 -0.8125 0.1228 -0.9233 0.5219l-1.5141 5.45074H9.32006l1.40254 -5.04927Zm4.0962 12.04922 1.5278 -5.49995H8.9034L7.37562 15.2499h7.44318Z" fill="#000000" stroke-width="1"></path></svg>