<svg xmlns="http://www.w3.org/2000/svg" fill="none" viewBox="0 0 48 48" id="Hourglass--Streamline-Ionic-Filled"><desc>Hourglass Streamline Icon: https://streamlinehq.com</desc><path fill="#000000" d="M40.7685 41.9686c-0.9177 -8.0735 -4.6022 -11.4197 -7.2932 -13.86C31.6146 26.415 30.7201 25.534 30.7201 24c0 -1.5131 0.8914 -2.3772 2.7468 -4.0362 2.7226 -2.4329 6.4512 -5.7656 7.3037 -13.9482 0.0682 -0.6874 -0.0088 -1.3816 -0.2258 -2.0374 -0.217 -0.6558 -0.5694 -1.2588 -1.0342 -1.7699 -0.4964 -0.5459 -1.1017 -0.9817 -1.7768 -1.2794C37.0588 0.6312 36.3287 0.4783 35.591 0.48H12.4092c-0.739 -0.0023 -1.4701 0.1503 -2.1463 0.448 -0.6762 0.2977 -1.2825 0.7339 -1.7797 1.2803 -0.4635 0.5118 -0.8145 1.115 -1.0304 1.7708 -0.216 0.6558 -0.292 1.3495 -0.2234 2.0365 0.8495 8.1564 4.5644 11.4649 7.2766 13.8799 1.8732 1.6685 2.7741 2.539 2.7741 4.1045 0 1.5855 -0.9031 2.4738 -2.7825 4.1737 -2.6776 2.4255 -6.3525 5.7466 -7.2661 13.7949 -0.0741 0.6843 -0.0031 1.3766 0.2086 2.0316s0.5592 1.2579 1.02 1.7694c0.4982 0.553 1.1074 0.9945 1.7879 1.2961 0.6804 0.3016 1.4168 0.4564 2.1612 0.4543H35.591c0.7442 0.0021 1.4805 -0.1527 2.1609 -0.4543 0.6806 -0.3016 1.2898 -0.7431 1.7881 -1.2961 0.4607 -0.5115 0.8082 -1.1144 1.0199 -1.7694s0.2827 -1.3473 0.2086 -2.0316Zm-7.602 0.5113H14.8787c-1.638 0 -2.1 -1.8899 -0.9512 -3.0618 2.7803 -2.8181 8.3926 -4.8362 8.3926 -8.0681V20.64c0 -2.0842 -3.9901 -3.675 -6.4586 -7.056 -0.4074 -0.5575 -0.3665 -1.344 0.6689 -1.344h14.9865c0.8832 0 1.0732 0.7802 0.672 1.3387 -2.4327 3.3863 -6.5088 4.9665 -6.5088 7.0613v10.71c0 3.2056 5.8495 4.935 8.442 8.0713 1.0447 1.2642 0.6793 3.0586 -0.9556 3.0586Z" stroke-width="1"></path></svg>