<svg width="24" height="24" viewBox="0 0 24 24" fill="none" xmlns="http://www.w3.org/2000/svg">
<path d="M4.07378 3.55948C5.03925 3.55948 5.83517 3.78327 6.44035 4.22371V4.85699C5.81397 4.41655 4.98744 4.19038 4.07378 4.19038C2.15463 4.19038 0.66876 5.68311 0.66876 7.57105C0.66876 9.51136 2.07928 10.9827 3.97959 10.9827C5.70801 10.9827 6.73705 9.9399 6.73705 8.26861V7.6877H4.05259V7.06633H7.33046V8.16147C7.33046 10.2946 6.05887 11.6136 3.97959 11.6136C1.6978 11.6136 0 9.88752 0 7.57105C0 5.32838 1.7708 3.55948 4.07378 3.55948Z" fill="#2F3036"/>
<path d="M4.07378 3.55948C5.03925 3.55948 5.83517 3.78327 6.44035 4.22371V4.85699C5.81397 4.41655 4.98744 4.19038 4.07378 4.19038C2.15463 4.19038 0.66876 5.68311 0.66876 7.57105C0.66876 9.51136 2.07928 10.9827 3.97959 10.9827C5.70801 10.9827 6.73705 9.9399 6.73705 8.26861V7.6877H4.05259V7.06633H7.33046V8.16147C7.33046 10.2946 6.05887 11.6136 3.97959 11.6136C1.6978 11.6136 0 9.88752 0 7.57105C0 5.32838 1.7708 3.55948 4.07378 3.55948Z" fill="black" fill-opacity="0.2"/>
<path d="M4.07378 4.51416C5.09341 4.51416 5.94113 4.85699 6.44035 5.20934V5.81167L6.39796 5.84262C5.7292 5.37123 5.00863 5.14506 4.09498 5.14506C2.69388 5.14506 1.67661 6.18783 1.67661 7.57105C1.67661 9.00664 2.62088 10.028 3.97959 10.028C5.20879 10.028 5.78336 9.28757 5.77159 8.65429H4.05259V8.00911H6.41915V8.42812C6.41915 9.59707 5.60204 10.6589 3.97959 10.6589C2.29121 10.6589 0.986656 9.31852 0.986656 7.57105C0.986656 5.86405 2.34537 4.51416 4.07378 4.51416Z" fill="#2F3036"/>
<path d="M4.07378 4.51416C5.09341 4.51416 5.94113 4.85699 6.44035 5.20934V5.81167L6.39796 5.84262C5.7292 5.37123 5.00863 5.14506 4.09498 5.14506C2.69388 5.14506 1.67661 6.18783 1.67661 7.57105C1.67661 9.00664 2.62088 10.028 3.97959 10.028C5.20879 10.028 5.78336 9.28757 5.77159 8.65429H4.05259V8.00911H6.41915V8.42812C6.41915 9.59707 5.60204 10.6589 3.97959 10.6589C2.29121 10.6589 0.986656 9.31852 0.986656 7.57105C0.986656 5.86405 2.34537 4.51416 4.07378 4.51416Z" fill="black" fill-opacity="0.2"/>
<path d="M7.75667 8.12814C7.75667 6.44495 8.81633 5.30695 10.4835 5.30695C11.0557 5.30695 11.5856 5.46884 11.9788 5.74739C11.8093 5.88547 11.6821 6.03546 11.5644 6.17593C11.3736 6.05689 10.938 5.9188 10.5141 5.9188C9.25196 5.9188 8.38069 6.80921 8.38069 8.11862V11.4326H7.75667V8.12814Z" fill="#2F3036"/>
<path d="M7.75667 8.12814C7.75667 6.44495 8.81633 5.30695 10.4835 5.30695C11.0557 5.30695 11.5856 5.46884 11.9788 5.74739C11.8093 5.88547 11.6821 6.03546 11.5644 6.17593C11.3736 6.05689 10.938 5.9188 10.5141 5.9188C9.25196 5.9188 8.38069 6.80921 8.38069 8.11862V11.4326H7.75667V8.12814Z" fill="black" fill-opacity="0.2"/>
<path d="M10.5047 6.21878C10.8226 6.21878 11.1499 6.31401 11.3736 6.464C11.2677 6.62589 11.1829 6.7973 11.0981 7.00205C10.8956 6.91634 10.7049 6.86158 10.4929 6.86158C9.78179 6.86158 9.30377 7.38773 9.30377 8.12814V11.4302H8.67975V8.11624C8.67975 7.00205 9.43328 6.21878 10.5047 6.21878Z" fill="#2F3036"/>
<path d="M10.5047 6.21878C10.8226 6.21878 11.1499 6.31401 11.3736 6.464C11.2677 6.62589 11.1829 6.7973 11.0981 7.00205C10.8956 6.91634 10.7049 6.86158 10.4929 6.86158C9.78179 6.86158 9.30377 7.38773 9.30377 8.12814V11.4302H8.67975V8.11624C8.67975 7.00205 9.43328 6.21878 10.5047 6.21878Z" fill="black" fill-opacity="0.2"/>
<path d="M20.9859 5.25219C22.7261 5.25219 24 6.61398 24 8.42812C24 10.2184 22.7378 11.6136 21.0188 11.6136C19.6813 11.6136 18.6523 10.8089 18.3014 9.78991L18.7465 9.17805C18.9702 10.2184 19.9262 10.9803 21.0283 10.9803C22.387 10.9803 23.3736 9.87562 23.3736 8.42812C23.3736 6.94729 22.3658 5.89738 20.9859 5.89738C19.9686 5.89738 19.3093 6.41162 18.5557 7.34488C18.3083 7.64863 18.0462 8.00535 17.7501 8.40816L17.5691 8.65429V7.72103C17.6218 7.64687 17.6746 7.57157 17.728 7.49561C18.4707 6.43765 19.3029 5.25219 20.9859 5.25219Z" fill="#2F3036"/>
<path d="M20.9859 5.25219C22.7261 5.25219 24 6.61398 24 8.42812C24 10.2184 22.7378 11.6136 21.0188 11.6136C19.6813 11.6136 18.6523 10.8089 18.3014 9.78991L18.7465 9.17805C18.9702 10.2184 19.9262 10.9803 21.0283 10.9803C22.387 10.9803 23.3736 9.87562 23.3736 8.42812C23.3736 6.94729 22.3658 5.89738 20.9859 5.89738C19.9686 5.89738 19.3093 6.41162 18.5557 7.34488C18.3083 7.64863 18.0462 8.00535 17.7501 8.40816L17.5691 8.65429V7.72103C17.6218 7.64687 17.6746 7.57157 17.728 7.49561C18.4707 6.43765 19.3029 5.25219 20.9859 5.25219Z" fill="black" fill-opacity="0.2"/>
<path d="M19.5118 8.28765C19.5118 9.21138 20.1381 10.0375 21.0283 10.0375C21.8783 10.0375 22.4388 9.34947 22.4388 8.41621C22.4388 7.51629 21.8454 6.84016 20.9765 6.84016C20.1726 6.84016 19.7489 7.36169 19.1616 8.08462C19.0969 8.16428 19.0302 8.24638 18.9608 8.33051C18.5463 8.83523 17.9835 9.56374 17.5691 10.1875V9.15663C17.8859 8.7082 18.1803 8.32543 18.4079 8.02945C18.5017 7.90743 18.5842 7.80017 18.6523 7.70913C19.1303 7.06633 19.8085 6.19735 20.9859 6.19735C22.1962 6.19735 23.0769 7.14013 23.0769 8.41621C23.0769 9.69468 22.2174 10.6708 21.0283 10.6708C19.8626 10.6708 19.0879 9.63992 19.0031 8.86856L19.4906 8.19242H19.5118V8.28765Z" fill="#2F3036"/>
<path d="M19.5118 8.28765C19.5118 9.21138 20.1381 10.0375 21.0283 10.0375C21.8783 10.0375 22.4388 9.34947 22.4388 8.41621C22.4388 7.51629 21.8454 6.84016 20.9765 6.84016C20.1726 6.84016 19.7489 7.36169 19.1616 8.08462C19.0969 8.16428 19.0302 8.24638 18.9608 8.33051C18.5463 8.83523 17.9835 9.56374 17.5691 10.1875V9.15663C17.8859 8.7082 18.1803 8.32543 18.4079 8.02945C18.5017 7.90743 18.5842 7.80017 18.6523 7.70913C19.1303 7.06633 19.8085 6.19735 20.9859 6.19735C22.1962 6.19735 23.0769 7.14013 23.0769 8.41621C23.0769 9.69468 22.2174 10.6708 21.0283 10.6708C19.8626 10.6708 19.0879 9.63992 19.0031 8.86856L19.4906 8.19242H19.5118V8.28765Z" fill="black" fill-opacity="0.2"/>
<path d="M19.5118 3V5.25219C19.3146 5.32772 19.1267 5.47719 18.9543 5.61427L18.8854 5.66882V3H19.5118Z" fill="#2F3036"/>
<path d="M19.5118 3V5.25219C19.3146 5.32772 19.1267 5.47719 18.9543 5.61427L18.8854 5.66882V3H19.5118Z" fill="black" fill-opacity="0.2"/>
<path d="M17.9529 3H18.5769V5.9069C18.3556 6.13069 18.1436 6.39972 17.9529 6.64493V3Z" fill="#2F3036"/>
<path d="M17.9529 3H18.5769V5.9069C18.3556 6.13069 18.1436 6.39972 17.9529 6.64493V3Z" fill="black" fill-opacity="0.2"/>
<path d="M14.27 5.24267C16.0314 5.24267 17.2724 6.55208 17.2724 8.33289V11.4326H16.6366V8.34241C16.6366 6.91634 15.6381 5.89738 14.27 5.89738C12.8925 5.89738 11.8516 6.98062 11.8516 8.42812C11.8516 9.9518 12.8265 10.9827 14.27 10.9827C14.748 10.9827 15.2143 10.7993 15.405 10.6375V11.2707C15.1201 11.4969 14.6633 11.6136 14.27 11.6136C12.5086 11.6136 11.2041 10.2946 11.2041 8.42812C11.2041 6.62589 12.5416 5.24267 14.27 5.24267Z" fill="#2F3036"/>
<path d="M14.27 5.24267C16.0314 5.24267 17.2724 6.55208 17.2724 8.33289V11.4326H16.6366V8.34241C16.6366 6.91634 15.6381 5.89738 14.27 5.89738C12.8925 5.89738 11.8516 6.98062 11.8516 8.42812C11.8516 9.9518 12.8265 10.9827 14.27 10.9827C14.748 10.9827 15.2143 10.7993 15.405 10.6375V11.2707C15.1201 11.4969 14.6633 11.6136 14.27 11.6136C12.5086 11.6136 11.2041 10.2946 11.2041 8.42812C11.2041 6.62589 12.5416 5.24267 14.27 5.24267Z" fill="black" fill-opacity="0.2"/>
<path d="M15.405 10.3375C15.1931 10.4875 14.7268 10.6589 14.27 10.6708C13.062 10.7017 12.1484 9.75896 12.1484 8.44002C12.1484 7.10918 13.0714 6.19735 14.27 6.19735C15.4804 6.19735 16.3399 7.10918 16.3399 8.35432V11.4326H15.7135V8.38526C15.7135 7.49486 15.1625 6.83063 14.2606 6.83063C13.4223 6.83063 12.7959 7.52819 12.7959 8.44002C12.7959 9.3947 13.4317 10.0375 14.2818 10.0375C14.6939 10.0375 15.1295 9.90895 15.3956 9.69468L15.405 9.7042V10.3375Z" fill="#2F3036"/>
<path d="M15.405 10.3375C15.1931 10.4875 14.7268 10.6589 14.27 10.6708C13.062 10.7017 12.1484 9.75896 12.1484 8.44002C12.1484 7.10918 13.0714 6.19735 14.27 6.19735C15.4804 6.19735 16.3399 7.10918 16.3399 8.35432V11.4326H15.7135V8.38526C15.7135 7.49486 15.1625 6.83063 14.2606 6.83063C13.4223 6.83063 12.7959 7.52819 12.7959 8.44002C12.7959 9.3947 13.4317 10.0375 14.2818 10.0375C14.6939 10.0375 15.1295 9.90895 15.3956 9.69468L15.405 9.7042V10.3375Z" fill="black" fill-opacity="0.2"/>
<path d="M1.55718 14.5745V16.8386H4.52892V17.9456H1.55718V20.8454H0.372722V13.4674H4.87272V14.5745H1.55718Z" fill="#2F3036"/>
<path d="M1.55718 14.5745V16.8386H4.52892V17.9456H1.55718V20.8454H0.372722V13.4674H4.87272V14.5745H1.55718Z" fill="black" fill-opacity="0.2"/>
<path fill-rule="evenodd" clip-rule="evenodd" d="M8.07448 21C9.76757 21 10.9238 19.8001 10.9238 18.0074C10.9238 16.2123 9.76757 15.0029 8.07448 15.0029C6.38138 15.0029 5.21576 16.2123 5.21576 18.0074C5.21576 19.8001 6.38138 21 8.07448 21ZM6.38138 18.0074C6.38138 16.9003 7.10195 16.1218 8.07448 16.1218C9.04701 16.1218 9.75815 16.9003 9.75815 18.0074C9.75815 19.1144 9.04701 19.8834 8.07448 19.8834C7.10195 19.8834 6.38138 19.1144 6.38138 18.0074Z" fill="#2F3036"/>
<path fill-rule="evenodd" clip-rule="evenodd" d="M8.07448 21C9.76757 21 10.9238 19.8001 10.9238 18.0074C10.9238 16.2123 9.76757 15.0029 8.07448 15.0029C6.38138 15.0029 5.21576 16.2123 5.21576 18.0074C5.21576 19.8001 6.38138 21 8.07448 21ZM6.38138 18.0074C6.38138 16.9003 7.10195 16.1218 8.07448 16.1218C9.04701 16.1218 9.75815 16.9003 9.75815 18.0074C9.75815 19.1144 9.04701 19.8834 8.07448 19.8834C7.10195 19.8834 6.38138 19.1144 6.38138 18.0074Z" fill="black" fill-opacity="0.2"/>
<path fill-rule="evenodd" clip-rule="evenodd" d="M17.2811 18.0074C17.2811 19.8001 16.1249 21 14.4319 21C12.7388 21 11.5731 19.8001 11.5731 18.0074C11.5731 16.2123 12.7388 15.0029 14.4319 15.0029C16.1249 15.0029 17.2811 16.2123 17.2811 18.0074ZM14.4319 16.1218C13.4593 16.1218 12.7388 16.9003 12.7388 18.0074C12.7388 19.1144 13.4593 19.8834 14.4319 19.8834C15.4044 19.8834 16.1155 19.1144 16.1155 18.0074C16.1155 16.9003 15.4044 16.1218 14.4319 16.1218Z" fill="#2F3036"/>
<path fill-rule="evenodd" clip-rule="evenodd" d="M17.2811 18.0074C17.2811 19.8001 16.1249 21 14.4319 21C12.7388 21 11.5731 19.8001 11.5731 18.0074C11.5731 16.2123 12.7388 15.0029 14.4319 15.0029C16.1249 15.0029 17.2811 16.2123 17.2811 18.0074ZM14.4319 16.1218C13.4593 16.1218 12.7388 16.9003 12.7388 18.0074C12.7388 19.1144 13.4593 19.8834 14.4319 19.8834C15.4044 19.8834 16.1155 19.1144 16.1155 18.0074C16.1155 16.9003 15.4044 16.1218 14.4319 16.1218Z" fill="black" fill-opacity="0.2"/>
<path fill-rule="evenodd" clip-rule="evenodd" d="M22.407 15.9885C22.1032 15.3314 21.4556 15.0029 20.6032 15.0029C19.0231 15.0029 17.9282 16.2432 17.9282 17.9978C17.9282 19.781 19.1032 21 20.7869 21C22.48 21 23.6244 19.7691 23.6244 17.955V12.8506H22.4588V15.9885H22.407ZM22.4588 17.9359C22.4588 19.0835 21.7594 19.8834 20.7869 19.8834C19.8544 19.8834 19.0938 19.1335 19.0938 17.955C19.0938 16.817 19.7932 16.1218 20.7657 16.1218C21.6982 16.1218 22.4588 16.7456 22.4588 17.9359Z" fill="#2F3036"/>
<path fill-rule="evenodd" clip-rule="evenodd" d="M22.407 15.9885C22.1032 15.3314 21.4556 15.0029 20.6032 15.0029C19.0231 15.0029 17.9282 16.2432 17.9282 17.9978C17.9282 19.781 19.1032 21 20.7869 21C22.48 21 23.6244 19.7691 23.6244 17.955V12.8506H22.4588V15.9885H22.407ZM22.4588 17.9359C22.4588 19.0835 21.7594 19.8834 20.7869 19.8834C19.8544 19.8834 19.0938 19.1335 19.0938 17.955C19.0938 16.817 19.7932 16.1218 20.7657 16.1218C21.6982 16.1218 22.4588 16.7456 22.4588 17.9359Z" fill="black" fill-opacity="0.2"/>
</svg>
