<svg width="24" height="24" viewBox="0 0 24 24" fill="none" xmlns="http://www.w3.org/2000/svg">
<g clip-path="url(#clip0_8955_50443)">
<path d="M12.0009 0C18.6292 0 24 5.37222 24 11.9991C24 18.6278 18.6292 24 12.0009 24C5.37253 24 0 18.6278 0 11.9974C0 5.37047 5.37253 0 12.0009 0ZM7.29205 5.56296C7.19515 5.64934 7.11845 5.75607 7.06743 5.87555C7.01641 5.99502 6.99232 6.1243 6.99687 6.25417L7.00386 9.80999C7.00621 9.97217 6.94462 10.1287 6.83246 10.2457C6.72029 10.3627 6.56661 10.4306 6.40477 10.4347C6.32479 10.4322 6.24608 10.4139 6.17317 10.3809C6.10026 10.3479 6.03457 10.3007 5.97988 10.2422C5.9252 10.1837 5.88258 10.1149 5.85449 10.0398C5.82639 9.96475 5.81337 9.88486 5.81617 9.80474C5.81231 8.85326 5.89357 7.90334 6.05895 6.96639C6.10133 6.73193 6.05077 6.49016 5.91802 6.29246C5.78528 6.09476 5.58081 5.95673 5.34808 5.90769C5.23283 5.88867 5.11492 5.89324 5.00148 5.92114C4.88803 5.94903 4.78141 5.99967 4.68804 6.07C4.59467 6.14032 4.51649 6.22887 4.45823 6.3303C4.39996 6.43173 4.36281 6.54394 4.34903 6.66015C4.1329 8.01379 4.04227 9.38457 4.07831 10.7549C4.09577 12.1199 4.78917 13.3868 5.93319 14.1323C6.44495 14.4472 6.76981 14.9932 6.803 15.5917L6.89731 17.6881C6.90214 17.9442 7.00513 18.1886 7.18494 18.3708C7.36476 18.5529 7.60761 18.6587 7.86318 18.6663C8.11876 18.6591 8.3618 18.5538 8.54195 18.372C8.72209 18.1902 8.82552 17.9459 8.8308 17.6898L8.92337 15.6669C8.96005 15.0667 9.29539 14.5242 9.81413 14.2233C10.3563 13.8867 10.8071 13.4211 11.1264 12.8679C11.4457 12.3147 11.6237 11.6911 11.6446 11.0524C11.704 9.5825 11.6166 8.11258 11.3843 6.6619C11.3698 6.54599 11.3322 6.43418 11.2738 6.33311C11.2153 6.23205 11.1371 6.1438 11.0439 6.0736C10.9507 6.00341 10.8444 5.9527 10.7312 5.9245C10.6181 5.8963 10.5004 5.89118 10.3853 5.90944C10.1529 5.95887 9.94882 6.09707 9.81643 6.29472C9.68404 6.49237 9.63372 6.73393 9.67615 6.96814C9.84208 7.90609 9.92242 8.85804 9.91718 9.80824C9.92437 9.9161 9.90183 10.0239 9.85202 10.1198C9.80221 10.2157 9.72704 10.296 9.63474 10.352C9.54244 10.408 9.43655 10.4375 9.32865 10.4373C9.22075 10.437 9.11499 10.4071 9.02292 10.3507C8.93095 10.2954 8.85582 10.2159 8.80565 10.121C8.75547 10.026 8.73216 9.91904 8.73823 9.81174L8.73299 6.30317C8.7419 6.08463 8.67486 5.86977 8.54332 5.69521C8.41178 5.52066 8.22387 5.39723 8.01164 5.34597C7.88343 5.32745 7.75273 5.33727 7.62872 5.37476C7.5047 5.41225 7.38864 5.47648 7.29205 5.56296ZM16.5036 5.33372C14.2156 5.33372 13.0733 8.79154 13.0733 11.0734C13.0873 12.2529 13.6811 13.3483 14.6592 14.0045C15.1133 14.302 15.398 14.7972 15.4312 15.3397L15.5395 17.6898C15.5365 17.8611 15.5791 18.03 15.663 18.1792C15.7469 18.3284 15.8691 18.4524 16.0168 18.5386C16.1645 18.6247 16.3325 18.6698 16.5035 18.6692C16.6744 18.6685 16.8421 18.6222 16.9892 18.535C17.1363 18.4491 17.2579 18.3256 17.3417 18.1771C17.4255 18.0286 17.4684 17.8604 17.466 17.6898L17.5743 15.3397C17.5904 15.0723 17.6686 14.8124 17.8026 14.5806C17.9367 14.3488 18.1228 14.1516 18.3463 14.0045C19.3244 13.3483 19.9182 12.2529 19.9339 11.0752C19.9339 8.79154 18.7899 5.33372 16.5036 5.33372Z" fill="#2F3036"/>
<path d="M12.0009 0C18.6292 0 24 5.37222 24 11.9991C24 18.6278 18.6292 24 12.0009 24C5.37253 24 0 18.6278 0 11.9974C0 5.37047 5.37253 0 12.0009 0ZM7.29205 5.56296C7.19515 5.64934 7.11845 5.75607 7.06743 5.87555C7.01641 5.99502 6.99232 6.1243 6.99687 6.25417L7.00386 9.80999C7.00621 9.97217 6.94462 10.1287 6.83246 10.2457C6.72029 10.3627 6.56661 10.4306 6.40477 10.4347C6.32479 10.4322 6.24608 10.4139 6.17317 10.3809C6.10026 10.3479 6.03457 10.3007 5.97988 10.2422C5.9252 10.1837 5.88258 10.1149 5.85449 10.0398C5.82639 9.96475 5.81337 9.88486 5.81617 9.80474C5.81231 8.85326 5.89357 7.90334 6.05895 6.96639C6.10133 6.73193 6.05077 6.49016 5.91802 6.29246C5.78528 6.09476 5.58081 5.95673 5.34808 5.90769C5.23283 5.88867 5.11492 5.89324 5.00148 5.92114C4.88803 5.94903 4.78141 5.99967 4.68804 6.07C4.59467 6.14032 4.51649 6.22887 4.45823 6.3303C4.39996 6.43173 4.36281 6.54394 4.34903 6.66015C4.1329 8.01379 4.04227 9.38457 4.07831 10.7549C4.09577 12.1199 4.78917 13.3868 5.93319 14.1323C6.44495 14.4472 6.76981 14.9932 6.803 15.5917L6.89731 17.6881C6.90214 17.9442 7.00513 18.1886 7.18494 18.3708C7.36476 18.5529 7.60761 18.6587 7.86318 18.6663C8.11876 18.6591 8.3618 18.5538 8.54195 18.372C8.72209 18.1902 8.82552 17.9459 8.8308 17.6898L8.92337 15.6669C8.96005 15.0667 9.29539 14.5242 9.81413 14.2233C10.3563 13.8867 10.8071 13.4211 11.1264 12.8679C11.4457 12.3147 11.6237 11.6911 11.6446 11.0524C11.704 9.5825 11.6166 8.11258 11.3843 6.6619C11.3698 6.54599 11.3322 6.43418 11.2738 6.33311C11.2153 6.23205 11.1371 6.1438 11.0439 6.0736C10.9507 6.00341 10.8444 5.9527 10.7312 5.9245C10.6181 5.8963 10.5004 5.89118 10.3853 5.90944C10.1529 5.95887 9.94882 6.09707 9.81643 6.29472C9.68404 6.49237 9.63372 6.73393 9.67615 6.96814C9.84208 7.90609 9.92242 8.85804 9.91718 9.80824C9.92437 9.9161 9.90183 10.0239 9.85202 10.1198C9.80221 10.2157 9.72704 10.296 9.63474 10.352C9.54244 10.408 9.43655 10.4375 9.32865 10.4373C9.22075 10.437 9.11499 10.4071 9.02292 10.3507C8.93095 10.2954 8.85582 10.2159 8.80565 10.121C8.75547 10.026 8.73216 9.91904 8.73823 9.81174L8.73299 6.30317C8.7419 6.08463 8.67486 5.86977 8.54332 5.69521C8.41178 5.52066 8.22387 5.39723 8.01164 5.34597C7.88343 5.32745 7.75273 5.33727 7.62872 5.37476C7.5047 5.41225 7.38864 5.47648 7.29205 5.56296ZM16.5036 5.33372C14.2156 5.33372 13.0733 8.79154 13.0733 11.0734C13.0873 12.2529 13.6811 13.3483 14.6592 14.0045C15.1133 14.302 15.398 14.7972 15.4312 15.3397L15.5395 17.6898C15.5365 17.8611 15.5791 18.03 15.663 18.1792C15.7469 18.3284 15.8691 18.4524 16.0168 18.5386C16.1645 18.6247 16.3325 18.6698 16.5035 18.6692C16.6744 18.6685 16.8421 18.6222 16.9892 18.535C17.1363 18.4491 17.2579 18.3256 17.3417 18.1771C17.4255 18.0286 17.4684 17.8604 17.466 17.6898L17.5743 15.3397C17.5904 15.0723 17.6686 14.8124 17.8026 14.5806C17.9367 14.3488 18.1228 14.1516 18.3463 14.0045C19.3244 13.3483 19.9182 12.2529 19.9339 11.0752C19.9339 8.79154 18.7899 5.33372 16.5036 5.33372Z" fill="black" fill-opacity="0.2"/>
</g>
<defs>
<clipPath id="clip0_8955_50443">
<rect width="24" height="24" fill="white"/>
</clipPath>
</defs>
</svg>
