<svg viewBox="0 0 24 24" fill="none" xmlns="http://www.w3.org/2000/svg" id="Gallery-Add--Streamline-Solar" height="24" width="24"><desc>Gallery Add Streamline Icon: https://streamlinehq.com</desc><path d="M21.9998 12.6978c-0.0015 1.4696 -0.0127 2.7187 -0.0962 3.7436 -0.0969 1.1894 -0.2955 2.1832 -0.74 3.0086 -0.196 0.364 -0.4369 0.6901 -0.7302 0.9834 -0.8324 0.8323 -1.8929 1.2094 -3.2368 1.3901C15.8835 22 14.2007 22 12.0534 22h-0.1068c-2.14731 0 -3.83014 0 -5.14315 -0.1765 -1.34394 -0.1807 -2.40443 -0.5578 -3.23681 -1.3901 -0.73793 -0.738 -1.11901 -1.6564 -1.32166 -2.7958 -0.19907 -1.1192 -0.23549 -2.5117 -0.24306 -4.2409C2 12.9569 2 12.4917 2 12.0009v-0.0543c-0.00001 -2.14731 -0.00002 -3.83014 0.17651 -5.14315 0.18069 -1.34394 0.55775 -2.40443 1.39013 -3.23681 0.83238 -0.83238 1.89287 -1.20944 3.23681 -1.39013 1.16766 -0.15699 2.67001 -0.17436 4.49855 -0.17627 0.3853 -0.00041 0.698 0.31212 0.698 0.69743 0 0.38532 -0.3128 0.69753 -0.6981 0.69794 -1.85441 0.00196 -3.23439 0.01885 -4.31253 0.1638 -1.18921 0.15989 -1.90616 0.46398 -2.43607 0.99389 -0.52991 0.52991 -0.834 1.24686 -0.99389 2.43607C3.39683 8.19866 3.39535 9.7877 3.39535 12c0 0.2702 0 0.5314 0.00032 0.7844l0.93129 -0.8148c0.84769 -0.7418 2.12529 -0.6992 2.92176 0.0972l3.99048 3.9905c0.6393 0.6393 1.6456 0.7264 2.3853 0.2066l0.2774 -0.195c1.0644 -0.748 2.5045 -0.6613 3.4715 0.209l2.633 2.3697c0.265 -0.5566 0.4224 -1.2879 0.5064 -2.3195 0.0792 -0.972 0.0901 -2.1526 0.0916 -3.6302 0.0004 -0.3853 0.3126 -0.6979 0.6979 -0.6979s0.6979 0.3125 0.6975 0.6978Z" fill="#000000" stroke-width="1"></path><path fill-rule="evenodd" clip-rule="evenodd" d="M17.5 11c-2.1213 0 -3.182 0 -3.841 -0.659C13 9.68198 13 8.62132 13 6.5s0 -3.18198 0.659 -3.84099C14.318 2 15.3787 2 17.5 2s3.182 0 3.841 0.65901C22 3.31802 22 4.37868 22 6.5s0 3.18198 -0.659 3.841C20.682 11 19.6213 11 17.5 11Zm0.75 -6.5c0 -0.41421 -0.3358 -0.75 -0.75 -0.75s-0.75 0.33579 -0.75 0.75v1.25H15.5c-0.4142 0 -0.75 0.33579 -0.75 0.75s0.3358 0.75 0.75 0.75h1.25V8.5c0 0.41421 0.3358 0.75 0.75 0.75s0.75 -0.33579 0.75 -0.75V7.25h1.25c0.4142 0 0.75 -0.33579 0.75 -0.75s-0.3358 -0.75 -0.75 -0.75h-1.25V4.5Z" fill="#000000" stroke-width="1"></path></svg>