<svg width="24" height="24" viewBox="0 0 24 24" fill="none" xmlns="http://www.w3.org/2000/svg">
<path d="M8.59723 8.71635C8.59723 10.0971 7.52272 11.2163 6.19723 11.2163C4.87175 11.2163 3.79723 10.0971 3.79723 8.71635C3.79723 7.33564 4.87175 6.21635 6.19723 6.21635C7.52272 6.21635 8.59723 7.33564 8.59723 8.71635Z" fill="#FD6E00"/>
<path fill-rule="evenodd" clip-rule="evenodd" d="M0.000549316 4.50024C0.000549316 3.11953 1.07507 2.00024 2.40055 2.00024H21.6005C22.926 2.00024 24.0005 3.11953 24.0005 4.50024V19.5002C24.0005 20.8809 22.926 22.0002 21.6005 22.0002H20.0163C20.0111 22.0002 20.0058 22.0002 20.0006 22.0002H2.94753C2.94301 22.0002 2.93849 22.0002 2.93397 22.0002H2.40055C1.07507 22.0002 0.000549316 20.8809 0.000549316 19.5002V4.50024ZM2.40055 3.87524H21.6005C21.9319 3.87524 22.2006 4.15506 22.2006 4.50024V12.2904L16.9862 7.00027L8.11516 16.0003L5.50197 13.3491L1.80055 17.1043V4.50024C1.80055 4.15506 2.06918 3.87524 2.40055 3.87524Z" fill="#FD6E00"/>
</svg>
