<svg width="20" height="20" viewBox="0 0 20 20" fill="none" xmlns="http://www.w3.org/2000/svg">
<g clip-path="url(#clip0_8484_46853)">
<path fill-rule="evenodd" clip-rule="evenodd" d="M10.1416 0.833374C5.00073 0.833374 0.833252 5.00086 0.833252 10.1417C0.833252 15.2826 5.00073 19.45 10.1416 19.45C15.2824 19.45 19.4499 15.2826 19.4499 10.1417C19.4499 5.00086 15.2824 0.833374 10.1416 0.833374ZM5.77041 10.0089C5.56572 9.50231 5.53902 9.24928 5.53902 8.71605C5.53902 8.5023 5.59364 8.26345 5.63935 8.08159C5.77199 7.55381 6.07396 7.10109 6.45274 6.72245L6.65536 6.54774C7.45716 5.94273 8.47853 5.72353 9.43735 6.05719L9.82088 6.21335C9.85671 6.23259 9.88687 6.24945 9.91835 6.26706C9.94202 6.2803 9.96645 6.29397 9.9946 6.30937C10.0244 6.32568 10.0475 6.34087 10.0702 6.35585C10.0948 6.37204 10.119 6.38797 10.1509 6.40479C10.1828 6.38797 10.207 6.37204 10.2316 6.35585C10.2543 6.34087 10.2774 6.32568 10.3072 6.30937C10.3335 6.29491 10.3566 6.28199 10.3789 6.26953C10.412 6.25097 10.4433 6.23344 10.4809 6.21335L10.8644 6.05719C11.8234 5.72353 12.8446 5.94273 13.6464 6.54774L13.849 6.72245C14.2278 7.10109 14.5298 7.55381 14.6624 8.08159C14.7081 8.26345 14.7631 8.5023 14.7631 8.71605C14.7631 9.24916 14.7364 9.50231 14.5317 10.0089C14.317 10.5405 13.9581 10.8932 13.5692 11.2753C13.5217 11.322 13.4737 11.3692 13.4255 11.4171L10.9033 13.9255C10.8645 13.9641 10.8275 14.0015 10.7908 14.0385C10.7246 14.1054 10.6597 14.171 10.5884 14.2394C10.4345 14.3873 10.2879 14.4395 10.1511 14.4334C10.0144 14.4393 9.86782 14.3873 9.71384 14.2394C9.64259 14.171 9.57771 14.1054 9.51148 14.0386C9.47481 14.0015 9.43774 13.9641 9.39895 13.9255L6.87674 11.4171C6.82871 11.3693 6.78091 11.3224 6.73355 11.2758C6.34442 10.8935 5.98528 10.5407 5.77041 10.0089Z" fill="#2F3036"/>
<path fill-rule="evenodd" clip-rule="evenodd" d="M10.1416 0.833374C5.00073 0.833374 0.833252 5.00086 0.833252 10.1417C0.833252 15.2826 5.00073 19.45 10.1416 19.45C15.2824 19.45 19.4499 15.2826 19.4499 10.1417C19.4499 5.00086 15.2824 0.833374 10.1416 0.833374ZM5.77041 10.0089C5.56572 9.50231 5.53902 9.24928 5.53902 8.71605C5.53902 8.5023 5.59364 8.26345 5.63935 8.08159C5.77199 7.55381 6.07396 7.10109 6.45274 6.72245L6.65536 6.54774C7.45716 5.94273 8.47853 5.72353 9.43735 6.05719L9.82088 6.21335C9.85671 6.23259 9.88687 6.24945 9.91835 6.26706C9.94202 6.2803 9.96645 6.29397 9.9946 6.30937C10.0244 6.32568 10.0475 6.34087 10.0702 6.35585C10.0948 6.37204 10.119 6.38797 10.1509 6.40479C10.1828 6.38797 10.207 6.37204 10.2316 6.35585C10.2543 6.34087 10.2774 6.32568 10.3072 6.30937C10.3335 6.29491 10.3566 6.28199 10.3789 6.26953C10.412 6.25097 10.4433 6.23344 10.4809 6.21335L10.8644 6.05719C11.8234 5.72353 12.8446 5.94273 13.6464 6.54774L13.849 6.72245C14.2278 7.10109 14.5298 7.55381 14.6624 8.08159C14.7081 8.26345 14.7631 8.5023 14.7631 8.71605C14.7631 9.24916 14.7364 9.50231 14.5317 10.0089C14.317 10.5405 13.9581 10.8932 13.5692 11.2753C13.5217 11.322 13.4737 11.3692 13.4255 11.4171L10.9033 13.9255C10.8645 13.9641 10.8275 14.0015 10.7908 14.0385C10.7246 14.1054 10.6597 14.171 10.5884 14.2394C10.4345 14.3873 10.2879 14.4395 10.1511 14.4334C10.0144 14.4393 9.86782 14.3873 9.71384 14.2394C9.64259 14.171 9.57771 14.1054 9.51148 14.0386C9.47481 14.0015 9.43774 13.9641 9.39895 13.9255L6.87674 11.4171C6.82871 11.3693 6.78091 11.3224 6.73355 11.2758C6.34442 10.8935 5.98528 10.5407 5.77041 10.0089Z" fill="black" fill-opacity="0.2"/>
</g>
<defs>
<clipPath id="clip0_8484_46853">
<rect width="20" height="20" fill="white"/>
</clipPath>
</defs>
</svg>
