<svg width="20" height="20" viewBox="0 0 20 20" fill="none" xmlns="http://www.w3.org/2000/svg">
<path fill-rule="evenodd" clip-rule="evenodd" d="M9.30833 0.833374C4.16748 0.833374 0 5.00086 0 10.1417C0 15.2826 4.16748 19.45 9.30833 19.45C14.4492 19.45 18.6167 15.2826 18.6167 10.1417C18.6167 5.00086 14.4492 0.833374 9.30833 0.833374ZM9.58763 6.20185C9.44376 6.04136 9.19239 6.04136 9.04853 6.20185L5.24696 10.4429C5.038 10.676 5.20345 11.0465 5.51651 11.0465H6.59053C6.79045 11.0465 6.95252 11.2086 6.95252 11.4085V14.0718C6.95252 14.2717 7.11459 14.4338 7.31451 14.4338H11.3216C11.5216 14.4338 11.6836 14.2717 11.6836 14.0718V11.4085C11.6836 11.2086 11.8457 11.0465 12.0456 11.0465H13.1197C13.4328 11.0465 13.5983 10.676 13.3893 10.4429L9.58763 6.20185Z" fill="#2F3036"/>
<path fill-rule="evenodd" clip-rule="evenodd" d="M9.30833 0.833374C4.16748 0.833374 0 5.00086 0 10.1417C0 15.2826 4.16748 19.45 9.30833 19.45C14.4492 19.45 18.6167 15.2826 18.6167 10.1417C18.6167 5.00086 14.4492 0.833374 9.30833 0.833374ZM9.58763 6.20185C9.44376 6.04136 9.19239 6.04136 9.04853 6.20185L5.24696 10.4429C5.038 10.676 5.20345 11.0465 5.51651 11.0465H6.59053C6.79045 11.0465 6.95252 11.2086 6.95252 11.4085V14.0718C6.95252 14.2717 7.11459 14.4338 7.31451 14.4338H11.3216C11.5216 14.4338 11.6836 14.2717 11.6836 14.0718V11.4085C11.6836 11.2086 11.8457 11.0465 12.0456 11.0465H13.1197C13.4328 11.0465 13.5983 10.676 13.3893 10.4429L9.58763 6.20185Z" fill="black" fill-opacity="0.2"/>
</svg>
