<svg width="20" height="20" viewBox="0 0 20 20" fill="none" xmlns="http://www.w3.org/2000/svg">
<g clip-path="url(#clip0_8506_46866)">
<path fill-rule="evenodd" clip-rule="evenodd" d="M10.1416 0.833374C5.00073 0.833374 0.833252 5.00086 0.833252 10.1417C0.833252 15.2826 5.00073 19.45 10.1416 19.45C15.2824 19.45 19.4499 15.2826 19.4499 10.1417C19.4499 5.00086 15.2824 0.833374 10.1416 0.833374ZM5.92264 9.74684C5.73118 9.56719 5.64201 9.48353 5.64201 9.22836C5.64201 9.09017 5.73412 8.97931 5.81282 8.91052C5.90624 8.82888 6.03029 8.81109 6.18282 8.79024L8.54194 8.45049C8.56911 8.44194 8.57798 8.44558 8.58383 8.44282C8.59299 8.43849 8.59477 8.41851 8.64771 8.31171L9.77492 6.07033C9.96947 5.85569 10.2603 5.84084 10.4737 6.05254C10.5419 6.12024 10.6733 6.39122 10.7594 6.5689C10.7826 6.61694 10.8026 6.65816 10.8171 6.68669C10.8452 6.74184 10.8718 6.79923 10.8983 6.85661C10.9234 6.91088 10.9485 6.96515 10.9749 7.01749L11.6239 8.32325C11.667 8.4111 11.6729 8.43396 11.6872 8.44227C11.6965 8.44765 11.7093 8.44693 11.7379 8.45378L13.2408 8.66831C13.3711 8.68634 13.5004 8.70557 13.6293 8.72475C13.7859 8.74804 13.9419 8.77125 14.0985 8.79212C14.2516 8.81262 14.3695 8.83347 14.4619 8.91888C14.5368 8.98803 14.6237 9.09276 14.6237 9.22848C14.6237 9.48452 14.5314 9.57104 14.3378 9.75243C14.2937 9.79379 14.2443 9.84008 14.1895 9.89443L13.926 10.1378C13.8724 10.1905 13.8236 10.2393 13.7738 10.2891C13.7408 10.3221 13.7074 10.3554 13.672 10.3906L13.1544 10.8868C12.8056 11.2332 12.6912 11.302 12.6687 11.3934C12.6557 11.446 12.6733 11.506 12.6941 11.6309L12.8017 12.2553C12.8266 12.4057 12.8525 12.5543 12.8785 12.7044C12.9005 12.8307 12.9226 12.9581 12.9445 13.0885C12.9556 13.1542 12.9676 13.2212 12.9798 13.2898C12.9931 13.3642 13.0067 13.4404 13.0198 13.5187C13.0273 13.5634 13.0352 13.6063 13.0429 13.6485C13.0604 13.744 13.0774 13.8362 13.0881 13.9387C13.1152 14.1996 12.886 14.434 12.6238 14.434C12.4739 14.434 12.1419 14.2519 11.8803 14.1085C11.7884 14.0581 11.7052 14.0124 11.6415 13.9811C11.6271 13.974 11.6134 13.9673 11.5998 13.9606C11.5644 13.9433 11.5303 13.9265 11.4891 13.9061L11.0331 13.6623C10.9348 13.6078 10.1639 13.2009 10.1211 13.2067L8.13325 14.2427C8.10184 14.2588 8.07291 14.2729 8.04209 14.2879C8.02281 14.2972 8.00278 14.307 7.98095 14.3178C7.96224 14.3271 7.94401 14.3367 7.92583 14.3464C7.84273 14.3905 7.76093 14.4339 7.64181 14.4339C7.3625 14.4339 7.14717 14.1832 7.1797 13.9241C7.20382 13.7322 7.23837 13.5448 7.27243 13.3601C7.29016 13.2639 7.30776 13.1684 7.32369 13.0734L7.57652 11.6009C7.59477 11.4973 7.6119 11.4467 7.60286 11.4013C7.58579 11.3157 7.47533 11.2486 7.10254 10.878C7.05687 10.8326 7.01392 10.7944 6.9709 10.756C6.92803 10.7179 6.88511 10.6796 6.83937 10.6343C6.7807 10.5759 6.72755 10.5232 6.67264 10.4688C6.64423 10.4406 6.61535 10.4119 6.58499 10.3818L6.06744 9.8856C6.01391 9.83246 5.96569 9.78722 5.92264 9.74684Z" fill="#2F3036"/>
<path fill-rule="evenodd" clip-rule="evenodd" d="M10.1416 0.833374C5.00073 0.833374 0.833252 5.00086 0.833252 10.1417C0.833252 15.2826 5.00073 19.45 10.1416 19.45C15.2824 19.45 19.4499 15.2826 19.4499 10.1417C19.4499 5.00086 15.2824 0.833374 10.1416 0.833374ZM5.92264 9.74684C5.73118 9.56719 5.64201 9.48353 5.64201 9.22836C5.64201 9.09017 5.73412 8.97931 5.81282 8.91052C5.90624 8.82888 6.03029 8.81109 6.18282 8.79024L8.54194 8.45049C8.56911 8.44194 8.57798 8.44558 8.58383 8.44282C8.59299 8.43849 8.59477 8.41851 8.64771 8.31171L9.77492 6.07033C9.96947 5.85569 10.2603 5.84084 10.4737 6.05254C10.5419 6.12024 10.6733 6.39122 10.7594 6.5689C10.7826 6.61694 10.8026 6.65816 10.8171 6.68669C10.8452 6.74184 10.8718 6.79923 10.8983 6.85661C10.9234 6.91088 10.9485 6.96515 10.9749 7.01749L11.6239 8.32325C11.667 8.4111 11.6729 8.43396 11.6872 8.44227C11.6965 8.44765 11.7093 8.44693 11.7379 8.45378L13.2408 8.66831C13.3711 8.68634 13.5004 8.70557 13.6293 8.72475C13.7859 8.74804 13.9419 8.77125 14.0985 8.79212C14.2516 8.81262 14.3695 8.83347 14.4619 8.91888C14.5368 8.98803 14.6237 9.09276 14.6237 9.22848C14.6237 9.48452 14.5314 9.57104 14.3378 9.75243C14.2937 9.79379 14.2443 9.84008 14.1895 9.89443L13.926 10.1378C13.8724 10.1905 13.8236 10.2393 13.7738 10.2891C13.7408 10.3221 13.7074 10.3554 13.672 10.3906L13.1544 10.8868C12.8056 11.2332 12.6912 11.302 12.6687 11.3934C12.6557 11.446 12.6733 11.506 12.6941 11.6309L12.8017 12.2553C12.8266 12.4057 12.8525 12.5543 12.8785 12.7044C12.9005 12.8307 12.9226 12.9581 12.9445 13.0885C12.9556 13.1542 12.9676 13.2212 12.9798 13.2898C12.9931 13.3642 13.0067 13.4404 13.0198 13.5187C13.0273 13.5634 13.0352 13.6063 13.0429 13.6485C13.0604 13.744 13.0774 13.8362 13.0881 13.9387C13.1152 14.1996 12.886 14.434 12.6238 14.434C12.4739 14.434 12.1419 14.2519 11.8803 14.1085C11.7884 14.0581 11.7052 14.0124 11.6415 13.9811C11.6271 13.974 11.6134 13.9673 11.5998 13.9606C11.5644 13.9433 11.5303 13.9265 11.4891 13.9061L11.0331 13.6623C10.9348 13.6078 10.1639 13.2009 10.1211 13.2067L8.13325 14.2427C8.10184 14.2588 8.07291 14.2729 8.04209 14.2879C8.02281 14.2972 8.00278 14.307 7.98095 14.3178C7.96224 14.3271 7.94401 14.3367 7.92583 14.3464C7.84273 14.3905 7.76093 14.4339 7.64181 14.4339C7.3625 14.4339 7.14717 14.1832 7.1797 13.9241C7.20382 13.7322 7.23837 13.5448 7.27243 13.3601C7.29016 13.2639 7.30776 13.1684 7.32369 13.0734L7.57652 11.6009C7.59477 11.4973 7.6119 11.4467 7.60286 11.4013C7.58579 11.3157 7.47533 11.2486 7.10254 10.878C7.05687 10.8326 7.01392 10.7944 6.9709 10.756C6.92803 10.7179 6.88511 10.6796 6.83937 10.6343C6.7807 10.5759 6.72755 10.5232 6.67264 10.4688C6.64423 10.4406 6.61535 10.4119 6.58499 10.3818L6.06744 9.8856C6.01391 9.83246 5.96569 9.78722 5.92264 9.74684Z" fill="black" fill-opacity="0.2"/>
</g>
<defs>
<clipPath id="clip0_8506_46866">
<rect width="20" height="20" fill="white"/>
</clipPath>
</defs>
</svg>
