<svg width="20" height="20" viewBox="0 0 20 20" fill="none" xmlns="http://www.w3.org/2000/svg">
<path fill-rule="evenodd" clip-rule="evenodd" d="M1.20715 7.48517V12.5176C1.20715 14.8899 1.20715 16.0761 1.95362 16.8131C2.63184 17.4826 3.68547 17.5439 5.67437 17.5496C5.56932 16.8519 5.54731 16.0185 5.54177 15.038C5.53947 14.6211 5.87989 14.2813 6.30208 14.2789C6.72436 14.2766 7.06857 14.6128 7.07095 15.0296C7.07712 16.1302 7.1061 16.9104 7.21622 17.5024C7.32238 18.0728 7.49283 18.403 7.74102 18.6481C8.02317 18.9267 8.41924 19.1083 9.16736 19.2075C9.93734 19.3098 10.958 19.3114 12.4213 19.3114H13.4407C14.9039 19.3114 15.9246 19.3098 16.6945 19.2075C17.4427 19.1083 17.8387 18.9267 18.1209 18.6481C18.403 18.3696 18.587 17.9784 18.6875 17.2399C18.7911 16.4797 18.7928 15.4721 18.7928 14.0273V5.97546C18.7928 4.53075 18.7911 3.52312 18.6875 2.76288C18.587 2.02434 18.403 1.63325 18.1209 1.35466C17.8387 1.07616 17.4427 0.894548 16.6945 0.795194C15.9246 0.69299 14.9039 0.691406 13.4407 0.691406H12.4213C10.958 0.691406 9.93734 0.69299 9.16736 0.795194C8.41924 0.894548 8.02317 1.07616 7.74102 1.35466C7.49283 1.59969 7.32238 1.92997 7.21622 2.50044C7.1061 3.09245 7.07712 3.87256 7.07095 4.97321C7.06857 5.39011 6.72436 5.72617 6.30208 5.72379C5.87989 5.7215 5.53947 5.38171 5.54177 4.96474C5.54731 3.98426 5.56932 3.15088 5.67437 2.45334C3.68547 2.45896 2.63184 2.52016 1.95362 3.18975C1.20715 3.92671 1.20715 5.11286 1.20715 7.48517ZM3.72489 10.5351C3.42627 10.2403 3.42627 9.76248 3.72489 9.46766L5.76375 7.45469C6.06237 7.15988 6.54647 7.15988 6.84501 7.45469C7.14362 7.74943 7.14362 8.22744 6.84501 8.52226L6.11137 9.24655H13.4404C13.8627 9.24655 14.2051 9.58451 14.2051 10.0014C14.2051 10.4183 13.8627 10.7563 13.4404 10.7563H6.11137L6.84501 11.4806C7.14362 11.7754 7.14362 12.2534 6.84501 12.5481C6.54647 12.8429 6.06237 12.8429 5.76375 12.5481L3.72489 10.5351Z" fill="#ED3241"/>
</svg>
