<svg width="24" height="24" viewBox="0 0 24 24" fill="none" xmlns="http://www.w3.org/2000/svg">
<path fill-rule="evenodd" clip-rule="evenodd" d="M17.5 2.75049C17.9142 2.75049 18.25 3.08628 18.25 3.50049V5.75049H20.5C20.9142 5.75049 21.25 6.08628 21.25 6.50049C21.25 6.9147 20.9142 7.25049 20.5 7.25049H18.25V9.50049C18.25 9.9147 17.9142 10.2505 17.5 10.2505C17.0858 10.2505 16.75 9.9147 16.75 9.50049V7.25049H14.5C14.0858 7.25049 13.75 6.9147 13.75 6.50049C13.75 6.08628 14.0858 5.75049 14.5 5.75049H16.75V3.50049C16.75 3.08628 17.0858 2.75049 17.5 2.75049Z" fill="url(#paint0_linear_8418_58990)"/>
<path d="M2 6.50049C2 4.37917 2 3.31851 2.65901 2.6595C3.31802 2.00049 4.37868 2.00049 6.5 2.00049C8.62132 2.00049 9.68198 2.00049 10.341 2.6595C11 3.31851 11 4.37917 11 6.50049C11 8.62181 11 9.68247 10.341 10.3415C9.68198 11.0005 8.62132 11.0005 6.5 11.0005C4.37868 11.0005 3.31802 11.0005 2.65901 10.3415C2 9.68247 2 8.62181 2 6.50049Z" fill="url(#paint1_linear_8418_58990)"/>
<path d="M13 17.5005C13 15.3792 13 14.3185 13.659 13.6595C14.318 13.0005 15.3787 13.0005 17.5 13.0005C19.6213 13.0005 20.682 13.0005 21.341 13.6595C22 14.3185 22 15.3792 22 17.5005C22 19.6218 22 20.6825 21.341 21.3415C20.682 22.0005 19.6213 22.0005 17.5 22.0005C15.3787 22.0005 14.318 22.0005 13.659 21.3415C13 20.6825 13 19.6218 13 17.5005Z" fill="url(#paint2_linear_8418_58990)"/>
<path d="M2 17.5005C2 15.3792 2 14.3185 2.65901 13.6595C3.31802 13.0005 4.37868 13.0005 6.5 13.0005C8.62132 13.0005 9.68198 13.0005 10.341 13.6595C11 14.3185 11 15.3792 11 17.5005C11 19.6218 11 20.6825 10.341 21.3415C9.68198 22.0005 8.62132 22.0005 6.5 22.0005C4.37868 22.0005 3.31802 22.0005 2.65901 21.3415C2 20.6825 2 19.6218 2 17.5005Z" fill="url(#paint3_linear_8418_58990)"/>
<defs>
<linearGradient id="paint0_linear_8418_58990" x1="17.5" y1="2.75049" x2="17.5" y2="10.2505" gradientUnits="userSpaceOnUse">
<stop stop-color="#3A96C0"/>
<stop offset="1" stop-color="#296582"/>
</linearGradient>
<linearGradient id="paint1_linear_8418_58990" x1="6.5" y1="2.00049" x2="6.5" y2="11.0005" gradientUnits="userSpaceOnUse">
<stop stop-color="#3A96C0"/>
<stop offset="1" stop-color="#296582"/>
</linearGradient>
<linearGradient id="paint2_linear_8418_58990" x1="17.5" y1="13.0005" x2="17.5" y2="22.0005" gradientUnits="userSpaceOnUse">
<stop stop-color="#3A96C0"/>
<stop offset="1" stop-color="#296582"/>
</linearGradient>
<linearGradient id="paint3_linear_8418_58990" x1="6.5" y1="13.0005" x2="6.5" y2="22.0005" gradientUnits="userSpaceOnUse">
<stop stop-color="#3A96C0"/>
<stop offset="1" stop-color="#296582"/>
</linearGradient>
</defs>
</svg>
