<svg width="20" height="20" viewBox="0 0 20 20" fill="none" xmlns="http://www.w3.org/2000/svg">
<g clip-path="url(#clip0_4079_36362)">
<path d="M10 3.25391H8.31353C5.13338 3.25391 3.54338 3.25391 2.5554 4.24181C1.5675 5.22978 1.5675 6.81978 1.5675 9.99993C1.5675 13.18 1.5675 14.7702 2.5554 15.758C3.54338 16.746 5.13338 16.746 8.31353 16.746H10M12.5298 3.25468C15.156 3.26239 16.5482 3.34533 17.4447 4.24181C18.4326 5.22978 18.4326 6.81978 18.4326 9.99993C18.4326 13.18 18.4326 14.7702 17.4447 15.758C16.5482 16.6545 15.156 16.7376 12.5298 16.7452" stroke="#2F3036" stroke-width="1.5" stroke-linecap="round"/>
<path d="M7.4702 9.99954C7.4702 10.4653 7.09272 10.8428 6.62698 10.8428C6.16125 10.8428 5.78369 10.4653 5.78369 9.99954C5.78369 9.5338 6.16125 9.15625 6.62698 9.15625C7.09272 9.15625 7.4702 9.5338 7.4702 9.99954Z" fill="#2F3036"/>
<path d="M10.8432 9.99954C10.8432 10.4653 10.4657 10.8428 9.99995 10.8428C9.53422 10.8428 9.15674 10.4653 9.15674 9.99954C9.15674 9.5338 9.53422 9.15625 9.99995 9.15625C10.4657 9.15625 10.8432 9.5338 10.8432 9.99954Z" fill="#2F3036"/>
<path d="M12.5298 1.56641V18.4315" stroke="#2F3036" stroke-width="1.5" stroke-linecap="round"/>
</g>
<defs>
<clipPath id="clip0_4079_36362">
<rect width="20" height="20" fill="white"/>
</clipPath>
</defs>
</svg>
