<svg width="20" height="20" viewBox="0 0 20 20" fill="none" xmlns="http://www.w3.org/2000/svg">
<path d="M12.1751 1.02101C11.8218 0.930071 11.4616 1.14279 11.3707 1.49613C11.2798 1.84947 11.4925 2.20963 11.8458 2.30057C14.708 3.03726 16.9628 5.29207 17.6995 8.15428C17.7904 8.50765 18.1505 8.72038 18.5039 8.62938C18.8572 8.53848 19.07 8.17828 18.979 7.82495C18.1224 4.49655 15.5035 1.87768 12.1751 1.02101Z" fill="#2F3036"/>
<path d="M12.1751 1.02101C11.8218 0.930071 11.4616 1.14279 11.3707 1.49613C11.2798 1.84947 11.4925 2.20963 11.8458 2.30057C14.708 3.03726 16.9628 5.29207 17.6995 8.15428C17.7904 8.50765 18.1505 8.72038 18.5039 8.62938C18.8572 8.53848 19.07 8.17828 18.979 7.82495C18.1224 4.49655 15.5035 1.87768 12.1751 1.02101Z" fill="black" fill-opacity="0.2"/>
<path d="M6.37819 2.07849C5.86897 2.29379 5.37877 2.55755 4.9147 2.86764C3.46618 3.83552 2.33719 5.21121 1.6705 6.82074C1.00381 8.43027 0.829383 10.2014 1.16925 11.91C1.50912 13.6187 2.34804 15.1882 3.57992 16.42C4.81179 17.652 6.38129 18.4909 8.08994 18.8307C9.79859 19.1706 11.5697 18.9961 13.1792 18.3295C14.7887 17.6628 16.1644 16.5338 17.1323 15.0853C17.4423 14.6212 17.7061 14.131 17.9214 13.6218C18.4438 12.3861 18.7051 11.7681 18.1825 10.9799C17.66 10.1916 16.8044 10.1916 15.0934 10.1916H13.3317C11.6708 10.1916 10.8404 10.1916 10.3244 9.6756C9.80837 9.1596 9.80837 8.32914 9.80837 6.6682V4.90652C9.80837 3.19547 9.80837 2.33994 9.02011 1.81737C8.23178 1.29482 7.61387 1.55606 6.37819 2.07849Z" fill="#2F3036"/>
<path d="M6.37819 2.07849C5.86897 2.29379 5.37877 2.55755 4.9147 2.86764C3.46618 3.83552 2.33719 5.21121 1.6705 6.82074C1.00381 8.43027 0.829383 10.2014 1.16925 11.91C1.50912 13.6187 2.34804 15.1882 3.57992 16.42C4.81179 17.652 6.38129 18.4909 8.08994 18.8307C9.79859 19.1706 11.5697 18.9961 13.1792 18.3295C14.7887 17.6628 16.1644 16.5338 17.1323 15.0853C17.4423 14.6212 17.7061 14.131 17.9214 13.6218C18.4438 12.3861 18.7051 11.7681 18.1825 10.9799C17.66 10.1916 16.8044 10.1916 15.0934 10.1916H13.3317C11.6708 10.1916 10.8404 10.1916 10.3244 9.6756C9.80837 9.1596 9.80837 8.32914 9.80837 6.6682V4.90652C9.80837 3.19547 9.80837 2.33994 9.02011 1.81737C8.23178 1.29482 7.61387 1.55606 6.37819 2.07849Z" fill="black" fill-opacity="0.2"/>
</svg>
