<svg viewBox="0 0 24 24" fill="none" xmlns="http://www.w3.org/2000/svg" id="Pipette--Streamline-Solar" height="24" width="24"><desc>Pipette Streamline Icon: https://streamlinehq.com</desc><path d="m10.2413 5.75308 8.0056 8.00562c0.6029 0.6029 1.5804 0.6029 2.1833 0 0.603 -0.6029 0.603 -1.5804 0 -2.1833l-1.0916 -1.0917 1.4555 -1.45558c1.6078 -1.60778 1.6078 -4.21451 0 -5.82229 -1.6077 -1.60777 -4.2145 -1.60777 -5.8222 0L13.5163 4.6614l-1.0917 -1.09167c-0.6029 -0.60292 -1.5804 -0.60292 -2.1833 0 -0.60297 0.60291 -0.60297 1.58044 0 2.18335Z" fill="#000000" stroke-width="1"></path><path d="M10.2723 7.90542 4.70889 13.4688c-0.45599 0.456 -0.684 0.684 -0.82873 0.9571 -0.09654 0.1822 -0.16517 0.3778 -0.20358 0.5804 -0.05759 0.3036 -0.02198 0.6241 0.04923 1.265l0.05281 0.4753c0.01944 0.1749 0.02915 0.2624 0.0316 0.3463 0.01482 0.5084 -0.15915 1.0044 -0.48836 1.3922 -0.05433 0.064 -0.11654 0.1262 -0.24096 0.2506l-0.62871 0.6287c-0.60292 0.6029 -0.60292 1.5805 0 2.1834 0.60291 0.6029 1.58044 0.6029 2.18335 0l0.62875 -0.6288c0.1244 -0.1244 0.1866 -0.1866 0.25059 -0.2409 0.38779 -0.3292 0.88374 -0.5032 1.39221 -0.4884 0.0839 0.0025 0.17135 0.0122 0.34623 0.0316l0.47531 0.0529c0.64094 0.0712 0.96141 0.1068 1.26508 0.0492 0.20256 -0.0384 0.39819 -0.1071 0.58036 -0.2036 0.2731 -0.1447 0.50113 -0.3727 0.95713 -0.8287l1.4384 -1.4386 -1.8534 -1.8534c-0.29294 -0.2929 -0.29294 -0.7678 0 -1.0607 0.2928 -0.2929 0.7677 -0.2929 1.0606 0l1.8535 1.8535 0.9393 -0.9394 -1.8534 -1.8534c-0.2929 -0.2929 -0.2929 -0.7678 0 -1.0607 0.2928 -0.2929 0.7677 -0.2929 1.0606 0l1.8535 1.8535 1.0642 -1.0642 -5.8222 -5.82228Z" fill="#000000" stroke-width="1"></path></svg>