<svg width="20" height="20" viewBox="0 0 20 20" fill="none" xmlns="http://www.w3.org/2000/svg">
<path fill-rule="evenodd" clip-rule="evenodd" d="M13.6 5H6.4C3.85444 5 2.58166 5 1.79079 5.73672C1 6.47351 1 7.65926 1 10.0308C1 12.4023 1 13.588 1.79079 14.3248C2.23589 14.7395 2.83367 14.9208 3.72518 15C3.7 14.394 3.7 13.6799 3.7 12.9654C3.45151 12.9654 3.25 12.7777 3.25 12.5461C3.25 12.3146 3.45151 12.1269 3.7 12.1269H16.3C16.5485 12.1269 16.75 12.3146 16.75 12.5461C16.75 12.7777 16.5485 12.9657 16.3 12.9657C16.3 13.6801 16.3 14.394 16.2749 15C17.1663 14.9208 17.7641 14.7395 18.2092 14.3248C19 13.588 19 12.4023 19 10.0308C19 7.65926 19 6.47351 18.2092 5.73672C17.4183 5 16.1456 5 13.6 5ZM7.3 8.98269C7.67278 8.98269 7.975 8.70113 7.975 8.35384C7.975 8.00655 7.67278 7.725 7.3 7.725H4.6C4.22722 7.725 3.925 8.00655 3.925 8.35384C3.925 8.70113 4.22722 8.98269 4.6 8.98269H7.3ZM14.5 9.1923C14.9971 9.1923 15.4 8.81692 15.4 8.35384C15.4 7.89076 14.9971 7.51538 14.5 7.51538C14.0029 7.51538 13.6 7.89076 13.6 8.35384C13.6 8.81692 14.0029 9.1923 14.5 9.1923Z" fill="#2F3036"/>
<path fill-rule="evenodd" clip-rule="evenodd" d="M13.6 5H6.4C3.85444 5 2.58166 5 1.79079 5.73672C1 6.47351 1 7.65926 1 10.0308C1 12.4023 1 13.588 1.79079 14.3248C2.23589 14.7395 2.83367 14.9208 3.72518 15C3.7 14.394 3.7 13.6799 3.7 12.9654C3.45151 12.9654 3.25 12.7777 3.25 12.5461C3.25 12.3146 3.45151 12.1269 3.7 12.1269H16.3C16.5485 12.1269 16.75 12.3146 16.75 12.5461C16.75 12.7777 16.5485 12.9657 16.3 12.9657C16.3 13.6801 16.3 14.394 16.2749 15C17.1663 14.9208 17.7641 14.7395 18.2092 14.3248C19 13.588 19 12.4023 19 10.0308C19 7.65926 19 6.47351 18.2092 5.73672C17.4183 5 16.1456 5 13.6 5ZM7.3 8.98269C7.67278 8.98269 7.975 8.70113 7.975 8.35384C7.975 8.00655 7.67278 7.725 7.3 7.725H4.6C4.22722 7.725 3.925 8.00655 3.925 8.35384C3.925 8.70113 4.22722 8.98269 4.6 8.98269H7.3ZM14.5 9.1923C14.9971 9.1923 15.4 8.81692 15.4 8.35384C15.4 7.89076 14.9971 7.51538 14.5 7.51538C14.0029 7.51538 13.6 7.89076 13.6 8.35384C13.6 8.81692 14.0029 9.1923 14.5 9.1923Z" fill="black" fill-opacity="0.2"/>
<path d="M14.3216 1.87432C13.5801 1 12.3868 1 10.0001 1C7.6133 1 6.41995 1 5.67844 1.87432C5.26298 2.36432 5.08037 3.02152 5 4C5.47193 3.98519 5.99359 3.98519 6.56533 3.98519H13.4351C14.0068 3.98519 14.5282 3.98519 15 3.99992C14.9197 3.02152 14.7371 2.36432 14.3216 1.87432Z" fill="#2F3036"/>
<path d="M14.3216 1.87432C13.5801 1 12.3868 1 10.0001 1C7.6133 1 6.41995 1 5.67844 1.87432C5.26298 2.36432 5.08037 3.02152 5 4C5.47193 3.98519 5.99359 3.98519 6.56533 3.98519H13.4351C14.0068 3.98519 14.5282 3.98519 15 3.99992C14.9197 3.02152 14.7371 2.36432 14.3216 1.87432Z" fill="black" fill-opacity="0.2"/>
<path d="M15 13C15 15.6108 15 17.3778 14.2678 18.1889C13.5355 19 12.357 19 10 19C7.643 19 6.4645 19 5.73221 18.1889C5 17.3778 5 15.6108 5 13H15Z" fill="#2F3036"/>
<path d="M15 13C15 15.6108 15 17.3778 14.2678 18.1889C13.5355 19 12.357 19 10 19C7.643 19 6.4645 19 5.73221 18.1889C5 17.3778 5 15.6108 5 13H15Z" fill="black" fill-opacity="0.2"/>
</svg>
