<svg width="20" height="20" viewBox="0 0 20 20" fill="none" xmlns="http://www.w3.org/2000/svg">
<path fill-rule="evenodd" clip-rule="evenodd" d="M19 10C19 14.9705 14.9705 19 10 19C5.02943 19 1 14.9705 1 10C1 5.02943 5.02943 1 10 1C14.9705 1 19 5.02943 19 10ZM12.7 7.3C12.7 8.79121 11.4912 10 10 10C8.50879 10 7.3 8.79121 7.3 7.3C7.3 5.80884 8.50879 4.6 10 4.6C11.4912 4.6 12.7 5.80884 12.7 7.3ZM10 17.65C11.6056 17.65 13.0957 17.1554 14.3262 16.3101C14.8697 15.9368 15.1019 15.2256 14.786 14.6469C14.131 13.4473 12.7812 12.7 9.99991 12.7C7.21872 12.7 5.86897 13.4472 5.21393 14.6469C4.89794 15.2256 5.13019 15.9367 5.67366 16.31C6.90416 17.1553 8.39431 17.65 10 17.65Z" fill="#2F3036"/>
<path fill-rule="evenodd" clip-rule="evenodd" d="M19 10C19 14.9705 14.9705 19 10 19C5.02943 19 1 14.9705 1 10C1 5.02943 5.02943 1 10 1C14.9705 1 19 5.02943 19 10ZM12.7 7.3C12.7 8.79121 11.4912 10 10 10C8.50879 10 7.3 8.79121 7.3 7.3C7.3 5.80884 8.50879 4.6 10 4.6C11.4912 4.6 12.7 5.80884 12.7 7.3ZM10 17.65C11.6056 17.65 13.0957 17.1554 14.3262 16.3101C14.8697 15.9368 15.1019 15.2256 14.786 14.6469C14.131 13.4473 12.7812 12.7 9.99991 12.7C7.21872 12.7 5.86897 13.4472 5.21393 14.6469C4.89794 15.2256 5.13019 15.9367 5.67366 16.31C6.90416 17.1553 8.39431 17.65 10 17.65Z" fill="black" fill-opacity="0.2"/>
</svg>
