<svg width="12" height="13" viewBox="0 0 12 13" fill="none" xmlns="http://www.w3.org/2000/svg">
<path fill-rule="evenodd" clip-rule="evenodd" d="M9.42783 10.1396C10.4322 9.19589 11.0011 7.87851 10.9996 6.50029C10.9996 3.73888 8.76119 1.50049 5.99977 1.50049C3.23836 1.50049 0.999973 3.73888 0.999973 6.50029C0.9984 7.87851 1.56734 9.19589 2.57172 10.1396C3.4983 11.0149 4.72512 11.5018 5.99977 11.5001C7.27443 11.5018 8.50125 11.0149 9.42783 10.1396ZM2.99734 9.48066C3.72665 8.56824 4.83171 8.03752 5.99977 8.03871C7.16784 8.03752 8.2729 8.56828 9.00221 9.4807C8.20883 10.2821 7.12749 10.7324 5.99977 10.7309C4.87206 10.7324 3.79072 10.282 2.99734 9.48066ZM7.92278 4.96187C7.92278 6.44221 6.32025 7.36743 5.03829 6.62724C4.44329 6.28376 4.07676 5.64892 4.07676 4.96187C4.07676 3.48157 5.67929 2.55636 6.96126 3.29651C7.55626 3.64003 7.92278 4.27487 7.92278 4.96187Z" fill="#8F9098"/>
</svg>
