<svg width="20" height="20" viewBox="0 0 20 20" fill="none" xmlns="http://www.w3.org/2000/svg">
<path fill-rule="evenodd" clip-rule="evenodd" d="M7.24069 1.03367C7.61102 1.06888 7.95617 1.14525 8.2727 1.33926C8.5825 1.52913 8.84293 1.78956 9.03288 2.09936C9.22681 2.41589 9.30319 2.76104 9.33839 3.13137C9.37207 3.48483 9.37207 3.91996 9.37207 4.44094V5.43892C9.37214 6.19106 9.37214 6.8183 9.30518 7.31628C9.23454 7.8419 9.07911 8.31646 8.69776 8.69773C8.31648 9.07909 7.84191 9.23452 7.3163 9.30516C6.81832 9.37212 6.19107 9.37212 5.43885 9.37204H4.44087C3.91982 9.37204 3.48484 9.37204 3.13138 9.33837C2.76105 9.30317 2.41589 9.22679 2.09936 9.03286C1.78957 8.84291 1.52913 8.58248 1.33926 8.27268C1.14526 7.95616 1.06888 7.611 1.03367 7.24067C1 6.88641 1 6.45019 1 5.92756V5.86611C1 5.07073 1 4.42925 1.04913 3.9129C1.09972 3.38033 1.20694 2.9164 1.46263 2.49915C1.72153 2.07671 2.07671 1.72153 2.49916 1.46263C2.9164 1.20694 3.38033 1.09972 3.91291 1.04913C4.42926 1 5.07074 1 5.8662 1H5.92758C6.45028 1 6.88643 1 7.24069 1.03367ZM5.18607 6.23254C4.75451 6.23254 4.53878 6.23254 4.38648 6.12448C4.33268 6.08629 4.28577 6.03937 4.24765 5.98565C4.13952 5.83328 4.13952 5.61754 4.13952 5.18606C4.13952 4.75451 4.13952 4.53877 4.24765 4.38647C4.28577 4.33267 4.33268 4.28576 4.38648 4.24764C4.53878 4.13951 4.75459 4.13951 5.18607 4.13951C5.61755 4.13951 5.83329 4.13951 5.98566 4.24764C6.03939 4.28576 6.0863 4.33267 6.12449 4.38647C6.23255 4.53877 6.23255 4.75458 6.23255 5.18606C6.23255 5.61753 6.23255 5.83328 6.12449 5.98565C6.0863 6.03937 6.03939 6.08629 5.98566 6.12448C5.83329 6.23254 5.61754 6.23254 5.18607 6.23254Z" fill="#2F3036"/>
<path fill-rule="evenodd" clip-rule="evenodd" d="M7.24069 1.03367C7.61102 1.06888 7.95617 1.14525 8.2727 1.33926C8.5825 1.52913 8.84293 1.78956 9.03288 2.09936C9.22681 2.41589 9.30319 2.76104 9.33839 3.13137C9.37207 3.48483 9.37207 3.91996 9.37207 4.44094V5.43892C9.37214 6.19106 9.37214 6.8183 9.30518 7.31628C9.23454 7.8419 9.07911 8.31646 8.69776 8.69773C8.31648 9.07909 7.84191 9.23452 7.3163 9.30516C6.81832 9.37212 6.19107 9.37212 5.43885 9.37204H4.44087C3.91982 9.37204 3.48484 9.37204 3.13138 9.33837C2.76105 9.30317 2.41589 9.22679 2.09936 9.03286C1.78957 8.84291 1.52913 8.58248 1.33926 8.27268C1.14526 7.95616 1.06888 7.611 1.03367 7.24067C1 6.88641 1 6.45019 1 5.92756V5.86611C1 5.07073 1 4.42925 1.04913 3.9129C1.09972 3.38033 1.20694 2.9164 1.46263 2.49915C1.72153 2.07671 2.07671 1.72153 2.49916 1.46263C2.9164 1.20694 3.38033 1.09972 3.91291 1.04913C4.42926 1 5.07074 1 5.8662 1H5.92758C6.45028 1 6.88643 1 7.24069 1.03367ZM5.18607 6.23254C4.75451 6.23254 4.53878 6.23254 4.38648 6.12448C4.33268 6.08629 4.28577 6.03937 4.24765 5.98565C4.13952 5.83328 4.13952 5.61754 4.13952 5.18606C4.13952 4.75451 4.13952 4.53877 4.24765 4.38647C4.28577 4.33267 4.33268 4.28576 4.38648 4.24764C4.53878 4.13951 4.75459 4.13951 5.18607 4.13951C5.61755 4.13951 5.83329 4.13951 5.98566 4.24764C6.03939 4.28576 6.0863 4.33267 6.12449 4.38647C6.23255 4.53877 6.23255 4.75458 6.23255 5.18606C6.23255 5.61753 6.23255 5.83328 6.12449 5.98565C6.0863 6.03937 6.03939 6.08629 5.98566 6.12448C5.83329 6.23254 5.61754 6.23254 5.18607 6.23254Z" fill="black" fill-opacity="0.2"/>
<path fill-rule="evenodd" clip-rule="evenodd" d="M14.1339 1H14.0724C13.5498 1 13.1135 1 12.7593 1.03367C12.389 1.06888 12.0438 1.14525 11.7273 1.33926C11.4175 1.52913 11.157 1.78956 10.9671 2.09936C10.7732 2.41589 10.6968 2.76104 10.6616 3.13137C10.6279 3.48483 10.6279 3.91989 10.6279 4.44094V5.43884C10.6278 6.19106 10.6278 6.8183 10.6948 7.31628C10.7654 7.8419 10.9209 8.31646 11.3022 8.69773C11.6835 9.07909 12.1581 9.23452 12.6837 9.30516C13.1817 9.37212 13.8089 9.37212 14.5611 9.37204H15.559C16.0801 9.37204 16.5151 9.37204 16.8686 9.33837C17.2389 9.30317 17.584 9.22679 17.9006 9.03286C18.2104 8.84291 18.4708 8.58248 18.6607 8.27268C18.8547 7.95616 18.9311 7.611 18.9663 7.24067C19 6.88641 19 6.45027 19 5.92764V5.86611C19 5.07073 19 4.42925 18.9509 3.9129C18.9003 3.38033 18.793 2.91632 18.5374 2.49915C18.2784 2.07671 17.9233 1.72153 17.5008 1.46263C17.0836 1.20694 16.6196 1.09972 16.0871 1.04906C15.5707 1 14.9293 1 14.1339 1ZM14.0143 6.12448C14.1667 6.23254 14.3824 6.23254 14.8139 6.23254C15.2455 6.23254 15.4612 6.23254 15.6136 6.12448C15.6673 6.08629 15.7142 6.03937 15.7523 5.98565C15.8605 5.83328 15.8605 5.61754 15.8605 5.18606C15.8605 4.75451 15.8605 4.53877 15.7523 4.38647C15.7142 4.33267 15.6673 4.28576 15.6136 4.24764C15.4612 4.13951 15.2455 4.13951 14.8139 4.13951C14.3824 4.13951 14.1667 4.13951 14.0143 4.24764C13.9606 4.28576 13.9136 4.33267 13.8755 4.38647C13.7673 4.53877 13.7673 4.75458 13.7673 5.18606C13.7673 5.61754 13.7673 5.83328 13.8755 5.98565C13.9136 6.03937 13.9606 6.08629 14.0143 6.12448Z" fill="#2F3036"/>
<path fill-rule="evenodd" clip-rule="evenodd" d="M14.1339 1H14.0724C13.5498 1 13.1135 1 12.7593 1.03367C12.389 1.06888 12.0438 1.14525 11.7273 1.33926C11.4175 1.52913 11.157 1.78956 10.9671 2.09936C10.7732 2.41589 10.6968 2.76104 10.6616 3.13137C10.6279 3.48483 10.6279 3.91989 10.6279 4.44094V5.43884C10.6278 6.19106 10.6278 6.8183 10.6948 7.31628C10.7654 7.8419 10.9209 8.31646 11.3022 8.69773C11.6835 9.07909 12.1581 9.23452 12.6837 9.30516C13.1817 9.37212 13.8089 9.37212 14.5611 9.37204H15.559C16.0801 9.37204 16.5151 9.37204 16.8686 9.33837C17.2389 9.30317 17.584 9.22679 17.9006 9.03286C18.2104 8.84291 18.4708 8.58248 18.6607 8.27268C18.8547 7.95616 18.9311 7.611 18.9663 7.24067C19 6.88641 19 6.45027 19 5.92764V5.86611C19 5.07073 19 4.42925 18.9509 3.9129C18.9003 3.38033 18.793 2.91632 18.5374 2.49915C18.2784 2.07671 17.9233 1.72153 17.5008 1.46263C17.0836 1.20694 16.6196 1.09972 16.0871 1.04906C15.5707 1 14.9293 1 14.1339 1ZM14.0143 6.12448C14.1667 6.23254 14.3824 6.23254 14.8139 6.23254C15.2455 6.23254 15.4612 6.23254 15.6136 6.12448C15.6673 6.08629 15.7142 6.03937 15.7523 5.98565C15.8605 5.83328 15.8605 5.61754 15.8605 5.18606C15.8605 4.75451 15.8605 4.53877 15.7523 4.38647C15.7142 4.33267 15.6673 4.28576 15.6136 4.24764C15.4612 4.13951 15.2455 4.13951 14.8139 4.13951C14.3824 4.13951 14.1667 4.13951 14.0143 4.24764C13.9606 4.28576 13.9136 4.33267 13.8755 4.38647C13.7673 4.53877 13.7673 4.75458 13.7673 5.18606C13.7673 5.61754 13.7673 5.83328 13.8755 5.98565C13.9136 6.03937 13.9606 6.08629 14.0143 6.12448Z" fill="black" fill-opacity="0.2"/>
<path fill-rule="evenodd" clip-rule="evenodd" d="M7.3163 10.6948C7.84191 10.7655 8.31648 10.9209 8.69783 11.3023C9.07911 11.6835 9.23454 12.1581 9.30518 12.6837C9.37214 13.1817 9.37214 13.8089 9.37207 14.5611V15.559C9.37207 16.0801 9.37207 16.5152 9.33839 16.8686C9.30327 17.2389 9.22681 17.584 9.03288 17.9006C8.84293 18.2104 8.5825 18.4709 8.2727 18.6607C7.95617 18.8547 7.61102 18.9311 7.24069 18.9663C6.88643 19 6.4502 19 5.92758 19H5.86612C5.07074 19 4.42926 19 3.91291 18.9509C3.38033 18.9003 2.9164 18.793 2.49916 18.5374C2.07671 18.2785 1.72153 17.9234 1.46263 17.5008C1.20694 17.0837 1.09972 16.6197 1.04906 16.0872C1 15.5707 1 14.9293 1 14.1339V14.0724C1 13.5498 1 13.1136 1.03367 12.7593C1.06888 12.389 1.14526 12.0438 1.33926 11.7273C1.52913 11.4175 1.78957 11.1571 2.09936 10.9671C2.41589 10.7732 2.76105 10.6968 3.13138 10.6616C3.48484 10.6279 3.91989 10.6279 4.44088 10.6279H5.43885C6.19107 10.6279 6.81832 10.6279 7.3163 10.6948ZM5.18606 15.8604C4.75451 15.8604 4.53877 15.8604 4.38648 15.7523C4.33268 15.7142 4.28577 15.6673 4.24765 15.6136C4.13952 15.4612 4.13952 15.2455 4.13952 14.8139C4.13952 14.3825 4.13952 14.1667 4.24765 14.0143C4.28577 13.9606 4.33268 13.9136 4.38648 13.8755C4.53878 13.7674 4.75452 13.7674 5.18607 13.7674C5.61763 13.7674 5.83329 13.7674 5.98566 13.8755C6.03939 13.9136 6.08638 13.9606 6.12449 14.0143C6.23255 14.1667 6.23255 14.3825 6.23255 14.8139C6.23255 15.2455 6.23255 15.4612 6.12449 15.6136C6.08638 15.6673 6.03939 15.7142 5.98566 15.7523C5.83329 15.8604 5.61753 15.8604 5.18606 15.8604Z" fill="#2F3036"/>
<path fill-rule="evenodd" clip-rule="evenodd" d="M7.3163 10.6948C7.84191 10.7655 8.31648 10.9209 8.69783 11.3023C9.07911 11.6835 9.23454 12.1581 9.30518 12.6837C9.37214 13.1817 9.37214 13.8089 9.37207 14.5611V15.559C9.37207 16.0801 9.37207 16.5152 9.33839 16.8686C9.30327 17.2389 9.22681 17.584 9.03288 17.9006C8.84293 18.2104 8.5825 18.4709 8.2727 18.6607C7.95617 18.8547 7.61102 18.9311 7.24069 18.9663C6.88643 19 6.4502 19 5.92758 19H5.86612C5.07074 19 4.42926 19 3.91291 18.9509C3.38033 18.9003 2.9164 18.793 2.49916 18.5374C2.07671 18.2785 1.72153 17.9234 1.46263 17.5008C1.20694 17.0837 1.09972 16.6197 1.04906 16.0872C1 15.5707 1 14.9293 1 14.1339V14.0724C1 13.5498 1 13.1136 1.03367 12.7593C1.06888 12.389 1.14526 12.0438 1.33926 11.7273C1.52913 11.4175 1.78957 11.1571 2.09936 10.9671C2.41589 10.7732 2.76105 10.6968 3.13138 10.6616C3.48484 10.6279 3.91989 10.6279 4.44088 10.6279H5.43885C6.19107 10.6279 6.81832 10.6279 7.3163 10.6948ZM5.18606 15.8604C4.75451 15.8604 4.53877 15.8604 4.38648 15.7523C4.33268 15.7142 4.28577 15.6673 4.24765 15.6136C4.13952 15.4612 4.13952 15.2455 4.13952 14.8139C4.13952 14.3825 4.13952 14.1667 4.24765 14.0143C4.28577 13.9606 4.33268 13.9136 4.38648 13.8755C4.53878 13.7674 4.75452 13.7674 5.18607 13.7674C5.61763 13.7674 5.83329 13.7674 5.98566 13.8755C6.03939 13.9136 6.08638 13.9606 6.12449 14.0143C6.23255 14.1667 6.23255 14.3825 6.23255 14.8139C6.23255 15.2455 6.23255 15.4612 6.12449 15.6136C6.08638 15.6673 6.03939 15.7142 5.98566 15.7523C5.83329 15.8604 5.61753 15.8604 5.18606 15.8604Z" fill="black" fill-opacity="0.2"/>
<path d="M10.6279 14.1861V14.1506C10.6279 13.5915 10.6279 13.1248 10.6663 12.7469C10.7067 12.3506 10.7944 11.9827 11.0159 11.6512C11.1838 11.3997 11.3997 11.1839 11.6511 11.0159C11.9827 10.7945 12.3505 10.7068 12.7469 10.6664C13.1248 10.6279 13.5915 10.6279 14.1506 10.6279H15.8604V11.8837H14.186C13.585 11.8837 13.1816 11.8845 12.8739 11.9157C12.5768 11.9459 12.4396 11.9994 12.3488 12.0601C12.2345 12.1364 12.1364 12.2345 12.0601 12.3488C11.9994 12.4396 11.9459 12.5769 11.9157 12.874C11.8845 13.1816 11.8837 13.5851 11.8837 14.1861H10.6279Z" fill="#2F3036"/>
<path d="M10.6279 14.1861V14.1506C10.6279 13.5915 10.6279 13.1248 10.6663 12.7469C10.7067 12.3506 10.7944 11.9827 11.0159 11.6512C11.1838 11.3997 11.3997 11.1839 11.6511 11.0159C11.9827 10.7945 12.3505 10.7068 12.7469 10.6664C13.1248 10.6279 13.5915 10.6279 14.1506 10.6279H15.8604V11.8837H14.186C13.585 11.8837 13.1816 11.8845 12.8739 11.9157C12.5768 11.9459 12.4396 11.9994 12.3488 12.0601C12.2345 12.1364 12.1364 12.2345 12.0601 12.3488C11.9994 12.4396 11.9459 12.5769 11.9157 12.874C11.8845 13.1816 11.8837 13.5851 11.8837 14.1861H10.6279Z" fill="black" fill-opacity="0.2"/>
<path d="M19 15.8816V15.8604H17.7441C17.7441 16.2591 17.7439 16.5267 17.7297 16.7339C17.716 16.9354 17.6913 17.0336 17.6645 17.0981C17.5583 17.3546 17.3546 17.5583 17.0981 17.6645C17.0336 17.6913 16.9354 17.716 16.7339 17.7297C16.5267 17.7439 16.2591 17.7441 15.8604 17.7441H14.1861V19H15.8816C16.2538 19 16.5643 19 16.8194 18.9826C17.0849 18.9646 17.3356 18.9255 17.5788 18.8247C18.1429 18.591 18.591 18.1429 18.8247 17.5788C18.9255 17.3356 18.9646 17.0849 18.9826 16.8194C19 16.5643 19 16.2538 19 15.8816Z" fill="#2F3036"/>
<path d="M19 15.8816V15.8604H17.7441C17.7441 16.2591 17.7439 16.5267 17.7297 16.7339C17.716 16.9354 17.6913 17.0336 17.6645 17.0981C17.5583 17.3546 17.3546 17.5583 17.0981 17.6645C17.0336 17.6913 16.9354 17.716 16.7339 17.7297C16.5267 17.7439 16.2591 17.7441 15.8604 17.7441H14.1861V19H15.8816C16.2538 19 16.5643 19 16.8194 18.9826C17.0849 18.9646 17.3356 18.9255 17.5788 18.8247C18.1429 18.591 18.591 18.1429 18.8247 17.5788C18.9255 17.3356 18.9646 17.0849 18.9826 16.8194C19 16.5643 19 16.2538 19 15.8816Z" fill="black" fill-opacity="0.2"/>
<path d="M11.2558 19C11.6026 19 11.8837 18.7188 11.8837 18.3721V15.8604H10.6279V18.3721C10.6279 18.7188 10.909 19 11.2558 19Z" fill="#2F3036"/>
<path d="M11.2558 19C11.6026 19 11.8837 18.7188 11.8837 18.3721V15.8604H10.6279V18.3721C10.6279 18.7188 10.909 19 11.2558 19Z" fill="black" fill-opacity="0.2"/>
<path d="M18.3721 10.6279C18.0253 10.6279 17.7441 10.909 17.7441 11.2558V14.1861H19V11.2558C19 10.909 18.7188 10.6279 18.3721 10.6279Z" fill="#2F3036"/>
<path d="M18.3721 10.6279C18.0253 10.6279 17.7441 10.909 17.7441 11.2558V14.1861H19V11.2558C19 10.909 18.7188 10.6279 18.3721 10.6279Z" fill="black" fill-opacity="0.2"/>
<path d="M13.6 14.95C13.6 14.5307 13.6 14.321 13.6685 14.1556C13.7599 13.9351 13.935 13.7599 14.1555 13.6685C14.321 13.6 14.5307 13.6 14.95 13.6C15.3693 13.6 15.579 13.6 15.7445 13.6685C15.9649 13.7599 16.1402 13.9351 16.2315 14.1556C16.3 14.321 16.3 14.5307 16.3 14.95C16.3 15.3693 16.3 15.579 16.2315 15.7445C16.1402 15.965 15.9649 16.1402 15.7445 16.2315C15.579 16.3 15.3693 16.3 14.95 16.3C14.5307 16.3 14.321 16.3 14.1555 16.2315C13.935 16.1402 13.7599 15.965 13.6685 15.7445C13.6 15.579 13.6 15.3693 13.6 14.95Z" fill="#2F3036"/>
<path d="M13.6 14.95C13.6 14.5307 13.6 14.321 13.6685 14.1556C13.7599 13.9351 13.935 13.7599 14.1555 13.6685C14.321 13.6 14.5307 13.6 14.95 13.6C15.3693 13.6 15.579 13.6 15.7445 13.6685C15.9649 13.7599 16.1402 13.9351 16.2315 14.1556C16.3 14.321 16.3 14.5307 16.3 14.95C16.3 15.3693 16.3 15.579 16.2315 15.7445C16.1402 15.965 15.9649 16.1402 15.7445 16.2315C15.579 16.3 15.3693 16.3 14.95 16.3C14.5307 16.3 14.321 16.3 14.1555 16.2315C13.935 16.1402 13.7599 15.965 13.6685 15.7445C13.6 15.579 13.6 15.3693 13.6 14.95Z" fill="black" fill-opacity="0.2"/>
</svg>
