<svg width="25" height="25" viewBox="0 0 25 25" fill="none" xmlns="http://www.w3.org/2000/svg">
<g clip-path="url(#clip0_1650_1042)">
<path fill-rule="evenodd" clip-rule="evenodd" d="M17.6964 0.614502H17.7767C18.8161 0.614502 19.6542 0.614502 20.329 0.678602C21.0248 0.744802 21.631 0.884902 22.1762 1.219C22.7282 1.5573 23.1923 2.0214 23.5306 2.5734C23.8646 3.1185 24.0048 3.7248 24.071 4.4207C24.1351 5.0954 24.1351 5.9336 24.1351 6.9729V7.0533C24.1351 7.7362 24.1351 8.3061 24.0911 8.769C24.0451 9.2529 23.9453 9.7039 23.6918 10.1175C23.4437 10.5223 23.1034 10.8626 22.6986 11.1108C22.2849 11.3642 21.834 11.464 21.3501 11.51C20.8872 11.5541 20.3172 11.554 19.6343 11.554H18.335C17.3521 11.5541 16.5325 11.5541 15.8818 11.4666C15.195 11.3743 14.5749 11.1712 14.0767 10.6729C13.5784 10.1747 13.3753 9.5546 13.283 8.8678C13.1955 8.2171 13.1955 7.3975 13.1956 6.4146V5.1153C13.1956 4.4324 13.1955 3.8624 13.2396 3.3995C13.2856 2.9156 13.3854 2.4646 13.6388 2.051C13.887 1.6462 14.2273 1.3059 14.6321 1.0578C15.0457 0.804302 15.4967 0.704502 15.9806 0.658502C16.4435 0.614502 17.0135 0.614502 17.6964 0.614502ZM18.6653 7.4517C18.1015 7.4517 17.8196 7.4517 17.6205 7.3105C17.5503 7.2606 17.4889 7.1993 17.4391 7.1291C17.2978 6.93 17.2978 6.6481 17.2978 6.0843C17.2978 5.5205 17.2978 5.2385 17.4391 5.0395C17.4889 4.9692 17.5503 4.9079 17.6205 4.8581C17.8196 4.7168 18.1015 4.7168 18.6653 4.7168C19.2292 4.7168 19.5111 4.7168 19.7102 4.8581C19.7804 4.9079 19.8417 4.9692 19.8915 5.0395C20.0328 5.2385 20.0328 5.5204 20.0328 6.0843C20.0328 6.6481 20.0328 6.93 19.8915 7.1291C19.8417 7.1993 19.7804 7.2606 19.7102 7.3105C19.5111 7.4517 19.2292 7.4517 18.6653 7.4517Z" fill="url(#paint0_linear_1650_1042)"/>
<path fill-rule="evenodd" clip-rule="evenodd" d="M10.118 1.0578C9.70439 0.804302 9.25339 0.704502 8.76949 0.658502C8.30659 0.614502 7.73669 0.614502 7.05369 0.614502H6.97349C5.93409 0.614502 5.09589 0.614502 4.42119 0.678702C3.72529 0.744802 3.11909 0.884902 2.57389 1.219C2.02189 1.5573 1.55779 2.0214 1.21949 2.5734C0.88539 3.1186 0.74529 3.7248 0.67919 4.4207C0.61499 5.0954 0.61499 5.9336 0.61499 6.9729V7.0532C0.61499 7.7361 0.61499 8.3061 0.65899 8.769C0.70499 9.2529 0.80479 9.7039 1.05829 10.1175C1.30639 10.5223 1.64669 10.8626 2.05149 11.1108C2.46509 11.3642 2.91609 11.464 3.39999 11.51C3.86289 11.5541 4.43279 11.554 5.11569 11.554H6.41509C7.39799 11.5541 8.21759 11.5541 8.86829 11.4666C9.55509 11.3743 10.1752 11.1712 10.6734 10.6729C11.1717 10.1747 11.3748 9.5546 11.4671 8.8678C11.5546 8.2171 11.5546 7.3975 11.5545 6.4147V5.1153C11.5545 4.4325 11.5546 3.8624 11.5105 3.3995C11.4645 2.9156 11.3647 2.4646 11.1113 2.051C10.8631 1.6462 10.5228 1.3059 10.118 1.0578ZM5.03999 7.3105C5.23899 7.4517 5.52089 7.4517 6.08479 7.4517C6.64859 7.4517 6.93049 7.4517 7.12959 7.3105C7.19979 7.2606 7.26109 7.1993 7.31099 7.1291C7.45219 6.93 7.45219 6.6481 7.45219 6.0843C7.45219 5.5205 7.45219 5.2385 7.31099 5.0395C7.26109 4.9692 7.19979 4.9079 7.12959 4.8581C6.93049 4.7168 6.64859 4.7168 6.08479 4.7168C5.52099 4.7168 5.23899 4.7168 5.03999 4.8581C4.96969 4.9079 4.90839 4.9692 4.85859 5.0395C4.71729 5.2385 4.71729 5.5204 4.71729 6.0843C4.71729 6.6481 4.71729 6.93 4.85859 7.1291C4.90839 7.1993 4.96969 7.2606 5.03999 7.3105Z" fill="url(#paint1_linear_1650_1042)"/>
<path fill-rule="evenodd" clip-rule="evenodd" d="M8.86829 13.2825C9.55509 13.3748 10.1752 13.5779 10.6735 14.0762C11.1717 14.5744 11.3748 15.1945 11.4671 15.8813C11.5546 16.532 11.5546 17.3516 11.5545 18.3345V19.6338C11.5545 20.3167 11.5546 20.8867 11.5105 21.3496C11.4646 21.8335 11.3647 22.2844 11.1113 22.6981C10.8631 23.1029 10.5228 23.4432 10.118 23.6912C9.70439 23.9448 9.25339 24.0446 8.76949 24.0906C8.30659 24.1346 7.73659 24.1346 7.05369 24.1346H6.97339C5.93409 24.1346 5.09589 24.1346 4.42119 24.0705C3.72529 24.0043 3.11909 23.8641 2.57389 23.5301C2.02189 23.1918 1.55779 22.7278 1.21949 22.1757C0.88539 21.6306 0.74529 21.0243 0.67909 20.3285C0.61499 19.6537 0.61499 18.8156 0.61499 17.7762V17.6959C0.61499 17.013 0.61499 16.443 0.65899 15.9801C0.70499 15.4962 0.80479 15.0452 1.05829 14.6316C1.30639 14.2268 1.64669 13.8865 2.05149 13.6383C2.46509 13.3849 2.91609 13.2851 3.39999 13.2391C3.86289 13.195 4.43289 13.1951 5.11569 13.1951H6.41509C7.39799 13.195 8.21759 13.195 8.86829 13.2825ZM6.08479 20.0322C5.52089 20.0322 5.23899 20.0322 5.03999 19.891C4.96969 19.8411 4.90839 19.7799 4.85859 19.7097C4.71729 19.5106 4.71729 19.2287 4.71729 18.6648C4.71729 18.101 4.71729 17.8191 4.85859 17.62C4.90839 17.5498 4.96969 17.4884 5.03999 17.4386C5.23899 17.2973 5.52089 17.2973 6.08479 17.2973C6.64869 17.2973 6.93049 17.2973 7.12959 17.4386C7.19979 17.4884 7.26119 17.5498 7.31099 17.62C7.45219 17.8191 7.45219 18.101 7.45219 18.6648C7.45219 19.2287 7.45219 19.5106 7.31099 19.7097C7.26119 19.7799 7.19979 19.8411 7.12959 19.891C6.93049 20.0322 6.64859 20.0322 6.08479 20.0322Z" fill="url(#paint2_linear_1650_1042)"/>
<path d="M13.1956 17.8024V17.8444H14.8365C14.8365 17.0591 14.8375 16.5319 14.8783 16.1299C14.9178 15.7417 14.9877 15.5624 15.067 15.4437C15.1667 15.2944 15.2949 15.1662 15.4442 15.0665C15.5629 14.9872 15.7422 14.9173 16.1304 14.8778C16.5324 14.837 17.0596 14.836 17.8449 14.836H20.0327V13.1951H17.8029C17.0704 13.1951 16.4592 13.195 15.9644 13.2453C15.4465 13.2981 14.9658 13.4127 14.5326 13.7021C14.2041 13.9215 13.922 14.2036 13.7026 14.5321C13.4132 14.9653 13.2986 15.446 13.2458 15.9639C13.1955 16.4587 13.1956 17.0699 13.1956 17.8024Z" fill="url(#paint3_linear_1650_1042)"/>
<path d="M24.1349 20.0599V20.0322H22.4939C22.4939 20.5532 22.4936 20.9028 22.4751 21.1736C22.4571 21.4369 22.4249 21.5652 22.3898 21.6495C22.2511 21.9846 21.9849 22.2508 21.6498 22.3895C21.5655 22.4246 21.4372 22.4568 21.1738 22.4748C20.9031 22.4933 20.5535 22.4936 20.0325 22.4936H17.8447V24.1346H20.0602C20.5465 24.1346 20.9523 24.1346 21.2856 24.1119C21.6325 24.0883 21.9601 24.0372 22.2778 23.9056C23.0149 23.6002 23.6005 23.0146 23.9059 22.2775C24.0375 21.9598 24.0886 21.6322 24.1122 21.2853C24.1349 20.952 24.1349 20.5462 24.1349 20.0599Z" fill="url(#paint4_linear_1650_1042)"/>
<path d="M14.8365 23.3141C14.8365 23.7672 14.4692 24.1346 14.016 24.1346C13.5629 24.1346 13.1956 23.7672 13.1956 23.3141V20.0322H14.8365V23.3141Z" fill="url(#paint5_linear_1650_1042)"/>
<path d="M23.3144 13.1951C22.8613 13.1951 22.4939 13.5624 22.4939 14.0155V17.8444H24.1349V14.0155C24.1349 13.5624 23.7675 13.1951 23.3144 13.1951Z" fill="url(#paint6_linear_1650_1042)"/>
<path d="M17.1686 17.8045C17.0791 18.0207 17.0791 18.2947 17.0791 18.8426C17.0791 19.3905 17.0791 19.6645 17.1686 19.8807C17.288 20.1688 17.5169 20.3978 17.805 20.5171C18.0212 20.6066 18.2952 20.6066 18.8431 20.6066C19.391 20.6066 19.665 20.6066 19.8812 20.5171C20.1693 20.3978 20.3983 20.1688 20.5176 19.8807C20.6071 19.6645 20.6071 19.3905 20.6071 18.8426C20.6071 18.2947 20.6071 18.0207 20.5176 17.8045C20.3983 17.5164 20.1693 17.2875 19.8812 17.1681C19.665 17.0786 19.391 17.0786 18.8431 17.0786C18.2952 17.0786 18.0212 17.0786 17.805 17.1681C17.5169 17.2875 17.288 17.5164 17.1686 17.8045Z" fill="url(#paint7_linear_1650_1042)"/>
</g>
<defs>
<linearGradient id="paint0_linear_1650_1042" x1="18.6653" y1="0.614502" x2="18.6653" y2="11.554" gradientUnits="userSpaceOnUse">
<stop stop-color="#FF8528"/>
<stop offset="1" stop-color="#E76400"/>
</linearGradient>
<linearGradient id="paint1_linear_1650_1042" x1="6.08474" y1="0.614502" x2="6.08474" y2="11.554" gradientUnits="userSpaceOnUse">
<stop stop-color="#FF8528"/>
<stop offset="1" stop-color="#E76400"/>
</linearGradient>
<linearGradient id="paint2_linear_1650_1042" x1="6.08474" y1="13.1951" x2="6.08474" y2="24.1346" gradientUnits="userSpaceOnUse">
<stop stop-color="#FF8528"/>
<stop offset="1" stop-color="#E76400"/>
</linearGradient>
<linearGradient id="paint3_linear_1650_1042" x1="16.6141" y1="13.1951" x2="16.6141" y2="17.8444" gradientUnits="userSpaceOnUse">
<stop stop-color="#FF8528"/>
<stop offset="1" stop-color="#E76400"/>
</linearGradient>
<linearGradient id="paint4_linear_1650_1042" x1="20.9898" y1="20.0322" x2="20.9898" y2="24.1346" gradientUnits="userSpaceOnUse">
<stop stop-color="#FF8528"/>
<stop offset="1" stop-color="#E76400"/>
</linearGradient>
<linearGradient id="paint5_linear_1650_1042" x1="14.016" y1="20.0322" x2="14.016" y2="24.1346" gradientUnits="userSpaceOnUse">
<stop stop-color="#FF8528"/>
<stop offset="1" stop-color="#E76400"/>
</linearGradient>
<linearGradient id="paint6_linear_1650_1042" x1="23.3144" y1="13.1951" x2="23.3144" y2="17.8444" gradientUnits="userSpaceOnUse">
<stop stop-color="#FF8528"/>
<stop offset="1" stop-color="#E76400"/>
</linearGradient>
<linearGradient id="paint7_linear_1650_1042" x1="18.8431" y1="17.0786" x2="18.8431" y2="20.6066" gradientUnits="userSpaceOnUse">
<stop stop-color="#FF8528"/>
<stop offset="1" stop-color="#E76400"/>
</linearGradient>
<clipPath id="clip0_1650_1042">
<rect width="24" height="24" fill="white" transform="translate(0.375 0.374512)"/>
</clipPath>
</defs>
</svg>
