<svg width="16" height="17" viewBox="0 0 16 17" fill="none" xmlns="http://www.w3.org/2000/svg">
<path d="M8.05388 1.7832C4.7765 1.7832 2.08225 4.2877 1.81956 7.48083H1.16281C0.955063 7.48083 0.767813 7.6062 0.688688 7.79833C0.609563 7.99045 0.654125 8.21133 0.801625 8.35764L1.95013 9.4972C2.15006 9.69552 2.47256 9.69552 2.6725 9.4972L3.821 8.35764C3.9685 8.21133 4.01313 7.99045 3.93394 7.79833C3.85481 7.6062 3.66763 7.48083 3.45981 7.48083H2.84938C3.109 4.86108 5.33675 2.80883 8.05388 2.80883C9.94744 2.80883 11.6049 3.80595 12.5231 5.29945C12.6714 5.5407 12.9873 5.61602 13.2285 5.4677C13.4698 5.31939 13.5451 5.00358 13.3968 4.76233C12.2985 2.97583 10.3159 1.7832 8.05388 1.7832Z" fill="#FD6E00"/>
<path d="M14.0448 7.40003C13.845 7.20259 13.5236 7.20259 13.3238 7.40003L12.1709 8.53959C12.023 8.68578 11.9781 8.90678 12.0571 9.09916C12.1361 9.29147 12.3234 9.41709 12.5314 9.41709H13.1461C12.8854 12.0353 10.6499 14.0891 7.91981 14.0891C6.01738 14.0891 4.35294 13.0911 3.43131 11.5977C3.28263 11.3567 2.96669 11.2819 2.72563 11.4307C2.48463 11.5794 2.40988 11.8953 2.55856 12.1363C3.66113 13.923 5.65075 15.1147 7.91981 15.1147C11.2069 15.1147 13.9124 12.6117 14.176 9.41709H14.8372C15.0451 9.41709 15.2325 9.29147 15.3115 9.09916C15.3906 8.90678 15.3456 8.68578 15.1977 8.53959L14.0448 7.40003Z" fill="#FD6E00"/>
</svg>
