<svg width="24" height="25" viewBox="0 0 24 25" fill="none" xmlns="http://www.w3.org/2000/svg">
<g clip-path="url(#clip0_1650_1062)">
<path fill-rule="evenodd" clip-rule="evenodd" d="M2.44604 3.83228V20.5518C2.44604 22.5306 4.05004 24.1346 6.02874 24.1346H17.9713C19.95 24.1346 21.554 22.5306 21.554 20.5518V8.60928C21.554 6.63058 19.95 5.02658 17.9713 5.02658H3.64024C2.98074 5.02658 2.44604 4.49188 2.44604 3.83228ZM6.32734 12.1921C6.32734 11.6974 6.72834 11.2964 7.22304 11.2964H16.777C17.2717 11.2964 17.6727 11.6974 17.6727 12.1921C17.6727 12.6868 17.2717 13.0878 16.777 13.0878H7.22304C6.72834 13.0878 6.32734 12.6867 6.32734 12.1921ZM6.32734 16.372C6.32734 15.8773 6.72834 15.4763 7.22304 15.4763H13.7914C14.286 15.4763 14.6871 15.8773 14.6871 16.372C14.6871 16.8667 14.286 17.2676 13.7914 17.2676H7.22304C6.72834 17.2676 6.32734 16.8666 6.32734 16.372Z" fill="url(#paint0_linear_1650_1062)"/>
<path d="M2.93408 2.74197C3.35028 2.92857 3.64008 3.34657 3.64008 3.83217H17.9712C18.3835 3.83217 18.7837 3.88447 19.1654 3.98267V3.00347C19.1654 1.54987 17.878 0.433366 16.4392 0.638966L3.54408 2.48107C3.31418 2.51387 3.10598 2.60657 2.93408 2.74197Z" fill="url(#paint1_linear_1650_1062)"/>
</g>
<defs>
<linearGradient id="paint0_linear_1650_1062" x1="12" y1="3.83228" x2="12" y2="24.1346" gradientUnits="userSpaceOnUse">
<stop stop-color="#FF616D"/>
<stop offset="1" stop-color="#ED3241"/>
</linearGradient>
<linearGradient id="paint1_linear_1650_1062" x1="11.0497" y1="0.614502" x2="11.0497" y2="3.98267" gradientUnits="userSpaceOnUse">
<stop stop-color="#FF616D"/>
<stop offset="1" stop-color="#ED3241"/>
</linearGradient>
<clipPath id="clip0_1650_1062">
<rect width="24" height="24" fill="white" transform="translate(0 0.374512)"/>
</clipPath>
</defs>
</svg>
