<svg width="25" height="25" viewBox="0 0 25 25" fill="none" xmlns="http://www.w3.org/2000/svg">
<g clip-path="url(#clip0_1650_1068)">
<path fill-rule="evenodd" clip-rule="evenodd" d="M10.273 2.96655H14.977C19.4119 2.96655 21.6295 2.96655 23.0072 4.34435C24.385 5.72205 24.385 7.93955 24.385 12.3746C24.385 16.8095 24.385 19.0271 23.0072 20.4048C21.6295 21.7826 19.4119 21.7826 14.977 21.7826H10.273C5.83799 21.7826 3.62049 21.7826 2.24279 20.4048C0.86499 19.0271 0.86499 16.8095 0.86499 12.3746C0.86499 7.93955 0.86499 5.72205 2.24279 4.34435C3.62049 2.96655 5.83799 2.96655 10.273 2.96655ZM14.095 8.84655C14.095 8.35945 14.4899 7.96455 14.977 7.96455H20.857C21.3441 7.96455 21.739 8.35945 21.739 8.84655C21.739 9.33365 21.3441 9.72855 20.857 9.72855H14.977C14.4899 9.72855 14.095 9.33365 14.095 8.84655ZM15.271 12.3746C15.271 11.8875 15.6659 11.4926 16.153 11.4926H20.857C21.3441 11.4926 21.739 11.8875 21.739 12.3746C21.739 12.8617 21.3441 13.2566 20.857 13.2566H16.153C15.6659 13.2566 15.271 12.8617 15.271 12.3746ZM16.447 15.9026C16.447 15.4155 16.8419 15.0206 17.329 15.0206H20.857C21.3441 15.0206 21.739 15.4155 21.739 15.9026C21.739 16.3897 21.3441 16.7846 20.857 16.7846H17.329C16.8419 16.7846 16.447 16.3897 16.447 15.9026ZM11.449 8.84655C11.449 10.1456 10.396 11.1986 9.09699 11.1986C7.79799 11.1986 6.74499 10.1456 6.74499 8.84655C6.74499 7.54755 7.79799 6.49455 9.09699 6.49455C10.396 6.49455 11.449 7.54755 11.449 8.84655ZM9.09699 18.2546C13.801 18.2546 13.801 17.2016 13.801 15.9026C13.801 14.6036 11.6949 13.5506 9.09699 13.5506C6.49909 13.5506 4.39299 14.6036 4.39299 15.9026C4.39299 17.2016 4.39299 18.2546 9.09699 18.2546Z" fill="url(#paint0_linear_1650_1068)"/>
</g>
<defs>
<linearGradient id="paint0_linear_1650_1068" x1="12.625" y1="2.96655" x2="12.625" y2="21.7826" gradientUnits="userSpaceOnUse">
<stop stop-color="#3A96C0"/>
<stop offset="1" stop-color="#296582"/>
</linearGradient>
<clipPath id="clip0_1650_1068">
<rect width="24" height="24" fill="white" transform="translate(0.625 0.374512)"/>
</clipPath>
</defs>
</svg>
