<svg width="16" height="16" viewBox="0 0 16 16" fill="none" xmlns="http://www.w3.org/2000/svg">
<g clip-path="url(#clip0_3758_29319)">
<path d="M8 1.25391C11.7257 1.25391 14.746 4.27422 14.746 7.99993C14.746 11.7256 11.7257 14.746 8 14.746C4.27429 14.746 1.25397 11.7256 1.25397 7.99993C1.25397 6.11281 2.02882 4.40661 3.27775 3.18228" stroke="#FD6E00" stroke-width="1.5" stroke-linecap="round"/>
<path d="M3.27776 7.99959C3.27776 10.6076 5.392 12.7218 8 12.7218C10.608 12.7218 12.7223 10.6076 12.7223 7.99959C12.7223 5.39159 10.608 3.27734 8 3.27734" stroke="#FD6E00" stroke-width="1.5" stroke-linecap="round"/>
<path d="M8 10.6976C9.49024 10.6976 10.6984 9.48949 10.6984 7.99919C10.6984 6.50889 9.49024 5.30078 8 5.30078" stroke="#FD6E00" stroke-width="1.5" stroke-linecap="round"/>
</g>
<defs>
<clipPath id="clip0_3758_29319">
<rect width="16" height="16" fill="white"/>
</clipPath>
</defs>
</svg>
