<svg viewBox="0 0 40 40" fill="none" xmlns="http://www.w3.org/2000/svg" id="Scanner--Streamline-Solar" height="40" width="40"><desc>Scanner Streamline Icon: https://streamlinehq.com</desc><path fill-rule="evenodd" clip-rule="evenodd" d="M3.3333333333333335 20c0 -7.856750000000001 0 -11.785116666666667 2.4407833333333335 -14.225883333333334C8.214883333333335 3.3333333333333335 12.14325 3.3333333333333335 20 3.3333333333333335c7.856666666666667 0 11.785166666666667 0 14.225833333333336 2.4407833333333335C36.66666666666667 8.214883333333335 36.66666666666667 12.14325 36.66666666666667 20c0 7.856666666666667 0 11.785166666666667 -2.4408333333333334 14.225833333333336C31.78516666666667 36.66666666666667 27.856666666666666 36.66666666666667 20 36.66666666666667c-7.856750000000001 0 -11.785116666666667 0 -14.225883333333334 -2.4408333333333334C3.3333333333333335 31.78516666666667 3.3333333333333335 27.856666666666666 3.3333333333333335 20Zm13.34 -10.413833333333335c0.6903333333333334 -0.003666666666666667 1.247 -0.5662666666666667 1.2433333333333334 -1.2566166666666667 -0.003666666666666667 -0.6903333333333334 -0.5663333333333334 -1.2470166666666669 -1.2566333333333333 -1.24335 -1.8029166666666667 0.00955 -3.300316666666667 0.05071666666666667 -4.52235 0.2645 -1.2531 0.2192166666666667 -2.3245833333333334 0.6367 -3.20195 1.4722833333333334 -0.7585000000000001 0.7223666666666667 -1.2658833333333335 1.45395 -1.5419666666666667 2.50495 -0.25023333333333336 0.9526166666666668 -0.29481666666666667 2.1246333333333336 -0.3065833333333334 3.6624999999999996 -0.0052833333333333335 0.6903333333333334 0.55005 1.25425 1.2403833333333334 1.2595333333333334 0.6903333333333334 0.0052833333333333335 1.25425 -0.5500666666666667 1.2595333333333334 -1.2404000000000002 0.0121 -1.5812833333333334 0.06630000000000001 -2.4437 0.22463333333333335 -3.046466666666667 0.1325 -0.5044000000000001 0.3435 -0.8491666666666666 0.8481333333333334 -1.3297666666666668 0.4032666666666667 -0.38408333333333333 0.9537 -0.6529833333333334 1.9086166666666669 -0.8200333333333334 0.9859833333333333 -0.17248333333333335 2.2827 -0.21748333333333333 4.10485 -0.22713333333333335Zm6.666833333333333 -2.499966666666667c-0.6903333333333334 -0.003666666666666667 -1.2530000000000001 0.553 -1.2566666666666668 1.24335 -0.003666666666666667 0.69035 0.553 1.2529500000000002 1.2433333333333334 1.2566166666666667 1.8221666666666667 0.009666666666666667 3.1188333333333333 0.054650000000000004 4.104666666666667 0.22715 0.955 0.16705 1.5053333333333334 0.43595000000000006 1.9086666666666667 0.8200000000000001 0.5046666666666667 0.4806 0.7156666666666667 0.8253833333333334 0.8481666666666667 1.3297833333333333 0.15833333333333335 0.6027666666666667 0.21250000000000002 1.4651833333333333 0.22449999999999998 3.046466666666667 0.005333333333333334 0.6903333333333334 0.5693333333333334 1.2456833333333335 1.2596666666666667 1.2404000000000002 0.6903333333333334 -0.0052833333333333335 1.2456666666666667 -0.5692 1.2403333333333333 -1.2595333333333334 -0.011833333333333335 -1.5378666666666667 -0.05633333333333333 -2.7098833333333334 -0.3066666666666667 -3.6624999999999996 -0.276 -1.0510000000000002 -0.7833333333333333 -1.7825833333333334 -1.5418333333333334 -2.50495 -0.8775 -0.8355833333333333 -1.9488333333333334 -1.25305 -3.202 -1.4722666666666668 -1.222 -0.21378333333333333 -2.719333333333333 -0.25495 -4.522166666666666 -0.2645166666666667ZM8.333333333333334 18.75016666666667c-0.69035 0 -1.25 0.5595 -1.25 1.25 0 0.6903333333333334 0.55965 1.25 1.25 1.25h23.333333333333336c0.6903333333333334 0 1.25 -0.5596666666666666 1.25 -1.25 0 -0.6905 -0.5596666666666666 -1.25 -1.25 -1.25H8.333333333333334Zm1.2537666666666667 6.2405c-0.0052833333333333335 -0.6903333333333334 -0.5692 -1.2456666666666667 -1.2595333333333334 -1.2405 -0.6903333333333334 0.005333333333333334 -1.2456666666666667 0.5691666666666667 -1.2403833333333334 1.2595 0.011766666666666668 1.538 0.056350000000000004 2.71 0.3065833333333334 3.662666666666667 0.27608333333333335 1.0508333333333333 0.7834666666666666 1.7825 1.5419666666666667 2.5048333333333335 0.8773500000000001 0.8356666666666667 1.9488166666666666 1.2530000000000001 3.2019 1.4723333333333333 1.222 0.21383333333333335 2.7193833333333335 0.255 4.5222500000000005 0.2645 0.6902833333333334 0.003666666666666667 1.2529500000000002 -0.553 1.2566166666666667 -1.2433333333333334 0.003666666666666667 -0.6903333333333334 -0.553 -1.2530000000000001 -1.2433333333333334 -1.2566666666666668 -1.8220833333333335 -0.009666666666666667 -3.1187666666666667 -0.054666666666666676 -4.104716666666667 -0.22716666666666668 -0.9548833333333334 -0.167 -1.5053166666666669 -0.43583333333333335 -1.9085833333333333 -0.8200000000000001 -0.5046333333333334 -0.48050000000000004 -0.7156333333333333 -0.8253333333333334 -0.8481333333333334 -1.3296666666666666 -0.15833333333333335 -0.6028333333333334 -0.21253333333333332 -1.4653333333333334 -0.22463333333333335 -3.0465000000000004Zm23.325733333333336 0.019000000000000003c0.005333333333333334 -0.6903333333333334 -0.55 -1.2541666666666667 -1.2403333333333333 -1.2595 -0.6903333333333334 -0.005166666666666667 -1.2543333333333335 0.5501666666666667 -1.2596666666666667 1.2405 -0.012 1.5811666666666666 -0.06616666666666667 2.4436666666666667 -0.22449999999999998 3.0465000000000004 -0.1325 0.5043333333333333 -0.3435 0.8491666666666666 -0.8481666666666667 1.3296666666666666 -0.4033333333333333 0.3841666666666667 -0.9536666666666668 0.653 -1.9086666666666667 0.8200000000000001 -0.9858333333333335 0.1725 -2.2825 0.21750000000000003 -4.104666666666667 0.22716666666666668 -0.6903333333333334 0.003666666666666667 -1.247 0.5663333333333334 -1.2433333333333334 1.2566666666666668 0.003666666666666667 0.6903333333333334 0.5663333333333334 1.247 1.2566666666666668 1.2433333333333334 1.8028333333333335 -0.009500000000000001 3.3001666666666667 -0.050666666666666665 4.522166666666666 -0.2645 1.2531666666666668 -0.21933333333333332 2.3245 -0.6366666666666667 3.202 -1.4723333333333333 0.7585000000000001 -0.7223333333333334 1.2658333333333334 -1.454 1.5418333333333334 -2.5048333333333335 0.25033333333333335 -0.9526666666666667 0.29483333333333334 -2.1246666666666667 0.3066666666666667 -3.662666666666667Z" fill="#000000" stroke-width="1"></path></svg>