<svg width="25" height="25" viewBox="0 0 25 25" fill="none" xmlns="http://www.w3.org/2000/svg">
<path fill-rule="evenodd" clip-rule="evenodd" d="M14.5862 1.51742C14.1779 1.34961 13.6602 1.34961 12.625 1.34961C11.5898 1.34961 11.0721 1.34961 10.6638 1.51742C10.1194 1.7413 9.68688 2.17048 9.46141 2.71077C9.35847 2.95742 9.31825 3.2443 9.30241 3.66261C9.27925 4.27752 8.96153 4.84658 8.42463 5.15427C7.88772 5.46186 7.23222 5.45042 6.68416 5.16289C6.31113 4.96723 6.04075 4.85848 5.77403 4.82361C5.18978 4.7473 4.59897 4.90442 4.13153 5.26039C3.78091 5.52739 3.52206 5.97233 3.00447 6.86202C2.48688 7.7518 2.22803 8.19664 2.17038 8.63155C2.09341 9.2113 2.25175 9.7977 2.61044 10.2617C2.77422 10.4735 3.00428 10.6514 3.36147 10.8741C3.88647 11.2015 4.22425 11.7593 4.22425 12.3746C4.22425 12.9899 3.88638 13.5476 3.36147 13.8749C3.00428 14.0977 2.77413 14.2758 2.61035 14.4875C2.25166 14.9515 2.09331 15.5378 2.17028 16.1176C2.22794 16.5524 2.48678 16.9974 3.00438 17.8871C3.52197 18.7768 3.78081 19.2218 4.13135 19.4887C4.59888 19.8447 5.18969 20.0018 5.77394 19.9255C6.04056 19.8907 6.31103 19.7819 6.68397 19.5863C7.23213 19.2988 7.88763 19.2873 8.42463 19.5949C8.96153 19.9026 9.27925 20.4717 9.30241 21.0867C9.31825 21.505 9.35847 21.7919 9.46141 22.0385C9.68697 22.5787 10.1194 23.008 10.6638 23.2318C11.0721 23.3996 11.5897 23.3996 12.625 23.3996C13.6603 23.3996 14.1779 23.3996 14.5862 23.2318C15.1306 23.008 15.563 22.5787 15.7885 22.0385C15.8914 21.7918 15.9318 21.5049 15.9476 21.0866C15.9708 20.4717 16.2884 19.9025 16.8253 19.5949C17.3622 19.2872 18.0178 19.2988 18.5659 19.5863C18.9389 19.7819 19.2093 19.8905 19.476 19.9254C20.0601 20.0018 20.6509 19.8447 21.1185 19.4887C21.4691 19.2217 21.7278 18.7768 22.2455 17.887C22.7631 16.9973 23.0219 16.5524 23.0796 16.1176C23.1565 15.5378 22.9982 14.9514 22.6396 14.4875C22.4757 14.2757 22.2456 14.0976 21.8884 13.8749C21.3635 13.5476 21.0257 12.9898 21.0257 12.3745C21.0257 11.7592 21.3635 11.2017 21.8884 10.8743C22.2457 10.6515 22.4758 10.4735 22.6397 10.2617C22.9983 9.7978 23.1566 9.21139 23.0798 8.63164C23.022 8.19673 22.7632 7.75189 22.2456 6.86211C21.728 5.97233 21.4693 5.52748 21.1186 5.26048C20.6511 4.90452 20.0602 4.74739 19.4761 4.8237C19.2093 4.85858 18.9389 4.96733 18.566 5.16298C18.0179 5.45052 17.3623 5.46195 16.8254 5.15436C16.2885 4.84667 15.9708 4.27752 15.9475 3.66261C15.9318 3.2443 15.8914 2.95742 15.7885 2.71086C15.563 2.17058 15.1306 1.7412 14.5862 1.51742ZM12.625 15.6821C14.4656 15.6821 15.9576 14.2013 15.9576 12.3746C15.9576 10.5479 14.4656 9.06711 12.625 9.06711C10.7844 9.06711 9.29228 10.5479 9.29228 12.3746C9.29228 14.2013 10.7844 15.6821 12.625 15.6821Z" fill="url(#paint0_linear_2378_29988)"/>
<defs>
<linearGradient id="paint0_linear_2378_29988" x1="12.625" y1="1.34961" x2="12.625" y2="23.3996" gradientUnits="userSpaceOnUse">
<stop stop-color="#3A96C0"/>
<stop offset="1" stop-color="#296582"/>
</linearGradient>
</defs>
</svg>
