<svg width="24" height="24" viewBox="0 0 24 24" fill="none" xmlns="http://www.w3.org/2000/svg">
<path fill-rule="evenodd" clip-rule="evenodd" d="M2.36711 4.27166C1.94531 4.87263 1.94531 6.65872 1.94531 10.2311V11.9904C1.94531 18.2892 6.68106 21.3459 9.65238 22.6439C10.4584 22.996 10.8613 23.172 12.0001 23.172C13.1389 23.172 13.5419 22.996 14.3478 22.6439C17.3191 21.3459 22.0549 18.2892 22.0549 11.9904V10.2311C22.0549 6.65872 22.0549 4.87253 21.6332 4.27166C21.2114 3.67078 19.5319 3.09584 16.173 1.94606L15.5331 1.72699C13.782 1.12773 12.9066 0.828003 12.0001 0.828003C11.0936 0.828003 10.2182 1.12773 8.46725 1.72708L7.82724 1.94606C4.46832 3.09584 2.78882 3.67078 2.36711 4.27166ZM13.6759 15.3516C13.6759 15.9686 13.1757 16.4688 12.5587 16.4688H11.4415C10.8245 16.4688 10.3243 15.9686 10.3243 15.3516V13.7861C9.32254 13.2065 8.64851 12.1233 8.64851 10.8828C8.64851 9.03173 10.149 7.5312 12.0001 7.5312C13.8512 7.5312 15.3517 9.03173 15.3517 10.8828C15.3517 12.1233 14.6777 13.2065 13.6759 13.7861V15.3516Z" fill="#FD6E00"/>
</svg>
