<svg width="20" height="20" viewBox="0 0 20 20" fill="none" xmlns="http://www.w3.org/2000/svg">
<path fill-rule="evenodd" clip-rule="evenodd" d="M1.66669 9.99996C1.66669 6.07158 1.66669 4.1074 2.88708 2.88702C4.10746 1.66663 6.07165 1.66663 10 1.66663C13.9284 1.66663 15.8926 1.66663 17.1129 2.88702C18.3334 4.1074 18.3334 6.07158 18.3334 9.99996C18.3334 13.9283 18.3334 15.8925 17.1129 17.1129C15.8926 18.3333 13.9284 18.3333 10 18.3333C6.07165 18.3333 4.10746 18.3333 2.88708 17.1129C1.66669 15.8925 1.66669 13.9283 1.66669 9.99996ZM14.1667 11.0416C14.4272 11.0416 14.6604 11.2032 14.7519 11.4472C14.8434 11.6911 14.7739 11.9662 14.5777 12.1375L11.7131 14.6375C11.453 14.8645 11.0582 14.8376 10.8312 14.5775C10.6043 14.3175 10.6311 13.9227 10.8912 13.6957L12.5 12.2916H5.83335C5.48818 12.2916 5.20835 12.0118 5.20835 11.6666C5.20835 11.3215 5.48818 11.0416 5.83335 11.0416H14.1667ZM9.16885 5.42233C9.39577 5.6824 9.36894 6.07722 9.10894 6.30418L7.50002 7.70829H14.1667C14.5119 7.70829 14.7917 7.98812 14.7917 8.33329C14.7917 8.67846 14.5119 8.95829 14.1667 8.95829H5.83335C5.57283 8.95829 5.33963 8.79671 5.24815 8.55271C5.15667 8.3088 5.2261 8.03371 5.4224 7.8624L8.28698 5.3624C8.54702 5.13543 8.94185 5.16227 9.16885 5.42233Z" fill="#2F3036"/>
<path fill-rule="evenodd" clip-rule="evenodd" d="M1.66669 9.99996C1.66669 6.07158 1.66669 4.1074 2.88708 2.88702C4.10746 1.66663 6.07165 1.66663 10 1.66663C13.9284 1.66663 15.8926 1.66663 17.1129 2.88702C18.3334 4.1074 18.3334 6.07158 18.3334 9.99996C18.3334 13.9283 18.3334 15.8925 17.1129 17.1129C15.8926 18.3333 13.9284 18.3333 10 18.3333C6.07165 18.3333 4.10746 18.3333 2.88708 17.1129C1.66669 15.8925 1.66669 13.9283 1.66669 9.99996ZM14.1667 11.0416C14.4272 11.0416 14.6604 11.2032 14.7519 11.4472C14.8434 11.6911 14.7739 11.9662 14.5777 12.1375L11.7131 14.6375C11.453 14.8645 11.0582 14.8376 10.8312 14.5775C10.6043 14.3175 10.6311 13.9227 10.8912 13.6957L12.5 12.2916H5.83335C5.48818 12.2916 5.20835 12.0118 5.20835 11.6666C5.20835 11.3215 5.48818 11.0416 5.83335 11.0416H14.1667ZM9.16885 5.42233C9.39577 5.6824 9.36894 6.07722 9.10894 6.30418L7.50002 7.70829H14.1667C14.5119 7.70829 14.7917 7.98812 14.7917 8.33329C14.7917 8.67846 14.5119 8.95829 14.1667 8.95829H5.83335C5.57283 8.95829 5.33963 8.79671 5.24815 8.55271C5.15667 8.3088 5.2261 8.03371 5.4224 7.8624L8.28698 5.3624C8.54702 5.13543 8.94185 5.16227 9.16885 5.42233Z" fill="black" fill-opacity="0.2"/>
</svg>
