<svg width="100" height="100" viewBox="0 0 100 100" fill="none" xmlns="http://www.w3.org/2000/svg">
<path d="M7.40251 19.5285C8.27656 15.4498 8.7138 13.4095 9.60287 11.7555C11.4775 8.26846 14.8496 5.688 18.8811 4.65675C20.7941 4.16724 23.025 4.16724 27.4862 4.16724H72.5135C76.9747 4.16724 79.2051 4.16724 81.1186 4.65675C85.1497 5.688 88.5222 8.26846 90.3964 11.7555C91.2859 13.4103 91.7235 15.4517 92.5984 19.5342L95.5362 33.2429C97.3962 41.9228 90.2824 50.0212 80.7983 50.0212C73.076 50.0212 66.6107 44.5605 65.8423 37.3897L65.4836 34.052C66.3998 42.6021 59.2054 50.0212 49.9986 50.0212C40.854 50.0212 33.6951 42.7019 34.496 34.2251L34.1573 37.3897C33.389 44.5605 26.9233 50.0212 19.2018 50.0212C9.71687 50.0212 2.60347 41.9228 4.46346 33.2429L7.40251 19.5285Z" fill="#2F3036"/>
<path d="M7.40251 19.5285C8.27656 15.4498 8.7138 13.4095 9.60287 11.7555C11.4775 8.26846 14.8496 5.688 18.8811 4.65675C20.7941 4.16724 23.025 4.16724 27.4862 4.16724H72.5135C76.9747 4.16724 79.2051 4.16724 81.1186 4.65675C85.1497 5.688 88.5222 8.26846 90.3964 11.7555C91.2859 13.4103 91.7235 15.4517 92.5984 19.5342L95.5362 33.2429C97.3962 41.9228 90.2824 50.0212 80.7983 50.0212C73.076 50.0212 66.6107 44.5605 65.8423 37.3897L65.4836 34.052C66.3998 42.6021 59.2054 50.0212 49.9986 50.0212C40.854 50.0212 33.6951 42.7019 34.496 34.2251L34.1573 37.3897C33.389 44.5605 26.9233 50.0212 19.2018 50.0212C9.71687 50.0212 2.60347 41.9228 4.46346 33.2429L7.40251 19.5285Z" fill="black" fill-opacity="0.2"/>
<path d="M91.7603 54.234C88.541 55.9247 84.811 56.8978 80.7966 56.8978C74.9143 56.8978 69.5218 54.7718 65.5016 51.2661C61.4367 54.7519 56.0079 56.8978 49.9969 56.8978C43.9868 56.8978 38.5584 54.7523 34.4939 51.2673C30.4737 54.7722 25.0816 56.8978 19.2001 56.8978C15.1849 56.8978 11.4553 55.9247 8.23605 54.2336V59.1907C8.23605 76.4834 8.23605 85.1297 13.9922 90.5019C18.6255 94.8261 25.5326 95.6698 37.7153 95.8339V79.8254C37.7153 75.5394 37.7153 73.3967 38.7025 71.8011C39.3494 70.755 40.2798 69.8871 41.4002 69.283C43.1103 68.362 45.4062 68.362 49.9982 68.362C54.5901 68.362 56.8861 68.362 58.5961 69.283C59.7166 69.8871 60.647 70.755 61.2934 71.8011C62.281 73.3967 62.281 75.5394 62.281 79.8254V95.8339C74.4637 95.6698 81.3704 94.8261 86.0041 90.5019C91.7603 85.1297 91.7603 76.4838 91.7603 59.1907V54.234Z" fill="#2F3036"/>
<path d="M91.7603 54.234C88.541 55.9247 84.811 56.8978 80.7966 56.8978C74.9143 56.8978 69.5218 54.7718 65.5016 51.2661C61.4367 54.7519 56.0079 56.8978 49.9969 56.8978C43.9868 56.8978 38.5584 54.7523 34.4939 51.2673C30.4737 54.7722 25.0816 56.8978 19.2001 56.8978C15.1849 56.8978 11.4553 55.9247 8.23605 54.2336V59.1907C8.23605 76.4834 8.23605 85.1297 13.9922 90.5019C18.6255 94.8261 25.5326 95.6698 37.7153 95.8339V79.8254C37.7153 75.5394 37.7153 73.3967 38.7025 71.8011C39.3494 70.755 40.2798 69.8871 41.4002 69.283C43.1103 68.362 45.4062 68.362 49.9982 68.362C54.5901 68.362 56.8861 68.362 58.5961 69.283C59.7166 69.8871 60.647 70.755 61.2934 71.8011C62.281 73.3967 62.281 75.5394 62.281 79.8254V95.8339C74.4637 95.6698 81.3704 94.8261 86.0041 90.5019C91.7603 85.1297 91.7603 76.4838 91.7603 59.1907V54.234Z" fill="black" fill-opacity="0.2"/>
</svg>
