<svg width="20" height="20" viewBox="0 0 20 20" fill="none" xmlns="http://www.w3.org/2000/svg">
<path d="M14.9394 9.02374H5.08389L4.75771 11.3536H15.2423L14.9394 9.02374ZM2.66078 16.6192L3.68595 9.02374H1.61232C1.30167 9.02374 1.05702 8.89946 0.878396 8.65096C0.699772 8.40245 0.649287 8.13059 0.726952 7.83549L2.055 3.17567C2.11713 2.97375 2.22586 2.81066 2.38119 2.68639C2.53652 2.56213 2.72291 2.5 2.94036 2.5H17.0596C17.277 2.5 17.4634 2.56213 17.6188 2.68639C17.7741 2.81066 17.8828 2.97375 17.945 3.17567L19.273 7.83549C19.3507 8.13059 19.3002 8.40245 19.1216 8.65096C18.9429 8.89946 18.6983 9.02374 18.3877 9.02374H16.3373L17.3625 16.6192C17.3935 16.8367 17.3392 17.0231 17.1994 17.1784C17.0596 17.3337 16.881 17.4114 16.6635 17.4114C16.4927 17.4114 16.3451 17.3532 16.2209 17.2367C16.0966 17.1202 16.0189 16.9765 15.9879 16.8056L15.4287 12.7516H4.57131L4.01214 16.8056C3.98106 16.9765 3.90338 17.1202 3.77915 17.2367C3.65487 17.3532 3.50729 17.4114 3.33645 17.4114C3.11899 17.4114 2.94425 17.3337 2.81222 17.1784C2.68019 17.0231 2.62971 16.8367 2.66078 16.6192Z" fill="#2F3036"/>
<path d="M14.9394 9.02374H5.08389L4.75771 11.3536H15.2423L14.9394 9.02374ZM2.66078 16.6192L3.68595 9.02374H1.61232C1.30167 9.02374 1.05702 8.89946 0.878396 8.65096C0.699772 8.40245 0.649287 8.13059 0.726952 7.83549L2.055 3.17567C2.11713 2.97375 2.22586 2.81066 2.38119 2.68639C2.53652 2.56213 2.72291 2.5 2.94036 2.5H17.0596C17.277 2.5 17.4634 2.56213 17.6188 2.68639C17.7741 2.81066 17.8828 2.97375 17.945 3.17567L19.273 7.83549C19.3507 8.13059 19.3002 8.40245 19.1216 8.65096C18.9429 8.89946 18.6983 9.02374 18.3877 9.02374H16.3373L17.3625 16.6192C17.3935 16.8367 17.3392 17.0231 17.1994 17.1784C17.0596 17.3337 16.881 17.4114 16.6635 17.4114C16.4927 17.4114 16.3451 17.3532 16.2209 17.2367C16.0966 17.1202 16.0189 16.9765 15.9879 16.8056L15.4287 12.7516H4.57131L4.01214 16.8056C3.98106 16.9765 3.90338 17.1202 3.77915 17.2367C3.65487 17.3532 3.50729 17.4114 3.33645 17.4114C3.11899 17.4114 2.94425 17.3337 2.81222 17.1784C2.68019 17.0231 2.62971 16.8367 2.66078 16.6192Z" fill="black" fill-opacity="0.2"/>
</svg>
