<svg width="12" height="13" viewBox="0 0 12 13" fill="none" xmlns="http://www.w3.org/2000/svg">
<path d="M8.53962 6.02067H3.47243L3.30473 7.21859H8.69535L8.53962 6.02067ZM2.22659 9.92588L2.75368 6.02067H1.68753C1.52781 6.02067 1.40203 5.95677 1.31019 5.829C1.21835 5.70123 1.19239 5.56146 1.23232 5.40973L1.91514 3.0139C1.94708 2.91008 2.00298 2.82623 2.08284 2.76234C2.16271 2.69845 2.25854 2.6665 2.37034 2.6665H9.62973C9.74152 2.6665 9.83735 2.69845 9.91723 2.76234C9.99708 2.82623 10.053 2.91008 10.0849 3.0139L10.7677 5.40973C10.8077 5.56146 10.7817 5.70123 10.6899 5.829C10.598 5.95677 10.4722 6.02067 10.3125 6.02067H9.25837L9.78545 9.92588C9.80141 10.0377 9.77348 10.1335 9.7016 10.2134C9.62973 10.2932 9.53787 10.3332 9.42608 10.3332C9.33822 10.3332 9.26235 10.3032 9.19848 10.2433C9.13458 10.1834 9.09464 10.1096 9.07868 10.0217L8.79118 7.93734H3.20889L2.92139 10.0217C2.90541 10.1096 2.86547 10.1834 2.8016 10.2433C2.7377 10.3032 2.66183 10.3332 2.57399 10.3332C2.46219 10.3332 2.37234 10.2932 2.30446 10.2134C2.23658 10.1335 2.21062 10.0377 2.22659 9.92588Z" fill="#8F9098"/>
</svg>
