<svg width="25" height="24" viewBox="0 0 25 24" fill="none" xmlns="http://www.w3.org/2000/svg">
<path d="M17.5792 11.0418H7.44487L7.10945 13.4377H17.8907L17.5792 11.0418ZM4.95319 18.8522L6.00737 11.0418H3.87506C3.55562 11.0418 3.30405 10.914 3.12037 10.6585C2.9367 10.403 2.88478 10.1234 2.96465 9.81996L4.33027 5.02829C4.39416 4.82065 4.50597 4.65294 4.66569 4.52516C4.82541 4.39738 5.01707 4.3335 5.24069 4.3335H19.7595C19.983 4.3335 20.1747 4.39738 20.3345 4.52516C20.4942 4.65294 20.6059 4.82065 20.6699 5.02829L22.0355 9.81996C22.1153 10.1234 22.0634 10.403 21.8798 10.6585C21.6961 10.914 21.4445 11.0418 21.1251 11.0418H19.0167L20.0709 18.8522C20.1028 19.0759 20.047 19.2675 19.9032 19.4272C19.7595 19.587 19.5757 19.6668 19.3522 19.6668C19.1764 19.6668 19.0247 19.6069 18.897 19.4871C18.7692 19.3674 18.6893 19.2196 18.6574 19.0439L18.0824 14.8752H6.91779L6.34278 19.0439C6.31082 19.2196 6.23095 19.3674 6.1032 19.4871C5.97541 19.6069 5.82366 19.6668 5.64798 19.6668C5.42437 19.6668 5.24468 19.587 5.10892 19.4272C4.97315 19.2675 4.92125 19.0759 4.95319 18.8522Z" fill="#FD6E00"/>
</svg>
