<svg width="20" height="20" viewBox="0 0 20 20" fill="none" xmlns="http://www.w3.org/2000/svg">
<path fill-rule="evenodd" clip-rule="evenodd" d="M1.11038 10.7344C1.36916 11.6367 2.06466 12.3323 3.45563 13.7232L5.10231 15.3698C7.5224 17.7899 8.73244 19 10.2361 19C11.7397 19 12.9498 17.7899 15.3698 15.3698C17.7899 12.9498 19 11.7397 19 10.2361C19 8.73244 17.7899 7.5224 15.3698 5.10231L13.7232 3.45563C12.3323 2.06466 11.6367 1.36916 10.7344 1.11038C9.83206 0.851583 8.87365 1.07275 6.95688 1.51508L5.85151 1.77017C4.23892 2.1423 3.43263 2.32837 2.8805 2.8805C2.32837 3.43263 2.1423 4.23893 1.77017 5.85151L1.51508 6.95688C1.07275 8.87365 0.851583 9.83206 1.11038 10.7344ZM8.31106 5.74388C9.0199 6.45271 9.0199 7.60194 8.31106 8.31079C7.60223 9.01963 6.45299 9.01963 5.74416 8.31079C5.03534 7.60194 5.03534 6.45271 5.74416 5.74388C6.45299 5.03505 7.60223 5.03505 8.31106 5.74388ZM16.346 10.046L10.0649 16.3273C9.80128 16.5909 9.37387 16.5909 9.11026 16.3273C8.84665 16.0637 8.84665 15.6363 9.11026 15.3727L15.3914 9.09136C15.655 8.82775 16.0824 8.82775 16.346 9.09136C16.6096 9.35497 16.6096 9.78238 16.346 10.046Z" fill="#2F3036"/>
<path fill-rule="evenodd" clip-rule="evenodd" d="M1.11038 10.7344C1.36916 11.6367 2.06466 12.3323 3.45563 13.7232L5.10231 15.3698C7.5224 17.7899 8.73244 19 10.2361 19C11.7397 19 12.9498 17.7899 15.3698 15.3698C17.7899 12.9498 19 11.7397 19 10.2361C19 8.73244 17.7899 7.5224 15.3698 5.10231L13.7232 3.45563C12.3323 2.06466 11.6367 1.36916 10.7344 1.11038C9.83206 0.851583 8.87365 1.07275 6.95688 1.51508L5.85151 1.77017C4.23892 2.1423 3.43263 2.32837 2.8805 2.8805C2.32837 3.43263 2.1423 4.23893 1.77017 5.85151L1.51508 6.95688C1.07275 8.87365 0.851583 9.83206 1.11038 10.7344ZM8.31106 5.74388C9.0199 6.45271 9.0199 7.60194 8.31106 8.31079C7.60223 9.01963 6.45299 9.01963 5.74416 8.31079C5.03534 7.60194 5.03534 6.45271 5.74416 5.74388C6.45299 5.03505 7.60223 5.03505 8.31106 5.74388ZM16.346 10.046L10.0649 16.3273C9.80128 16.5909 9.37387 16.5909 9.11026 16.3273C8.84665 16.0637 8.84665 15.6363 9.11026 15.3727L15.3914 9.09136C15.655 8.82775 16.0824 8.82775 16.346 9.09136C16.6096 9.35497 16.6096 9.78238 16.346 10.046Z" fill="black" fill-opacity="0.2"/>
</svg>
