<svg width="16" height="16" viewBox="0 0 16 16" fill="none" xmlns="http://www.w3.org/2000/svg">
<path d="M1.38501 3.87361C1.38501 3.51754 1.63882 3.22886 1.95201 3.22886L3.9102 3.22854C4.29926 3.21729 4.64251 2.93598 4.77488 2.51986C4.77838 2.50892 4.78238 2.49542 4.7967 2.44642L4.88107 2.15854C4.93276 1.98204 4.9777 1.82823 5.0407 1.69079C5.28932 1.14779 5.74945 0.770669 6.28113 0.674169C6.4157 0.649732 6.55826 0.649794 6.72188 0.649919H9.2782C9.44182 0.649794 9.58432 0.649732 9.71889 0.674169C10.2506 0.770732 10.7107 1.14779 10.9593 1.69079C11.0223 1.82823 11.0673 1.98204 11.1189 2.15854L11.2033 2.44642C11.2176 2.49542 11.2216 2.50892 11.2251 2.51986C11.3576 2.93598 11.7689 3.21767 12.1579 3.22886H14.0479C14.3611 3.22886 14.6149 3.51754 14.6149 3.87361C14.6149 4.22967 14.3611 4.51836 14.0479 4.51836H1.95201C1.63882 4.51829 1.38501 4.22967 1.38501 3.87361Z" fill="#ED3241"/>
<path fill-rule="evenodd" clip-rule="evenodd" d="M7.70281 15.3498H8.29731C10.3426 15.3498 11.3652 15.3498 12.0301 14.6987C12.6951 14.0476 12.7631 12.9794 12.8991 10.8432L13.0951 7.76512C13.169 6.60599 13.2059 6.02649 12.8723 5.65924C12.5387 5.29199 11.9754 5.29199 10.8489 5.29199H5.15124C4.02468 5.29199 3.46137 5.29199 3.12781 5.65924C2.79424 6.02649 2.83118 6.60599 2.90499 7.76512L3.10099 10.8432C3.23706 12.9794 3.30506 14.0476 3.96999 14.6987C4.63487 15.3498 5.65756 15.3498 7.70281 15.3498ZM6.71112 8.13837C6.68081 7.81955 6.41068 7.58687 6.10774 7.61874C5.80481 7.65062 5.58374 7.93499 5.61406 8.25387L5.98156 12.1223C6.01187 12.4411 6.28199 12.6738 6.58487 12.6419C6.88787 12.6101 7.10887 12.3257 7.07862 12.0068L6.71112 8.13837ZM9.89237 7.61874C10.1954 7.65062 10.4164 7.93499 10.3861 8.25387L10.0186 12.1223C9.98831 12.4411 9.71812 12.6738 9.41524 12.6419C9.11224 12.6101 8.89124 12.3257 8.92149 12.0068L9.28899 8.13837C9.31931 7.81955 9.58949 7.58687 9.89237 7.61874Z" fill="#ED3241"/>
</svg>
