<svg width="24" height="24" viewBox="0 0 24 24" fill="currentColor" xmlns="http://www.w3.org/2000/svg">
<path d="M2.92765 4.84341C2.45787 4.84341 2.07715 5.27644 2.07715 5.81053C2.07715 6.34463 2.45787 6.77756 2.92765 6.77766H21.0716C21.5412 6.77766 21.9221 6.34463 21.9221 5.81053C21.9221 5.27644 21.5412 4.84341 21.0716 4.84341H18.2365C17.653 4.82663 17.036 4.40409 16.8373 3.77991C16.8321 3.7635 16.8261 3.74325 16.8045 3.66975L16.678 3.23794C16.6006 2.97319 16.5331 2.74247 16.4386 2.53631C16.0657 1.72181 15.3755 1.15622 14.578 1.01138C14.3761 0.97472 14.1624 0.974814 13.9169 0.975001H10.0825C9.83702 0.974814 9.62318 0.97472 9.42134 1.01138C8.6238 1.15613 7.93362 1.72181 7.56068 2.53631C7.46662 2.74152 7.3994 2.97105 7.32232 3.23427L7.19468 3.66975C7.17321 3.74325 7.16721 3.7635 7.16196 3.77991C6.9634 4.40409 6.44852 4.82606 5.86493 4.84294L2.92765 4.84341Z" fill="currentColor"/>
<path fill-rule="evenodd" clip-rule="evenodd" d="M12.4455 23.025H11.5538C8.48591 23.025 6.95188 23.025 5.95456 22.0483C4.95721 21.0717 4.85517 19.4696 4.65109 16.2656L4.35706 11.648C4.24637 9.90964 4.19099 9.03999 4.69128 8.48917C5.19163 7.93829 6.0366 7.93829 7.72644 7.93829H16.273C17.9627 7.93829 18.8077 7.93829 19.308 8.48917C19.8084 9.04004 19.7531 9.90929 19.6423 11.648L19.3483 16.2651C19.1442 19.4691 19.0421 21.0717 18.0448 22.0483C17.0474 23.025 15.5134 23.025 12.4455 23.025ZM9.16119 11.4284C9.6156 11.3806 10.0208 11.7296 10.0663 12.2079L10.6175 18.0105C10.6629 18.4888 10.3314 18.9154 9.87688 18.9632C9.42256 19.011 9.01738 18.662 8.97191 18.1838L8.42066 12.3811C8.37519 11.9028 8.70678 11.4762 9.16119 11.4284ZM15.5787 12.3811C15.6241 11.9028 15.2926 11.4762 14.8381 11.4284C14.3838 11.3806 13.9785 11.7296 13.9331 12.2079L13.3818 18.0105C13.3364 18.4888 13.6679 18.9154 14.1224 18.9632C14.5768 19.011 14.982 18.662 15.0274 18.1838L15.5787 12.3811Z" fill="currentColor"/>
</svg>
