<svg width="20" height="20" viewBox="0 0 20 20" fill="none" xmlns="http://www.w3.org/2000/svg">
<path d="M6.91663 5.3763C6.91663 5.78121 6.99638 6.18216 7.15133 6.55624C7.30628 6.93033 7.5334 7.27023 7.81971 7.55655C8.10603 7.84286 8.44593 8.06998 8.82002 8.22493C9.19411 8.37988 9.59505 8.45964 9.99996 8.45964C10.4049 8.45964 10.8058 8.37988 11.1799 8.22493C11.554 8.06998 11.8939 7.84286 12.1802 7.55655C12.4665 7.27023 12.6936 6.93033 12.8486 6.55624C13.0035 6.18216 13.0833 5.78121 13.0833 5.3763C13.0833 4.97139 13.0035 4.57045 12.8486 4.19636C12.6936 3.82227 12.4665 3.48237 12.1802 3.19606C11.8939 2.90974 11.554 2.68263 11.1799 2.52767C10.8058 2.37272 10.4049 2.29297 9.99996 2.29297C9.59505 2.29297 9.19411 2.37272 8.82002 2.52767C8.44593 2.68263 8.10603 2.90974 7.81971 3.19606C7.5334 3.48237 7.30628 3.82227 7.15133 4.19636C6.99638 4.57045 6.91663 4.97139 6.91663 5.3763Z" stroke="#2F3036" stroke-width="1.5"/>
<path d="M16.1667 14.2383C16.1667 16.154 16.1667 17.707 10 17.707C3.83337 17.707 3.83337 16.154 3.83337 14.2383C3.83337 12.3225 6.59428 10.7695 10 10.7695C13.4058 10.7695 16.1667 12.3225 16.1667 14.2383Z" stroke="#2F3036" stroke-width="1.5"/>
</svg>
