<svg width="24" height="24" viewBox="0 0 24 24" fill="none" xmlns="http://www.w3.org/2000/svg">
<path fill-rule="evenodd" clip-rule="evenodd" d="M21.2731 8.01883C21.2128 8.01498 21.1471 8.01508 21.0793 8.01508H21.0623H18.3966C16.1994 8.01508 14.3193 9.74458 14.3193 12C14.3193 14.2554 16.1994 15.985 18.3966 15.985H21.0623H21.0793C21.1471 15.985 21.2128 15.985 21.2731 15.9812C22.1656 15.9248 22.9547 15.2264 23.0212 14.2509C23.0255 14.1869 23.0254 14.118 23.0254 14.0541V14.0368V9.96329V9.94595C23.0254 9.88201 23.0255 9.81311 23.0212 9.74908C22.9547 8.77361 22.1656 8.07517 21.2731 8.01883ZM18.1603 13.0627C18.726 13.0627 19.1845 12.5869 19.1845 12C19.1845 11.4131 18.726 10.9374 18.1603 10.9374C17.5946 10.9374 17.1361 11.4131 17.1361 12C17.1361 12.5869 17.5947 13.0627 18.1603 13.0627Z" fill="#FD6E00"/>
<path fill-rule="evenodd" clip-rule="evenodd" d="M21.0777 17.5789C21.2361 17.5748 21.3561 17.7216 21.3131 17.8741C21.0998 18.6311 20.7612 19.2765 20.2179 19.8199C19.4226 20.615 18.4142 20.9679 17.1683 21.1355C15.9577 21.2982 14.411 21.2982 12.458 21.2982H10.2128C8.25992 21.2982 6.71314 21.2982 5.50255 21.1355C4.2567 20.9679 3.24823 20.615 2.45305 19.8199C1.65777 19.0245 1.3048 18.0161 1.13736 16.7703C0.974609 15.5597 0.974609 14.0129 0.974609 12.0599V11.9401C0.974609 9.98719 0.974609 8.44031 1.13736 7.22972C1.3048 5.98388 1.65777 4.9755 2.45305 4.18022C3.24823 3.38494 4.2567 3.03206 5.50255 2.86453C6.71314 2.70178 8.25992 2.70178 10.2128 2.70178H12.458C14.411 2.70178 15.9577 2.70178 17.1683 2.86453C18.4142 3.03206 19.4226 3.38494 20.2179 4.18022C20.7612 4.7235 21.0997 5.36878 21.3131 6.12581C21.3561 6.27844 21.2361 6.42516 21.0777 6.42113H18.3957C15.3814 6.42113 12.7245 8.80238 12.7245 12C12.7245 15.1976 15.3814 17.5789 18.3957 17.5789H21.0777ZM4.95955 6.95241C4.51939 6.95241 4.16258 7.30922 4.16258 7.74938C4.16258 8.18953 4.51939 8.54634 4.95955 8.54634H9.21017C9.65033 8.54634 10.0071 8.18953 10.0071 7.74938C10.0071 7.30922 9.65033 6.95241 9.21017 6.95241H4.95955Z" fill="#FD6E00"/>
</svg>
